<?xml version="1.0" encoding="UTF-8" standalone="no"?>
<!-- Created with Inkscape (http://www.inkscape.org/) -->
<svg
   xmlns:dc="http://purl.org/dc/elements/1.1/"
   xmlns:cc="http://creativecommons.org/ns#"
   xmlns:rdf="http://www.w3.org/1999/02/22-rdf-syntax-ns#"
   xmlns:svg="http://www.w3.org/2000/svg"
   xmlns="http://www.w3.org/2000/svg"
   xmlns:sodipodi="http://sodipodi.sourceforge.net/DTD/sodipodi-0.dtd"
   xmlns:inkscape="http://www.inkscape.org/namespaces/inkscape"
   width="256"
   height="256"
   id="svg2"
   sodipodi:version="0.32"
   inkscape:version="0.46"
   version="1.0"
   sodipodi:docname="SnailTrail.svg"
   inkscape:output_extension="org.inkscape.output.svg.inkscape"
   inkscape:export-filename="/home/alex/Projects/Cargo/Textures/SnailTrail.png"
   inkscape:export-xdpi="180"
   inkscape:export-ydpi="180">
  <defs
     id="defs4">
    <inkscape:perspective
       sodipodi:type="inkscape:persp3d"
       inkscape:vp_x="0 : 32 : 1"
       inkscape:vp_y="0 : 1000 : 0"
       inkscape:vp_z="64 : 32 : 1"
       inkscape:persp3d-origin="32 : 21.333333 : 1"
       id="perspective36" />
  </defs>
  <sodipodi:namedview
     id="base"
     pagecolor="#8d8d8d"
     bordercolor="#666666"
     borderopacity="1.0"
     gridtolerance="10000"
     guidetolerance="10"
     objecttolerance="10"
     inkscape:pageopacity="0"
     inkscape:pageshadow="2"
     inkscape:zoom="2.8284271"
     inkscape:cx="123.17845"
     inkscape:cy="123.89903"
     inkscape:document-units="px"
     inkscape:current-layer="layer2"
     showgrid="false"
     inkscape:window-width="1679"
     inkscape:window-height="997"
     inkscape:window-x="0"
     inkscape:window-y="25"
     inkscape:snap-global="false"
     showguides="true"
     inkscape:guide-bbox="true">
    <inkscape:grid
       type="xygrid"
       id="grid3178"
       visible="true"
       enabled="true" />
    <sodipodi:guide
       orientation="0,1"
       position="107.71614,192"
       id="guide3179" />
    <sodipodi:guide
       orientation="0,1"
       position="124.92141,128"
       id="guide3181" />
    <sodipodi:guide
       orientation="0,1"
       position="108.05022,64"
       id="guide3183" />
    <sodipodi:guide
       orientation="1,0"
       position="64,168.413"
       id="guide3185" />
    <sodipodi:guide
       orientation="1,0"
       position="128,213.06734"
       id="guide3187" />
    <sodipodi:guide
       orientation="1,0"
       position="192,229.86252"
       id="guide3189" />
  </sodipodi:namedview>
  <metadata
     id="metadata7">
    <rdf:RDF>
      <cc:Work
         rdf:about="">
        <dc:format>image/svg+xml</dc:format>
        <dc:type
           rdf:resource="http://purl.org/dc/dcmitype/StillImage" />
      </cc:Work>
    </rdf:RDF>
  </metadata>
  <g
     inkscape:groupmode="layer"
     id="layer2"
     inkscape:label="Background"
     sodipodi:insensitive="true"
     style="display:inline">
    <rect
       style="opacity:1;fill:#898989;fill-opacity:1;fill-rule:nonzero;stroke:none;stroke-width:10;marker:none;marker-start:none;marker-mid:none;marker-end:none;stroke-miterlimit:4;stroke-dasharray:none;stroke-opacity:1;visibility:visible;display:inline;overflow:visible;enable-background:accumulate"
       id="rect3660"
       width="263.07727"
       height="263.31024"
       x="-4.9406686"
       y="-4.6094489" />
  </g>
  <g
     inkscape:label="Layer 1"
     inkscape:groupmode="layer"
     id="layer1">
    <path
       style="opacity:1;fill:#ffffff;fill-opacity:1;fill-rule:nonzero;stroke:none;stroke-width:10;marker:none;marker-start:none;marker-mid:none;marker-end:none;stroke-miterlimit:4;stroke-dasharray:none;stroke-opacity:1;visibility:visible;display:inline;overflow:visible;enable-background:accumulate"
       d="M 97.25,3.96875 C 91.784567,3.9219887 92.877148,10.011976 93.645214,13.254184 C 93.313862,17.812039 95.146561,25.995731 91.667815,27.34333 C 85.771875,31.011986 82.57586,37.514957 86.985529,41.98219 C 89.340501,45.954207 94.272003,43.910925 94.361938,49.665916 C 96.538272,53.251713 93.410937,56.532906 94.042955,60.250613 C 96.312683,63.520603 103.44474,60.285699 100.15354,56.700101 C 97.059305,53.933963 98.927909,50.09522 99.734208,46.516903 C 99.432651,41.619144 104.54193,40.10581 105.77388,35.995193 C 107.80983,30.50821 105.52909,23.972295 100.35668,21.395109 C 96.808114,18.435707 98.193031,12.537265 101.36086,9.8941307 C 102.58638,7.1217001 100.33554,3.7265281 97.25,3.96875 z"
       id="path3239"
       sodipodi:nodetypes="cccccccccccc" />
    <path
       style="opacity:1;fill:#ffffff;fill-opacity:1;fill-rule:nonzero;stroke:none;stroke-width:10;marker:none;marker-start:none;marker-mid:none;marker-end:none;stroke-miterlimit:4;stroke-dasharray:none;stroke-opacity:1;visibility:visible;display:inline;overflow:visible;enable-background:accumulate"
       d="M 159.21875,0.84375 C 155.9941,0.46001275 153.10528,4.4482382 154.79578,7.3269893 C 157.58365,9.148511 157.20515,13.043228 156.131,15.751117 C 155.89885,17.555005 154.79778,22.850965 152.46756,19.891227 C 147.69392,15.056526 138.50145,14.99367 134.39822,20.731495 C 130.03362,26.293834 131.36137,35.108641 136.86648,39.42687 C 139.09995,41.557868 142.10901,42.514444 144.81778,43.811241 C 147.29915,45.845377 148.22238,49.057346 150.09375,51.5625 C 150.11774,54.25033 148.83298,58.034997 151.83754,59.626134 C 154.9071,61.41526 159.76111,60.496797 161.02991,56.893697 C 161.53844,53.855586 158.47052,52.139866 157.00229,49.942486 C 155.54332,47.953091 155.33352,45.424469 155.72146,43.052032 C 156.39721,40.243351 154.66241,37.709603 154.59235,34.934761 C 154.94397,31.752921 155.75487,28.601772 156.21907,25.411319 C 157.04412,22.846121 159.06642,20.813029 159.50311,18.090194 C 160.69553,15.046442 159.4311,11.253132 161.81455,8.7228409 C 163.75204,7.0608412 165.57796,3.2566145 162.56811,1.6943688 C 161.53446,1.1554342 160.36064,0.98959447 159.21875,0.84375 z"
       id="path3263" />
    <path
       style="opacity:1;fill:#ffffff;fill-opacity:1;fill-rule:nonzero;stroke:none;stroke-width:10;marker:none;marker-start:none;marker-mid:none;marker-end:none;stroke-miterlimit:4;stroke-dasharray:none;stroke-opacity:1;visibility:visible;display:inline;overflow:visible;enable-background:accumulate"
       d="M 224.25,2.21875 C 221.27145,2.2648281 219.8877,5.806953 220.45558,8.3555054 C 221.03934,11.47967 223.38685,14.227951 222.86834,17.54381 C 223.09317,23.160893 224.4057,28.837511 227.41556,33.63366 C 228.23026,36.41561 225.58406,38.558402 225.29915,41.199887 C 224.13624,44.567028 222.17621,47.580869 220.44788,50.66943 C 218.87335,52.209485 215.8272,54.963095 218.48098,56.970071 C 220.554,58.71019 224.70316,58.220851 225.24879,55.207479 C 225.22242,52.874725 224.9838,50.186624 227.34836,48.821887 C 229.30031,47.521439 229.72655,44.405216 232.50192,44.455313 C 234.77238,44.461597 237.07081,44.374376 239.13806,43.318171 C 244.47869,41.012594 248.58262,35.000089 247.23954,29.084261 C 246.23687,25.625689 242.47727,23.623647 239.02266,23.882682 C 236.15028,23.538427 232.88917,23.214145 230.42258,25.053977 C 229.83135,27.72449 226.28036,26.104314 227.30414,23.81991 C 226.65521,20.803705 226.46414,17.717646 226.14371,14.656009 C 227.49903,12.370636 230.45892,10.563866 229.9382,7.5497372 C 229.55425,4.7721487 227.11781,2.2894189 224.25,2.21875 z M 227.875,43.84375 C 227.94433,43.992063 227.6833,43.794324 227.875,43.84375 z"
       id="path3265" />
    <path
       style="opacity:1;fill:#ffffff;fill-opacity:1;fill-rule:nonzero;stroke:none;stroke-width:10;marker:none;marker-start:none;marker-mid:none;marker-end:none;stroke-miterlimit:4;stroke-dasharray:none;stroke-opacity:1;visibility:visible;display:inline;overflow:visible;enable-background:accumulate"
       d="M 33.09375,67.96875 C 30.04211,67.676997 27.055602,71.03511 28.230135,74.011349 C 30.317431,76.63384 38.383685,85.869815 37.065088,88.963874 C 35.303161,90.973794 34.019894,90.638927 32.558558,92.785562 C 29.145303,95.379179 24.812979,96.915963 26.995714,100.1589 C 26.622788,102.91149 20.639679,102.82352 18.513346,104.24596 C 15.811412,105.53224 16.320985,109.09353 18.698149,109.81623 C 21.108558,110.93466 24.795699,109.87324 25.832377,106.92284 C 25.742321,105.52593 26.564827,102.14083 29.01218,103.68158 C 30.804018,104.77256 31.405709,105.16126 32.275174,107.66576 C 32.692877,111.3585 28.69411,113.29901 29.686644,116.67039 C 29.418166,118.65271 27.533926,120.67167 29.349475,122.58827 C 31.49829,125.52152 36.983382,124.13582 37.21827,120.42806 C 37.076275,117.69296 33.596434,116.76518 32.980164,114.15652 C 32.588119,111.34906 36.353285,109.29646 36.033483,106.5093 C 35.146172,104.39394 38.558229,105.01681 39.64363,103.65399 C 44.092035,100.86982 47.184534,94.61689 44.327532,90.710488 C 42.464412,88.950125 40.518435,86.882478 40.472442,84.228702 C 40.105644,82.454451 33.527373,77.263284 35.773225,76.476992 C 38.675911,75.191598 39.055286,70.577537 36.286692,68.92796 C 35.36209,68.27192 34.217648,67.978749 33.09375,67.96875 z"
       id="path3267"
       sodipodi:nodetypes="ccccccccccccccccccccc" />
    <path
       style="opacity:1;fill:#ffffff;fill-opacity:1;fill-rule:nonzero;stroke:none;stroke-width:10;marker:none;marker-start:none;marker-mid:none;marker-end:none;stroke-miterlimit:4;stroke-dasharray:none;stroke-opacity:1;visibility:visible;display:inline;overflow:visible;enable-background:accumulate"
       d="M 95.96875,70.65625 C 93.669969,70.341176 91.296964,72.388983 91.442418,74.741993 C 92.442793,76.592986 94.097421,78.382498 93.812678,80.642217 C 94.128272,83.300235 91.44779,91.316787 88.085158,93.501996 C 80.596682,96.226464 78.352812,105.08143 82.34936,109.97918 C 85.874425,115.14479 92.340514,109.86175 97.746962,103.16286 C 99.427045,101.26886 102.78906,101.23428 103.92804,99.517208 C 103.80614,97.658769 113.30689,95.171327 115.22584,96.615294 C 117.8982,96.730242 119.40919,93.414111 118.43003,91.168388 C 117.67385,88.885806 113.8314,88.407355 113.22908,91.034915 C 112.1253,93.185927 108.47171,93.544596 107.72733,91.157212 C 106.23899,88.973566 103.49091,88.649791 101.49538,87.016599 C 99.553198,85.104075 98.28744,82.466113 98.0194,79.754233 C 98.190871,77.349115 100.88208,75.611622 100.19023,73.067115 C 99.577502,71.395832 97.672353,70.496702 95.96875,70.65625 z"
       id="path3269"
       sodipodi:nodetypes="ccccccccccccccc" />
    <path
       style="opacity:1;fill:#ffffff;fill-opacity:1;fill-rule:nonzero;stroke:none;stroke-width:10;marker:none;marker-start:none;marker-mid:none;marker-end:none;stroke-miterlimit:4;stroke-dasharray:none;stroke-opacity:1;visibility:visible;display:inline;overflow:visible;enable-background:accumulate"
       d="M 160.87007,74.665596 C 158.24128,74.15667 159.0031,79.104972 156.24595,78.232049 C 153.81259,77.533887 151.12913,77.883695 149.05283,79.364249 C 144.71483,82.307147 143.06384,88.558646 145.39267,93.258074 C 146.5522,95.472199 144.6564,96.976281 142.71252,97.402581 C 140.75233,98.323557 138.69954,100.11443 139.01382,102.50574 C 139.13316,104.90743 143.24097,105.98969 143.70258,103.23747 C 144.22834,101.45762 146.0935,101.68524 146.86791,103.13923 C 148.72836,104.04911 152.14731,104.07741 151.71917,107.01957 C 151.67651,109.15357 151.65928,111.29705 152.13426,113.38979 C 152.64582,116.04279 148.87777,117.07948 149.28595,119.71517 C 149.69805,122.46256 153.29575,123.41344 155.43527,122.02481 C 157.75782,120.81605 159.5927,117.69914 158.10444,115.20831 C 156.05833,113.40247 156.05516,110.58869 156.28515,108.11365 C 156.26508,106.15815 155.62752,103.54317 157.48559,102.26477 C 162.12622,98.386827 163.30412,91.091702 160.29387,85.881847 C 158.51131,84.483059 159.18309,81.711449 160.85658,80.514239 C 162.57262,79.284511 162.96254,76.121998 161.1568,74.766146 C 161.06122,74.732629 160.96565,74.699113 160.87007,74.665596 z M 153.46382,119.25935 C 153.54921,119.72231 152.98809,119.13136 153.46382,119.25935 z"
       id="path3271" />
    <path
       style="opacity:1;fill:#ffffff;fill-opacity:1;fill-rule:nonzero;stroke:none;stroke-width:10;marker:none;marker-start:none;marker-mid:none;marker-end:none;stroke-miterlimit:4;stroke-dasharray:none;stroke-opacity:1;visibility:visible;display:inline;overflow:visible;enable-background:accumulate"
       d="M 221.25,68.03125 C 217.91383,68.754977 216.81652,73.182364 218.413,75.895687 C 219.38166,78.062378 219.59952,80.455363 219.84399,82.788224 C 221.21605,84.908921 219.93188,88.326256 218.10484,89.787084 C 216.6341,91.482294 216.40454,93.604974 215.75589,95.301807 C 213.24388,95.153476 210.52469,94.019208 208.14949,95.366827 C 206.19273,97.097008 208.27188,100.83364 210.76597,100.17793 C 212.87628,99.953177 216.3314,98.335186 217.0096,101.49792 C 219.06013,106.19684 228.70817,108.04027 233.79013,108.08876 C 242.4832,107.36663 234.19884,104.08164 237.05228,98.932754 C 238.59707,95.213313 243.34946,92.968947 240.98705,89.632668 C 240.52944,87.5917 236.40261,86.790176 238.09338,84.351792 C 238.84833,82.777647 238.84598,79.895241 236.83106,79.372588 C 234.25786,79.677139 235.55733,83.601645 232.92726,83.811354 C 230.71097,83.6002 227.99988,84.065781 226.26266,82.418843 C 224.94298,80.909628 225.06318,78.80761 224.54479,76.982645 C 224.03838,74.795188 225.35843,72.514698 224.24318,70.414692 C 223.69974,69.22938 222.60995,68.135124 221.25,68.03125 z"
       id="path3273"
       sodipodi:nodetypes="cccccccccccccccccc" />
    <path
       style="opacity:1;fill:#ffffff;fill-opacity:1;fill-rule:nonzero;stroke:none;stroke-width:10;marker:none;marker-start:none;marker-mid:none;marker-end:none;stroke-miterlimit:4;stroke-dasharray:none;stroke-opacity:1;visibility:visible;display:inline;overflow:visible;enable-background:accumulate"
       d="M 25.5,136.4375 C 22.315667,136.27754 23.282455,140.86407 24.589961,141.69592 C 22.232015,143.13178 20.396489,147.02527 18.44718,149.16915 C 12.59895,153.73225 15.698945,160.28863 19.914925,165.18625 C 22.15868,168.1525 20.550893,172.14431 24.5,172.75 C 24.316061,175.32296 25.130942,178.64175 22.518798,180.27865 C 20.470041,182.78038 22.971232,186.76446 26.029054,186.64318 C 28.730102,186.84628 31.905615,184.43803 31.162995,181.52737 C 30.358362,179.62818 26.873165,177.81863 28.936902,175.57069 C 30.076816,172.86857 31.443424,169.7198 33.992234,168.77615 C 39.898029,165.43149 44.768199,159.82901 42.653209,153.28585 C 40.952363,150.2406 45.726882,150.6888 47.00777,149.23766 C 48.580633,147.03709 47.10252,143.08868 44.139294,143.33588 C 41.901585,143.92639 41.655729,149.39823 38.630406,146.63361 C 36.769635,144.64742 34.593606,142.83673 31.79279,142.47565 C 29.841921,142.19154 26.392926,141.90445 27.720416,139.16441 C 27.941495,137.74662 27.258181,135.97047 25.5,136.4375 z"
       id="path3275"
       sodipodi:nodetypes="ccccccccccccccccc" />
    <path
       style="opacity:1;fill:#ffffff;fill-opacity:1;fill-rule:nonzero;stroke:none;stroke-width:10;marker:none;marker-start:none;marker-mid:none;marker-end:none;stroke-miterlimit:4;stroke-dasharray:none;stroke-opacity:1;visibility:visible;display:inline;overflow:visible;enable-background:accumulate"
       d="M 98.668905,133.77531 C 96.000025,133.45644 93.782978,137.12556 95.741327,139.18315 C 96.978155,141.44949 99.718314,147.77217 99.949595,150.18812 C 100.27896,152.11997 99.521784,154.24054 97.396912,154.58695 C 95.024798,155.87228 93.317015,158.2413 92.475862,160.75672 C 92.322369,162.23824 92.147828,164.1391 90.180727,163.41835 C 88.561863,163.29039 86.249399,164.80407 87.592483,166.5172 C 89.152517,168.04316 92.499315,165.50426 93.126009,168.44901 C 95.022362,173.02228 100.35899,172.88253 105.18992,172.17284 C 111.16764,171.46542 115.72295,167.39495 114.02983,162.31351 C 114.33034,159.78165 117.67651,160.23866 119.57585,160.57943 C 121.3901,160.3396 122.54426,156.98566 121.89458,155.06465 C 120.25773,152.50121 116.40572,153.10165 114.38105,155.23004 C 113.9237,157.34279 110.56976,158.11567 109.72894,155.47735 C 108.19769,154.05663 105.43878,154.14335 104.70761,151.96588 C 104.41597,149.63552 98.890495,143.58279 99.769205,141.21686 C 100.74954,139.5244 103.37894,137.98443 101.97869,135.73475 C 101.34269,134.55548 100.03646,133.68397 98.668905,133.77531 z"
       id="path3277"
       sodipodi:nodetypes="cccccccccccccccccc" />
    <path
       style="opacity:1;fill:#ffffff;fill-opacity:1;fill-rule:nonzero;stroke:none;stroke-width:10;marker:none;marker-start:none;marker-mid:none;marker-end:none;stroke-miterlimit:4;stroke-dasharray:none;stroke-opacity:1;visibility:visible;display:inline;overflow:visible;enable-background:accumulate"
       d="M 164.91129,156.99427 C 158.42232,154.76188 154.30216,158.30342 155.65645,164.35386 C 156.15695,170.94572 156.23411,176.34086 163.27301,177.41812 C 165.36123,178.94545 164.3899,182.27911 162.05474,182.69766 C 160.01698,183.68042 159.40234,187.03184 161.58534,188.1946 C 164.36618,190.062 168.9852,189.77109 170.68711,186.60207 C 171.52385,183.97176 167.75755,182.56815 168.39444,179.9462 C 167.83897,176.77482 172.00775,177.63274 173.66425,176.56322 C 175.30883,175.58312 177.87004,174.6361 179.27472,176.53883 C 180.62424,178.89158 184.23831,179.26158 184.8222,182.16149 C 185.67546,184.38279 189.75197,184.27482 190.00096,181.71375 C 190.0309,179.44043 187.59413,178.56688 185.961,177.57183 C 183.84283,175.98661 180.49697,175.26519 178.16665,173.86749 C 183.55198,168.72951 183.68429,164.87696 177.48435,159.69365 C 173.87801,158.00913 168.40478,157.95788 164.91129,156.99427 z"
       id="path3279"
       sodipodi:nodetypes="ccccccccccccccc" />
    <path
       style="opacity:1;fill:#ffffff;fill-opacity:1;fill-rule:nonzero;stroke:none;stroke-width:10;marker:none;marker-start:none;marker-mid:none;marker-end:none;stroke-miterlimit:4;stroke-dasharray:none;stroke-opacity:1;visibility:visible;display:inline;overflow:visible;enable-background:accumulate"
       d="M 212.55957,137.66626 C 210.68489,139.54247 211.49814,142.76053 212.39345,144.99709 C 212.70384,147.27513 215.22861,146.29066 215.31596,144.47919 C 216.92737,145.43974 220.74648,148.9984 220.61226,151.50411 C 219.39614,155.18668 216.83329,152.86285 214.99899,154.98972 C 214.05559,157.36041 211.98306,160.21048 213.55473,162.83926 C 215.20035,165.26962 218.12415,163.37632 219.29587,161.30127 C 220.62338,158.79247 223.37312,153.3218 225.41202,156.0488 C 227.10259,158.28684 228.98593,160.79275 231.68964,161.10731 C 233.28054,161.48438 235.35804,161.55112 236.29409,163.32971 C 237.42942,166.88403 236.98263,170.8415 238.16637,174.38116 C 238.57664,177.4584 235.99592,180.25718 237.24166,183.32539 C 238.26188,186.45129 242.73244,187.28968 243.9613,183.9619 C 245.18405,180.73805 242.6129,178.10471 241.64167,175.35407 C 240.39881,171.76124 240.83696,167.70699 239.76741,164.04379 C 239.93736,160.63853 243.13371,159.58787 245.17377,158.00313 C 247.25747,156.43638 249.09514,153.14846 247.72175,150.27493 C 245.58799,145.53936 240.99435,143.45193 238.4417,139.10659 C 236.88217,136.86196 235.08247,133.87811 232.29225,134.17904 C 229.55641,134.51097 227.20103,136.38298 224.90958,138.01365 C 222.80224,139.52513 222.10749,142.68208 221.57507,144.98025 C 219.26497,145.4086 216.25695,140.06803 214.75797,138.43335 C 214.24791,137.66096 213.34877,137.05549 212.55957,137.66626 z"
       id="path3281"
       sodipodi:nodetypes="ccccccccccccccccccccccc" />
    <path
       style="opacity:1;fill:#ffffff;fill-opacity:1;fill-rule:nonzero;stroke:none;stroke-width:10;marker:none;marker-start:none;marker-mid:none;marker-end:none;stroke-miterlimit:4;stroke-dasharray:none;stroke-opacity:1;visibility:visible;display:inline;overflow:visible;enable-background:accumulate"
       d="M 50.226671,197.40551 C 47.590639,197.52896 46.542917,201.29702 48.289171,203.06176 C 48.546058,204.6057 46.907752,206.07096 45.759972,204.56961 C 38.724532,201.97065 36.180598,208.02372 34.480129,215.48322 C 33.15772,220.84689 29.337222,225.35632 34.388536,227.79192 C 36.406389,229.43184 38.781008,231.15479 39.691292,233.6589 C 40.728129,235.83346 39.156454,237.46661 37.552544,238.57088 C 35.909862,241.05775 37.520084,244.88758 40.513315,245.31185 C 43.492333,246.08577 46.602855,243.06967 45.810262,240.06568 C 44.956725,237.60867 43.838818,235.22355 42.290155,233.12198 C 40.995279,231.14594 42.41329,228.538 44.837486,229.19676 C 48.279911,228.37761 51.339617,226.00334 53.105551,222.93992 C 55.337568,219.23888 55.380089,214.39088 53.172212,210.66844 C 52.366612,209.23922 51.289723,207.96175 50.007921,206.93676 C 50.209589,204.31044 53.392847,202.79624 52.976334,200.02442 C 52.736894,198.70258 51.668514,197.3816 50.226671,197.40551 z"
       id="path3283"
       sodipodi:nodetypes="cccccccccccccccc" />
    <path
       style="opacity:1;fill:#ffffff;fill-opacity:1;fill-rule:nonzero;stroke:none;stroke-width:10;marker:none;marker-start:none;marker-mid:none;marker-end:none;stroke-miterlimit:4;stroke-dasharray:none;stroke-opacity:1;visibility:visible;display:inline;overflow:visible;enable-background:accumulate"
       d="M 84.306948,197.31017 C 81.124553,196.8308 79.893107,201.47157 82.51425,203.03225 C 83.676309,205.18233 82.456884,207.61229 82.82423,209.88807 C 81.885197,212.29018 81.544042,215.38723 79.009428,216.70896 C 77.671391,218.00764 75.789091,219.81882 73.783908,218.97128 C 72.882493,217.44894 71.02859,215.45846 69.384472,217.5214 C 67.176937,220.60608 71.995701,221.438 73.617551,223.02722 C 75.662769,225.45018 77.262959,225.79009 80.110087,227.64314 C 82.11752,229.24025 82.976739,233.54029 85.525698,233.21642 C 86.468671,238.20303 87.402085,243.19149 88.306948,248.18517 C 86.247507,249.54444 88.315458,252.28703 90.258658,252.3249 C 92.405308,252.59813 94.220728,250.01619 92.565648,248.25183 C 90.955638,247.15846 90.548968,245.37206 90.330698,243.5119 C 90.156098,241.53236 89.389428,239.67305 89.151348,237.71901 C 89.204618,235.29604 89.324558,232.53165 90.961238,230.60458 C 92.506198,228.68932 91.988668,225.05308 91.679598,222.47103 C 91.634028,218.88239 91.201748,216.87837 87.815554,215.69183 C 85.331852,214.24744 85.23519,211.09112 85.43357,208.55663 C 85.509091,205.87756 85.356406,203.332 87.301311,201.26348 C 88.583128,199.0851 86.3739,197.25127 84.306948,197.31017 z"
       id="path3285"
       sodipodi:nodetypes="cccccccccccccccccccc" />
    <path
       style="opacity:1;fill:#ffffff;fill-opacity:1;fill-rule:nonzero;stroke:none;stroke-width:10;marker:none;marker-start:none;marker-mid:none;marker-end:none;stroke-miterlimit:4;stroke-dasharray:none;stroke-opacity:1;visibility:visible;display:inline;overflow:visible;enable-background:accumulate"
       d="M 152.29043,196.18729 C 149.51552,196.86373 148.67023,200.53824 149.9701,202.81947 C 150.95605,205.83766 151.28813,209.19106 150.52351,212.2787 C 149.12596,214.69308 146.02347,215.56753 144.92063,218.22295 C 143.76254,220.19871 143.20285,222.48253 143.09507,224.75848 C 141.63742,227.14295 138.65545,227.6173 136.13072,227.99275 C 133.45065,229.30491 135.88503,233.89671 138.49257,232.19933 C 140.2298,231.30159 142.25679,227.57581 144.29808,229.97418 C 145.63623,231.54362 152.48288,230.84173 154.45352,231.80683 C 160.5387,235.88165 166.03397,234.29465 167.56906,232.31752 C 170.25118,228.87454 165.89985,225.53443 164.08947,221.51194 C 163.80864,218.90045 171.92971,215.52168 171.33886,212.87123 C 171.39394,210.22355 166.81188,208.40933 166.15846,211.59129 C 165.32729,213.80634 162.82507,214.02306 161.33975,212.41803 C 159.57249,211.76142 157.05668,212.43507 155.9888,210.48349 C 155.43454,208.15146 152.99389,205.60359 154.53162,203.23991 C 155.87136,200.941 155.2495,196.82325 152.29043,196.18729 z M 153.47793,211.06229 C 154.84243,211.92171 152.63866,212.36906 153.47793,211.06229 z"
       id="path3287"
       sodipodi:nodetypes="cccccccsccccccccccc" />
    <path
       style="opacity:1;fill:#ffffff;fill-opacity:1;fill-rule:nonzero;stroke:none;stroke-width:10;marker:none;marker-start:none;marker-mid:none;marker-end:none;stroke-miterlimit:4;stroke-dasharray:none;stroke-opacity:1;visibility:visible;display:inline;overflow:visible;enable-background:accumulate"
       d="M 231.83177,212.05419 C 228.93707,212.33083 227.4978,215.52512 227.51717,218.12611 C 227.39849,220.66768 228.45236,223.53668 230.87649,224.68013 C 231.7836,226.86521 231.38737,229.3011 231.98909,231.55457 C 231.39355,233.67693 229.17646,235.5969 226.88298,234.94833 C 224.34951,235.08412 222.72224,232.76423 220.63581,232.15515 C 218.46042,232.76693 218.01672,235.92539 219.27695,237.56946 C 221.05523,239.9295 223.3139,236.52857 225.36047,237.77894 C 227.25884,238.69753 227.93023,241.07605 227.15488,242.95795 C 226.5368,244.54424 225.60014,246.18438 224.13141,247.09841 C 222.00282,247.35469 219.40204,248.33361 219.96147,251.01262 C 220.05644,253.1674 222.6379,254.96053 224.56405,253.69174 C 226.24979,252.60386 226.2952,250.40848 227.31106,248.87653 C 228.86926,246.81628 231.24454,248.2222 232.62927,249.60968 C 237.43913,252.47237 240.69789,245.81695 241.3864,243.76987 C 243.46363,239.65124 245.46263,234.68627 243.83736,232.88191 C 242.03291,231.4828 239.75233,230.65131 237.45677,230.74169 C 236.49141,228.31224 235.76617,225.74885 234.30052,223.55419 C 237.01367,220.41757 236.78876,214.9021 233.28721,212.4291 C 232.84119,212.19199 232.33923,212.04893 231.83177,212.05419 z M 228.36302,245.02294 C 229.546,246.19363 226.8846,245.71674 228.36302,245.02294 z"
       id="path3289"
       sodipodi:nodetypes="cccccccccccccccccccccc" />
    <path
       style="opacity:1;fill:#ffffff;fill-opacity:1;fill-rule:nonzero;stroke:none;stroke-width:10;marker:none;marker-start:none;marker-mid:none;marker-end:none;stroke-miterlimit:4;stroke-dasharray:none;stroke-opacity:1;visibility:visible;display:inline;overflow:visible;enable-background:accumulate"
       d="M 31.40625,5.625 C 28.978117,5.1802258 27.182437,8.4056521 28.507416,10.365507 C 29.210153,12.762326 29.774665,15.657299 29.183411,18.701316 C 29.006589,21.482778 28.995575,24.976513 27.57839,27.140187 C 25.748671,28.238511 23.568587,29.89799 22.242193,32.840836 C 19.292695,36.564756 18.734237,41.414939 21.916459,43.538498 C 25.885316,45.873022 31.626971,45.408376 35.96684,43.533506 C 38.012468,42.306247 43.991892,42.975917 45.253413,45.155389 C 46.603614,47.260115 49.26472,48.233243 51.572413,47.131659 C 53.964281,46.628208 54.364689,43.418065 52.193981,42.297566 C 50.73854,41.132499 48.914259,41.467512 47.272953,41.805054 C 44.862833,41.634195 39.818121,39.561707 39.959881,37.596608 C 40.008298,35.276584 39.167017,33.127648 38.950279,30.550165 C 37.321767,26.463468 33.367264,26.012879 32.609592,21.073275 C 31.998358,17.938251 31.796193,14.327016 32.669053,11.144339 C 33.308032,9.6931556 36.122101,7.8244481 33.982081,6.2016087 C 33.176792,5.8621085 32.290605,5.6015638 31.40625,5.625 z M 31.249521,24.950086 C 31.592901,24.881978 31.048781,25.395478 31.249521,24.950086 z"
       id="path3301"
       sodipodi:nodetypes="ccccccccccccccccccc" />
  </g>
</svg>
