<?xml version="1.0" encoding="UTF-8" standalone="no"?>
<!-- Created with Inkscape (http://www.inkscape.org/) -->
<svg
   xmlns:dc="http://purl.org/dc/elements/1.1/"
   xmlns:cc="http://creativecommons.org/ns#"
   xmlns:rdf="http://www.w3.org/1999/02/22-rdf-syntax-ns#"
   xmlns:svg="http://www.w3.org/2000/svg"
   xmlns="http://www.w3.org/2000/svg"
   xmlns:xlink="http://www.w3.org/1999/xlink"
   xmlns:sodipodi="http://sodipodi.sourceforge.net/DTD/sodipodi-0.dtd"
   xmlns:inkscape="http://www.inkscape.org/namespaces/inkscape"
   width="512"
   height="512"
   id="svg2"
   sodipodi:version="0.32"
   inkscape:version="0.46"
   version="1.0"
   sodipodi:docname="BottleCap.svg"
   inkscape:output_extension="org.inkscape.output.svg.inkscape"
   inkscape:export-filename="/home/alex/Projects/Cargo/Game/Textures/BottleCap.png"
   inkscape:export-xdpi="90"
   inkscape:export-ydpi="90"
   enable-background="new">
  <defs
     id="defs4">
    <linearGradient
       id="linearGradient5029">
      <stop
         style="stop-color:#e64d3a;stop-opacity:1;"
         offset="0"
         id="stop5031" />
      <stop
         id="stop5041"
         offset="0.24759945"
         style="stop-color:#e25745;stop-opacity:1;" />
      <stop
         style="stop-color:#e05c4b;stop-opacity:1;"
         offset="0.45031247"
         id="stop5043" />
      <stop
         id="stop5037"
         offset="0.7037037"
         style="stop-color:#e45d4b;stop-opacity:1;" />
      <stop
         style="stop-color:#e25745;stop-opacity:1;"
         offset="0.87379974"
         id="stop5039" />
      <stop
         style="stop-color:#e64d3a;stop-opacity:1;"
         offset="1"
         id="stop5033" />
    </linearGradient>
    <linearGradient
       id="linearGradient5021">
      <stop
         style="stop-color:#d96051;stop-opacity:1;"
         offset="0"
         id="stop5023" />
      <stop
         style="stop-color:#6e543d;stop-opacity:1;"
         offset="1"
         id="stop5025" />
    </linearGradient>
    <linearGradient
       id="linearGradient4134">
      <stop
         style="stop-color:#755b3c;stop-opacity:0;"
         offset="0"
         id="stop4136" />
      <stop
         style="stop-color:#755b3c;stop-opacity:1;"
         offset="1"
         id="stop4138" />
    </linearGradient>
    <linearGradient
       id="linearGradient3795">
      <stop
         style="stop-color:#755b3c;stop-opacity:1;"
         offset="0"
         id="stop3797" />
      <stop
         style="stop-color:#755b3c;stop-opacity:0;"
         offset="1"
         id="stop3799" />
    </linearGradient>
    <inkscape:perspective
       sodipodi:type="inkscape:persp3d"
       inkscape:vp_x="0 : 526.18109 : 1"
       inkscape:vp_y="0 : 1000 : 0"
       inkscape:vp_z="744.09448 : 526.18109 : 1"
       inkscape:persp3d-origin="372.04724 : 350.78739 : 1"
       id="perspective10" />
    <inkscape:perspective
       id="perspective2686"
       inkscape:persp3d-origin="256 : 170.66667 : 1"
       inkscape:vp_z="512 : 256 : 1"
       inkscape:vp_y="0 : 1000 : 0"
       inkscape:vp_x="0 : 256 : 1"
       sodipodi:type="inkscape:persp3d" />
    <filter
       inkscape:collect="always"
       id="filter3625"
       x="-0.0060430954"
       width="1.0120862"
       y="-0.84135576"
       height="2.6827115">
      <feGaussianBlur
         inkscape:collect="always"
         stdDeviation="1.0516947"
         id="feGaussianBlur3627" />
    </filter>
    <linearGradient
       inkscape:collect="always"
       xlink:href="#linearGradient3795"
       id="linearGradient3801"
       x1="280.36902"
       y1="49.049953"
       x2="290.64764"
       y2="57.655499"
       gradientUnits="userSpaceOnUse" />
    <filter
       inkscape:collect="always"
       id="filter4123">
      <feGaussianBlur
         inkscape:collect="always"
         stdDeviation="1.5788871"
         id="feGaussianBlur4125" />
    </filter>
    <radialGradient
       inkscape:collect="always"
       xlink:href="#linearGradient4134"
       id="radialGradient4140"
       cx="296.1821"
       cy="61.029285"
       fx="296.1821"
       fy="61.029285"
       r="104.27423"
       gradientTransform="matrix(0.1688957,-2.8559201e-3,3.362805e-3,0.1988722,245.95298,49.5864)"
       gradientUnits="userSpaceOnUse" />
    <filter
       inkscape:collect="always"
       id="filter4198">
      <feGaussianBlur
         inkscape:collect="always"
         stdDeviation="2.6548142"
         id="feGaussianBlur4200" />
    </filter>
    <filter
       inkscape:collect="always"
       id="filter4756"
       x="-0.0051524616"
       width="1.0103049"
       y="-0.3868954"
       height="1.7737908">
      <feGaussianBlur
         inkscape:collect="always"
         stdDeviation="0.89603228"
         id="feGaussianBlur4758" />
    </filter>
    <filter
       inkscape:collect="always"
       id="filter4932">
      <feGaussianBlur
         inkscape:collect="always"
         stdDeviation="1.0490693"
         id="feGaussianBlur4934" />
    </filter>
    <filter
       inkscape:collect="always"
       id="filter5015">
      <feBlend
         inkscape:collect="always"
         mode="multiply"
         in2="BackgroundImage"
         id="feBlend5017" />
    </filter>
    <linearGradient
       inkscape:collect="always"
       xlink:href="#linearGradient5021"
       id="linearGradient5027"
       x1="255.71803"
       y1="365.3064"
       x2="255.71803"
       y2="496.00009"
       gradientUnits="userSpaceOnUse" />
    <filter
       inkscape:collect="always"
       id="filter5175">
      <feGaussianBlur
         inkscape:collect="always"
         stdDeviation="1.1472326"
         id="feGaussianBlur5177" />
    </filter>
    <filter
       inkscape:collect="always"
       id="filter5261">
      <feGaussianBlur
         inkscape:collect="always"
         stdDeviation="0.48954378"
         id="feGaussianBlur5263" />
    </filter>
    <filter
       inkscape:collect="always"
       id="filter5355"
       x="-0.077041047"
       width="1.1540821"
       y="-0.93674576"
       height="2.8734915">
      <feGaussianBlur
         inkscape:collect="always"
         stdDeviation="17.735473"
         id="feGaussianBlur5357" />
    </filter>
  </defs>
  <sodipodi:namedview
     id="base"
     pagecolor="#ffffff"
     bordercolor="#666666"
     borderopacity="1.0"
     gridtolerance="10000"
     guidetolerance="10"
     objecttolerance="10"
     inkscape:pageopacity="0.0"
     inkscape:pageshadow="2"
     inkscape:zoom="1"
     inkscape:cx="150.56627"
     inkscape:cy="160.00489"
     inkscape:document-units="px"
     inkscape:current-layer="layer2"
     showgrid="false"
     inkscape:window-width="1679"
     inkscape:window-height="997"
     inkscape:window-x="0"
     inkscape:window-y="25"
     showguides="true"
     inkscape:guide-bbox="true"
     inkscape:snap-global="false">
    <sodipodi:guide
       orientation="0,1"
       position="282.84271,130.81475"
       id="guide4549" />
  </sodipodi:namedview>
  <metadata
     id="metadata7">
    <rdf:RDF>
      <cc:Work
         rdf:about="">
        <dc:format>image/svg+xml</dc:format>
        <dc:type
           rdf:resource="http://purl.org/dc/dcmitype/StillImage" />
      </cc:Work>
    </rdf:RDF>
  </metadata>
  <g
     inkscape:groupmode="layer"
     id="layer2"
     inkscape:label="Drawing">
    <rect
       y="365.3064"
       x="0.32733479"
       height="145.44092"
       width="510.7814"
       id="rect5019"
       style="opacity:1;fill:url(#linearGradient5027);fill-opacity:1.0;fill-rule:evenodd;stroke:none;stroke-width:0.99999994000000003px;stroke-linecap:butt;stroke-linejoin:miter;marker:none;marker-start:none;marker-mid:none;marker-end:none;stroke-miterlimit:4;stroke-dasharray:none;stroke-dashoffset:0;stroke-opacity:1;visibility:visible;display:inline;overflow:visible;enable-background:accumulate" />
    <path
       style="fill:#f4f4ea;fill-opacity:1;fill-rule:evenodd;stroke:#000000;stroke-width:1px;stroke-linecap:butt;stroke-linejoin:miter;stroke-opacity:1"
       d="M 224.06733,12.256467 L 383.8858,3.539932 L 464.49239,16.67379 L 499.36067,73.154105 L 497.87738,132.75253 L 480.74212,190.17773 L 434.33964,225.02025 L 378.97103,227.7604 L 289.42044,213.70529 L 258.11648,135.04387 L 263.1198,65.71316 L 217.91281,28.815523 L 224.06733,12.256467 z"
       id="path2839" />
    <path
       style="fill:#d96051;fill-opacity:1;fill-rule:evenodd;stroke:#000000;stroke-width:1px;stroke-linecap:butt;stroke-linejoin:miter;stroke-opacity:1"
       d="M 112.44457,6.2092233 C 39.708873,0.51173218 0.39408784,44.986944 1.4195579,116.66592 C 8.1412436,190.81527 44.287626,225.71659 119.48465,227.24072 C 184.13254,226.1728 213.33836,189.58127 229.13707,129.72891 C 231.55539,45.577199 191.95823,11.051152 112.44457,6.2092233 z"
       id="path3611"
       sodipodi:nodetypes="ccccc" />
    <rect
       style="opacity:1;fill:#d96051;fill-opacity:1;fill-rule:evenodd;stroke:none;stroke-width:1px;stroke-linecap:butt;stroke-linejoin:miter;marker:none;marker-start:none;marker-mid:none;marker-end:none;stroke-miterlimit:4;stroke-dasharray:none;stroke-dashoffset:0;stroke-opacity:1;visibility:visible;display:inline;overflow:visible;enable-background:accumulate;color:#000000"
       id="rect3613"
       width="510.7814"
       height="145.44092"
       x="0.32733479"
       y="228.02924" />
    <rect
       style="opacity:0.66810345;fill:#be756c;fill-opacity:1;fill-rule:evenodd;stroke:none;stroke-width:1px;stroke-linecap:butt;stroke-linejoin:miter;marker:none;marker-start:none;marker-mid:none;marker-end:none;stroke-miterlimit:4;stroke-dasharray:none;stroke-dashoffset:0;stroke-opacity:1;visibility:visible;display:inline;overflow:visible;filter:url(#filter5355);enable-background:accumulate"
       id="rect5265"
       width="552.49945"
       height="45.439369"
       x="-22.502104"
       y="263.31812" />
    <path
       style="fill:#99866d;fill-opacity:1;fill-rule:evenodd;stroke:none;stroke-width:3;stroke-linecap:butt;stroke-linejoin:miter;stroke-miterlimit:4;stroke-dasharray:none;stroke-opacity:1;filter:url(#filter3625)"
       d="M 47.40625,494.1875 L 47.40625,497.1875 L 462.09375,497.1875 L 462.09375,494.1875 L 47.40625,494.1875 z"
       id="path3615" />
    <path
       style="fill:url(#linearGradient3801);fill-opacity:1;fill-rule:evenodd;stroke:none;stroke-width:1px;stroke-linecap:butt;stroke-linejoin:miter;stroke-opacity:1;filter:url(#filter4123)"
       d="M 297.30764,50.297689 L 286.90846,65.298932 L 225.49959,25.778901 L 231.19777,12.812121 C 240.51199,17.205089 252.47555,20.49129 261.37927,25.844455 L 297.30764,50.297689 z"
       id="path3633"
       sodipodi:nodetypes="cccccc"
       transform="matrix(1.0683656,0,0,1.0784139,-15.416422,-1.0046484)" />
    <path
       style="opacity:1;fill:#755b3c;fill-opacity:1;fill-rule:evenodd;stroke:none;stroke-width:1.07337797px;stroke-linecap:butt;stroke-linejoin:miter;marker:none;marker-start:none;marker-mid:none;marker-end:none;stroke-miterlimit:4;stroke-dasharray:none;stroke-dashoffset:0;stroke-opacity:1;visibility:visible;display:inline;overflow:visible;filter:url(#filter4123);enable-background:accumulate"
       d="M 460.80412,244.61565 C 478.21293,242.7822 502.74747,246.3158 506.45532,231.00579 L 507.48538,369.27913 L 459.07275,369.27913 L 460.80412,244.61565 z"
       id="rect4127"
       sodipodi:nodetypes="ccccc" />
    <path
       sodipodi:nodetypes="ccccc"
       id="path4130"
       d="M 460.80412,244.61565 C 478.21293,242.7822 502.74747,246.3158 506.45532,231.00579 L 507.48538,369.27913 L 459.07275,369.27913 L 460.80412,244.61565 z"
       style="opacity:1;fill:#755b3c;fill-opacity:1;fill-rule:evenodd;stroke:none;stroke-width:1.07337797px;stroke-linecap:butt;stroke-linejoin:miter;marker:none;marker-start:none;marker-mid:none;marker-end:none;stroke-miterlimit:4;stroke-dasharray:none;stroke-dashoffset:0;stroke-opacity:1;visibility:visible;display:inline;overflow:visible;filter:url(#filter4123);enable-background:accumulate"
       transform="matrix(-1.0421005,0,0,1,533.34012,0)" />
    <path
       style="fill:none;fill-rule:evenodd;stroke:url(#radialGradient4140);stroke-width:6;stroke-linecap:butt;stroke-linejoin:miter;stroke-miterlimit:4;stroke-dasharray:none;stroke-opacity:1;filter:url(#filter4198)"
       d="M 295.43695,63.999414 L 285.11447,87.337279 L 281.69556,113.69176 L 284.58849,138.68993 L 294.47264,164.01549 L 310.05497,185.88013 L 331.97106,201.71152 L 355.8815,211.55645 L 381.7644,215.88261 L 408.37053,212.25799 L 432.39055,202.29614 L 453.21083,186.76874 L 469.86706,165.41857 L 479.70738,141.80009 L 484.24401,115.16499 L 480.97851,89.324973 L 470.30538,64.607415 L 454.32855,43.257244 L 434.01234,27.823386 L 410.07998,16.224608 L 383.8026,12.740297 L 358.27036,15.523069 L 333.70243,26.233231 L 313.56155,39.35201 L 298.39562,58.433872 L 295.43695,63.999414 z"
       id="path4132"
       sodipodi:nodetypes="cccccccccccccccccccccccccc" />
    <path
       style="opacity:0.4353448;fill:#000000;fill-opacity:1;fill-rule:nonzero;stroke:none;stroke-width:1px;stroke-linecap:butt;stroke-linejoin:miter;stroke-opacity:1;filter:url(#filter4756)"
       d="M 52.204433,380.16272 C 67.827863,379.43096 83.780199,381.3156 99.165722,378.81202 C 120.88042,378.23954 142.65383,379.55583 164.36829,380.18272 C 180.39698,378.94928 196.45416,379.36957 212.41359,377.65774 C 229.06017,378.47653 245.79384,376.518 262.29854,379.70575 C 297.20458,380.63606 332.05142,378.1775 366.97572,379.0408 C 384.29821,377.30746 401.88281,377.09387 419.22403,378.47797 C 434.43632,384.36901 451.33741,379.08968 468.50158,381.33407 C 454.98782,382.35264 432.52146,385.20779 416.10877,380.52369 C 398.52821,379.75846 380.90408,380.17592 363.38734,381.51447 C 327.51378,380.34912 291.63417,384.04154 255.82166,381.52491 C 239.65983,378.84742 223.22947,381.01181 206.95598,380.26571 C 190.77379,382.43349 174.34935,381.43122 158.0695,382.63142 C 138.78457,381.22043 119.40997,381.12015 100.1119,381.28249 C 87.279493,384.49205 73.880381,381.41883 60.775043,382.74363 C 59.219268,382.04808 47.601411,383.11141 52.204433,380.16272 z"
       id="path4547"
       sodipodi:nodetypes="cccccccccccccccc" />
    <path
       style="fill:#5b472f;fill-opacity:1;fill-rule:nonzero;stroke:none;stroke-width:1px;stroke-linecap:butt;stroke-linejoin:miter;stroke-opacity:1;filter:url(#filter4932);opacity:0.60344828"
       d="M 69.736465,473.52087 C 66.819197,473.93493 67.773102,489.8301 63.882792,481.65389 C 63.953028,480.95422 63.728988,466.42019 70.913853,471.31517 L 70.103672,472.18451 L 69.736465,473.52086 L 69.736465,473.52087 z M 85.486816,472.54584 C 92.25414,478.03961 79.596479,491.56034 84.944327,476.73333 C 83.864591,476.26094 82.084446,470.34012 85.486816,472.54584 z M 71.260162,489.60229 C 77.057904,485.51133 94.792244,494.42027 78.681566,491.9051 C 77.130147,491.02615 67.42042,494.41025 71.260162,489.60229 z M 100.95059,479.39194 C 103.86747,475.2254 115.98675,461.54634 107.87448,474.75025 C 106.89811,476.25172 100.57875,486.09881 100.95059,479.39194 z M 134.40683,454.63025 C 128.67015,463.45688 145.20455,476.78316 140.23665,479.29055 C 134.46528,473.39259 125.52561,457.74615 134.24753,453.46676 L 134.40683,454.63024 L 134.40683,454.63025 z M 120.48523,486.41257 C 129.18122,494.72905 120.3692,494.23837 117.51107,486.39557 C 118.00752,485.16404 119.96639,485.17952 120.48523,486.41257 z M 158.44315,479.09183 C 163.31598,477.24056 172.32855,479.19825 162.07207,481.25186 C 160.87848,483.57475 154.39504,480.57083 158.44315,479.09183 z M 195.61113,471.75751 C 195.82491,476.55752 199.98752,492.91754 193.78075,479.64111 C 191.65847,477.78753 192.40438,464.32043 195.61113,471.75751 z M 176.82362,466.8403 C 174.43719,472.09891 180.15608,487.81518 173.39041,473.94442 C 171.15282,471.74709 175.67689,459.5388 176.82362,466.8403 z M 209.69208,479.71637 C 203.47024,487.16635 232.08481,476.90556 218.93408,482.44835 C 212.96607,489.67454 199.49626,481.95944 209.83801,478.86883 L 209.69208,479.71637 L 209.69208,479.71637 z M 243.81009,482.08136 C 256.95786,485.57928 235.89317,486.0936 243.81009,482.08136 z M 260.81345,457.63052 C 256.02332,454.40052 252.29711,452.15626 260.32371,454.7393 C 262.3866,454.18913 263.50158,459.56532 260.81345,457.63052 z M 238.83255,475.76016 C 237.29269,481.01566 226.68946,501.2383 232.30903,484.37331 C 232.83351,482.86737 237.22015,468.40149 238.83255,475.76016 z M 266.5029,485.18594 C 271.05102,487.72277 295.1043,486.11924 278.08778,489.25556 C 276.15601,490.16622 257.48276,488.30264 266.5029,485.18594 z M 296.37567,466.37433 C 290.26267,467.77812 274.57385,482.93455 286.79223,469.39446 C 286.9256,467.06743 302.39526,460.59843 296.37567,466.37433 z M 275.88129,478.50034 C 284.10106,483.01775 278.54542,481.05152 274.00861,479.74867 C 273.89405,478.84669 274.99702,477.70991 275.88129,478.50034 z M 293.86163,485.64828 C 295.10359,491.41424 309.50733,493.24523 307.99478,494.98092 C 302.52403,496.83129 293.2431,489.4463 293.86163,485.64828 z M 319.51752,477.91187 C 325.12976,473.56293 341.99416,459.04601 330.97126,471.354 C 329.04088,472.33305 318.57174,485.69842 319.51752,477.91187 z M 333.99963,459.05276 C 321.47208,456.14475 321.27996,480.38576 317.1929,477.47695 C 313.45847,467.38855 328.90491,451.30796 333.99963,459.05275 L 333.99963,459.05276 z M 352.48242,479.02377 C 345.75937,481.09726 349.42455,499.3863 345.54598,484.98087 C 344.6337,481.87738 351.44687,474.75291 352.48242,479.02377 z M 331.16095,485.46338 C 346.396,476.29379 329.06506,492.03343 331.16095,485.46338 z M 363.2247,477.11374 C 368.89089,480.12449 384.10848,481.8843 369.01202,482.32177 C 367.2399,483.18852 357.39268,476.67266 363.2247,477.11374 z M 369.06903,459.78461 C 364.33767,463.78069 359.67573,477.62791 362.71587,463.26462 C 362.28442,460.73079 371.49616,454.42989 369.06903,459.78461 z M 360.35828,486.45471 C 371.51072,492.33341 353.76544,489.59748 359.2036,485.9962 L 360.35827,486.4547 L 360.35828,486.45471 z M 390.97913,488.17004 C 401.60732,486.76351 398.39398,489.49446 390.4117,490.11146 C 389.71582,489.59912 389.81201,488.0029 390.97913,488.17004 z M 410.65521,482.15887 C 416.66945,480.89278 427.659,480.70641 414.92289,483.85682 C 413.69804,484.72986 407.07953,484.61965 410.65521,482.15887 z M 408.18509,471.50452 C 397.9464,478.13249 404.42921,467.35687 408.8415,470.97095 L 408.18508,471.50452 L 408.18509,471.50452 z M 393.47812,479.86438 C 400.21624,484.39815 387.67876,480.0694 393.47812,479.86438 z M 420.79413,489.66745 C 429.40862,489.87076 414.62343,494.71671 420.79413,489.66745 z M 431.57043,475.78409 C 430.57099,467.93726 435.58108,478.95325 431.57043,475.78409 z M 429.54028,470.69202 C 421.70094,471.79383 411.07142,473.1136 425.1437,468.51194 C 426.71677,467.62876 434.74668,468.49165 429.54028,470.69202 z M 419.47668,474.68939 C 425.3665,474.74162 436.16452,488.69478 424.45613,479.64092 C 423.26567,478.70189 412.98041,475.43741 419.47668,474.68939 z M 444.44974,482.67401 C 448.01331,478.24306 447.70325,465.66378 448.82694,478.52595 C 450.02389,481.17003 443.58859,489.13044 444.44974,482.67401 z M 444.47971,470.2009 C 442.60979,474.87088 443.54163,467.39945 444.47971,470.2009 z M 439.08032,483.85147 C 436.33563,494.36714 434.30462,478.36695 439.08032,483.85147 z M 449.82544,490.49429 C 460.11574,482.91618 447.677,499.67095 449.82544,490.49429 z M 443.44733,465.97842 C 433.53779,459.87989 447.05832,461.999 444.25861,466.30352 L 443.44734,465.97841 L 443.44733,465.97842 z M 254.32945,468.43469 C 261.92418,470.09021 264.0565,481.12115 255.5641,471.38582 C 253.63547,471.76475 250.96702,468.61004 254.32945,468.43469 z M 233.60962,458.71188 C 227.2662,459.45172 214.14507,473.79308 224.96436,460.13712 C 225.46625,457.92625 237.52368,453.93552 233.60962,458.71188 z M 225.70345,473.97928 C 232.43506,480.00565 214.40584,498.10253 224.34062,484.90211 C 227.42664,483.29625 220.40569,470.50319 225.70345,473.97928 z M 198.33661,491.26682 C 192.66425,492.40019 181.77049,491.00658 194.30421,489.56556 C 195.44566,489.03937 201.59847,488.8632 198.33661,491.26682 z M 165.38712,490.2446 C 147.76894,487.97091 172.2275,486.07172 165.38712,490.2446 z M 158.64815,465.37491 C 150.4845,466.40189 155.78665,449.9616 155.92009,461.32559 C 156.08744,462.19233 162.38091,465.19939 158.64815,465.37491 z M 146.20969,479.32977 C 153.22113,487.59687 147.32387,486.75741 144.87499,479.20569 L 145.52153,478.98197 L 146.20968,479.32976 L 146.20969,479.32977 z M 125.47904,476.35449 C 133.22958,490.40743 119.01932,474.28818 125.47904,476.35449 z M 107.58812,481.90759 C 105.40174,487.92836 95.192323,493.78538 103.52224,484.0456 C 104.13109,482.82486 107.45758,477.40095 107.58812,481.90759 z M 93.874535,468.14496 C 87.587309,471.00669 81.208099,468.63784 90.75209,466.14489 C 92.549384,464.98976 98.547481,466.29596 93.874535,468.14496 z M 105.80096,460.88821 C 112.8633,461.591 120.47705,467.78253 108.30919,463.9258 C 106.44263,464.07498 101.12802,461.94612 105.80096,460.88821 z M 97.531311,474.27975 C 103.94295,473.12056 112.29257,474.62014 100.57618,475.98467 C 99.709696,477.43722 94.544011,475.82811 97.531311,474.27975 z M 156.0631,465.25027 C 152.58823,471.15015 161.33652,485.8498 152.14757,472.77194 C 150.94116,471.04675 154.19354,459.07123 156.0631,465.25027 z M 179.18259,459.52606 C 185.97359,458.69005 175.85258,463.69734 179.18259,459.52606 z M 199.00159,448.27304 C 203.7684,444.95814 208.65433,440.95382 201.91388,448.2275 C 201.93484,449.99552 197.35037,450.77342 199.00159,448.27304 z M 229.38811,432.33521 C 234.33395,432.76752 249.17532,446.08554 235.93303,438.76582 C 235.57858,436.12852 223.80513,434.42595 229.38811,432.33521 z M 290.85236,442.75198 C 294.68271,441.11367 289.7047,445.93978 290.85236,442.75198 z M 320.90616,430.56476 C 325.97476,425.07107 350.22296,433.33133 333.02899,430.89084 C 330.27728,429.94607 320.16774,434.15097 320.90616,430.56476 z M 359.4119,441.41226 C 366.53788,450.66401 354.39308,444.75313 357.88587,440.37665 L 358.8223,440.52621 L 359.41191,441.41227 L 359.4119,441.41226 z M 404.14264,448.55374 C 407.8252,447.86704 427.98772,441.66512 413.97296,447.27023 C 413.03643,447.7713 400.51133,453.35477 404.14264,448.55374 z M 123.04466,426.67154 C 121.76805,431.65297 114.79138,443.74665 118.91973,430.8113 C 119.12719,429.20041 121.8269,420.84892 123.04466,426.67154 z M 97.80117,447.8425 C 94.438115,443.87426 85.322071,431.79603 95.375155,442.25901 C 95.714955,443.43108 102.86602,448.77378 97.80117,447.8425 z M 72.801094,441.93024 C 68.429496,444.64287 62.512515,459.82313 67.225022,445.95908 C 66.459359,443.46888 75.449719,436.08537 72.801094,441.93024 z M 60.787457,457.60669 C 54.101227,462.26779 62.243775,451.37175 60.787457,457.60669 z M 61.217579,487.87625 C 65.526551,492.47513 56.892781,488.01564 61.217577,487.87625 L 61.217579,487.87625 z M 75.254288,415.54901 C 77.10761,420.66883 79.404231,434.50486 74.287174,421.3562 C 73.432682,419.90512 70.815095,411.03251 75.254288,415.54901 z M 163.42432,396.33014 C 167.27878,400.5513 168.33229,417.03013 163.76468,402.92562 C 163.86978,401.29232 158.13293,394.27364 163.42432,396.33014 z M 172.46243,431.20511 C 179.17673,427.39654 180.3758,427.82287 173.67789,432.56416 C 172.81493,433.31062 171.34421,431.97356 172.46243,431.20511 z M 282.77829,413.92007 C 286.42386,419.42814 295.37998,426.52405 283.88727,419.28328 C 282.073,418.60673 277.3897,410.52893 282.77829,413.92007 z M 349.86008,408.51666 C 357.78767,404.8441 357.56317,407.41982 350.14457,410.06129 C 349.46859,409.95248 349.02961,408.82571 349.86008,408.51666 z M 410.54575,408.42169 C 415.94122,413.80631 419.45113,420.53358 410.36225,412.01443 C 408.01432,411.86053 407.44294,405.95856 410.54575,408.42169 z M 398.58282,427.47247 C 391.8655,427.04755 385.55491,427.68309 396.94307,425.02943 C 399.17864,423.62338 402.30988,427.92569 398.58282,427.47247 z M 448.51807,424.47562 C 446.26009,431.65771 440.61691,439.79225 445.55104,426.92222 C 444.30641,425.60175 448.34795,420.68167 448.51807,424.47562 z"
       id="path4762" />
    <path
       transform="matrix(1.8066813,0,0,1.8066813,-274.79842,-207.32652)"
       style="opacity:0.61206863;fill:#000000;fill-opacity:1;fill-rule:nonzero;stroke:none;stroke-width:1px;stroke-linecap:butt;stroke-linejoin:miter;stroke-opacity:1"
       d="M 361.1875,257.03125 C 360.93245,256.96741 360.6517,257.04381 360.53125,257.5 C 360.19938,258.75687 359.8496,259.95068 359.75,261.1875 C 359.72799,261.45968 359.79326,261.6357 359.90625,261.8125 C 359.95647,261.89108 360.07705,261.97822 360.15625,262.0625 C 360.39653,261.80093 360.61063,261.58675 360.65625,261.34375 C 360.65589,261.33334 360.65589,261.32291 360.65625,261.3125 C 360.98389,260.15138 361.18052,258.94544 361.53125,257.71875 C 361.66145,257.26338 361.44268,257.09512 361.1875,257.03125 z M 373.8125,257.40625 C 373.01729,257.67914 372.40241,258.12371 371.96875,258.8125 C 371.96483,258.82165 371.97258,258.83457 371.96875,258.84375 C 371.96059,258.8569 371.94555,258.86167 371.9375,258.875 C 371.71637,259.42104 371.64256,260.00759 371.59375,260.65625 C 371.57578,261.21669 371.85995,261.62018 372.3125,262.03125 C 372.82969,262.50324 372.96026,262.49775 373.6875,262.5 C 373.70232,262.50005 373.70342,262.49995 373.71875,262.5 C 374.24967,262.36907 374.64055,262.01431 375,261.5 C 375.38157,260.89059 375.62564,260.19978 375.8125,259.46875 C 375.81445,259.45858 375.81057,259.44779 375.8125,259.4375 C 375.87055,259.12762 375.90407,258.7895 375.875,258.5 C 375.84496,258.20089 375.79382,257.99438 375.59375,257.875 C 375.60091,257.87927 375.45846,257.86121 375.375,257.84375 C 375.31351,257.86179 375.25162,257.88716 375.1875,257.90625 C 375.17065,257.93998 375.14965,257.97147 375.125,258 C 375.12236,258.01687 375.13095,258.00963 375.125,258.03125 C 375.12238,258.05831 375.13505,258.05722 375.125,258.09375 C 375.12536,258.10416 375.12536,258.11459 375.125,258.125 C 375.07632,258.24933 375.06159,258.37612 375.0625,258.5625 C 375.06341,258.74888 375.06347,258.99468 375,259.28125 C 374.8617,259.87462 374.68389,260.51757 374.3125,261.09375 C 374.31286,261.10416 374.31286,261.11459 374.3125,261.125 C 374.24901,261.21254 374.14666,261.31968 374.03125,261.4375 C 374.0249,261.44398 374.0378,261.46232 374.03125,261.46875 C 374.03122,261.46886 373.90636,261.6874 373.90625,261.6875 C 373.90614,261.6876 373.78143,261.74991 373.78125,261.75 C 373.78107,261.75009 373.719,261.78117 373.71875,261.78125 C 373.7185,261.78133 373.69936,261.77883 373.6875,261.78125 C 373.64004,261.79094 373.61087,261.81201 373.59375,261.8125 C 373.52526,261.81444 373.50692,261.78676 373.46875,261.78125 C 373.33118,261.76141 373.12443,261.74793 372.90625,261.53125 C 372.88227,261.50744 372.8679,261.49808 372.84375,261.46875 C 372.77484,261.41657 372.69063,261.38277 372.59375,261.28125 C 372.46962,261.15118 372.35861,260.92952 372.34375,260.6875 C 372.32438,260.22157 372.30387,259.69619 372.5,259.1875 C 372.50879,259.16589 372.51924,259.145 372.53125,259.125 C 372.87898,258.4453 373.53112,258.07654 374.125,257.84375 C 374.22772,257.80349 374.24837,257.78663 374.28125,257.71875 C 374.29166,257.71839 374.30209,257.71839 374.3125,257.71875 C 374.31214,257.70834 374.31214,257.69791 374.3125,257.6875 C 374.31387,257.68058 374.31196,257.66419 374.3125,257.65625 C 374.32182,257.51931 374.20833,257.27041 373.8125,257.40625 z M 357.0625,257.4375 C 357.00083,257.42705 356.85966,257.46601 356.6875,257.46875 C 356.66119,257.47694 356.64741,257.46087 356.625,257.46875 C 356.5167,257.50683 356.40651,257.57146 356.375,257.59375 C 356.3291,257.62623 356.30686,257.62724 356.28125,257.6875 C 356.24419,257.77886 356.17837,257.85566 356.09375,257.90625 C 356.0341,257.93768 355.99974,257.92932 355.96875,257.9375 C 355.16813,258.57559 354.63453,259.38895 354.3125,260.375 C 354.30951,260.39004 354.31533,260.3915 354.3125,260.40625 C 354.21346,260.92281 354.19598,261.27852 354.28125,261.5 C 354.36517,261.71798 354.57807,261.90159 355.03125,262.125 C 355.94565,262.32018 356.74566,262.06138 357.5,261.46875 C 357.51099,261.45803 357.52048,261.44829 357.53125,261.4375 C 358.20672,260.76086 358.46994,259.93763 358.4375,258.96875 C 358.28711,258.22371 357.79603,257.56184 357.0625,257.4375 z M 369.1875,257.71875 C 369.15695,257.71829 369.18884,257.69327 369.125,257.78125 C 369.01895,257.90976 368.85096,257.96975 368.6875,257.9375 C 368.4737,257.90565 368.47959,257.91221 368.5,257.90625 C 367.7951,258.11198 367.13208,258.32609 366.875,258.8125 C 366.8497,258.86037 366.82811,259.00415 366.78125,259.15625 C 366.781,259.76063 367.0627,260.08783 367.65625,260.3125 C 367.89021,260.33752 368.07254,260.27406 368.3125,260.15625 C 368.44058,260.10174 368.58661,260.10909 368.70857,260.17617 C 368.83054,260.24325 368.91494,260.36264 368.9375,260.5 C 368.9507,260.61075 368.95991,260.69959 368.96875,260.78125 C 368.96972,260.79022 368.9677,260.80379 368.96875,260.8125 C 369.05408,261.29885 369.1123,261.75873 369.21875,262.125 C 369.23337,262.14924 369.23366,262.16004 369.3125,262.1875 C 369.35257,262.20146 369.43819,262.23581 369.5,262.25 C 369.61725,262.16044 369.75368,262.08586 369.8125,262.0625 C 369.8611,261.67909 369.78541,261.26682 369.71875,260.75 C 369.65907,260.36262 369.62322,260.01664 369.5625,259.6875 C 369.56075,259.67802 369.56431,259.66569 369.5625,259.65625 C 369.55158,259.64635 369.54115,259.63592 369.53125,259.625 C 369.50408,259.58681 369.483,259.54465 369.46875,259.5 C 369.40643,259.25638 369.45801,259.09445 369.46875,258.96875 C 369.46986,258.91523 369.48044,258.86233 369.5,258.8125 C 369.63806,258.53467 369.74423,258.41452 369.75,258.375 C 369.7529,258.35703 369.73079,258.25859 369.6875,258.15625 C 369.65503,258.0795 369.62405,258.01363 369.59375,257.96875 C 369.34851,257.74401 369.21741,257.7192 369.1875,257.71875 z M 347.03125,257.90625 C 346.84877,257.92804 346.65201,257.97284 346.65625,257.96875 C 346.67753,258.04577 346.68688,258.15331 346.6875,258.1875 C 346.68809,258.21996 346.68643,258.24805 346.6875,258.28125 C 347.07823,258.848 347.20248,259.5437 346.96875,260.1875 C 346.95996,260.20911 346.94951,260.23 346.9375,260.25 C 346.59906,260.91373 346.08581,261.49988 345.40625,261.9375 C 345.40756,261.96276 345.40942,261.9708 345.40625,262 C 345.38978,262.15182 345.26061,262.32043 345.15625,262.375 C 344.94753,262.48414 344.85882,262.42841 344.78125,262.40625 C 344.47099,262.31762 344.28565,262.04304 344.21875,261.65625 C 344.21839,261.64584 344.21839,261.63541 344.21875,261.625 C 344.1983,261.14676 344.40417,260.74095 344.65625,260.4375 C 344.90833,260.13405 345.19305,259.90793 345.4375,259.71875 C 345.52439,259.6515 345.5302,259.61225 345.53125,259.59375 C 345.5323,259.57525 345.53126,259.5349 345.5,259.5 C 345.43749,259.43019 345.35733,259.36106 345.1875,259.5 C 344.41288,260.13374 343.96174,260.64643 343.84375,261.5625 C 343.87424,261.80627 343.95384,262.06634 344.0625,262.28125 C 344.17987,262.51338 344.31857,262.65069 344.5,262.6875 C 344.58894,262.70555 344.76418,262.66233 344.96875,262.65625 C 345.97455,262.25069 346.79719,261.47016 347.4375,260.53125 C 347.44721,260.511 347.45941,260.48936 347.46875,260.46875 C 347.64466,260.08076 347.75949,259.62859 347.75,259.21875 C 347.74,258.78714 347.61312,258.40071 347.3125,258.09375 C 347.26024,258.04038 347.1383,257.97744 347.03125,257.90625 z M 356.71875,258.34375 C 356.79579,258.34566 356.87108,258.36717 356.9375,258.40625 C 356.90994,258.39228 356.96625,258.41719 357.09375,258.46875 C 357.22125,258.52031 357.42862,258.65895 357.5,258.875 C 357.50324,258.90617 357.50324,258.93758 357.5,258.96875 C 357.61855,259.67038 357.41805,260.35917 356.9375,260.875 C 356.9175,260.88701 356.89661,260.89746 356.875,260.90625 C 356.56526,261.17369 356.25556,261.22646 355.96875,261.3125 C 355.961,261.32471 355.96514,261.31203 355.9375,261.34375 C 355.92942,261.36239 355.92068,261.37929 355.90625,261.40625 C 355.89453,261.42816 355.88728,261.4486 355.84375,261.5 C 355.83287,261.51285 355.83204,261.54477 355.8125,261.5625 C 355.79296,261.58023 355.71948,261.62459 355.71875,261.625 C 355.71802,261.62541 355.56316,261.65617 355.5625,261.65625 C 355.56184,261.65633 355.31309,261.62527 355.3125,261.625 C 355.12005,261.53468 355.03231,261.36522 355,261.25 C 354.96769,261.13478 354.96725,261.04657 354.96875,260.96875 C 354.97025,260.89093 354.96336,260.83039 354.96875,260.78125 C 354.97414,260.73211 354.96741,260.65542 354.96875,260.71875 C 354.97316,260.67581 354.98369,260.63372 355,260.59375 C 355.24516,259.74457 355.77609,259.02066 356.4375,258.46875 C 356.51381,258.39557 356.61329,258.35135 356.71875,258.34375 z M 367.75,258.84375 C 367.86422,258.80844 367.98777,258.81967 368.09375,258.875 C 368.00901,258.83458 368.01215,258.85553 368.1875,258.875 C 368.39011,258.91295 368.54163,259.08278 368.55632,259.28839 C 368.57101,259.494 368.44516,259.68364 368.25,259.75 C 368.17296,259.77485 368.21006,259.74865 368.15625,259.75 C 368.16877,259.74066 368.06675,259.86463 367.78125,259.84375 C 367.71909,259.83919 367.61782,259.85632 367.5,259.75 C 367.38218,259.64368 367.32778,259.41816 367.34375,259.3125 C 367.3757,259.10117 367.43536,259.09998 367.46875,259.0625 C 367.53552,258.98753 367.57832,258.94084 367.625,258.90625 C 367.66319,258.87908 367.70535,258.858 367.75,258.84375 z M 363.71875,259.03125 C 363.51532,259.01082 363.3674,259.04841 363.0625,259.21875 C 362.88199,259.3196 362.8305,259.39458 362.8125,259.46875 C 362.7945,259.54292 362.8197,259.63268 362.875,259.71875 C 362.9856,259.89088 363.21566,260.04687 363.59375,259.875 C 363.93948,259.71783 364.03681,259.62491 364.09375,259.53125 C 364.12222,259.48442 364.15755,259.29943 364.1875,259.1875 C 364.02425,259.13282 363.83384,259.04281 363.71875,259.03125 z M 341.65625,259.09375 C 341.568,259.12755 341.55805,259.11992 341.53125,259.21875 C 341.38898,259.74334 341.15781,260.32555 340.96875,260.90625 C 340.77969,261.48695 340.62875,262.06119 340.65625,262.4375 C 340.66335,262.53457 340.73751,262.66995 340.78125,262.8125 C 340.87287,262.69318 340.94839,262.56521 341,262.46875 C 341.18581,262.12148 341.33237,261.59023 341.46875,261.03125 C 341.60513,260.47227 341.72392,259.899 342.03125,259.375 C 342.07971,259.29237 342.09779,259.26912 342.09375,259.25 C 342.08971,259.23088 342.07446,259.19205 342.03125,259.15625 C 341.94482,259.08465 341.73954,259.06185 341.65625,259.09375 z M 350.96875,259.96875 C 350.78328,260.00218 350.65232,260.15848 350.375,260.40625 C 350.25491,260.51354 350.2451,260.55325 350.25,260.59375 C 350.2549,260.63425 350.29222,260.68714 350.375,260.75 C 350.45778,260.81286 350.58956,260.87918 350.6875,260.875 C 350.78544,260.87082 350.86595,260.84022 350.96875,260.71875 C 351.1628,260.48947 351.29164,260.32522 351.3125,260.21875 C 351.31325,260.2149 351.29352,260.16735 351.28125,260.0625 C 351.27881,260.04162 351.28392,259.99415 351.28125,259.96875 C 351.17854,259.95956 351.00341,259.9625 350.96875,259.96875 z M 363.875,261.40625 C 363.92148,261.40344 363.68228,261.45669 363.5,261.53125 C 363.31772,261.60581 363.14489,261.69885 363.03125,261.75 C 362.84912,261.83198 362.82983,261.8985 362.8125,261.96875 C 362.79517,262.039 362.77962,262.14696 362.84375,262.25 C 362.97201,262.45609 363.20788,262.61879 363.5625,262.4375 C 363.68385,262.37546 363.8633,262.30863 364.03125,262.21875 C 364.1992,262.12887 364.38617,261.97973 364.34375,262.03125 C 364.39029,261.97472 364.44204,261.76737 364.5625,261.53125 C 364.18934,261.50057 363.97532,261.40018 363.875,261.40625 z"
       id="path5009" />
    <path
       style="fill:#000000;fill-opacity:1;fill-rule:nonzero;stroke:none;stroke-width:1px;stroke-linecap:butt;stroke-linejoin:miter;stroke-opacity:1;opacity:0.05;filter:url(#filter5175)"
       d="M 317.34744,179.51315 C 317.00776,174.83618 319.8682,161.64358 322.37531,162.28981 C 320.79215,168.38277 324.05907,177.71364 319.39652,181.75827 C 318.20731,181.81303 317.18015,180.70479 317.34744,179.51315 z M 307.23749,151.89522 C 309.77929,153.00186 315.69092,154.65683 308.11541,154.41101 C 305.40208,156.18997 304.1305,151.49491 307.23749,151.89522 z M 301.06494,111.30348 C 303.84424,111.70962 311.26509,112.40124 303.96509,113.97819 C 300.94906,116.35116 296.01271,112.55578 301.06494,111.30348 z M 317.1676,58.165932 C 320.22028,61.809201 322.12256,65.459414 316.16922,61.135434 C 312.85411,60.582487 314.66395,55.931529 317.1676,58.165932 z M 350.16681,37.347343 C 356.19189,31.760612 364.27538,29.374606 368.767,27.64691 C 362.14827,29.778856 355.63955,40.832698 349.59977,38.384021 L 349.72398,37.849981 L 350.16681,37.347342 L 350.16681,37.347343 z M 394.47891,30.511267 C 398.25872,31.732851 408.8261,41.405165 398.73279,36.283704 C 397.01452,35.169384 387.57029,30.984839 394.47891,30.511267 z M 433.62286,49.029892 C 432.94887,52.982989 428.86836,64.720772 429.22023,53.541464 C 428.41647,50.701903 431.9559,42.183378 433.62286,49.029892 z M 440.56531,79.431778 C 445.59618,79.417709 451.2446,79.700047 455.56653,81.919289 C 451.01184,81.617998 439.29598,86.569296 438.51444,80.542431 C 438.88612,79.800766 439.73508,79.331428 440.56531,79.431778 z M 477.12762,105.79731 C 476.72637,105.16506 467.91703,115.91448 472.46574,108.20804 C 472.23883,104.93961 477.97496,99.639583 477.12762,105.79731 z M 455.05539,127.05999 C 459.84617,132.34335 463.96177,139.26008 464.22797,146.31305 C 461.24856,139.97466 450.49432,132.84405 452.62411,126.47861 C 453.44159,126.07434 454.49187,126.35704 455.05539,127.05999 z M 439.79614,167.59958 C 441.959,170.91637 442.96885,180.89036 441.99539,177.73251 C 443.68793,183.72812 434.49933,169.98768 436.81392,166.695 C 437.79667,165.88585 439.55249,166.20548 439.79614,167.59958 z M 422.08777,194.14577 C 415.6329,193.45543 410.58913,199.39493 406.18591,202.79106 C 408.73894,195.69362 415.78,187.36014 424.15011,191.52423 C 425.58184,192.85389 423.48913,194.58332 422.08777,194.14577 z M 378.71436,202.54366 C 376.35108,199.54776 368.61552,193.0228 377.53958,197.6212 C 379.62638,198.29878 384.48708,204.94265 378.71436,202.54366 z M 348.83112,186.66566 C 345.49293,186.38846 331.82089,183.76417 334.92834,182.47324 C 338.95927,182.84053 350.75057,181.53642 350.0514,186.43158 L 349.50273,186.65896 L 348.83113,186.66566 L 348.83112,186.66566 z M 351.03519,178.7215 C 353.61887,175.70518 365.38756,174.36091 356.01558,178.10683 C 355.07124,178.20493 349.34091,182.30239 351.03519,178.7215 z M 387.26974,175.09074 C 391.18404,174.3265 402.79458,171.64946 393.12952,176.30256 C 391.55185,178.20934 382.93478,179.3385 387.26974,175.09074 z M 422.32611,148.36534 C 424.14881,145.70262 434.78198,132.57451 427.89534,142.20605 C 426.85573,142.61471 422.84657,151.8213 422.32611,148.36534 z M 440.95996,107.86808 C 439.7593,104.16022 430.79518,91.090797 432.7684,92.44927 C 433.91608,94.291579 446.3436,107.8953 440.95996,107.86808 z M 403.65027,78.685493 C 400.08129,73.642032 385.01935,69.310425 385.11746,69.532515 C 391.66224,65.201655 406.81314,74.454456 403.65028,78.685496 L 403.65027,78.685493 z M 357.70117,78.26516 C 364.44214,77.656813 372.0612,76.839279 377.95248,80.333359 C 371.3436,80.769798 359.32404,86.988336 355.59742,80.054218 C 355.63743,79.000979 356.68103,78.201955 357.70117,78.26516 z M 338.52258,98.800804 C 333.51867,93.026059 322.98248,108.97902 328.44248,98.040944 C 328.97105,91.789477 346.24015,95.938563 338.52258,98.800804 z M 322.88516,128.59363 C 327.61673,133.03561 333.05494,137.39845 336.53391,142.61482 C 331.47489,139.47677 317.06831,134.73514 320.49881,127.85861 C 321.34706,127.57878 322.32376,127.91322 322.88516,128.59363 z M 351.06583,162.07533 C 354.56393,161.28137 363.5771,153.34948 363.88657,154.93178 C 363.20414,159.79705 348.62034,171.11338 351.06584,162.07533 L 351.06583,162.07533 z M 392.0611,141.24892 C 396.026,143.97223 404.76996,153.96384 403.21823,154.00091 C 400.20216,150.09119 409.44872,161.73454 402.8778,154.82145 C 398.60063,151.36418 386.53394,146.59031 389.46445,140.78945 C 390.3058,140.34711 391.41664,140.54711 392.0611,141.24892 z M 419.97623,122.66295 C 421.75774,118.13214 426.26675,115.33225 429.1842,112.07788 C 427.16616,112.92251 423.32925,132.83445 419.97623,122.66295 z M 398.59174,108.41662 C 394.33723,107.17774 383.6073,110.77427 393.48997,106.62189 C 394.93033,105.65229 403.5935,105.9756 398.59174,108.41662 z M 360.63611,123.938 C 365.50513,123.40152 379.90948,121.82398 380.07018,124.20428 C 373.88307,124.91962 362.81174,131.38395 358.91518,125.425 C 358.97227,124.56825 359.81196,123.93827 360.63611,123.938 z M 345.9476,77.172112 C 338.03546,76.243487 340.72655,67.088541 345.14401,63.953934 C 340.42422,69.399847 349.43505,73.38748 347.50853,77.008654 L 345.94759,77.172111 L 345.9476,77.172112 z M 369.20963,53.24836 C 371.32634,50.747102 385.90252,41.521534 377.54599,49.678735 C 376.42816,51.664171 367.59484,61.091725 369.20963,53.24836 z M 434.73117,76.079903 C 437.74442,78.972375 442.27366,83.552731 435.21775,79.06078 C 432.94291,79.423592 430.45871,75.138092 434.73117,76.079903 z M 437.70386,131.3933 C 439.28471,135.67011 438.05219,141.63883 435.76812,133.97306 C 433.52791,132.34351 435.89769,128.62366 437.70386,131.3933 z M 367.63071,110.60209 C 359.12603,109.10566 374.85574,105.08478 368.36513,110.73017 L 367.63071,110.60209 L 367.63071,110.60209 z M 308.77209,94.026932 C 310.29975,96.232646 314.25862,104.55921 308.75362,98.664877 C 304.52566,97.867604 303.9796,91.350435 308.77209,94.026932 z M 313.36484,83.460533 C 307.5685,84.883886 310.14962,80.522007 313.46728,80.302284 C 314.3894,80.828784 315.19806,83.683307 313.36484,83.460533 z M 294.18091,103.57924 C 290.66039,107.28122 291.85533,105.25871 291.73765,101.35201 C 292.57166,100.573 295.84616,102.67556 294.18091,103.57924 z M 298.18347,139.97861 C 296.27279,143.07582 294.89964,152.34735 293.87593,143.44057 C 293.01198,140.79832 298.065,133.73431 298.18347,139.97861 z M 327.76074,53.089336 C 328.18641,47.971719 337.80011,39.099676 340.12152,41.516341 C 337.29084,45.284579 331.36275,61.625985 327.76073,53.089335 L 327.76074,53.089336 z M 382.74026,100.30624 C 385.90486,101.23441 395.0887,101.12002 385.81847,103.07367 C 383.71633,105.68338 378.81605,101.00957 382.74026,100.30624 z M 402.63763,87.160271 C 405.39892,84.748259 413.58878,80.232021 406.91585,86.805513 C 406.43409,89.765027 400.81199,91.309286 402.63763,87.160271 z M 396.88983,48.213257 C 402.46727,44.41455 419.34624,46.0979 419.59337,46.284232 C 411.64099,46.284829 403.25887,53.945834 395.89157,51.072937 C 395.10274,50.075159 395.61692,48.496038 396.88983,48.213257 z M 343.3187,108.85023 C 344.28826,111.81475 342.53316,126.14723 341.0137,116.15113 C 339.42298,113.90988 338.74933,102.44671 343.3187,108.85023 z M 415.67184,169.91675 C 417.47921,172.8093 422.55192,181.452 415.7552,175.33835 C 411.26642,174.51633 409.61876,166.60298 415.67184,169.91675 z M 369.08514,181.84535 C 376.15347,191.11448 361.10243,180.35662 369.08514,181.84535 z M 392.21194,198.08875 C 393.77185,200.35803 401.38431,204.98111 393.89494,201.76596 C 389.91368,202.4087 386.7894,197.67443 392.21194,198.08875 z"
       id="path5045" />
    <path
       style="fill:#000000;fill-opacity:1;fill-rule:nonzero;stroke:none;stroke-width:1px;stroke-linecap:butt;stroke-linejoin:miter;stroke-opacity:1;filter:url(#filter5261);opacity:0.15517241"
       d="M 64.295135,361.69843 C 69.222408,354.29123 64.77938,365.66149 64.295135,361.69843 z M 75.075012,354.62216 C 83.955171,352.72202 71.698056,359.39188 75.075012,354.62216 z M 90.033066,352.1272 C 98.354356,352.41419 85.719041,355.09139 90.033066,352.1272 z M 101.02807,356.99246 C 117.58611,353.43082 96.370308,362.93806 101.02807,356.99246 z M 118.75317,336.56717 C 124.28916,331.20799 141.47951,343.70578 127.19567,338.75975 C 125.65685,337.30798 114.61833,341.38782 118.75317,336.56717 z M 142.00778,350.99374 C 151.17435,352.09069 136.01623,355.31023 142.00778,350.99374 z M 165.36401,353.00513 C 168.99137,355.55326 161.72088,353.41122 165.36401,353.00513 z M 181.78612,350.19003 C 190.69606,337.93159 184.00672,354.20409 181.78612,350.19003 z M 222.39206,342.67609 C 225.00148,345.78872 234.36641,353.78478 224.04386,348.11599 C 221.71651,347.69892 216.49125,340.09271 222.39206,342.67609 z M 212.86555,360.78238 C 220.34313,360.31877 217.37865,361.62463 212.80277,363.36834 C 212.04033,362.96169 211.3329,360.55423 212.86555,360.78238 z M 247.85229,357.80313 C 255.72088,360.07164 244.88602,359.09532 247.85229,357.80313 z M 267.08194,351.74878 C 268.42822,344.69141 275.56264,337.89893 270.56904,350.00204 C 271.49455,352.07553 266.71786,355.73958 267.08194,351.74878 z M 287.48523,334.97522 C 305.05733,348.01959 276.81525,335.39218 287.48523,334.97522 z M 325.06793,356.12653 C 333.17379,360.9454 318.99113,356.58785 325.06793,356.12653 z M 303.41714,354.86633 C 312.83144,356.69593 298.14327,357.77223 303.41713,354.86632 L 303.41714,354.86633 z M 339.14014,348.56723 C 345.59084,343.65237 348.66913,346.20683 340.33901,350.55334 C 339.05394,351.47854 337.64052,349.2505 339.14014,348.56723 z M 364.02371,338.50269 C 374.24723,347.29341 361.80237,343.2537 363.33459,338.05957 L 364.02372,338.50269 L 364.02371,338.50269 z M 404.86111,348.1868 C 409.54061,347.92144 413.20493,348.29201 406.1964,351.98 C 403.79701,353.21316 401.93978,348.44234 404.86111,348.1868 z M 383.61441,356.15256 C 397.19554,358.81026 377.02922,362.47385 382.04207,356.18814 L 383.6144,356.15256 L 383.61441,356.15256 z M 423.13315,356.16379 C 427.50703,359.05617 418.03783,357.64335 423.13315,356.16379 z M 446.159,351.11493 C 450.40449,345.7834 453.21271,344.05548 450.15893,351.964 C 449.43621,355.08554 443.76012,354.79931 446.159,351.11493 z M 394.91904,342.05914 C 391.98702,335.70477 402.33942,340.78177 394.91904,342.05914 z M 365.20822,333.55246 C 362.76674,326.75154 370.21052,336.33987 365.20821,333.55246 L 365.20822,333.55246 z M 329.27939,337.19016 C 326.55184,332.75268 335.24892,336.50955 329.27939,337.19016 z M 259.39566,320.37643 C 255.43503,313.5397 264.39683,322.49553 259.39566,320.37644 L 259.39566,320.37643 z M 200.31155,324.45508 C 211.77299,332.1035 193.21025,325.9938 200.31155,324.45508 z M 147.22079,325.76547 C 150.61202,316.22984 152.55277,322.88346 148.46223,327.60551 C 147.44695,327.91298 146.70118,326.58087 147.22079,325.76547 z M 110.01019,310.49271 C 107.90907,314.25664 109.34836,308.32547 110.01019,310.49271 z M 78.994705,331.95099 C 73.423046,322.97996 86.82905,331.78077 80.129432,332.85862 L 78.994702,331.95098 L 78.994705,331.95099 z M 230.59065,288.67993 C 231.47725,293.18272 226.16236,287.02214 230.59065,288.67993 z M 409.87613,313.15625 C 414.81058,312.40905 407.8214,317.50432 409.87613,313.15625 z M 80.787697,300.69849 C 82.939813,306.89327 77.471715,305.27215 76.725137,300.19218 C 77.624068,298.73063 80.640777,298.65774 80.787697,300.69849 z"
       id="path5179" />
  </g>
  <g
     inkscape:label="Stencil"
     inkscape:groupmode="layer"
     id="layer1"
     sodipodi:insensitive="true"
     style="opacity:0.10775865;display:none;filter:url(#filter5015)">
    <g
       id="g2689">
      <rect
         id="rect2387"
         height="512"
         width="512"
         y="0"
         x="0"
         style="fill:none;stroke:#0000ff;stroke-width:1px" />
      <g
         id="g2389"
         style="fill:#f2daf2;stroke:#000000;stroke-width:1px">
        <polygon
           id="polygon2391"
           points="233.081,22.663 257.01,34.401 258.11,32.46 233.081,22.663 " />
        <polygon
           id="polygon2393"
           points="298.671,58.077 258.11,32.46 257.01,34.401 295.329,63.445 298.671,58.077 " />
        <polygon
           id="polygon2395"
           points="372.572,363.769 372.572,235.375 355.775,235.375 355.775,363.769 372.572,363.769 " />
        <polygon
           id="polygon2397"
           points="389.525,363.769 389.525,235.375 372.572,235.375 372.572,363.769 389.525,363.769 " />
        <polygon
           id="polygon2399"
           points="338.725,363.769 338.725,235.375 321.907,235.375 321.907,363.769 338.725,363.769 " />
        <polygon
           id="polygon2401"
           points="355.775,363.769 355.775,235.375 338.725,235.375 338.725,363.769 355.775,363.769 " />
        <polygon
           id="polygon2403"
           points="304.863,363.769 304.863,235.375 288.055,235.375 288.055,363.769 304.863,363.769 " />
        <polygon
           id="polygon2405"
           points="321.907,363.769 321.907,235.375 304.863,235.375 304.863,363.769 321.907,363.769 " />
        <polygon
           id="polygon2407"
           points="271.052,363.769 271.052,235.375 254.282,235.375 254.282,363.769 271.052,363.769 " />
        <polygon
           id="polygon2409"
           points="288.055,363.769 288.055,235.375 271.052,235.375 271.052,363.769 288.055,363.769 " />
        <polygon
           id="polygon2411"
           points="237.313,363.769 237.313,235.375 220.603,235.375 220.603,363.769 237.313,363.769 " />
        <polygon
           id="polygon2413"
           points="254.282,363.769 254.282,235.375 237.313,235.375 237.313,363.769 254.282,363.769 " />
        <polygon
           id="polygon2415"
           points="203.678,363.769 203.678,235.375 187.007,235.375 187.007,363.769 203.678,363.769 " />
        <polygon
           id="polygon2417"
           points="220.603,363.769 220.603,235.375 203.678,235.375 203.678,363.769 220.603,363.769 " />
        <polygon
           id="polygon2419"
           points="170.144,363.769 170.144,235.375 153.552,235.375 153.552,363.769 170.144,363.769 " />
        <polygon
           id="polygon2421"
           points="187.007,363.769 187.007,235.375 170.144,235.375 170.144,363.769 187.007,363.769 " />
        <polygon
           id="polygon2423"
           points="136.767,363.769 136.767,235.375 120.259,235.375 120.259,363.769 136.767,363.769 " />
        <polygon
           id="polygon2425"
           points="153.552,363.769 153.552,235.375 136.767,235.375 136.767,363.769 153.552,363.769 " />
        <polygon
           id="polygon2427"
           points="103.558,235.375 103.558,363.769 120.259,363.769 120.259,235.375 103.558,235.375 " />
        <polygon
           id="polygon2429"
           points="406.269,363.769 406.269,235.375 389.525,235.375 389.525,363.769 406.269,363.769 " />
        <polygon
           id="polygon2431"
           points="423.166,235.375 423.166,363.769 439.032,363.769 439.032,235.375 423.166,235.375 " />
        <polygon
           id="polygon2433"
           points="87.122,363.769 87.122,235.375 72.646,235.375 72.646,363.769 87.122,363.769 " />
        <polygon
           id="polygon2435"
           points="406.269,235.375 406.269,363.769 423.166,363.769 423.166,235.375 406.269,235.375 " />
        <polygon
           id="polygon2437"
           points="103.558,363.769 103.558,235.375 87.122,235.375 87.122,363.769 103.558,363.769 " />
        <polygon
           id="polygon2439"
           points="455.978,363.769 455.978,299.572 439.032,363.769 455.978,363.769 " />
        <polygon
           id="polygon2441"
           points="56.387,363.769 72.646,363.769 56.387,299.572 56.387,363.769 " />
        <polygon
           id="polygon2443"
           points="423.166,371.314 423.166,495.918 439.032,495.918 439.032,371.314 423.166,371.314 " />
        <polygon
           id="polygon2445"
           points="406.269,371.314 406.269,495.918 423.166,495.918 423.166,371.314 406.269,371.314 " />
        <polygon
           id="polygon2447"
           points="389.525,371.314 389.525,495.918 406.269,495.918 406.269,371.314 389.525,371.314 " />
        <polygon
           id="polygon2449"
           points="389.525,495.918 389.525,371.314 372.572,371.314 372.572,495.918 389.525,495.918 " />
        <polygon
           id="polygon2451"
           points="372.572,495.918 372.572,371.314 355.775,371.314 355.775,495.918 372.572,495.918 " />
        <polygon
           id="polygon2453"
           points="338.725,371.314 338.725,495.918 355.775,495.918 355.775,371.314 338.725,371.314 " />
        <polygon
           id="polygon2455"
           points="321.907,371.314 321.907,495.918 338.725,495.918 338.725,371.314 321.907,371.314 " />
        <polygon
           id="polygon2457"
           points="304.863,371.314 304.863,495.918 321.907,495.918 321.907,371.314 304.863,371.314 " />
        <polygon
           id="polygon2459"
           points="288.055,371.314 288.055,495.918 304.863,495.918 304.863,371.314 288.055,371.314 " />
        <polygon
           id="polygon2461"
           points="271.052,371.314 271.052,495.918 288.055,495.918 288.055,371.314 271.052,371.314 " />
        <polygon
           id="polygon2463"
           points="254.282,371.314 254.282,495.918 271.052,495.918 271.052,371.314 254.282,371.314 " />
        <polygon
           id="polygon2465"
           points="237.313,371.314 237.313,495.918 254.282,495.918 254.282,371.314 237.313,371.314 " />
        <polygon
           id="polygon2467"
           points="220.603,371.314 220.603,495.918 237.313,495.918 237.313,371.314 220.603,371.314 " />
        <polygon
           id="polygon2469"
           points="203.678,371.314 203.678,495.918 220.603,495.918 220.603,371.314 203.678,371.314 " />
        <polygon
           id="polygon2471"
           points="187.007,371.314 187.007,495.918 203.678,495.918 203.678,371.314 187.007,371.314 " />
        <polygon
           id="polygon2473"
           points="170.144,371.314 170.144,495.918 187.007,495.918 187.007,371.314 170.144,371.314 " />
        <polygon
           id="polygon2475"
           points="153.552,371.314 153.552,495.918 170.144,495.918 170.144,371.314 153.552,371.314 " />
        <polygon
           id="polygon2477"
           points="136.767,371.314 136.767,495.918 153.552,495.918 153.552,371.314 136.767,371.314 " />
        <polygon
           id="polygon2479"
           points="120.259,371.314 120.259,495.918 136.767,495.918 136.767,371.314 120.259,371.314 " />
        <polygon
           id="polygon2481"
           points="103.558,371.314 103.558,495.918 120.259,495.918 120.259,371.314 103.558,371.314 " />
        <polygon
           id="polygon2483"
           points="87.122,371.314 87.122,495.918 103.558,495.918 103.558,371.314 87.122,371.314 " />
        <polygon
           id="polygon2485"
           points="72.646,371.314 72.646,495.918 87.122,495.918 87.122,371.314 72.646,371.314 " />
        <polygon
           id="polygon2487"
           points="455.978,371.314 439.032,371.314 455.978,433.616 455.978,371.314 " />
        <polygon
           id="polygon2489"
           points="56.387,371.314 56.387,433.616 72.646,371.314 56.387,371.314 " />
        <polygon
           id="polygon2491"
           points="56.387,495.918 72.646,495.918 56.387,433.616 56.387,495.918 " />
        <polygon
           id="polygon2493"
           points="72.646,495.918 72.646,371.314 56.387,433.616 72.646,495.918 " />
        <polygon
           id="polygon2495"
           points="455.978,495.918 455.978,433.616 439.032,495.918 455.978,495.918 " />
        <polygon
           id="polygon2497"
           points="455.978,433.616 439.032,371.314 439.032,495.918 455.978,433.616 " />
        <polygon
           id="polygon2499"
           points="455.978,235.375 439.032,235.375 455.978,299.572 455.978,235.375 " />
        <polygon
           id="polygon2501"
           points="439.032,235.375 439.032,363.769 455.978,299.572 439.032,235.375 " />
        <polygon
           id="polygon2503"
           points="56.387,235.375 56.387,299.572 72.646,235.375 56.387,235.375 " />
        <polygon
           id="polygon2505"
           points="56.387,299.572 72.646,363.769 72.646,235.375 56.387,299.572 " />
        <polygon
           id="polygon2507"
           points="162.468,133.078 116.431,121.547 202.314,171.132 162.468,133.078 " />
        <polygon
           id="polygon2509"
           points="211.831,148.726 162.468,133.078 202.314,171.132 211.831,148.726 " />
        <polygon
           id="polygon2511"
           points="162.445,105.312 202.314,71.962 116.431,121.547 162.445,105.312 " />
        <polygon
           id="polygon2513"
           points="162.445,105.312 211.868,92.575 202.314,71.962 162.445,105.312 " />
        <polygon
           id="polygon2515"
           points="186.682,51.53 116.431,121.547 202.314,71.962 186.682,51.53 " />
        <polygon
           id="polygon2517"
           points="166.016,35.664 116.431,121.547 186.682,51.53 166.016,35.664 " />
        <polygon
           id="polygon2519"
           points="186.453,191.795 116.431,121.547 166.016,207.431 186.453,191.795 " />
        <polygon
           id="polygon2521"
           points="202.314,171.132 116.431,121.547 186.453,191.795 202.314,171.132 " />
        <polygon
           id="polygon2523"
           points="142.262,25.787 116.431,121.547 166.016,35.664 142.262,25.787 " />
        <polygon
           id="polygon2525"
           points="116.43,22.378 116.431,121.547 142.262,25.787 116.43,22.378 " />
        <polygon
           id="polygon2527"
           points="90.921,25.703 116.431,121.547 116.43,22.378 90.921,25.703 " />
        <polygon
           id="polygon2529"
           points="66.846,35.664 116.431,121.547 90.921,25.703 66.846,35.664 " />
        <polygon
           id="polygon2531"
           points="46.417,51.301 116.431,121.547 66.846,35.664 46.417,51.301 " />
        <polygon
           id="polygon2533"
           points="30.547,71.963 116.431,121.547 46.417,51.301 30.547,71.963 " />
        <polygon
           id="polygon2535"
           points="20.674,95.721 116.431,121.547 30.547,71.963 20.674,95.721 " />
        <polygon
           id="polygon2537"
           points="17.261,121.548 116.431,121.547 20.674,95.721 17.261,121.548 " />
        <polygon
           id="polygon2539"
           points="20.59,147.062 116.431,121.547 17.261,121.548 20.59,147.062 " />
        <polygon
           id="polygon2541"
           points="30.547,171.133 116.431,121.547 20.59,147.062 30.547,171.133 " />
        <polygon
           id="polygon2543"
           points="46.188,191.566 116.431,121.547 30.547,171.133 46.188,191.566 " />
        <polygon
           id="polygon2545"
           points="66.846,207.431 116.431,121.547 46.188,191.566 66.846,207.431 " />
        <polygon
           id="polygon2547"
           points="90.608,217.308 116.431,121.547 66.846,207.431 90.608,217.308 " />
        <polygon
           id="polygon2549"
           points="116.431,220.717 116.431,121.547 90.608,217.308 116.431,220.717 " />
        <polygon
           id="polygon2551"
           points="141.949,217.392 116.431,121.547 116.431,220.717 141.949,217.392 " />
        <polygon
           id="polygon2553"
           points="166.016,207.431 116.431,121.547 141.949,217.392 166.016,207.431 " />
        <polygon
           id="polygon2555"
           points="163.66,114.773 215.248,116.423 211.868,92.575 162.445,105.312 163.66,114.773 " />
        <polygon
           id="polygon2557"
           points="215.357,122.455 163.796,118.604 162.468,133.078 211.831,148.726 215.357,122.455 " />
        <polygon
           id="polygon2559"
           points="162.445,105.312 116.431,121.547 139.127,119.7 162.445,105.312 " />
        <polygon
           id="polygon2561"
           points="163.66,114.773 162.445,105.312 139.127,119.7 163.66,114.773 " />
        <polygon
           id="polygon2563"
           points="162.468,133.078 163.796,118.604 139.127,119.7 162.468,133.078 " />
        <polygon
           id="polygon2565"
           points="116.431,121.547 162.468,133.078 139.127,119.7 116.431,121.547 " />
        <polygon
           id="polygon2567"
           points="382.751,114.356 313.158,40.37 298.671,58.077 382.751,114.356 " />
        <polygon
           id="polygon2569"
           points="382.751,114.356 298.671,58.077 295.329,63.445 382.751,114.356 " />
        <polygon
           id="polygon2571"
           points="382.751,114.356 295.329,63.445 285.053,87.583 382.751,114.356 " />
        <polygon
           id="polygon2573"
           points="382.751,114.356 285.053,87.583 281.467,112.961 382.751,114.356 " />
        <polygon
           id="polygon2575"
           points="284.579,139.301 294.345,163.791 382.751,114.356 284.579,139.301 " />
        <polygon
           id="polygon2577"
           points="281.467,112.961 284.579,139.301 382.751,114.356 281.467,112.961 " />
        <polygon
           id="polygon2579"
           points="310.211,185.044 330.913,201.373 382.751,114.356 310.211,185.044 " />
        <polygon
           id="polygon2581"
           points="294.345,163.791 310.211,185.044 382.751,114.356 294.345,163.791 " />
        <polygon
           id="polygon2583"
           points="355.28,211.843 381.372,215.635 382.751,114.356 355.28,211.843 " />
        <polygon
           id="polygon2585"
           points="330.913,201.373 355.28,211.843 382.751,114.356 330.913,201.373 " />
        <polygon
           id="polygon2587"
           points="407.711,212.517 432.202,202.757 382.751,114.356 407.711,212.517 " />
        <polygon
           id="polygon2589"
           points="381.372,215.635 407.711,212.517 382.751,114.356 381.372,215.635 " />
        <polygon
           id="polygon2591"
           points="453.454,186.885 469.784,166.19 382.751,114.356 453.454,186.885 " />
        <polygon
           id="polygon2593"
           points="432.202,202.757 453.454,186.885 382.751,114.356 432.202,202.757 " />
        <polygon
           id="polygon2595"
           points="480.253,141.816 484.046,115.73 382.751,114.356 480.253,141.816 " />
        <polygon
           id="polygon2597"
           points="469.784,166.19 480.253,141.816 382.751,114.356 469.784,166.19 " />
        <polygon
           id="polygon2599"
           points="480.926,89.385 471.169,64.9 382.751,114.356 480.926,89.385 " />
        <polygon
           id="polygon2601"
           points="484.046,115.73 480.926,89.385 382.751,114.356 484.046,115.73 " />
        <polygon
           id="polygon2603"
           points="455.294,43.642 434.601,27.319 382.751,114.356 455.294,43.642 " />
        <polygon
           id="polygon2605"
           points="471.169,64.9 455.294,43.642 382.751,114.356 471.169,64.9 " />
        <polygon
           id="polygon2607"
           points="410.225,16.844 384.142,13.056 382.751,114.356 410.225,16.844 " />
        <polygon
           id="polygon2609"
           points="434.601,27.319 410.225,16.844 382.751,114.356 434.601,27.319 " />
        <polygon
           id="polygon2611"
           points="357.795,16.17 333.311,25.934 382.751,114.356 357.795,16.17 " />
        <polygon
           id="polygon2613"
           points="384.142,13.056 357.795,16.17 382.751,114.356 384.142,13.056 " />
        <polygon
           id="polygon2615"
           points="382.751,114.356 333.311,25.934 313.158,40.37 382.751,114.356 " />
        <polygon
           id="polygon2617"
           points="72.646,371.314 87.122,371.314 87.122,363.769 72.646,363.769 72.646,371.314 " />
        <polygon
           id="polygon2619"
           points="56.387,371.314 72.646,371.314 72.646,363.769 56.387,363.769 56.387,371.314 " />
        <polygon
           id="polygon2621"
           points="439.032,363.769 423.166,363.769 423.166,371.314 439.032,371.314 439.032,363.769 " />
        <polygon
           id="polygon2623"
           points="455.978,363.769 439.032,363.769 439.032,371.314 455.978,371.314 455.978,363.769 " />
        <polygon
           id="polygon2625"
           points="136.767,363.769 120.259,363.769 120.259,371.314 136.767,371.314 136.767,363.769 " />
        <polygon
           id="polygon2627"
           points="153.552,363.769 136.767,363.769 136.767,371.314 153.552,371.314 153.552,363.769 " />
        <polygon
           id="polygon2629"
           points="170.144,371.314 187.007,371.314 187.007,363.769 170.144,363.769 170.144,371.314 " />
        <polygon
           id="polygon2631"
           points="153.552,371.314 170.144,371.314 170.144,363.769 153.552,363.769 153.552,371.314 " />
        <polygon
           id="polygon2633"
           points="203.678,371.314 220.603,371.314 220.603,363.769 203.678,363.769 203.678,371.314 " />
        <polygon
           id="polygon2635"
           points="187.007,371.314 203.678,371.314 203.678,363.769 187.007,363.769 187.007,371.314 " />
        <polygon
           id="polygon2637"
           points="237.313,371.314 254.282,371.314 254.282,363.769 237.313,363.769 237.313,371.314 " />
        <polygon
           id="polygon2639"
           points="220.603,371.314 237.313,371.314 237.313,363.769 220.603,363.769 220.603,371.314 " />
        <polygon
           id="polygon2641"
           points="271.052,371.314 288.055,371.314 288.055,363.769 271.052,363.769 271.052,371.314 " />
        <polygon
           id="polygon2643"
           points="254.282,371.314 271.052,371.314 271.052,363.769 254.282,363.769 254.282,371.314 " />
        <polygon
           id="polygon2645"
           points="304.863,371.314 321.907,371.314 321.907,363.769 304.863,363.769 304.863,371.314 " />
        <polygon
           id="polygon2647"
           points="288.055,371.314 304.863,371.314 304.863,363.769 288.055,363.769 288.055,371.314 " />
        <polygon
           id="polygon2649"
           points="338.725,371.314 355.775,371.314 355.775,363.769 338.725,363.769 338.725,371.314 " />
        <polygon
           id="polygon2651"
           points="321.907,371.314 338.725,371.314 338.725,363.769 321.907,363.769 321.907,371.314 " />
        <polygon
           id="polygon2653"
           points="372.572,371.314 389.525,371.314 389.525,363.769 372.572,363.769 372.572,371.314 " />
        <polygon
           id="polygon2655"
           points="355.775,371.314 372.572,371.314 372.572,363.769 355.775,363.769 355.775,371.314 " />
        <polygon
           id="polygon2657"
           points="406.269,371.314 423.166,371.314 423.166,363.769 406.269,363.769 406.269,371.314 " />
        <polygon
           id="polygon2659"
           points="389.525,371.314 406.269,371.314 406.269,363.769 389.525,363.769 389.525,371.314 " />
        <polygon
           id="polygon2661"
           points="103.558,371.314 120.259,371.314 120.259,363.769 103.558,363.769 103.558,371.314 " />
        <polygon
           id="polygon2663"
           points="87.122,371.314 103.558,371.314 103.558,363.769 87.122,363.769 87.122,371.314 " />
        <polygon
           id="polygon2665"
           points="487.582,235.375 455.978,235.375 462.071,246.619 487.582,246.619 487.582,235.375 " />
        <polygon
           id="polygon2667"
           points="462.071,299.572 455.978,299.572 455.978,363.769 462.071,363.769 462.071,299.572 " />
        <polygon
           id="polygon2669"
           points="455.978,299.572 462.071,299.572 462.071,246.619 455.978,235.375 455.978,299.572 " />
        <polygon
           id="polygon2671"
           points="502.862,235.375 487.582,235.375 487.582,246.619 502.862,246.619 502.862,235.375 " />
        <polygon
           id="polygon2673"
           points="23.798,246.619 51.197,246.619 56.387,235.375 23.798,235.375 23.798,246.619 " />
        <polygon
           id="polygon2675"
           points="56.387,299.572 51.197,299.572 51.197,363.769 56.387,363.769 56.387,299.572 " />
        <polygon
           id="polygon2677"
           points="51.197,299.572 56.387,299.572 56.387,235.375 51.197,246.619 51.197,299.572 " />
        <polygon
           id="polygon2679"
           points="23.798,235.375 7.848,235.375 7.848,246.619 23.798,246.619 23.798,235.375 " />
      </g>
    </g>
  </g>
</svg>
