<?xml version="1.0" encoding="UTF-8" standalone="no"?>
<!-- Created with Inkscape (http://www.inkscape.org/) -->
<svg
   xmlns:dc="http://purl.org/dc/elements/1.1/"
   xmlns:cc="http://creativecommons.org/ns#"
   xmlns:rdf="http://www.w3.org/1999/02/22-rdf-syntax-ns#"
   xmlns:svg="http://www.w3.org/2000/svg"
   xmlns="http://www.w3.org/2000/svg"
   xmlns:xlink="http://www.w3.org/1999/xlink"
   xmlns:sodipodi="http://sodipodi.sourceforge.net/DTD/sodipodi-0.dtd"
   xmlns:inkscape="http://www.inkscape.org/namespaces/inkscape"
   width="1500"
   height="512"
   id="svg2"
   sodipodi:version="0.32"
   inkscape:version="0.46"
   version="1.0"
   sodipodi:docname="Sky.svg"
   inkscape:output_extension="org.inkscape.output.svg.inkscape"
   style="display:inline">
  <defs
     id="defs4">
    <linearGradient
       id="linearGradient4968">
      <stop
         style="stop-color:#ffffff;stop-opacity:0;"
         offset="0"
         id="stop4970" />
      <stop
         id="stop4976"
         offset="0.5"
         style="stop-color:#ffffff;stop-opacity:1;" />
      <stop
         style="stop-color:#ffffff;stop-opacity:0;"
         offset="1"
         id="stop4972" />
    </linearGradient>
    <linearGradient
       id="linearGradient4123">
      <stop
         style="stop-color:#f8ff00;stop-opacity:1;"
         offset="0"
         id="stop4125" />
      <stop
         style="stop-color:#f5ff7f;stop-opacity:0;"
         offset="1"
         id="stop4127" />
    </linearGradient>
    <linearGradient
       id="linearGradient4105">
      <stop
         style="stop-color:#1d226b;stop-opacity:1;"
         offset="0"
         id="stop4107" />
      <stop
         id="stop4115"
         offset="0.25"
         style="stop-color:#4b52c3;stop-opacity:1;" />
      <stop
         style="stop-color:#a782d5;stop-opacity:1;"
         offset="0.375"
         id="stop4117" />
      <stop
         id="stop4119"
         offset="0.4375"
         style="stop-color:#cfaae2;stop-opacity:1;" />
      <stop
         id="stop4113"
         offset="0.5"
         style="stop-color:#c3c6f5;stop-opacity:1;" />
      <stop
         style="stop-color:#555fd2;stop-opacity:1"
         offset="1"
         id="stop4109" />
    </linearGradient>
    <linearGradient
       inkscape:collect="always"
       id="linearGradient3489">
      <stop
         style="stop-color:#ffffff;stop-opacity:1;"
         offset="0"
         id="stop3491" />
      <stop
         style="stop-color:#ffffff;stop-opacity:0;"
         offset="1"
         id="stop3493" />
    </linearGradient>
    <inkscape:perspective
       sodipodi:type="inkscape:persp3d"
       inkscape:vp_x="0 : 526.18109 : 1"
       inkscape:vp_y="0 : 1000 : 0"
       inkscape:vp_z="744.09448 : 526.18109 : 1"
       inkscape:persp3d-origin="372.04724 : 350.78739 : 1"
       id="perspective10" />
    <inkscape:perspective
       id="perspective2390"
       inkscape:persp3d-origin="372.04724 : 350.78739 : 1"
       inkscape:vp_z="744.09448 : 526.18109 : 1"
       inkscape:vp_y="0 : 1000 : 0"
       inkscape:vp_x="0 : 526.18109 : 1"
       sodipodi:type="inkscape:persp3d" />
    <linearGradient
       inkscape:collect="always"
       xlink:href="#linearGradient3489"
       id="linearGradient3502"
       gradientUnits="userSpaceOnUse"
       x1="662.24152"
       y1="57.857689"
       x2="478.94287"
       y2="328.78897" />
    <linearGradient
       inkscape:collect="always"
       xlink:href="#linearGradient4105"
       id="linearGradient4111"
       x1="750"
       y1="-1.1635375"
       x2="750"
       y2="512.26947"
       gradientUnits="userSpaceOnUse" />
    <filter
       inkscape:collect="always"
       id="filter4329"
       x="-0.034014624"
       width="1.0680292"
       y="-1.1664664"
       height="3.3329325">
      <feGaussianBlur
         inkscape:collect="always"
         stdDeviation="23.653068"
         id="feGaussianBlur4331" />
    </filter>
    <linearGradient
       inkscape:collect="always"
       xlink:href="#linearGradient4968"
       id="linearGradient4974"
       x1="382.80481"
       y1="173.85358"
       x2="1121.4004"
       y2="173.85358"
       gradientUnits="userSpaceOnUse" />
    <filter
       inkscape:collect="always"
       id="filter5126"
       x="-0.07469973"
       width="1.1493995"
       y="-0.33311567"
       height="1.6662313">
      <feGaussianBlur
         inkscape:collect="always"
         stdDeviation="22.988707"
         id="feGaussianBlur5128" />
    </filter>
    <radialGradient
       inkscape:collect="always"
       xlink:href="#linearGradient4123"
       id="radialGradient5130"
       cx="762.40271"
       cy="231.6669"
       fx="762.40271"
       fy="231.6669"
       r="834.45526"
       gradientTransform="matrix(1,0,0,2.9160401e-2,0,224.9114)"
       gradientUnits="userSpaceOnUse" />
  </defs>
  <sodipodi:namedview
     id="base"
     pagecolor="#ffffff"
     bordercolor="#666666"
     borderopacity="1.0"
     gridtolerance="10000"
     guidetolerance="10"
     objecttolerance="10"
     inkscape:pageopacity="0.0"
     inkscape:pageshadow="2"
     inkscape:zoom="0.70710678"
     inkscape:cx="756.28828"
     inkscape:cy="258.38776"
     inkscape:document-units="px"
     inkscape:current-layer="layer3"
     showgrid="false"
     showguides="true"
     inkscape:guide-bbox="true"
     inkscape:window-width="1679"
     inkscape:window-height="997"
     inkscape:window-x="0"
     inkscape:window-y="25"
     inkscape:snap-global="false">
    <sodipodi:guide
       orientation="0,1"
       position="823.18778,256"
       id="guide3171" />
    <sodipodi:guide
       orientation="1,0"
       position="750,364.0542"
       id="guide3173" />
    <sodipodi:guide
       orientation="0,1"
       position="992.03689,454.14231"
       id="guide3387" />
    <sodipodi:guide
       orientation="0,1"
       position="910,406"
       id="guide5132" />
    <sodipodi:guide
       orientation="1,0"
       position="329.14388,635.2536"
       id="guide5146" />
    <sodipodi:guide
       orientation="1,0"
       position="1179.0496,641.19329"
       id="guide5148" />
  </sodipodi:namedview>
  <metadata
     id="metadata7">
    <rdf:RDF>
      <cc:Work
         rdf:about="">
        <dc:format>image/svg+xml</dc:format>
        <dc:type
           rdf:resource="http://purl.org/dc/dcmitype/StillImage" />
      </cc:Work>
    </rdf:RDF>
  </metadata>
  <g
     inkscape:groupmode="layer"
     id="layer2"
     inkscape:label="BG"
     style="opacity:1;display:inline"
     sodipodi:insensitive="true">
    <rect
       style="opacity:1;fill:url(#linearGradient4111);fill-opacity:1;fill-rule:evenodd;stroke:none;stroke-width:1px;stroke-linecap:butt;stroke-linejoin:miter;marker:none;marker-start:none;marker-mid:none;marker-end:none;stroke-miterlimit:4;stroke-dasharray:none;stroke-dashoffset:0;stroke-opacity:1;visibility:visible;display:inline;overflow:visible;enable-background:accumulate"
       id="rect3169"
       width="1500"
       height="512"
       x="0"
       y="0" />
    <rect
       style="opacity:0.75;fill:url(#radialGradient5130);fill-opacity:1;fill-rule:evenodd;stroke:none;stroke-width:1;stroke-linecap:butt;stroke-linejoin:miter;marker:none;marker-start:none;marker-mid:none;marker-end:none;stroke-miterlimit:4;stroke-dasharray:none;stroke-dashoffset:0;stroke-opacity:1;visibility:visible;display:inline;overflow:visible;filter:url(#filter4329);enable-background:accumulate"
       id="rect4121"
       width="1668.9105"
       height="48.6661"
       x="-72.052567"
       y="207.33385"
       transform="matrix(0.9866286,0,0,1.5517916,-0.9634448,-141.25861)" />
    <rect
       style="opacity:0.57758622;fill:url(#linearGradient4974);fill-opacity:1;fill-rule:nonzero;stroke:#555fd2;stroke-width:1px;stroke-linecap:butt;stroke-linejoin:miter;marker:none;marker-start:none;marker-mid:none;marker-end:none;stroke-miterlimit:4;stroke-dasharray:none;stroke-dashoffset:0;stroke-opacity:1;visibility:visible;display:inline;overflow:visible;filter:url(#filter5126);enable-background:accumulate"
       id="rect4966"
       width="737.59564"
       height="164.62685"
       x="383.30481"
       y="91.540161" />
  </g>
  <g
     inkscape:groupmode="layer"
     id="layer4"
     inkscape:label="C0"
     style="display:inline"
     sodipodi:insensitive="true">
    <path
       style="opacity:0.40086209;fill:url(#linearGradient3502);fill-opacity:1;fill-rule:nonzero;stroke:#0c22ff;stroke-width:1px;stroke-linecap:butt;stroke-linejoin:miter;stroke-opacity:0.53393668"
       d="M 920.96875,50.3125 C 884.44258,61.813556 814.71394,85.729667 765.25202,114.97886 C 719.5425,143.86824 668.61739,174.095 639.27404,220.30211 C 670.57666,198.12362 704.18384,158.59473 741.8885,137.19037 C 797.02517,100.1123 860.71797,75.48932 920.96875,50.3125 z M 754.28125,56.09375 C 695.50416,87.903205 648.60118,138.56222 608.5627,191.28581 C 591.0279,218.4215 609.99342,227.0828 616.41567,195.00836 C 653.39275,141.06372 703.09472,95.556498 754.28125,56.09375 z M 291.59375,65 C 353.86854,102.09714 408.08846,155.5189 448.94082,214.6905 C 432.78109,173.29998 394.18001,141.673 361.46,111.87207 C 339.82187,93.956615 315.52095,79.557075 291.59375,65 z M 198.125,65.625 C 279.18259,102.8468 357.34706,150.02784 422.9375,211.40625 C 406.21649,180.99712 355.19445,151.74549 321.0167,128.37628 C 281.90418,104.03299 240.42545,83.708031 198.125,65.625 z M 1025.6875,66.84375 C 905.26363,97.460881 786.47215,144.14811 687.0625,219.96875 C 716.7467,220.67903 770.10459,163.75284 811.22278,150.56458 C 879.68692,116.12924 953.89707,90.999579 1025.6875,66.84375 z M 1357.125,84.46875 C 1192.6297,93.232962 1036.4045,149.705 880.33779,197.60483 C 853.37629,214.04064 944.93917,180.2878 933.84847,183.72002 C 1071.1122,136.94606 1212.1457,92.998381 1357.125,84.46875 z M 640.0625,85.9375 C 603.18594,123.58176 580.2594,173.13032 564.71875,222.78125 C 583.78751,210.15409 591.7818,156.96663 610.97699,132.74211 C 620.50347,117.12057 628.9747,100.12903 640.0625,85.9375 z M 415.09375,89.375 C 449.61873,125.14326 479.61882,172.74926 472.38612,224.8026 C 491.91733,194.21155 464.53589,135.14655 435.98752,107.90459 C 429.50222,101.1958 421.70187,95.935917 415.09375,89.375 z M 557.0625,92.25 C 549.32959,135.21379 538.16725,182.44483 543.99851,225.47108 C 556.01425,191.65749 555.76575,134.48065 557.0625,92.25 L 557.0625,92.25 z M 149.59375,95.90625 C 234.94693,129.62548 316.98687,173.21214 397.40625,217.90625 C 365.76069,196.16778 316.29162,171.80325 276.5383,151.8678 C 234.78241,132.00704 192.48434,113.1291 149.59375,95.90625 z M 1442.0938,99.9375 C 1291.0773,125.72196 1138.3637,149.02367 992.71875,197.90625 C 987.42683,209.86368 1049.6005,178.95286 1070.2079,176.22661 C 1191.6462,140.81434 1318.5207,121.57485 1442.0938,99.9375 z M 1034.7812,102.1875 C 926.76449,118.79662 826.17818,164.63642 728.99304,212.33596 C 756.82343,215.0372 790.48504,184.08695 820.7146,174.5938 C 888.62187,141.55959 962.05051,118.74407 1034.7812,102.1875 z M 485.86865,104.84129 C 508.03296,139.51662 495.27381,202.13306 513.5184,224.72272 C 521.00766,185.87478 516.6282,133.57965 485.86865,104.84129 z M 1172.9375,108.375 C 1032.9745,123.50476 890.85704,151.18324 765.61613,218.03321 C 731.5431,251.13428 798.66007,208.18783 826.17675,193.83432 C 935.92678,146.36859 1055.8138,124.18377 1172.9375,108.375 z M 37.15625,115.90625 C 112.56242,146.80472 186.68406,185.9186 262.53242,215.15593 C 204.79386,186.58097 142.5502,162.73177 83.525447,134.93043 C 68.148315,128.39898 52.779674,121.81623 37.15625,115.90625 z M 109.53125,119.71875 C 182.37228,147.30378 256.87677,177.45941 326.72835,211.12621 C 259.45825,173.11971 182.48299,147.17849 109.53125,119.71875 z M 1438,128.3125 C 1325.639,143.46078 1214.6148,169.27772 1105.6194,200.18029 C 1067.7698,220.8764 1200.8023,171.37975 1162.1586,186.93195 C 1252.6365,162.15471 1345.8449,141.43581 1438,128.3125 z M 52.9375,149.5625 C 83.328697,159.62599 120.2211,179.69667 147.53125,187.125 C 117.01897,172.21154 84.930029,160.82352 52.9375,149.5625 z M 1393.25,175.71875 C 1335.1984,185.29927 1276.0958,190.32796 1218.8438,203.625 C 1250.5391,203.38578 1294.0082,189.78543 1330.422,185.6818 C 1351.1916,181.91306 1373.2931,179.54428 1393.25,175.71875 z M 54.71875,180.84375 C 77.821074,191.39223 98.932106,192.52584 62.21875,183.25 L 54.90625,180.84375 L 54.71875,180.84375 L 54.71875,180.84375 z"
       id="path3296"
       sodipodi:nodetypes="ccccccccccccccccccccccccccccccccccccccccccccccccccccccccccccccccccccccccccccccc" />
  </g>
  <g
     inkscape:groupmode="layer"
     id="layer3"
     inkscape:label="C1"
     style="opacity:1;display:inline">
    <path
       style="opacity:1;fill:#ffffff;fill-opacity:1;fill-rule:nonzero;stroke:#555fd2;stroke-width:0.99999994px;stroke-linecap:butt;stroke-linejoin:miter;stroke-opacity:1"
       d="M 231.41001,198.26147 C 222.00013,195.86105 208.71152,194.949 204.74372,202.27949 C 197.47056,204.92578 188.82738,208.52517 183.35544,209.10682 C 172.20894,200.61739 158.92787,199.07326 151.09121,208.29272 C 142.74821,209.4425 136.52681,213.75374 128.9365,209.98686 C 124.22379,212.92887 109.15598,215.48084 112.09873,221.39314 C 127.55279,221.69363 143.47422,218.57525 159.17991,218.73954 C 198.67042,216.38234 238.25582,217.73782 277.79144,217.39259 C 306.06632,218.54933 334.27799,220.69879 362.58097,221.35416 C 380.81728,222.07354 399.09354,221.54863 417.34665,221.81464 C 443.39963,220.48573 468.91918,214.02523 495.12897,214.60286 C 501.40185,214.40992 509.27786,212.36893 514.08211,210.51147 C 501.81749,209.46234 486.78559,206.15989 477.16303,206.56209 C 467.71234,204.05461 459.83207,200.6605 449.29252,205.29272 C 439.17739,207.01714 423.7069,199.46484 414.98745,207.80654 C 407.06969,206.74667 393.34518,207.81269 383.21728,208.79272 C 373.87385,208.17874 365.82689,201.67743 357.05117,206.93321 C 349.09546,202.09162 328.9907,202.11211 324.2469,208.23022 C 313.10877,204.67389 303.33679,201.78729 297.18075,206.38647 C 290.94258,201.44813 283.83238,207.95759 278.30212,204.48022 C 274.26984,202.47388 260.98796,197.304 257.05519,204.13647 C 249.19942,200.96061 239.47977,190.2053 231.41001,198.26147 z"
       id="path3389"
       sodipodi:nodetypes="cccccccccccccccccccccc" />
    <path
       style="opacity:1;fill:#ffffff;fill-opacity:1;fill-rule:nonzero;stroke:#555fd2;stroke-width:1px;stroke-linecap:butt;stroke-linejoin:miter;stroke-opacity:1"
       d="M 877.42571,225.26298 C 871.99185,225.15858 867.20766,228.35567 865.97627,229.01298 C 864.26891,227.9569 861.50291,228.19341 858.10712,228.91923 C 856.89412,226.01763 848.49187,227.13558 845.98638,229.35673 C 844.33046,229.93471 843.96713,231.17248 844.38272,232.32548 C 844.14681,232.37648 843.91131,232.43268 843.67412,232.48173 C 840.70772,230.10766 836.81059,228.50291 832.41116,229.91923 C 830.39537,230.2128 829.65757,231.47402 829.76324,232.79423 C 827.07553,233.52877 824.87962,234.75564 824.43012,236.63798 C 820.60207,232.91406 812.14908,233.1331 808.54263,234.76298 C 800.35683,236.04468 799.35351,228.11386 794.3707,232.51298 C 789.08102,229.19566 782.73872,232.61814 779.1918,234.41923 C 778.33786,233.34421 776.75516,232.68482 774.82834,232.26298 C 774.89345,232.05186 774.92704,231.82426 774.86563,231.51298 C 774.9449,231.36208 774.94441,231.24619 774.90293,231.16923 C 775.11921,230.9353 775.31337,230.68786 775.49964,230.45048 C 773.35256,225.82345 765.39605,227.08215 761.77524,230.13798 C 761.03037,230.49639 760.50153,230.99245 760.20887,231.54423 C 759.85225,231.53774 759.44127,231.55931 759.12733,231.54423 C 756.74563,229.9733 747.93276,229.32135 744.65703,232.32548 C 738.61815,229.08287 731.61297,232.58785 728.09824,233.82548 C 726.58629,233.51496 724.82795,233.27174 722.98888,233.04423 C 722.73189,229.06002 715.75757,229.56747 712.5464,231.01298 C 711.58758,231.23166 710.94893,231.77356 710.56979,232.41923 C 706.34765,232.56377 702.59359,233.12415 700.42567,234.32548 C 692.37949,233.46649 680.04516,237.77457 673.61087,240.63798 C 688.59602,242.12009 703.96567,239.71567 719.07295,239.29423 C 732.28147,239.40548 745.69093,239.51768 758.86626,240.48173 C 774.98171,242.45258 791.27896,242.60145 807.49838,243.07548 C 823.13809,238.54331 839.97225,240.19802 856.05592,241.60673 C 868.93867,243.87482 879.64216,244.28958 890.81446,243.35673 C 907.3894,241.75476 924.15789,240.06393 940.75189,242.63798 C 954.52529,244.62491 968.1933,241.274 981.96239,242.07548 C 995.54275,238.88707 1009.5303,237.77938 1023.6577,238.79423 C 1030.1265,240.69165 1042.7163,235.58901 1029.2519,234.66923 C 1025.4608,229.98049 1002.9293,229.47103 998.33471,234.32548 C 993.45413,227.48942 976.01117,229.12387 969.58059,233.23173 C 967.79753,231.59916 952.87629,228.05109 948.65834,233.29423 C 942.51166,227.24206 929.73529,230.93953 928.14632,232.76298 C 923.19839,228.59682 913.62895,234.56221 906.66465,231.95048 C 905.25173,229.53044 893.75517,222.67365 884.99651,227.98173 C 882.52136,226.01805 879.89565,225.31044 877.42571,225.26298 z"
       id="path3395" />
    <path
       style="opacity:1;fill:#ffffff;fill-opacity:1;fill-rule:nonzero;stroke:#555fd2;stroke-width:1px;stroke-linecap:butt;stroke-linejoin:miter;marker:none;marker-start:none;marker-mid:none;marker-end:none;stroke-miterlimit:4;stroke-dasharray:none;stroke-dashoffset:0;stroke-opacity:1;visibility:visible;display:inline;overflow:visible;enable-background:accumulate"
       d="M 849.74186,206.35591 C 842.83411,206.54659 836.91181,210.17257 830.47118,211.97202 C 828.01553,212.6208 825.45849,212.22385 822.99189,211.77175 C 817.9409,211.41919 812.78252,211.95681 807.94738,213.33895 C 804.61331,214.95404 808.2336,218.67683 811.00461,217.28805 C 813.49479,216.82504 815.68916,216.3161 817.588,218.03307 C 820.9872,219.34306 824.4069,221.01252 828.22156,220.78408 C 831.99572,220.59958 835.9104,219.97237 839.20978,218.21955 C 840.1396,218.27886 842.83454,218.27301 841.26662,218.50689 C 843.81067,219.8161 846.33735,221.40907 849.387,221.46003 C 854.37269,221.79781 859.19477,220.26686 864.05027,219.47012 C 866.84582,218.77428 869.9672,218.63996 872.35248,217.02342 C 874.82117,217.85865 877.42388,219.56713 880.1197,218.31007 C 882.09909,217.16437 879.60258,213.9921 877.73216,213.40987 C 873.77729,211.39553 869.2352,209.91348 864.64674,210.33487 C 862.31782,209.00927 859.41553,208.67781 856.80768,208.33318 C 854.77345,206.83433 852.34337,206.23168 849.74186,206.35591 z"
       id="path4856" />
    <path
       style="opacity:1;fill:#ffffff;fill-opacity:1;fill-rule:nonzero;stroke:#555fd2;stroke-width:1px;stroke-linecap:butt;stroke-linejoin:miter;stroke-opacity:1"
       d="M 980.57194,192.20374 C 978.95008,192.17319 977.30635,192.38269 975.74343,192.70374 C 974.59423,192.93223 973.43303,193.46507 972.84633,194.39124 C 972.40565,195.08467 972.3078,195.88218 972.4529,196.64124 C 968.35983,197.88874 965.31401,199.45906 965.01342,201.29749 C 955.79214,205.29266 941.7084,193.2262 929.64014,201.98499 C 923.55815,199.06666 907.84448,205.55618 902.81511,208.17249 C 896.67285,204.64176 878.10376,203.07629 868.62213,206.64124 C 857.35496,205.95416 846.6013,211.64504 835.43062,208.73499 C 829.8479,205.57209 822.82542,210.86343 832.46198,210.79749 C 844.09991,214.79638 855.61758,211.04108 867.37029,210.54749 C 878.90869,208.95016 890.3019,208.65773 900.6691,214.14124 C 912.11745,215.6518 919.48269,211.70776 934.71901,211.73499 C 945.50777,215.37967 957.44681,216.4436 968.69739,213.32874 C 980.8443,213.19967 992.36396,211.93025 1004.2495,211.73499 C 1014.2669,214.98714 1025.1609,215.4105 1035.7242,215.70374 C 1047.3406,216.37047 1067.1311,213.17997 1079.002,212.04749 C 1086.2935,213.23006 1101.0092,218.29094 1112.8015,217.45374 C 1120.8579,220.16911 1140.5331,212.64911 1126.7863,206.51624 C 1119.4852,200.80644 1100.0231,200.58891 1091.1269,201.10999 C 1077.4698,189.32074 1061.7833,203.25618 1053.5003,198.10999 C 1048.2662,195.53785 1028.3571,196.07385 1023.3132,198.89124 C 1014.8457,197.40972 1001.3401,193.74704 989.58515,193.60999 C 988.64806,193.68212 987.61677,193.80629 986.58075,193.92249 C 986.19864,193.59724 985.78809,193.29169 985.29315,193.07874 C 983.79872,192.49083 982.1938,192.23429 980.57194,192.20374 z"
       id="path3399" />
    <path
       style="opacity:1;fill:#ffffff;fill-opacity:1;fill-rule:nonzero;stroke:#555fd2;stroke-width:1px;stroke-linecap:butt;stroke-linejoin:miter;marker:none;marker-start:none;marker-mid:none;marker-end:none;stroke-miterlimit:4;stroke-dasharray:none;stroke-dashoffset:0;stroke-opacity:1;visibility:visible;display:inline;overflow:visible;enable-background:accumulate"
       d="M 976.30814,147.45871 C 969.93077,147.22039 963.87685,149.63412 958.47745,152.75304 C 951.33078,150.72846 943.56751,153.5141 938.99722,159.17544 C 934.02051,164.16642 929.98272,170.84189 930.95679,178.08588 C 938.21207,174.84536 945.10501,178.2979 952.74874,177.02504 C 959.18178,176.26337 967.70901,170.62375 971.07977,178.88664 C 979.5111,186.98179 992.6739,186.04267 1003.2896,183.56919 C 1009.3767,181.92528 1015.1863,179.7874 1021.5857,180.50717 C 1030.4256,179.65651 1039.2358,181.12812 1048.0666,180.70655 C 1054.0824,179.39001 1058.849,178.19874 1064.5312,180.97338 C 1077.6206,182.85197 1089.9536,177.20001 1102.4295,174.38019 C 1104.235,171.84347 1113.1502,172.38614 1106.8058,169.42719 C 1101.1927,167.04329 1096.0809,163.89597 1089.7892,164.0824 C 1086.169,163.56453 1080.1415,166.76125 1080.2729,164.68603 C 1075.4099,161.33209 1069.7881,160.74478 1064.2533,159.13079 C 1054.9389,156.79876 1043.8133,155.61767 1035.7674,161.88835 C 1032.5329,159.57913 1026.3578,158.71137 1021.674,158.39191 C 1015.2874,157.73081 1008.3178,157.67289 1002.5776,154.76003 C 994.67207,150.39392 985.3653,147.92451 976.30814,147.45871 z"
       id="path4940" />
    <path
       style="fill:#ffffff;fill-opacity:1;fill-rule:nonzero;stroke:#555fd2;stroke-width:1px;stroke-linecap:butt;stroke-linejoin:miter;stroke-opacity:1"
       d="M 1209.3438,118.65625 C 1192.8339,115.71198 1173.3178,125.05324 1166.2812,130.6875 C 1150.4882,122.05031 1133.1257,121.2135 1118.6505,123.42772 C 1086.3629,111.05611 1077.2036,137.32191 1068.7812,134.375 C 1052.629,129.55203 1035.4143,146.22058 1030.659,150.89686 C 1015.0143,153.50666 1020.8698,168.54618 1033.75,168.71875 C 1041.4254,171.73437 1060.5406,177.45847 1075.1454,170.78296 C 1085.1236,170.17213 1103.438,169.14249 1113.1562,166.40625 C 1123.053,166.77993 1144.167,166.88181 1160.2898,167.41101 C 1182.1815,177.21143 1206.145,170.72638 1228.846,168.64667 C 1249.6616,169.98541 1276.8193,168.46128 1290.6875,164.625 C 1306.1174,169.4437 1319.8626,167.93618 1338.1875,168.5 C 1353.123,170.73776 1370.2766,174.13631 1395.0625,169.5 C 1407.346,174.75432 1431.1825,169.74859 1447.8125,162.6875 C 1454.4508,162.36999 1478.1895,162.11791 1464.7812,152.71875 C 1455.2631,144.21719 1434.2271,137.26176 1417.1408,138.22849 C 1409.5458,128.74289 1380.4646,130.06885 1369.0625,132.71875 C 1359.5283,134.53072 1345.635,112.54114 1325.9199,125.32117 C 1304.0331,117.91136 1269.3997,121.72815 1258.9688,127.84375 C 1235.9105,111.28929 1222.0332,126.13137 1209.3438,118.65625 z"
       id="path3403"
       sodipodi:nodetypes="cccccccccccccccccccc" />
    <path
       style="opacity:1;fill:#ffffff;fill-opacity:1;fill-rule:nonzero;stroke:#555fd2;stroke-width:1px;stroke-linecap:butt;stroke-linejoin:miter;marker:none;marker-start:none;marker-mid:none;marker-end:none;stroke-miterlimit:4;stroke-dasharray:none;stroke-dashoffset:0;stroke-opacity:1;visibility:visible;display:inline;overflow:visible;enable-background:accumulate"
       d="M 315.3125,160.15625 C 312.6731,160.08511 310.11528,160.42494 307.875,161.15625 C 300.42092,160.05325 296.0616,169.0748 293.9375,173.0625 C 291.57218,173.16018 289.1567,173.1089 286.78125,172.875 C 286.85666,172.63817 286.84607,172.35385 286.75,172.03125 C 286.71005,163.46691 275.72443,162.14682 270.625,167.21875 C 268.98397,166.0665 267.38981,164.73399 265.9375,163.15625 C 264.4115,162.58555 262.86629,162.42455 261.34375,162.59375 C 254.3035,157.42403 243.2535,166.01974 247.75,174.75 C 247.97582,175.72593 248.45473,176.53839 249.09375,177.125 C 249.03403,178.25088 249.09089,179.39803 249.28125,180.5625 C 247.55156,180.91397 245.82347,181.33367 244.09375,181.78125 C 238.38845,177.34864 226.79818,181.07829 222.375,186.34375 C 222.18871,186.53883 222.04972,186.74915 221.90625,186.96875 C 220.14963,187.15441 218.38887,187.25581 216.625,187.21875 C 208.41116,177.76383 203.07131,193.57584 212.78125,196.875 C 223.29018,199.19204 233.52531,199.52513 244.34375,199.40625 C 245.96674,199.24686 247.58114,199.01337 249.1875,198.75 C 257.31169,202.04721 268.81639,199.80121 273.59375,192.28125 C 276.73913,191.30291 279.90151,190.34075 283.0625,189.46875 C 290.25541,195.48297 298.94041,194.79696 307.4375,193.28125 C 311.8838,196.89038 321.95043,195.35154 326.125,191.65625 C 326.65778,190.92028 327.05868,190.27472 327.375,189.6875 C 331.83354,188.95971 336.3113,188.47081 340.8125,188.8125 C 349.84861,200.56601 364.35123,200.22356 376.5625,198.1875 C 376.86438,198.14202 377.16659,198.13153 377.46875,198.09375 C 383.59429,199.64991 391.85872,200.58026 398.125,198.21875 C 402.47479,198.19444 406.80867,197.73919 411.0625,196.0625 C 420.13324,194.81189 427.32584,189.52613 436.15625,187.3125 C 447.7597,190.01446 459.71939,190.94421 471.5,189.6875 C 473.48965,184.95702 490.6334,186.25698 480.125,185.65625 C 477.87715,183.64758 475.39852,182.21176 472.8125,181.09375 C 471.86103,179.40389 470.29546,177.59344 469.0625,176.65625 C 461.96487,172.79881 451.20923,169.26031 444.34375,175 C 436.08735,173.10051 428.01165,170.08122 421.03125,164.34375 C 420.21843,163.98199 419.41505,163.74899 418.625,163.625 C 413.38591,160.15346 404.69178,163.67018 402.65625,170.0625 C 402.44183,170.44002 402.27356,170.82292 402.1875,171.21875 C 400.82123,172.05047 399.49429,172.66429 398.21875,172.875 C 396.02345,172.49039 393.83367,172.1597 391.625,171.8125 C 391.92677,170.58263 391.08106,168.94081 388.40625,166.84375 C 381.10161,163.35266 370.73862,159.98745 363.59375,165.15625 C 363.43777,165.09204 363.28068,165.03434 363.125,164.96875 C 355.91974,158.49232 344.35782,166.84101 343.40625,172.8125 C 340.31835,172.25704 337.21381,171.5878 334.15625,170.8125 C 331.39208,163.98578 323.03887,160.3645 315.3125,160.15625 z"
       id="path4379" />
    <path
       style="fill:#ffffff;fill-opacity:1;fill-rule:nonzero;stroke:#555fd2;stroke-width:1px;stroke-linecap:butt;stroke-linejoin:miter;stroke-opacity:1"
       d="M 361.84375,86.25 C 360.07993,86.381541 358.60332,87.615266 357.6875,89.0625 C 352.99333,89.5929 348.39109,92.016388 345.78125,96.03125 C 339.84662,97.13127 335.24909,102.95443 335.46875,108.96875 C 335.02431,110.9865 333.15999,113.10293 330.91099,112.5896 C 323.52774,112.52952 316.81338,109.07804 310.21875,106.15625 C 308.99756,105.7814 307.41281,104.86382 307.79139,103.34872 C 308.06645,101.60541 307.36866,99.782089 305.90001,98.774116 C 303.61794,96.898881 300.36528,97.110028 297.76566,98.138384 C 296.51927,98.481678 295.31129,98.943962 294.09375,99.375 C 292.79203,101.75187 289.76557,101.66973 287.51947,102.50951 C 285.80573,103.24089 284.05061,104.85674 282.07181,104.02167 C 280.1563,103.54175 278.19818,103.27557 276.25,102.96875 C 272.36982,98.631033 266.20228,97.29397 260.59965,97.645954 C 256.36609,97.940369 251.90664,100.3725 250.53125,104.59375 C 250.41824,105.79761 250.20126,107.47158 248.73725,107.69469 C 244.7485,109.31948 240.80965,111.06705 236.78125,112.59375 C 230.58184,105.97438 224.00083,99.277313 215.56885,95.571138 C 211.20697,93.643699 206.23773,92.953703 201.5625,94.03125 C 199.27886,96.182228 195.92687,95.50294 193.125,96.21875 C 191.79223,95.751301 191.06866,93.680573 189.41389,94.251452 C 186.63742,94.780262 183.89519,95.859785 181.65625,97.59375 C 180.43365,99.057882 180.06992,101.30635 178.16095,102.13481 C 176.07727,103.43561 173.90769,104.97334 171.3393,104.92181 C 168.52082,105.03468 165.66832,104.92254 162.90625,105.53125 C 161.5097,105.89408 160.78988,104.36885 159.6875,103.84375 C 155.25454,100.82031 148.71034,100.65089 144.5625,104.28125 C 142.66487,106.07083 141.5389,108.50141 140.90625,111 C 137.12531,113.2153 132.90843,115.61424 131.21875,119.90625 C 129.32853,121.25592 127.13405,119.74577 125.125,119.625 C 122.23958,119.32292 119.35417,119.02083 116.46875,118.71875 C 112.52832,115.27641 106.64094,113.56099 101.6875,115.75 C 99.175446,117.02334 97.698835,119.60061 95.423373,121.16001 C 90.894634,122.93846 86.129765,124.21751 81.952192,126.78668 C 80.32373,127.76247 78.401119,127.91923 76.55404,127.95155 C 70.419537,128.64942 64.705986,131.56185 59.96875,135.4375 C 55.706884,134.17887 50.564686,137.17547 49.9375,141.65625 C 50.318828,142.88863 52.260296,143.39217 51.875,144.875 C 50.678722,148.42475 47.129994,150.18601 44.125,151.96875 C 38.537697,155.59237 33.39345,160.4815 31.03125,166.84375 C 32.072546,168.14583 33.712244,166.87166 35.03125,167 C 43.69756,166.18305 52.194588,168.73418 60.349902,171.35603 C 65.912477,173.01507 71.681212,175.36673 77.584197,174.17688 C 78.896436,173.94348 79.938316,173.03322 81.125,172.53125 C 82.603598,172.58057 83.57713,173.93783 84.99121,174.20904 C 86.480771,174.72931 87.423619,176.02948 88.226091,177.29631 C 90.813654,180.15929 94.870942,180.61725 98.45686,181.26147 C 103.93247,181.93462 109.89019,181.07024 114.3125,177.5625 C 115.31255,176.12539 116.65117,174.57555 118.55176,174.57836 C 124.54369,173.04242 130.37261,170.93418 136.375,169.4375 C 140.66855,172.12887 145.93663,171.73502 150.78125,171.59375 C 156.54485,171.38358 162.31317,171.23069 168.0625,170.75 C 175.23603,174.15771 182.96628,177.06387 191.02644,176.88152 C 200.27849,177.26584 209.57017,176.88399 218.75,175.65625 C 222.81434,176.05767 227.16918,176.61656 230.96875,174.71875 C 237.03598,172.24142 242.48309,168.25457 246.73057,163.2765 C 247.51699,162.17378 248.2547,161.03195 248.90625,159.84375 C 254.42133,158.46147 260.07276,159.89484 265.5712,160.62724 C 269.35167,161.27045 273.10495,162.50561 276.18197,164.85609 C 281.97905,168.51054 287.94051,171.97149 294.3125,174.53125 C 295.0405,175.77386 295.89638,176.9398 296.90625,177.96875 C 296.25144,179.98659 298.51775,181.66442 300.375,181.5 C 307.12525,182.35033 314.29143,182.54147 320.62723,179.68517 C 323.71322,178.43037 326.8726,177.2041 330.2296,176.97948 C 339.44658,175.50432 348.9028,174.7073 358.16987,176.21852 C 363.83055,176.84244 369.47693,177.58541 375.125,178.3125 C 378.09664,181.18508 381.933,183.30925 386.11107,183.61994 C 393.40627,184.88194 400.80614,182.89493 407.5,180.0625 C 412.15637,178.90893 417.0627,179.30724 421.66986,177.89148 C 433.90254,175.36318 445.30337,170.09218 457.15625,166.3125 C 461.00041,165.84908 465.12853,166.62531 468.1503,169.16656 C 472.65185,172.34533 478.09505,174.21508 483.62756,174.19051 C 487.17281,174.16072 490.54177,175.3194 493.91635,176.24825 C 499.36041,177.85264 505.05656,178.30835 510.70462,178.47597 C 514.58615,178.5776 518.47031,178.31643 522.34375,178.21875 C 524.24235,178.67185 525.64566,180.32354 527.6328,180.53794 C 531.07134,181.53938 534.75156,181.13715 538.1189,180.07108 C 540.79616,179.72814 542.71442,182.82076 545.45152,182.08093 C 549.28392,181.00392 552.84845,178.634 554.96875,175.21875 C 555.41111,173.84492 555.31451,172.27707 554.625,171 C 554.74452,168.95475 556.95247,167.93703 558.76166,167.82869 C 563.82355,167.71292 569.04495,165.63987 572.15873,161.52141 C 575.59206,157.28403 576.32324,150.77773 573.21875,146.15625 C 570.81524,142.27571 566.43634,139.77255 561.90625,139.4375 C 559.22495,138.69857 557.60189,136.08385 554.98835,135.17463 C 550.36516,132.84104 545.1814,131.80404 540.02409,131.74742 C 534.13491,131.68315 528.35262,133.05652 522.69601,134.56534 C 520.36514,135.16286 518.05674,135.96824 515.72435,136.48181 C 513.89862,136.17147 512.98914,134.34191 511.65258,133.25955 C 509.87647,131.54292 507.66119,130.35098 505.5625,129.09375 C 504.42131,128.60691 505.24652,127.11957 504.86218,126.20473 C 504.15872,122.92328 501.15582,120.70045 498.06679,119.83296 C 491.69107,117.33993 484.38082,116.62385 477.86569,119.03435 C 475.09343,119.97452 472.66357,121.77484 470.9092,124.11326 C 470.0838,125.22381 468.72442,125.69648 467.37969,125.5625 C 466.10715,125.56716 464.82038,125.31951 463.5625,125.625 C 461.76184,124.51931 462.28943,121.57335 460.1875,120.78125 C 457.78855,119.07881 454.28065,119.38131 452.125,121.34375 C 449.68043,121.80725 448.16506,119.33664 446.0625,118.625 C 441.3628,116.07165 438.68208,110.89444 433.70791,108.7356 C 427.93904,105.62054 420.98984,104.66585 414.625,106.3125 C 412.76906,106.18438 410.53227,106.87409 409.84375,108.78125 C 407.81585,111.52886 404.06925,111.97589 400.91094,111.59375 C 396.48959,111.58786 392.04215,111.68948 387.65625,111.03125 C 384.13374,106.77868 379.70263,103.34106 374.875,100.6875 C 374.14887,99.375693 374.95493,97.691434 373.99156,96.456519 C 373.40372,94.904733 372.34564,93.572322 371.09375,92.5 C 371.75202,89.788192 369.14863,87.351673 366.59375,87.125 C 365.06173,86.628819 363.47888,86.088916 361.84375,86.25 z"
       id="path3433" />
    <path
       style="opacity:1;fill:#ffffff;fill-opacity:1;fill-rule:nonzero;stroke:#555fd2;stroke-width:1px;stroke-linecap:butt;stroke-linejoin:miter;marker:none;marker-start:none;marker-mid:none;marker-end:none;stroke-miterlimit:4;stroke-dasharray:none;stroke-dashoffset:0;stroke-opacity:1;visibility:visible;display:inline;overflow:visible;enable-background:accumulate"
       d="M 673.75,161.53125 C 670.93719,161.64178 668.0648,163.06464 667.1875,165.90625 L 667.125,166.09375 C 663.22422,167.31612 659.5433,169.464 656.15625,170.96875 C 652.73908,170.54659 649.38909,170.81559 646.03125,171.34375 C 645.65175,171.18883 645.28696,171.09006 645,171.0625 C 641.62888,170.45833 637.3758,170.43961 635.03125,173.34375 C 633.23943,173.61989 631.43316,173.84379 629.625,173.90625 C 618.30183,165.22281 600.80915,165.56178 589.59375,174.34375 C 585.77713,180.66952 579.20019,169.06547 573.96875,175.84375 C 568.55926,180.3167 579.44635,187.36785 570.3125,187.1875 C 564.23536,188.95445 553.15868,194.02943 557.03125,201.59375 C 551.65197,201.7142 544.80146,197.94653 538.46875,198.25 C 532.13492,192.2161 521.16505,194.20064 517.09375,201.46875 C 514.93665,204.417 508.12948,208.75571 516.0625,206.90625 C 522.26922,208.68373 527.91049,207.09357 532.0625,212.59375 C 537.72821,215.48314 542.21813,217.93719 549.03125,218.0625 C 556.71076,218.42286 563.54007,215.99114 570.75,214.25 C 578.59751,211.09557 584.64534,207.36912 592.8125,208.40625 C 599.6905,206.34354 606.26702,202.38253 611,196.96875 C 616.8078,195.8802 622.58285,198.05335 628.53125,199.375 C 628.68594,199.64704 628.90275,199.90792 629.1875,200.15625 C 631.60385,203.41264 636.33486,203.82203 639.78125,202.125 C 641.17184,201.80348 642.04466,200.6966 642.8125,199.65625 C 655.22262,198.93041 667.89869,198.54594 679.6875,194.3125 C 685.34672,190.58387 691.98217,188.63689 698.65625,190.40625 C 706.80329,191.40279 712.54745,184.82058 715.84375,179.25 C 718.32968,177.87454 710.55895,181.06898 709.25,178.40625 C 704.67857,177.83937 698.92896,180.9669 698.96875,174.375 C 695.88722,171.77308 692.22271,169.72898 688.3125,168.21875 C 688.34336,167.4443 688.06955,166.5768 687.5625,165.9375 C 684.14077,162.91208 679.44419,161.7493 674.96875,161.5625 C 674.57558,161.52525 674.15183,161.51546 673.75,161.53125 z"
       id="path4808" />
    <path
       style="fill:#ffffff;fill-opacity:1;fill-rule:nonzero;stroke:#555fd2;stroke-width:1px;stroke-linecap:butt;stroke-linejoin:miter;stroke-opacity:1"
       d="M 584.75,74.03125 C 577.30063,80.548697 579.04143,84.508763 585.46875,90.1875 C 583.79503,92.653081 582.79701,95.325748 581,97.53125 C 568.0601,86.575233 554.83665,94.913887 539.46875,98.21875 C 531.03807,99.016499 520.43013,98.688697 515,103.6875 C 512.45473,100.01727 506.28131,99.80991 504.21875,104.125 C 493.43703,104.59853 481.30608,112.03358 481.6875,124.03125 C 481.19327,133.97599 487.20227,143.41481 495.125,149 C 497.90705,159.84494 507.71693,166.00798 520.86547,163.66636 C 532.01871,168.5549 545.14971,156.47407 557.82612,156.91488 C 566.75326,156.40356 578.68217,169.25687 584.6275,165.1146 C 592.11814,169.5594 604.8879,166.4832 614.21331,164.90532 C 640.46666,153.13052 620.07148,139.66352 631.3424,137.10404 C 643.10474,142.21063 649.08911,137.25626 659.88362,130.80553 C 673.45582,139.50777 673.60798,145.85543 686.49035,136.68552 C 694.92898,142.02787 711.03201,125.16832 716.01032,116.1796 C 724.76753,101.2682 750.97968,119.31016 741.5,105.09375 C 734.92841,98.800032 736.13136,110.59773 729.41174,104.18555 C 721.53084,99.905899 718.61433,85.096628 715.00356,82.168726 C 706.05782,80.795957 691.7128,93.433617 682.66212,93.548162 C 675.00717,95.46699 658.55899,85.186135 653.90625,85.0625 C 648.49266,76.305403 640.43857,78.029489 637.8125,82.875 C 629.00425,83.402348 620.20552,83.50946 611.40625,83.09375 C 611.11719,79.211307 608.6535,71.074497 603.68883,71.369439 C 594.26431,67.507613 591.80645,66.639322 584.75,74.03125 z"
       id="path4333"
       sodipodi:nodetypes="ccccccccccccccccccccccccc" />
    <path
       style="opacity:1;fill:#ffffff;fill-opacity:1;fill-rule:nonzero;stroke:#555fd2;stroke-width:1px;stroke-linecap:butt;stroke-linejoin:miter;marker:none;marker-start:none;marker-mid:none;marker-end:none;stroke-miterlimit:4;stroke-dasharray:none;stroke-dashoffset:0;stroke-opacity:1;visibility:visible;display:inline;overflow:visible;enable-background:accumulate"
       d="M 706.35194,168.15943 C 692.175,171.79115 677.97153,175.75387 664.5234,183.73496 C 659.36794,190.87916 650.54849,179.2718 648.1129,189.22993 C 651.95239,200.05054 661.49847,196.37943 667.79434,193.30625 C 673.97948,189.70701 680.32076,188.93152 686.78942,187.59118 C 692.94019,189.18715 700.81474,192.19013 707.93469,191.24637 C 719.73124,190.50201 731.51553,189.26844 743.29114,187.98252 C 750.03717,196.89482 759.68566,192.32716 767.74993,192.52179 C 775.23828,191.9784 782.73617,191.74277 790.21964,191.04739 C 798.31483,194.83591 807.18298,192.60107 815.56141,192.37106 C 825.85136,192.13035 836.00196,188.57609 845.88586,185.07249 C 853.1057,185.42279 861.28983,188.57832 867.81532,183.20187 C 874.42526,184.26323 862.60536,176.27422 860.1596,175.32189 C 842.95433,170.8349 825.29349,172.3529 807.96331,174.22014 C 799.99132,175.23472 792.65085,180.94449 785.82238,173.01137 C 773.95963,168.55759 761.89427,172.95025 750,174.24166 C 745.80019,170.60751 741.30425,163.78186 735.15162,164.48531 C 725.5662,164.72818 715.85479,166.07421 706.35194,168.15943 z"
       id="path4359"
       sodipodi:nodetypes="cccccccccccccccccc" />
    <path
       style="opacity:1;fill:#ffffff;fill-opacity:1;fill-rule:nonzero;stroke:#555fd2;stroke-width:1px;stroke-linecap:butt;stroke-linejoin:miter;marker:none;marker-start:none;marker-mid:none;marker-end:none;stroke-miterlimit:4;stroke-dasharray:none;stroke-dashoffset:0;stroke-opacity:1;visibility:visible;display:inline;overflow:visible;enable-background:accumulate"
       d="M 1315.1355,217.96875 C 1307.0926,216.25731 1305.3919,227.2305 1299.0549,224.57449 C 1290.012,221.91496 1282.2069,227.03061 1273.1577,223.85792 C 1265.096,224.47681 1256.0842,223.84307 1249.1035,227.9375 C 1241.4198,226.3138 1249.5989,226.76268 1246.6102,226.24043 C 1241.4389,223.97604 1243.9808,222.37927 1237.1865,222.18414 C 1228.9161,221.34875 1220.5001,222.86232 1213.0876,225.74681 C 1206.2212,228.51972 1199.6102,228.19178 1193.6008,230.40989 C 1196.275,237.46388 1211.5868,232.59768 1216.6544,233.90625 C 1224.7479,234.24145 1232.83,233.6384 1240.8865,233.84098 C 1249.141,237.18818 1258.102,238.39706 1267.1702,237.375 C 1276.7286,235.77758 1286.4572,234.36913 1296.2186,234.65625 C 1299.9344,236.16286 1310.9295,235.59481 1317.3914,235.40305 C 1333.2887,234.33888 1349.3039,233.77429 1365.1643,235.6683 C 1376.0013,237.01296 1387.3611,238.19263 1397.9942,235.1875 C 1408.5357,236.45929 1419.128,234.54048 1429.6641,234.25 C 1437.424,231.76989 1431.8092,225.39217 1425.7209,226.48987 C 1417.8151,223.85057 1414.8924,228.99593 1407.4001,225.44362 C 1399.5958,220.87986 1394.3729,230.88637 1386.1978,229.59375 C 1383.6505,226.0058 1378.7292,227.76175 1380.3172,222.6875 C 1372.8957,217.73843 1365.7815,226.03967 1358.283,226.15625 C 1352.156,220.77845 1342.9163,224.70446 1336.1807,221.05625 C 1329.5413,219.21737 1322.5884,220.44158 1316.3313,217.99458 L 1315.1355,217.96875 z"
       id="path4419" />
    <path
       style="opacity:1;fill:#ffffff;fill-opacity:1;fill-rule:nonzero;stroke:#555fd2;stroke-width:1px;stroke-linecap:butt;stroke-linejoin:miter;marker:none;marker-start:none;marker-mid:none;marker-end:none;stroke-miterlimit:4;stroke-dasharray:none;stroke-dashoffset:0;stroke-opacity:1;visibility:visible;display:inline;overflow:visible;enable-background:accumulate"
       d="M 937.37674,78.59813 C 934.33835,78.609404 931.69091,79.356187 930.20391,81.22313 C 930.18086,81.257973 930.1571,81.282552 930.13494,81.31688 C 927.2937,81.128294 924.54303,81.531446 922.5483,82.91063 C 918.62341,82.233505 915.02414,82.165117 913.13396,83.28563 C 912.84042,83.52426 912.57902,83.754189 912.34081,83.97313 C 909.13178,81.058434 896.07701,76.826863 890.61541,82.19188 C 884.27174,83.201983 878.08841,85.6569 874.89036,89.59813 C 874.40738,89.78842 873.95219,90.07084 873.51097,90.47313 C 872.21025,91.32353 871.2222,92.23255 870.5108,93.16063 C 865.60492,95.43482 860.80234,97.35384 855.47545,97.00438 C 853.70978,94.27344 846.27478,90.38754 839.509,89.87938 C 839.22972,89.36477 838.22656,89.39962 836.23295,89.94188 C 834.61988,90.13026 833.10767,90.54894 831.8189,91.34813 C 831.27422,91.5351 830.84812,91.69493 830.2326,91.91063 C 828.49433,93.10303 827.35393,94.03264 826.68067,94.78563 C 813.65987,92.71928 800.74229,87.572506 787.23011,93.41063 C 786.15056,93.47398 785.06634,93.56793 784.02303,93.69188 C 774.1493,89.7087 758.26302,94.99648 752.98675,103.78563 C 747.22294,106.00643 741.24269,107.91808 734.50292,108.72313 C 722.07356,110.76806 713.07239,136.05631 732.15796,126.75438 C 734.59745,129.02247 737.17069,130.62991 739.81357,131.78563 C 743.63339,139.53196 758.98545,137.8142 769.43598,133.97313 C 769.69914,133.96839 769.96595,133.97582 770.22913,133.97313 C 773.44922,135.17472 777.70648,135.86515 780.33316,135.03563 C 781.01258,136.20542 782.03234,137.22986 783.43679,137.78563 C 790.58702,141.34189 798.37434,142.34787 805.40358,141.53563 C 817.71334,143.28898 830.67824,142.30278 842.85402,139.53563 C 847.20248,137.57077 851.62926,136.24561 856.13066,135.31688 C 865.90494,139.36247 878.49288,138.45781 887.99457,133.69188 C 893.66679,133.88517 899.34503,134.11914 905.03004,134.12938 C 908.10437,136.59271 915.30124,136.57559 922.13448,134.75438 C 935.28787,134.68126 947.33314,131.245 959.79183,127.69188 C 965.47677,128.56988 974.2314,128.40222 975.75828,129.94188 C 979.81833,131.04729 990.14084,127.66677 998.31131,123.72313 C 1002.6619,125.8268 1008.6194,124.85675 1014.6571,122.75438 C 1016.2827,123.25542 1017.9295,123.92168 1019.623,124.75438 C 1039.7309,132.18056 1056.7913,115.70206 1074.4192,121.19188 C 1090.2742,123.82428 1106.8186,120.50762 1122.7667,119.53563 C 1124.4312,120.20115 1126.9012,120.71965 1129.6291,121.03563 C 1136.8988,125.11213 1146.0709,126.52592 1155.5274,127.62938 C 1159.5947,130.47762 1168.0159,131.21689 1175.3906,130.31688 C 1178.1415,130.85793 1180.8092,131.50357 1183.3566,132.34813 C 1191.0799,132.7298 1198.8227,133.27543 1206.5648,133.81688 C 1214.3148,136.74045 1223.0067,136.83117 1231.4281,135.34813 C 1234.0301,135.46774 1236.6128,135.55398 1239.2219,135.62938 C 1263.381,137.05903 1285.7093,126.32039 1309.4673,126.41063 C 1334.4249,121.74866 1294.4279,114.71322 1285.6039,116.12938 C 1279.6949,113.83747 1273.3329,111.78453 1266.7405,110.22313 C 1262.3959,104.38658 1241.0901,96.82459 1235.8422,105.97313 C 1231.8821,106.70058 1228.1611,107.91851 1225.0142,109.59813 C 1216.038,107.03445 1206.4016,105.70046 1196.7367,105.06688 C 1186.9836,100.72452 1174.9488,99.08377 1166.0107,104.50438 C 1163.6956,103.3209 1161.4295,102.3876 1159.1826,101.75438 C 1157.4125,99.98992 1154.2539,98.1529 1150.6651,97.37938 C 1144.8623,93.24819 1132.698,98.80916 1128.974,102.78563 C 1127.7523,103.41395 1126.821,104.44405 1126.2499,105.56688 C 1117.9759,108.40271 1109.7515,111.37344 1101.2482,111.47313 C 1096.7428,111.91537 1092.3678,111.46638 1088.0408,110.62938 C 1085.7427,107.24074 1073.4351,101.0656 1068.0051,105.06688 C 1067.825,105.20051 1067.6798,105.31513 1067.5223,105.44188 C 1060.8077,103.96927 1053.9634,103.30433 1046.7623,105.22313 C 1045.6118,104.48134 1044.4357,103.77143 1043.2106,103.09813 C 1041.8709,99.1929 1038.3738,95.74656 1034.0375,93.37938 C 1034.8775,90.63972 1028.2674,89.72551 1024.7956,90.28563 C 1020.3533,89.65178 1015.9317,90.22758 1012.519,92.50438 C 1009.7664,90.38704 1005.9177,89.29078 1002.484,92.28563 C 1001.9746,92.51044 1001.606,92.71033 1001.1735,92.91063 C 994.30153,92.76142 987.57345,93.24037 981.41378,94.37938 C 979.7977,93.55691 978.14891,92.70648 976.51694,91.87938 C 979.36147,89.86075 972.42149,87.260548 967.27503,87.47313 C 962.42108,85.360587 957.39911,83.601628 952.13622,82.66063 C 948.25432,80.478587 942.29603,78.579877 937.37674,78.59813 z"
       id="path4572" />
    <path
       style="opacity:1;fill:#ffffff;fill-opacity:1;fill-rule:nonzero;stroke:#555fd2;stroke-width:1px;stroke-linecap:butt;stroke-linejoin:miter;marker:none;marker-start:none;marker-mid:none;marker-end:none;stroke-miterlimit:4;stroke-dasharray:none;stroke-dashoffset:0;stroke-opacity:1;visibility:visible;display:inline;overflow:visible;enable-background:accumulate"
       d="M 252.25,97.46875 C 239.96732,96.867233 228.2568,101.71861 218.29514,108.55845 C 212.29776,115.46061 204.957,106.87619 197.43073,107.54265 C 180.25771,105.75767 161.55938,110.44902 149.375,123.21875 C 143.6754,118.57061 133.74598,122.48032 134.37449,130.29182 C 136.99837,138.05109 146.88865,139.67438 153.875,141.8125 C 161.44921,143.34949 168.72312,146.7743 176.56001,147.55861 C 184.98573,148.87242 193.58461,149.07911 202.0625,148.15625 C 214.92101,152.0289 229.10707,151.40901 241.27196,145.53082 C 252.65061,140.06613 263.32764,132.00414 276.38766,131.2406 C 284.12418,131.12019 289.90312,125.98862 296.76142,123.38647 C 303.75761,119.76897 303.11329,109.7421 296.70829,105.96968 C 291.30982,103.71764 285.88524,100.511 279.86952,100.91058 C 274.22212,102.59545 268.85692,103.1818 264.30762,99.245227 C 260.42549,97.971708 256.32282,97.494974 252.25,97.46875 z"
       id="path4782" />
    <path
       style="opacity:1;fill:#ffffff;fill-opacity:1;fill-rule:nonzero;stroke:#555fd2;stroke-width:1px;stroke-linecap:butt;stroke-linejoin:miter;marker:none;marker-start:none;marker-mid:none;marker-end:none;stroke-miterlimit:4;stroke-dasharray:none;stroke-dashoffset:0;stroke-opacity:1;visibility:visible;display:inline;overflow:visible;enable-background:accumulate"
       d="M 880.40175,74.514226 C 878.36919,74.532636 876.39349,74.963536 874.558,75.982976 C 869.46203,74.572496 863.60095,75.628116 859.90175,79.357976 C 855.74197,79.302406 851.59913,80.044446 847.4955,79.764226 C 847.49623,79.721006 847.49557,79.683436 847.4955,79.639226 C 844.71793,74.881506 835.93583,76.070506 832.27675,80.045476 C 826.66603,81.352046 821.5239,84.185366 818.308,89.170476 C 816.62187,93.894336 810.23149,93.895976 808.33925,98.857976 C 806.98205,100.84551 806.86154,102.9925 807.308,105.07673 C 807.22189,105.62432 807.21047,106.19483 807.33925,106.82673 C 807.34143,109.37015 808.48925,111.056 810.1205,111.95173 C 811.82426,117.58405 818.65715,119.18231 823.683,120.79548 C 827.37642,121.67987 831.13002,122.31259 834.90175,122.73298 C 838.79071,125.29893 843.68862,126.4098 848.308,125.70173 C 852.59408,124.90239 857.08509,124.05875 861.15175,122.32673 C 863.38201,122.02472 865.60368,121.62638 867.808,121.20173 C 870.83858,123.54234 874.68384,122.03747 876.183,119.07673 C 879.92694,117.91641 883.60427,116.55138 887.1205,114.82673 C 887.44364,114.94174 887.77887,115.05626 888.15175,115.10798 C 892.47913,116.67335 899.04904,118.32081 902.058,113.67048 C 901.83181,113.50956 901.60376,113.37289 901.3705,113.23298 C 907.0616,112.37053 912.67138,111.01101 917.96425,108.76423 C 921.25126,106.45188 922.36858,102.62628 927.27675,104.73298 C 928.63774,104.86541 930.05616,104.96372 931.46425,105.01423 C 933.00923,106.86429 935.56704,108.29954 937.71425,107.54548 C 941.56026,107.61349 946.67088,104.57367 946.58925,100.48298 C 949.1339,98.462196 954.25699,100.32378 955.58925,98.982976 C 948.89183,99.925296 947.79523,93.159756 942.7455,90.482976 C 934.96952,86.322066 925.86569,85.627516 917.21425,86.639226 C 915.71392,84.960076 913.23504,83.299516 912.058,82.826726 C 907.72403,80.260336 901.84866,77.832246 897.058,79.982976 C 895.97643,79.765756 894.89362,79.547976 893.808,79.357976 C 893.09568,78.348066 892.23497,77.451046 891.6205,77.357976 C 888.22068,75.852836 884.23229,74.479526 880.40175,74.514226 z"
       id="path4890" />
    <path
       style="fill:#000000;fill-opacity:1;fill-rule:nonzero;stroke:none;stroke-width:1px;stroke-linecap:butt;stroke-linejoin:miter;stroke-opacity:1"
       id="path5142"
       d="M 327.58711,-35.359803 C 329.10771,-29.747628 330.39754,-24.077306 331.85809,-18.449596 C 332.41979,-16.56312 332.98013,-14.657283 333.87254,-12.893736 C 334.06585,-12.511732 334.19433,-11.724741 334.60669,-11.839852 C 334.71292,-11.869506 334.5751,-12.058157 334.5593,-12.16731 C 332.30782,-15.044855 330.53867,-14.198845 328.11689,-12.740876 C 327.88198,-12.599454 328.46583,-13.163948 328.63752,-13.377744 C 331.64065,-17.679372 334.66896,-21.963091 337.69318,-26.251084 C 353.27344,-48.01169 372.05735,-67.159469 391.11942,-85.837939 C 403.03573,-96.676992 408.7076,-102.19441 421.42452,-112.28453 C 426.83433,-116.5769 432.1615,-121.02308 437.99264,-124.72287 C 461.84968,-137.34289 450.49385,-130.60222 472.13909,-144.8113 C 472.47347,-145.03081 472.82913,-144.59085 472.49471,-144.37138 L 472.49471,-144.37138 C 445.01216,-126.335 467.57824,-142.46328 442.13177,-120.29747 C 437.00607,-115.83259 431.48,-111.84738 426.25317,-107.50133 C 410.96688,-94.790979 411.03792,-94.457898 396.74806,-81.034557 C 392.53233,-76.723116 388.24101,-72.48431 384.10086,-68.100234 C 370.23237,-53.414634 357.45018,-37.717826 345.71531,-21.282528 C 342.64503,-16.964237 339.71239,-12.557148 336.6603,-8.2265366 C 334.18328,-4.6730002 330.73259,-2.6918163 326.85534,-6.5330105 C 324.9303,-9.539467 324.4041,-13.116159 323.48587,-16.517927 C 322.08154,-22.017766 320.72802,-27.537949 318.99013,-32.944397 C 317.05777,-38.955814 325.9358,-41.454418 327.58711,-35.359803 z" />
    <path
       style="fill:#000000;fill-opacity:1;fill-rule:nonzero;stroke:none;stroke-width:1px;stroke-linecap:butt;stroke-linejoin:miter;stroke-opacity:1"
       id="path5144"
       d="M 1172.202,-35.56519 C 1174.1798,-30.148238 1176.6308,-24.951107 1179.3206,-19.857497 C 1180.053,-18.722455 1182.6577,-14.036773 1184.2583,-13.867295 C 1184.4104,-13.851191 1184.5008,-14.250338 1184.3618,-14.314261 C 1183.359,-14.775671 1182.2495,-14.956417 1181.1933,-15.277495 C 1180.6554,-15.076434 1180.1463,-14.766339 1179.5795,-14.674312 C 1179.4201,-14.648443 1179.7854,-14.924435 1179.8691,-15.062515 C 1180.2555,-15.700382 1180.6217,-16.350335 1180.9882,-16.999821 C 1183.7624,-21.915533 1186.4338,-26.865099 1189.2738,-31.746471 C 1200.5509,-50.198981 1214.1005,-67.269502 1229.2071,-82.738884 C 1233.0772,-86.701917 1237.1633,-90.448064 1241.1414,-94.302654 C 1253.1581,-104.58408 1254.3672,-106.33339 1267.6937,-114.88717 C 1272.2512,-117.81253 1277.0444,-120.3535 1281.7198,-123.08667 C 1282.0651,-123.28854 1282.3945,-122.91234 1282.087,-122.65641 L 1282.087,-122.65641 C 1269.6176,-112.27527 1257.2792,-101.74814 1245.5886,-90.481753 C 1241.7873,-86.607597 1237.8908,-82.824558 1234.1847,-78.859285 C 1219.8201,-63.49037 1206.9748,-46.611158 1197.0141,-28.047114 C 1194.4849,-22.976879 1193.6698,-21.470191 1191.4606,-16.622483 C 1190.3258,-14.132304 1188.7191,-9.2617514 1186.5921,-7.3617827 C 1185.6079,-6.4826934 1184.3266,-6.0077733 1183.1939,-5.3307687 C 1181.5583,-5.6251702 1179.8479,-5.6432858 1178.2871,-6.2139733 C 1175.6313,-7.184976 1173.2294,-14.102721 1171.7276,-16.341002 C 1168.9885,-21.625241 1166.5854,-27.065992 1164.2903,-32.555962 C 1161.9817,-38.078238 1170.1492,-41.187582 1172.202,-35.56519 z" />
  </g>
</svg>
