<?xml version="1.0" encoding="UTF-8" standalone="no"?>
<!-- Created with Inkscape (http://www.inkscape.org/) -->

<svg
   xmlns:dc="http://purl.org/dc/elements/1.1/"
   xmlns:cc="http://creativecommons.org/ns#"
   xmlns:rdf="http://www.w3.org/1999/02/22-rdf-syntax-ns#"
   xmlns:svg="http://www.w3.org/2000/svg"
   xmlns="http://www.w3.org/2000/svg"
   xmlns:xlink="http://www.w3.org/1999/xlink"
   xmlns:sodipodi="http://sodipodi.sourceforge.net/DTD/sodipodi-0.dtd"
   xmlns:inkscape="http://www.inkscape.org/namespaces/inkscape"
   width="744.09448819"
   height="1052.3622047"
   id="svg2"
   version="1.1"
   inkscape:version="0.47 r22583"
   sodipodi:docname="New document 1">
  <defs
     id="defs4">
    <linearGradient
       inkscape:collect="always"
       id="linearGradient3737">
      <stop
         style="stop-color:#8898a9;stop-opacity:1"
         offset="0"
         id="stop3739" />
      <stop
         style="stop-color:#404c59;stop-opacity:0;"
         offset="1"
         id="stop3741" />
    </linearGradient>
    <linearGradient
       id="linearGradient3707">
      <stop
         style="stop-color:#d2aaa0;stop-opacity:1;"
         offset="0"
         id="stop3709" />
      <stop
         style="stop-color:#a16150;stop-opacity:1;"
         offset="1"
         id="stop3711" />
    </linearGradient>
    <linearGradient
       inkscape:collect="always"
       id="linearGradient3664">
      <stop
         style="stop-color:#b8d5e8;stop-opacity:1"
         offset="0"
         id="stop3666" />
      <stop
         style="stop-color:#d6e7f2;stop-opacity:0;"
         offset="1"
         id="stop3668" />
    </linearGradient>
    <inkscape:perspective
       sodipodi:type="inkscape:persp3d"
       inkscape:vp_x="0 : 526.18109 : 1"
       inkscape:vp_y="0 : 1000 : 0"
       inkscape:vp_z="744.09448 : 526.18109 : 1"
       inkscape:persp3d-origin="372.04724 : 350.78739 : 1"
       id="perspective10" />
    <inkscape:perspective
       id="perspective3602"
       inkscape:persp3d-origin="0.5 : 0.33333333 : 1"
       inkscape:vp_z="1 : 0.5 : 1"
       inkscape:vp_y="0 : 1000 : 0"
       inkscape:vp_x="0 : 0.5 : 1"
       sodipodi:type="inkscape:persp3d" />
    <clipPath
       clipPathUnits="userSpaceOnUse"
       id="clipPath3618">
      <path
         style="fill:#f9f7e8;fill-opacity:1;stroke:none"
         d="M 23.952756,0.81592277 C 26.137795,43.123009 30.596457,76.182065 30.596457,76.182065 c 0,0 10.305118,3.879921 32.687008,3.853346 22.381889,-0.02657 135.885825,-21.605315 175.570865,-14.642717 39.68504,6.962599 123.39567,19.559056 146.39764,12.83563 23.00197,-6.723425 115.15748,-1.142716 115.15748,-1.142716 0,0 -73.70079,2.630905 -109.6063,9.593504 -35.90551,6.962598 -97.05709,10.07185 -155.22638,4.437992 C 177.40748,85.483246 73.175197,127.15254 66.265748,134.83266 59.356299,142.51277 43.913386,159.65352 44.061024,176.5551 44.208661,193.45667 62.01378,366.59151 62.01378,366.59151 l -119.379922,8.21162 1.653544,-417.410436 85.216535,0.637796 -5.551181,42.78543277 z"
         id="path3620" />
    </clipPath>
    <filter
       inkscape:collect="always"
       id="filter3656">
      <feGaussianBlur
         inkscape:collect="always"
         stdDeviation="0.5454786"
         id="feGaussianBlur3658" />
    </filter>
    <linearGradient
       inkscape:collect="always"
       xlink:href="#linearGradient3664"
       id="linearGradient3670"
       x1="220.25681"
       y1="-3.4749088"
       x2="220.17328"
       y2="184.16484"
       gradientUnits="userSpaceOnUse" />
    <radialGradient
       inkscape:collect="always"
       xlink:href="#linearGradient3707"
       id="radialGradient3713"
       cx="159.84387"
       cy="113.48251"
       fx="164.43172"
       fy="106.48336"
       r="14.8972"
       gradientUnits="userSpaceOnUse"
       gradientTransform="matrix(1.4466374,-0.0221239,0.02030888,1.3279565,-73.696951,-33.680962)" />
    <linearGradient
       inkscape:collect="always"
       xlink:href="#linearGradient3737"
       id="linearGradient3743"
       x1="246.41609"
       y1="108.4873"
       x2="246.41609"
       y2="93.866119"
       gradientUnits="userSpaceOnUse" />
  </defs>
  <sodipodi:namedview
     id="base"
     pagecolor="#ffffff"
     bordercolor="#666666"
     borderopacity="1.0"
     inkscape:pageopacity="0.0"
     inkscape:pageshadow="2"
     inkscape:zoom="8"
     inkscape:cx="220.72958"
     inkscape:cy="941.4876"
     inkscape:document-units="px"
     inkscape:current-layer="layer3"
     showgrid="false"
     inkscape:window-width="1920"
     inkscape:window-height="1031"
     inkscape:window-x="0"
     inkscape:window-y="25"
     inkscape:window-maximized="1" />
  <metadata
     id="metadata7">
    <rdf:RDF>
      <cc:Work
         rdf:about="">
        <dc:format>image/svg+xml</dc:format>
        <dc:type
           rdf:resource="http://purl.org/dc/dcmitype/StillImage" />
        <dc:title></dc:title>
      </cc:Work>
    </rdf:RDF>
  </metadata>
  <g
     inkscape:groupmode="layer"
     id="layer2"
     inkscape:label="Layer"
     sodipodi:insensitive="true">
    <rect
       style="color:#000000;fill:url(#linearGradient3670);fill-opacity:1;fill-rule:nonzero;stroke:none;stroke-width:10;marker:none;visibility:visible;display:inline;overflow:visible;enable-background:accumulate"
       id="rect3662"
       width="539.49603"
       height="375.27951"
       x="-19.790638"
       y="-3.4749088" />
  </g>
  <g
     inkscape:label="Layer 1"
     inkscape:groupmode="layer"
     id="layer1"
     style="display:inline">
    <path
       sodipodi:type="arc"
       style="color:#000000;fill:url(#radialGradient3713);fill-opacity:1;fill-rule:nonzero;stroke:#4e4b3a;stroke-width:0.20999999;stroke-linecap:butt;stroke-linejoin:miter;stroke-miterlimit:4;stroke-opacity:1;stroke-dasharray:none;stroke-dashoffset:0;marker:none;visibility:visible;display:inline;overflow:visible;enable-background:accumulate"
       id="path3695"
       sodipodi:cx="163.88914"
       sodipodi:cy="109.2704"
       sodipodi:rx="14.7922"
       sodipodi:ry="14.7922"
       d="m 178.68134,109.2704 a 14.7922,14.7922 0 1 1 -29.5844,0 14.7922,14.7922 0 1 1 29.5844,0 z"
       transform="matrix(0.79084018,0,0,0.79084018,34.300433,18.088122)" />
    <path
       style="fill:#d4e2ea;fill-opacity:1;stroke:#000000;stroke-width:0.5;stroke-linecap:butt;stroke-linejoin:miter;stroke-miterlimit:4;stroke-opacity:1;stroke-dasharray:none"
       d="m 159.04036,99.75662 c 2.52829,4.44131 7.93553,2.94648 7.72145,6.63706 -0.21407,3.69057 -3.45472,11.5235 -4.92003,13.48007 -1.4653,1.95657 -3.26279,4.30511 -0.0406,5.687 3.2222,1.38189 5.34818,-3.04281 4.18553,-4.23868 -1.16264,-1.19586 -0.6902,-4.42138 0.43923,-7.04896 1.12942,-2.62759 1.94512,-6.81644 3.27017,-7.11209 1.32505,-0.29564 2.38804,-0.34879 3.37353,-0.38865 0.98548,-0.0399 4.73179,9.19488 4.69488,10.87574 -0.0369,1.68085 -2.56521,3.93639 -0.0111,4.90637 2.55413,0.96998 3.96038,-0.0963 4.25196,-2.74053 0.29159,-2.64419 -2.281,-2.21567 -2.94168,-3.72379 -0.66068,-1.50812 -3.95669,-8.75308 -3.94562,-10.36085 0.0111,-1.60778 -0.52411,-2.89001 0.33588,-4.24201 0.85999,-1.35199 1.4653,-2.913259 -0.18455,-3.667319 -1.64985,-0.75406 -2.27731,0.624508 -2.27731,0.624508 l -0.32481,-1.95657 -13.62696,3.268701 z"
       id="path3727" />
    <path
       sodipodi:type="arc"
       style="color:#000000;fill:#000000;fill-opacity:1;fill-rule:nonzero;stroke:none;stroke-width:0.5;marker:none;visibility:visible;display:inline;overflow:visible;enable-background:accumulate"
       id="path3729"
       sodipodi:cx="163.5267"
       sodipodi:cy="123.50121"
       sodipodi:rx="1.1386565"
       sodipodi:ry="1.1659695"
       d="m 164.66536,123.50121 a 1.1386565,1.1659695 0 1 1 -2.27731,0 1.1386565,1.1659695 0 1 1 2.27731,0 z"
       transform="translate(1.7568898,-0.98991141)" />
    <path
       d="m 164.66536,123.50121 a 1.1386565,1.1659695 0 1 1 -2.27731,0 1.1386565,1.1659695 0 1 1 2.27731,0 z"
       sodipodi:ry="1.1659695"
       sodipodi:rx="1.1386565"
       sodipodi:cy="123.50121"
       sodipodi:cx="163.5267"
       id="path3731"
       style="color:#000000;fill:#000000;fill-opacity:1;fill-rule:nonzero;stroke:none;stroke-width:0.5;marker:none;visibility:visible;display:inline;overflow:visible;enable-background:accumulate"
       sodipodi:type="arc"
       transform="translate(17.162894,-4.6306594)" />
    <path
       style="fill:none;stroke:#000000;stroke-width:0.5;stroke-linecap:butt;stroke-linejoin:miter;stroke-opacity:1;stroke-miterlimit:4;stroke-dasharray:none"
       d="m 169.18308,99.806448 c -1.9193,-2.348548 -3.89027,0.860352 -3.40675,2.009712"
       id="path3733"
       sodipodi:nodetypes="cc" />
  </g>
  <g
     inkscape:groupmode="layer"
     id="layer3"
     inkscape:label="Layer#1"
     style="display:inline">
    <g
       id="g3615"
       clip-path="url(#clipPath3618)">
      <path
         id="path3592"
         d="M -66.45551,-46.995382 36.457758,-50.283847 44.120401,65.47009 209.73372,50.399529 359.31186,70.3746 l 108.86382,-7.0655 52.2396,5.637367 -3.02748,25.537272 -112.60118,7.629241 -140.07813,8.55 -52.7407,-9.07616 -130.8078,37.52608 -21.902215,48.8008 25.389031,191.08795 -172.816619,21.38442 21.714303,-447.381452 z"
         style="color:#000000;fill:#f9f7e8;fill-opacity:1;fill-rule:nonzero;stroke:none;stroke-width:1px;marker:none;visibility:visible;display:inline;overflow:visible;enable-background:accumulate" />
      <path
         style="fill:#e2dfce;fill-opacity:1;stroke:none;filter:url(#filter3656)"
         d="m 45.080841,168.35204 c 0,0 0.417583,-42.75003 14.427484,-52.74697 14.009901,-9.99693 95.375895,-29.840458 112.830855,-31.775954 17.45496,-1.935496 44.93191,-3.232091 58.94181,-1.259012 14.0099,1.973078 68.37917,7.21583 91.93084,6.746049 23.55167,-0.469781 47.66707,-1.108682 55.22532,-2.837475 7.55824,-1.728792 22.111,-5.242751 27.83189,-5.862861 5.72088,-0.620111 77.67039,-4.472312 91.63853,-3.852201 13.96814,0.62011 -22.63299,21.177709 -22.63299,21.177709 l -252.05294,13.229025 -30.54618,-5.28034 -66.10335,30.10354 -81.491269,32.35849 z"
         id="path3622" />
    </g>
    <path
       style="color:#000000;fill:#595540;fill-opacity:1;fill-rule:nonzero;stroke:#4e4b3a;stroke-width:0.20999999000000000;stroke-miterlimit:4;stroke-opacity:1;stroke-dasharray:none;marker:none;visibility:visible;display:inline;overflow:visible;enable-background:accumulate;opacity:0.5951417"
       d="m 158.24123,75.270585 c -0.23124,0.06637 -0.45723,0.134787 -0.68556,0.218119 -1.88364,0.746506 -3.08625,2.290273 -4.4984,3.711762 -0.74417,0.837076 -1.14241,1.820453 -1.31498,2.914024 -0.0892,1.196111 0.20763,1.893454 1.08362,2.685064 0.98502,0.735619 2.15717,0.927634 3.35323,0.904589 1.35607,-0.08722 2.02729,-0.62445 3.0803,-1.417331 l 0.0521,-0.0465 c -0.0192,-0.02123 -0.30548,-0.329635 -0.31738,-0.334909 -0.31867,-0.141209 -0.8402,-0.02442 -1.17009,-0.136255 -1.06519,-0.129389 -2.14297,-0.285475 -3.03527,-0.925985 -0.80857,-0.739957 -1.05841,-1.369986 -0.92775,-2.46828 0.15683,-0.756763 0.43589,-1.478819 0.85317,-2.108997 0.38788,-0.274114 0.79948,-0.518874 1.2291,-0.721521 0.90939,-0.385105 1.8376,-0.662543 2.83779,-0.639347 0.90309,0.03084 1.81999,0.147247 2.64124,0.547095 l 1.55136,-1.683005 c -0.82952,-0.375553 -1.69269,-0.599653 -2.5916,-0.722424 -0.7356,-0.08648 -1.44725,0.02481 -2.14094,0.223906 z m 6.46472,3.7849 c -1.46811,0.336983 -2.22426,1.513555 -3.28504,2.573612 -0.32628,0.388022 -0.47941,0.817427 -0.45171,1.320317 0.0619,0.472373 0.33522,0.801061 0.71082,1.070102 0.45617,0.278677 0.93024,0.272162 1.43592,0.161368 0.63018,-0.171282 1.16587,-0.539748 1.64884,-0.964751 0.30891,-0.279537 0.58344,-0.563618 0.87026,-0.850938 0.0594,0.149626 0.14902,0.281313 0.24323,0.419751 0.45915,0.596972 1.01291,0.693034 1.73383,0.663433 1.05026,-0.125183 1.85968,-0.70582 2.68818,-1.311096 l 0.11812,-0.16151 c -0.0705,-0.06343 -0.12022,-0.134573 -0.20802,-0.170277 -0.33035,-0.134317 -0.75515,0.0148 -1.09342,-0.09228 -0.53053,-0.103638 -1.05278,-0.229343 -1.38569,-0.693001 -0.19799,-0.34023 -0.30534,-0.695261 -0.26403,-1.094024 0.003,-0.03746 0.0312,-0.06961 0.0358,-0.106834 0.0647,-0.168197 0.10444,-0.350699 0.14888,-0.525986 0.0138,-0.09923 0.082,-0.206159 0.0471,-0.304155 -0.24948,-0.444894 -0.57873,-0.246385 -0.89923,0.146503 -0.68351,-0.190673 -1.39408,-0.195276 -2.09385,-0.08024 z m 1.54156,0.909784 c -0.16154,0.250217 -0.31951,0.470792 -0.45051,0.607707 -0.184,0.295819 -0.2506,0.643725 -0.28395,0.983477 -0.004,0.06123 0.0166,0.129513 0.0189,0.189139 -0.10032,0.148857 -0.20987,0.282979 -0.33239,0.446196 -0.21562,0.13585 -0.43617,0.253592 -0.69122,0.316778 -0.40857,0.06986 -0.8181,0.07109 -1.15628,-0.204751 -0.28538,-0.253387 -0.51183,-0.561095 -0.51914,-0.960152 0.009,-0.113574 0.0103,-0.229186 0.0389,-0.334312 0.13019,-0.06507 0.24618,-0.125907 0.37577,-0.166562 0.72502,-0.175124 1.46668,-0.181864 2.19815,-0.01277 l 0.80175,-0.864756 z m 8.72456,-1.975246 c -1.24121,0.276585 -2.07827,1.368922 -2.78046,2.404525 -0.33582,0.594263 -0.55408,1.246442 -0.71306,1.909153 l 1.85804,-1.50708 c 0.0835,-0.32415 0.19656,-0.653606 0.3223,-0.961487 0.46557,-0.164667 0.93603,-0.326445 1.36859,-0.565061 0.59697,-0.329294 0.74807,-0.437132 0.77918,-0.470116 -0.0924,0.03166 -0.22527,0.116106 0.54858,-0.245756 l 0.044,-0.07666 c -0.76215,-0.269224 0.17197,0.154754 -0.36388,-0.387061 -0.1588,-0.160553 -0.85319,-0.12388 -1.06327,-0.100446 z m 7.83098,-1.927406 c -0.25043,0.231657 -0.50178,0.399468 -0.71632,0.582595 -0.36555,0.01716 -0.72465,0.07446 -1.08839,0.165366 -1.52992,0.494704 -2.43563,1.801204 -3.54329,2.934968 -0.28496,0.385707 -0.39229,0.807892 -0.30089,1.279455 0.1607,0.453104 0.54333,0.608356 0.99105,0.670415 0.62513,0.03314 1.15523,-0.194717 1.67277,-0.51796 0.37491,-0.296981 0.75071,-0.618094 1.10339,-0.946474 0.0528,0.129187 0.0741,0.257816 0.1364,0.38394 0.43795,0.805398 1.0693,1.497273 1.68746,2.16532 0.69227,0.724853 1.33992,1.455349 1.93944,2.258928 0.26275,0.351205 0.50797,0.747137 0.60653,1.163117 -0.69093,0.22221 -1.42949,0.340562 -2.15224,0.421229 -1.64747,0.173379 -3.29481,0.06804 -4.93046,-0.153502 -1.3411,-0.178904 -2.64286,-0.566863 -3.97284,-0.801474 -0.55151,-0.122474 -0.96668,0.01189 -1.45033,0.263433 l -0.28275,0.270868 c -0.31881,0.564422 -0.52344,0.870412 0.0416,1.348552 1.1364,0.66492 2.45938,0.881946 3.7366,1.124494 1.6477,0.222848 3.32319,0.38348 4.98514,0.235821 1.07182,-0.12168 2.14825,-0.286761 3.12308,-0.781393 1.25274,-0.679447 2.76628,-1.72706 2.99279,-3.174337 -0.0563,-0.668107 -0.40781,-1.227381 -0.80012,-1.758197 -0.6182,-0.797545 -1.28129,-1.568778 -1.9558,-2.319253 -0.58148,-0.665294 -1.19488,-1.299692 -1.60262,-2.091176 -0.12113,-0.278464 -0.23895,-0.567063 -0.29731,-0.858371 0.0845,-0.188113 0.15158,-0.373485 0.20102,-0.572493 l 0.49702,-0.555553 c -0.12718,-0.03066 -0.2538,-0.07135 -0.38082,-0.09108 0.01,-0.103823 -0.0119,-0.215242 -0.0215,-0.317966 0.14715,-0.276151 0.14826,-0.298334 -0.002,-0.128825 -0.0438,-0.09919 -0.11779,-0.151072 -0.21618,-0.20044 z m 6.37128,-0.981526 c -0.51116,0.169859 -0.88456,0.503457 -1.30071,0.935184 -0.10716,0.03539 -0.21807,0.07735 -0.32361,0.120055 -1.11583,0.648452 -2.50321,1.655833 -2.72386,2.971966 -0.0181,0.587931 0.35466,0.953014 0.84218,1.196402 0.7489,0.288345 1.53963,0.183359 2.2968,-0.0071 1.55402,-0.511567 2.72508,-1.775637 3.66142,-3.096478 0.32895,-0.538898 0.23305,-1.031934 -0.1203,-1.521387 -0.45253,-0.514333 -1.05046,-0.674717 -1.71183,-0.701768 -0.2351,0.0079 -0.43359,0.04132 -0.61961,0.103115 z m -9.72231,3.670141 c 0.4091,-0.132356 0.83194,-0.231001 1.25302,-0.274727 -0.0344,0.130071 -0.0651,0.25843 -0.0829,0.410984 -0.0186,0.257781 0.0216,0.513613 0.0755,0.756588 -0.2939,0.151049 -0.62668,0.252576 -0.97337,0.231343 -0.33044,-0.06057 -0.61634,-0.156343 -0.6624,-0.532823 -0.002,-0.147811 0.0347,-0.307536 0.0747,-0.441147 0.10334,-0.05053 0.20778,-0.108478 0.31544,-0.150219 z m 9.11043,-1.626519 c 0.31107,0.154464 0.63402,0.312888 0.86788,0.57428 0.12958,0.201647 0.16873,0.40741 0.16344,0.603252 -0.0101,0.0041 -0.0206,0.004 -0.0301,0.0082 -0.69775,0.222165 -1.45027,0.368768 -2.16547,0.133426 -0.30778,-0.144694 -0.53478,-0.329327 -0.58823,-0.617665 0.42229,-0.124129 0.85823,-0.187282 1.30768,-0.192411 l 0.44486,-0.509048 z"
       id="path3672" />
    <path
       style="opacity:1;color:#000000;fill:#000000;fill-opacity:1;fill-rule:nonzero;stroke:none;stroke-width:0.50000000000000000;stroke-linecap:butt;stroke-linejoin:miter;stroke-miterlimit:4;stroke-opacity:1;stroke-dasharray:none;stroke-dashoffset:0;marker:none;visibility:visible;display:inline;overflow:visible;enable-background:accumulate"
       id="path3755"
       d="m 226.49437,98.834875 c -0.26013,0.397555 -0.47667,0.819992 -0.67786,1.249625 -0.23411,0.505 -0.41739,1.03128 -0.5966,1.55763 -0.18802,0.58047 -0.34548,1.16971 -0.49405,1.76127 -0.1194,0.44429 -0.19593,0.89726 -0.25533,1.35286 -0.0458,0.35455 -0.0516,0.71182 -0.0475,1.06867 0.0173,0.32628 0.0159,0.65069 -0.034,0.97382 -0.0759,0.40284 -0.17612,0.51785 -0.48397,0.79485 0,0 -0.10662,0.0553 -0.10662,0.0553 l 0,0 c -0.34397,0.0557 -0.42253,0.0677 -0.5632,-0.25588 -0.0853,-0.29601 -0.0967,-0.60307 -0.10044,-0.90978 -0.004,-0.36436 3.9e-4,-0.72941 0.0473,-1.09138 0.0612,-0.46755 0.16078,-0.92842 0.28075,-1.38437 0.15714,-0.59868 0.32234,-1.19583 0.51765,-1.78332 0.17636,-0.53836 0.36949,-1.07124 0.6127,-1.58366 0.21757,-0.44437 0.45003,-0.882819 0.72804,-1.292891 0,0 1.17315,-0.512694 1.17315,-0.512694 z" />
    <path
       style="opacity:0.59514172;color:#000000;fill:#8898a9;fill-opacity:1;fill-rule:nonzero;stroke:#212019;stroke-width:0.5;stroke-linecap:butt;stroke-linejoin:miter;stroke-miterlimit:4;stroke-opacity:1;stroke-dasharray:none;stroke-dashoffset:0;marker:none;visibility:visible;display:inline;overflow:visible;enable-background:accumulate"
       id="path3761"
       d="m 203.2483,123.69078 c 0.24371,-0.24438 0.5085,-0.46495 0.78808,-0.66676 0.53726,-0.35931 1.08888,-0.70721 1.68007,-0.9702 0.18265,-0.077 0.37399,-0.12852 0.56765,-0.16861 0.19968,-0.0354 0.40205,-0.0529 0.60471,-0.0464 0.17903,0.003 0.35177,0.0455 0.51893,0.10674 0.15824,0.0631 0.3032,0.15073 0.44565,0.24296 0.1438,0.0957 0.26925,0.2132 0.38457,0.34101 0.10752,0.11779 0.1923,0.25192 0.26829,0.39135 0.0697,0.12541 0.11754,0.2614 0.16771,0.39542 0.0536,0.14974 0.0988,0.3022 0.13778,0.45634 0.0446,0.17887 0.0741,0.36086 0.0934,0.54408 0.014,0.18418 0.008,0.36892 0.007,0.55338 -3.7e-4,0.17902 -0.003,0.35812 -0.0138,0.53686 -0.0106,0.20706 -0.0505,0.40998 -0.0998,0.61083 -0.0488,0.21122 -0.12042,0.41593 -0.20254,0.61625 -0.0987,0.22069 -0.22439,0.42729 -0.35619,0.62941 -0.12903,0.1996 -0.26445,0.39508 -0.40596,0.58602 -0.14405,0.1944 -0.29474,0.38375 -0.45175,0.56782 -0.15784,0.18816 -0.33925,0.35281 -0.53308,0.50272 -0.64813,0.45209 -1.34478,0.83375 -2.05159,1.18683 -0.29852,0.1527 -0.60388,0.29093 -0.91745,0.40962 -0.25079,0.0934 -0.51098,0.15466 -0.77534,0.19319 -0.18617,0.0311 -0.36967,0.0107 -0.55213,-0.0294 -0.20763,-0.0533 -0.41008,-0.12294 -0.61115,-0.19663 -0.19559,-0.0689 -0.3864,-0.14926 -0.56229,-0.25963 -0.13212,-0.0811 -0.21719,-0.19419 -0.2664,-0.33908 -0.0405,-0.16043 0.0198,-0.29799 0.11439,-0.42472 0.51533,-0.49746 1.47194,-0.93153 1.9511,-1.20785 0.23629,-0.13093 0.48071,-0.24604 0.72837,-0.35359 0.15766,-0.0705 0.32128,-0.11741 0.49278,-0.1354 0.22089,-0.0114 0.44091,0.0226 0.65906,0.0528 0.35544,0.0526 0.70646,0.12946 1.05596,0.21197 0.40838,0.0997 0.80999,0.22458 1.21268,0.34469 0.38687,0.12158 0.77913,0.22469 1.17294,0.32101 0.37345,0.0923 0.75371,0.14789 1.1351,0.19408 0.33081,0.0322 0.6626,0.004 0.99382,-0.002 0.27172,0.008 0.15324,-0.009 0.16354,0.16657 0,0 -0.0296,0.023 -0.0296,0.023 l 0,0 c -0.33221,0.18261 -0.65787,0.3821 -1.02619,0.48528 -0.43906,0.13159 -0.88731,0.23195 -1.34897,0.22113 -0.41005,-0.008 -0.81381,-0.0676 -1.20985,-0.17607 -0.39457,-0.1009 -0.78661,-0.21083 -1.17657,-0.3283 -0.39716,-0.12324 -0.79493,-0.245 -1.19983,-0.34079 -0.3467,-0.0803 -0.69537,-0.15491 -1.04919,-0.19643 -0.21127,-0.0242 -0.42657,-0.0499 -0.63764,-0.01 -0.162,0.0386 -0.31736,0.0971 -0.46841,0.16735 -0.24416,0.11086 -0.48394,0.23124 -0.7168,0.36435 2.35365,-1.36217 1.28254,-0.78382 0.78499,-0.42503 -0.0843,0.0728 -0.18084,0.15327 -0.18092,0.27407 0.0209,0.11046 0.11489,0.17551 0.20446,0.2337 0.17075,0.0969 0.35104,0.17396 0.53628,0.23896 0.19678,0.0686 0.39541,0.13667 0.60163,0.17059 0.17047,0.023 0.34145,0.0213 0.51143,-0.008 0.25141,-0.0448 0.49829,-0.11189 0.73623,-0.20532 0.30253,-0.12033 0.59732,-0.25809 0.88764,-0.40547 0.48803,-0.24885 1.21877,-0.69648 -0.9312,0.55508 -0.32394,0.18857 0.68741,-0.37177 0.33519,-0.20125 0.19965,-0.14084 0.39256,-0.29187 0.55504,-0.47572 0.16013,-0.17928 0.31259,-0.36503 0.45666,-0.55752 0.14408,-0.19003 0.28573,-0.38181 0.4174,-0.58076 0.13282,-0.20021 0.26891,-0.3992 0.37799,-0.61376 0.0974,-0.19275 0.18041,-0.39172 0.23484,-0.60133 0.0504,-0.19353 0.0984,-0.38894 0.11487,-0.58877 0.0143,-0.17832 0.0224,-0.35684 0.0277,-0.53566 0.006,-0.18221 0.0147,-0.36458 0.0112,-0.54689 -0.008,-0.17842 -0.0323,-0.35522 -0.0715,-0.5296 -0.034,-0.15068 -0.0715,-0.30067 -0.12541,-0.4457 -0.0434,-0.12966 -0.0873,-0.2593 -0.14592,-0.38308 -0.068,-0.13031 -0.14384,-0.25667 -0.24347,-0.36578 -0.10677,-0.11849 -0.22088,-0.23014 -0.35825,-0.31333 -0.13272,-0.0852 -0.2709,-0.16654 -0.42003,-0.21929 -0.15614,-0.0502 -0.31661,-0.0773 -0.48116,-0.0772 -0.19257,0.005 -0.38506,0.0169 -0.57353,0.06 -0.17444,0.0384 -0.34651,0.0878 -0.51009,0.16062 -0.39995,0.18514 -0.89382,0.51065 0.84771,-0.50713 0.0362,-0.0212 -0.0739,0.0398 -0.11039,0.0605 -0.10715,0.0608 -0.13803,0.0817 -0.24508,0.14841 -0.3045,0.20066 -0.59626,0.4205 -0.85939,0.67388 0,0 -1.06597,0.43985 -1.06597,0.43985 z" />
    <path
       style="opacity:0.59514172;color:#000000;fill:#8898a9;fill-opacity:1;fill-rule:nonzero;stroke:#212019;stroke-width:0.5;stroke-linecap:butt;stroke-linejoin:miter;stroke-miterlimit:4;stroke-opacity:1;stroke-dasharray:none;stroke-dashoffset:0;marker:none;visibility:visible;display:inline;overflow:visible;enable-background:accumulate"
       id="path3763"
       d="m 237.64602,117.15319 c 0.50022,-0.0275 1.00033,6.7e-4 1.49849,0.0458 0.58415,0.0564 1.1641,0.14782 1.7368,0.27539 0.38032,0.088 0.74609,0.21703 1.0348,0.48585 0.15988,0.17285 0.17773,0.35993 0.0597,0.55791 -0.55109,0.52448 -1.27847,0.84166 -1.94536,1.19536 -0.45506,0.24728 -1.20178,0.67502 0.874,-0.50844 0.23798,-0.13568 -0.21964,0.1468 -0.27599,0.1907 -0.14264,0.11155 -0.24783,0.24819 -0.29629,0.42282 -0.0289,0.20599 0.0738,0.38641 0.17663,0.55635 0.13783,0.2108 0.28947,0.41202 0.43255,0.61931 0.13593,0.20446 0.26696,0.41205 0.40582,0.61455 0.14718,0.2065 0.29341,0.41288 0.41811,0.63388 0.13413,0.24968 0.18175,0.52793 0.20302,0.80718 0.0174,0.27349 -0.0224,0.54427 -0.0834,0.80999 -0.0706,0.28058 -0.25039,0.489 -0.47059,0.66589 -1.01122,0.63336 -1.53975,1.08392 -2.62444,1.08587 -0.53675,-0.0182 -1.02938,-0.20253 -1.49031,-0.46556 -0.26117,-0.17726 -0.57322,-0.41987 -0.503,-0.78135 0.013,-0.0669 0.0471,-0.12783 0.0707,-0.19174 0.10118,-0.0945 0.20237,-0.18907 0.30355,-0.2836 0,0 0.11115,-0.0557 0.11115,-0.0557 l 0,0 c 0.0956,-0.0145 0.19112,-0.029 0.28667,-0.0435 0.37501,0.11815 0.72005,0.30432 1.0749,0.47083 0.47638,0.20284 0.97033,0.37355 1.49558,0.36425 0.19777,-0.0113 0.2617,-0.008 0.45401,-0.0455 0.61873,-0.12045 1.67229,-0.83345 -0.70012,0.54397 0.25634,-0.15284 0.47819,-0.33876 0.60868,-0.61435 0.10822,-0.24691 0.16365,-0.5058 0.14993,-0.77698 -0.0166,-0.25879 -0.0505,-0.51602 -0.17389,-0.74877 -0.12076,-0.21818 -0.26749,-0.41928 -0.41082,-0.62298 -0.13749,-0.20333 -0.27011,-0.40979 -0.40679,-0.61365 -0.14281,-0.21085 -0.29569,-0.41465 -0.43803,-0.62584 -0.12048,-0.19989 -0.23638,-0.40947 -0.23004,-0.65025 0.0229,-0.20547 0.10703,-0.37767 0.26061,-0.51943 0.55425,-0.49631 1.25812,-0.79067 1.90771,-1.14609 0.51922,-0.27381 0.0902,-0.0499 -0.94887,0.55804 -0.0469,0.0275 0.0956,-0.0518 0.14295,-0.0785 0.0877,-0.0495 0.17199,-0.0985 0.2551,-0.15533 0.0334,-0.0228 0.0651,-0.048 0.0976,-0.072 0.14083,-0.1236 0.21795,-0.2366 0.0827,-0.40358 -0.25997,-0.2554 -0.61582,-0.36238 -0.96201,-0.44874 -0.56902,-0.12495 -1.14508,-0.21164 -1.7255,-0.26352 -0.4709,-0.0434 -0.94269,-0.0856 -1.41597,-0.0872 0,0 0.95968,-0.70143 0.95968,-0.70143 z" />
  </g>
</svg>
