<?xml version="1.0" encoding="UTF-8" standalone="no"?>
<svg
   xmlns:dc="http://purl.org/dc/elements/1.1/"
   xmlns:cc="http://creativecommons.org/ns#"
   xmlns:rdf="http://www.w3.org/1999/02/22-rdf-syntax-ns#"
   xmlns:svg="http://www.w3.org/2000/svg"
   xmlns="http://www.w3.org/2000/svg"
   xmlns:xlink="http://www.w3.org/1999/xlink"
   xmlns:sodipodi="http://sodipodi.sourceforge.net/DTD/sodipodi-0.dtd"
   xmlns:inkscape="http://www.inkscape.org/namespaces/inkscape"
   width="1024px"
   height="1024px"
   viewBox="0 0 1024 1024"
   version="1.1"
   id="svg2566"
   sodipodi:version="0.32"
   inkscape:version="0.46"
   sodipodi:docname="BendyLeaf_BendyLeafSkin.svg"
   inkscape:output_extension="org.inkscape.output.svg.inkscape"
   inkscape:export-filename="/home/alex/Projects/Cargo/Foliage1.png"
   inkscape:export-xdpi="90"
   inkscape:export-ydpi="90">
  <metadata
     id="metadata2755">
    <rdf:RDF>
      <cc:Work
         rdf:about="">
        <dc:format>image/svg+xml</dc:format>
        <dc:type
           rdf:resource="http://purl.org/dc/dcmitype/StillImage" />
      </cc:Work>
    </rdf:RDF>
  </metadata>
  <defs
     id="defs2753">
    <linearGradient
       inkscape:collect="always"
       id="linearGradient3486">
      <stop
         style="stop-color:#154e4d;stop-opacity:1"
         offset="0"
         id="stop3488" />
      <stop
         style="stop-color:#1f7244;stop-opacity:0.498"
         offset="1"
         id="stop3490" />
    </linearGradient>
    <linearGradient
       id="linearGradient3412">
      <stop
         style="stop-color:#76d1d5;stop-opacity:1;"
         offset="0"
         id="stop3414" />
      <stop
         style="stop-color:#76d1d5;stop-opacity:0.33620688;"
         offset="1"
         id="stop3416" />
    </linearGradient>
    <linearGradient
       id="linearGradient3340">
      <stop
         style="stop-color:#182f18;stop-opacity:1;"
         offset="0"
         id="stop3342" />
      <stop
         style="stop-color:#182f18;stop-opacity:0.23275863;"
         offset="1"
         id="stop3344" />
    </linearGradient>
    <linearGradient
       id="linearGradient3696">
      <stop
         style="stop-color:#000000;stop-opacity:1;"
         offset="0"
         id="stop3698" />
      <stop
         id="stop3704"
         offset="0.5"
         style="stop-color:#000000;stop-opacity:0;" />
      <stop
         style="stop-color:#000000;stop-opacity:1;"
         offset="1"
         id="stop3700" />
    </linearGradient>
    <linearGradient
       id="linearGradient3625">
      <stop
         style="stop-color:#268965;stop-opacity:1;"
         offset="0"
         id="stop3627" />
      <stop
         id="stop3633"
         offset="0.64814812"
         style="stop-color:#7acea2;stop-opacity:1;" />
      <stop
         style="stop-color:#d4eaca;stop-opacity:1;"
         offset="1"
         id="stop3629" />
    </linearGradient>
    <inkscape:perspective
       sodipodi:type="inkscape:persp3d"
       inkscape:vp_x="0 : 512 : 1"
       inkscape:vp_y="0 : 1000 : 0"
       inkscape:vp_z="1024 : 512 : 1"
       inkscape:persp3d-origin="512 : 341.33333 : 1"
       id="perspective2757" />
    <linearGradient
       inkscape:collect="always"
       xlink:href="#linearGradient3625"
       id="linearGradient3631"
       x1="197.02513"
       y1="-0.1015748"
       x2="197.02513"
       y2="1024.9377"
       gradientUnits="userSpaceOnUse" />
    <filter
       inkscape:collect="always"
       id="filter3783">
      <feGaussianBlur
         inkscape:collect="always"
         stdDeviation="4.5983413"
         id="feGaussianBlur3785" />
    </filter>
    <filter
       inkscape:collect="always"
       id="filter3826">
      <feGaussianBlur
         inkscape:collect="always"
         stdDeviation="5.3402049"
         id="feGaussianBlur3828" />
    </filter>
    <filter
       inkscape:collect="always"
       id="filter3336">
      <feGaussianBlur
         inkscape:collect="always"
         stdDeviation="2.7801212"
         id="feGaussianBlur3338" />
    </filter>
    <linearGradient
       inkscape:collect="always"
       xlink:href="#linearGradient3340"
       id="linearGradient3410"
       gradientUnits="userSpaceOnUse"
       x1="207.02025"
       y1="643.04822"
       x2="207.02025"
       y2="62.494877" />
    <linearGradient
       inkscape:collect="always"
       xlink:href="#linearGradient3412"
       id="linearGradient3484"
       gradientUnits="userSpaceOnUse"
       x1="199.08922"
       y1="75.487938"
       x2="199.08922"
       y2="650.63037" />
    <linearGradient
       inkscape:collect="always"
       xlink:href="#linearGradient3486"
       id="linearGradient3580"
       gradientUnits="userSpaceOnUse"
       x1="192.76212"
       y1="57.39159"
       x2="192.76212"
       y2="570.92303" />
  </defs>
  <sodipodi:namedview
     inkscape:window-height="940"
     inkscape:window-width="1007"
     inkscape:pageshadow="2"
     inkscape:pageopacity="0.0"
     guidetolerance="10.0"
     gridtolerance="10.0"
     objecttolerance="10.0"
     borderopacity="1.0"
     bordercolor="#666666"
     pagecolor="#ffffff"
     id="base"
     showgrid="false"
     inkscape:zoom="1"
     inkscape:cx="183.21109"
     inkscape:cy="631.62913"
     inkscape:window-x="199"
     inkscape:window-y="45"
     inkscape:current-layer="layer2" />
  <desc
     id="desc2568">UV-Map from Object: BendyLeafSkin. Exported from Blender3D with UV Exportscript</desc>
  <g
     inkscape:groupmode="layer"
     id="layer2"
     inkscape:label="Diffuse"
     style="display:inline">
    <path
       style="fill:url(#linearGradient3631);fill-opacity:1;fill-rule:evenodd;stroke:#000000;stroke-width:1px;stroke-linecap:butt;stroke-linejoin:miter;stroke-opacity:1"
       d="M 167.50343,2.6362205 L 108.42882,18.774803 L 60.512066,68.314961 L 20.56077,170.96693 L 1.4994465,284.03622 L 2.9871596,393.8315 L 16.655524,498.30236 L 53.284038,596.99685 L 78.544166,690.05827 L 85.796768,785.46772 L 99.155191,969.87087 L 192.15563,1024.4378 L 285.38565,965.73701 L 304.38499,779.51496 L 308.35222,686.08976 L 331.2878,600.70079 L 368.35665,495.99843 L 392.55081,388.91969 L 392.11689,277.93386 L 367.63161,169.65984 L 322.47996,71.269291 L 274.96613,17.595276 L 221.59442,0.3984252 L 167.50343,2.6362205 z"
       id="path2759" />
    <use
       x="0"
       y="0"
       xlink:href="#path3787"
       id="use3796"
       style="filter:url(#filter3826)"
       width="1024"
       height="1024" />
    <use
       x="0"
       y="0"
       xlink:href="#path3706"
       id="use3749"
       style="filter:url(#filter3783)"
       width="1024"
       height="1024" />
    <path
       id="path3706"
       style="opacity:0.15948276000000000;fill:url(#linearGradient3484);fill-opacity:1;fill-rule:nonzero;stroke:none;stroke-width:1px;stroke-linecap:butt;stroke-linejoin:miter;stroke-opacity:1"
       d="M 221.1609,649.36303 C 220.68994,646.62031 220.34138,643.88301 220.23102,641.09013 C 220.19198,635.87203 219.86418,630.66716 219.51194,625.46302 C 219.11033,619.31123 219.17646,613.14183 219.12543,606.98047 C 219.00337,600.96949 218.70018,594.96924 218.80624,588.95597 C 219.09021,582.46329 219.82311,575.99718 220.53715,569.5401 C 221.1756,563.00368 222.4576,556.56783 223.92499,550.17522 C 225.45946,543.5905 227.11904,537.03618 228.72256,530.46824 C 230.37641,523.74572 231.95233,517.00439 233.59166,510.27839 C 235.2669,503.48052 237.31334,496.78339 239.21871,490.04859 C 241.20614,482.8029 242.74258,475.44452 244.37662,468.11389 C 246.21411,460.22492 248.18387,452.36905 249.9173,444.45619 C 251.65755,435.95981 252.98069,427.38502 254.28617,418.81329 C 255.67663,409.4454 256.57793,400.01792 257.37778,390.58453 C 258.08428,381.40632 258.96828,372.24633 260.22155,363.12634 C 261.54063,354.56228 262.93931,346.01363 263.8918,337.39943 C 264.77893,328.40655 264.93655,319.36498 265.16624,310.33776 C 265.53958,300.80411 265.57889,291.2712 265.1922,281.73903 C 264.70541,272.06083 263.50275,262.44006 262.36519,252.82258 C 261.21528,243.19362 259.92649,233.58236 258.77152,223.95405 C 257.72218,214.10739 256.57959,204.27518 255.15307,194.47567 C 253.69089,184.94227 251.70348,175.50266 249.72693,166.06612 C 247.91411,157.24628 245.77554,148.5002 243.52711,139.78291 C 241.32709,131.2865 239.05737,122.80846 236.88129,114.30584 C 234.46946,104.81248 231.51257,95.471555 228.88192,86.039877 C 227.77467,78.950699 228.70606,82.392273 226.08871,75.714891 C 226.00613,75.504223 226.27436,75.393533 226.38396,75.591496 L 226.38396,75.591496 C 229.90995,81.960647 227.86204,78.938928 232.5508,84.640942 C 233.45438,86.173673 234.41789,87.672614 235.26153,89.239137 C 239.22435,96.597554 241.77702,104.58359 243.93935,112.62376 C 246.27948,121.10021 248.63998,129.57055 251.011,138.03837 C 253.32407,146.85871 255.4542,155.72548 257.28173,164.66037 C 259.24632,174.23602 261.21552,183.81684 262.69303,193.4825 C 264.14678,203.33694 265.31044,213.22734 266.42578,223.1253 C 267.58968,232.75419 268.86094,242.36957 270.04647,251.99582 C 271.23272,261.79004 272.42641,271.59404 272.93407,281.45219 C 273.3385,291.13663 273.35049,300.82524 273.02224,310.51363 C 272.7977,319.75074 272.69889,329.00757 271.73965,338.20596 C 270.71769,346.87628 269.25041,355.47128 267.82909,364.08249 C 266.5486,373.08202 265.51093,382.11088 264.77192,391.17222 C 263.89363,400.73031 262.94997,410.28597 261.52475,419.7811 C 260.25764,428.50381 258.92839,437.22279 257.16038,445.86055 C 255.46868,453.79796 253.51759,461.67416 251.71021,469.58548 C 250.03986,477.02852 248.51406,484.50777 246.54805,491.88085 C 244.70823,498.56176 242.67279,505.1885 241.01017,511.91757 C 239.33339,518.64626 237.81647,525.41396 236.07201,532.1259 C 234.38705,538.629 232.78368,545.15274 231.24847,551.69284 C 229.81344,557.86398 228.46509,564.05867 227.63799,570.34629 C 226.75318,576.56575 225.84961,582.79651 225.5795,589.07997 C 225.44121,595.04224 225.6404,601.00069 225.6477,606.96365 C 225.6323,613.12056 225.63991,619.28175 225.41185,625.43466 C 225.11666,630.65253 224.75507,635.86748 224.72039,641.09609 C 224.60011,643.95295 224.25403,646.73042 223.48963,649.48468 C 223.04867,651.07353 221.43996,650.98815 221.1609,649.36303 z M 174.05624,609.01431 C 174.5623,604.54654 174.56202,600.04337 174.70738,595.55307 C 175.22393,583.46335 174.72393,571.39443 173.61611,559.35533 C 171.53945,541.59457 168.90779,523.90479 166.22139,506.22789 C 163.05269,485.70045 159.45307,465.24513 155.93976,444.7752 C 151.86068,422.31452 148.71389,399.70559 146.01416,377.0426 C 143.50969,356.16838 141.83047,335.21225 140.70671,314.2221 C 139.97447,295.30201 138.48284,276.42783 137.26767,257.53671 C 135.96553,240.89847 136.47883,224.22197 137.71811,207.60368 C 138.69854,194.19123 140.11672,180.82342 142.29459,167.55261 C 144.98542,152.61968 148.7356,137.90542 152.06965,123.10823 C 153.54849,117.18201 154.37383,110.94867 157.02874,105.37581 C 159.00814,101.2209 159.8712,100.5449 162.74902,96.845762 C 162.88796,96.667169 163.04896,96.711352 163.05558,96.93753 L 163.05558,96.93753 C 163.18773,101.45661 163.36856,102.39299 162.93045,106.77582 C 162.32353,112.84732 160.7187,118.78716 159.28127,124.69507 C 155.43714,139.16837 151.41299,153.63106 149.32985,168.49367 C 147.57237,181.6777 146.20351,194.90561 144.70442,208.12096 C 144.22162,213.47403 143.75014,218.09996 143.49123,223.48497 C 142.95171,234.70642 143.31297,245.93887 143.99699,257.14495 C 145.2276,276.05402 146.14485,294.9762 146.87006,313.91148 C 148.09128,334.78906 149.71132,355.63777 151.93031,376.43535 C 154.39558,399.02409 157.32035,421.55888 161.42398,443.91685 C 165.04674,464.4033 168.5194,484.91885 171.41166,505.52313 C 174.08251,523.30456 177.12674,541.05074 178.92674,558.94706 C 179.8949,571.19815 180.57593,583.4931 180.16879,595.78645 C 179.87199,600.57399 179.53766,605.5516 177.30376,609.89811 C 176.2159,612.01478 173.78839,611.37905 174.05624,609.01431 z M 174.28733,386.55057 C 172.47608,380.90119 171.98872,374.90921 171.11913,369.0648 C 168.81198,353.15501 167.23156,337.17816 166.08588,321.14714 C 164.59819,297.92818 165.25484,274.65756 165.4686,251.41384 C 165.73528,238.3934 165.47889,225.36411 165.92088,212.34632 C 166.17834,204.76335 166.45693,201.85918 166.99822,194.25337 C 168.79341,173.07034 173.41554,152.30266 178.09231,131.61224 C 180.71701,121.54184 182.95382,111.33722 186.28002,101.46118 C 191.49682,85.971612 187.80232,99.923125 191.34054,85.208779 C 191.39344,84.988776 191.70625,85.056227 191.65335,85.276231 L 191.65335,85.276231 C 187.89228,100.91774 191.45795,84.860065 188.63167,101.98687 C 186.94168,112.22793 184.13808,122.25356 182.09291,132.42108 C 177.48922,152.91114 173.29164,173.55991 171.9167,194.5618 C 170.62373,213.51692 170.15251,232.51009 169.5022,251.49563 C 168.67242,274.6111 168.28782,297.78038 170.10508,320.86411 C 171.46375,336.8219 173.44896,352.706 175.4666,368.59232 C 176.00978,374.4224 176.76241,380.25882 176.71735,386.12384 C 176.70395,387.86836 174.81996,388.21185 174.28733,386.55057 z M 192.29497,494.91856 C 191.41366,490.24726 191.78315,485.45147 192.01868,480.73494 C 192.61167,470.25982 193.42393,459.79887 194.09299,449.32845 C 195.57829,430.75918 193.84956,412.21078 191.98851,393.74456 C 189.07289,370.14911 187.53584,346.43046 186.30995,322.69819 C 185.36321,302.71333 184.07707,282.74768 183.69444,262.74154 C 183.88152,242.01224 184.64129,221.28384 185.48114,200.57063 C 186.51514,189.80565 185.88599,178.99297 185.78075,168.20403 C 185.77855,167.97776 186.09853,167.97495 186.10074,168.20122 L 186.10074,168.20122 C 186.20599,178.99183 185.92335,189.83372 187.44619,200.5516 C 187.66802,204.13259 187.95323,207.71021 188.11167,211.29456 C 188.86739,228.39039 188.13142,245.52088 188.88567,262.61838 C 189.5574,282.581 190.39576,302.53772 190.90092,322.50601 C 191.88009,346.17717 193.63645,369.79281 196.70798,393.29409 C 197.56178,400.95524 198.23362,406.28552 198.7874,413.93363 C 199.64578,425.78842 199.69418,437.68587 199.3418,449.56125 C 198.97359,460.14558 198.7953,470.79532 196.74856,481.22398 C 195.9162,485.79458 195.28414,490.40514 194.22827,494.92922 C 193.91756,496.26051 192.54842,496.26193 192.29497,494.91856 z M 206.08927,368.61498 C 205.98839,361.90474 206.59771,355.1601 206.91158,348.44971 C 207.92416,330.0357 208.47598,311.60458 208.42089,293.16348 C 208.12931,269.58114 205.9042,246.08467 203.84182,222.60826 C 202.00731,202.08675 200.79629,181.52074 199.67422,160.95084 C 198.91921,146.90771 198.46357,132.85192 197.91282,118.80019 C 197.78883,113.79971 197.39448,108.81293 197.0755,103.82278 C 197.0028,102.6855 196.84697,101.55083 196.85277,100.41125 C 196.90738,89.666771 197.38293,104.42849 197.00703,94.900485 C 196.99811,94.674386 197.15439,94.618862 197.30613,94.786721 L 197.30613,94.786721 C 198.3715,95.965293 200.54207,98.243698 201.24188,99.588881 C 204.06141,105.00861 203.44418,112.75011 203.93701,118.62856 C 204.27595,132.67783 204.7963,146.72121 205.14747,160.77013 C 205.53394,181.29825 206.02317,201.83779 207.8634,222.29833 C 209.83223,245.88069 212.25173,269.46167 212.40753,293.14906 C 212.50086,311.64218 212.37431,330.13359 211.8473,348.62049 C 211.78769,350.59844 211.72809,352.57639 211.66848,354.55434 C 211.62999,356.18423 211.60053,357.81435 211.553,359.444 C 211.46982,362.29569 211.54506,365.38761 210.93255,368.20291 C 210.84113,368.62311 210.65246,369.01609 210.51242,369.42268 C 209.47701,372.42871 206.13706,371.79398 206.08927,368.61498 z M 216.25133,461.78661 C 216.98284,457.38376 218.12569,453.06048 219.21214,448.73502 C 221.36077,440.70259 222.91669,432.54641 224.28242,424.35084 C 226.33364,411.43268 228.092,398.46975 229.71172,385.49112 C 231.4596,371.99871 232.53713,358.43855 233.2441,344.856 C 233.98258,331.89198 233.66362,318.91876 233.05986,305.9602 C 232.2249,290.60275 231.87428,275.2254 231.25642,259.85871 C 230.63559,244.81431 228.88929,229.85739 227.00844,214.92908 C 225.3593,202.0449 223.41658,189.20127 221.63354,176.33545 C 220.23395,165.25685 218.6347,154.21039 216.53768,143.24159 C 214.53397,133.96543 212.90413,124.61734 211.14389,115.29388 C 209.77189,108.14412 207.92158,101.0743 205.23886,94.297477 C 203.91958,90.964853 202.58619,88.215359 201.07999,84.974561 C 198.99846,78.97556 200.13704,81.883339 197.68549,76.242947 C 197.59529,76.035427 197.77637,75.921803 197.9515,76.065083 L 197.9515,76.065083 C 203.04807,80.234732 200.50063,78.027608 205.57525,82.707829 C 206.5945,84.211263 207.70855,85.654617 208.633,87.21813 C 213.49325,95.438198 215.72637,104.86535 217.92694,114.05293 C 219.96448,123.36962 221.82595,132.72415 223.52248,142.10914 C 225.40936,153.20166 226.89363,164.35287 228.36493,175.5071 C 230.1082,188.40171 231.83496,201.29833 233.37399,214.2194 C 235.21523,229.31004 236.90743,244.43307 237.27012,259.64657 C 237.8564,274.99744 238.4108,290.34944 239.61513,305.66807 C 240.30482,318.82862 240.14842,331.98963 239.29194,345.14372 C 238.55525,358.8673 237.63773,372.5888 235.53844,386.18458 C 233.71517,399.21163 232.02416,412.25948 229.96695,425.2521 C 228.41244,433.60103 226.62167,441.919 223.76871,449.93697 C 222.31482,454.22629 220.95967,458.60504 218.80736,462.6068 C 217.90825,464.27851 215.94023,463.6591 216.25133,461.78661 z M 200.21783,578.04399 C 199.51128,574.06154 198.97115,570.04042 198.60753,566.01069 C 198.02693,553.82374 199.45018,541.63962 200.58559,529.52302 C 203.15186,502.95354 203.8052,476.26636 204.79064,449.60828 C 205.9559,429.36432 204.8311,443.37902 207.10182,424.40617 C 207.52046,420.9082 207.85966,417.40118 208.23858,413.89868 C 208.26292,413.67372 208.58142,413.70471 208.55708,413.92967 L 208.55708,413.92967 C 208.17845,417.42858 207.61999,420.91269 207.42118,424.42641 C 206.94573,432.82905 207.73352,441.27479 206.87523,449.66876 C 206.14062,476.36983 205.76811,503.07877 204.93147,529.77595 C 204.50275,541.78581 203.94528,553.79633 204.20693,565.81722 C 204.15004,569.79603 204.01834,573.77631 203.98476,577.75339 C 203.9622,580.42483 200.68452,580.67445 200.21783,578.04399 z M 219.80345,513.90725 C 220.342,510.5965 220.82073,507.28669 221.52923,504.00616 C 224.01658,493.94305 227.09012,484.0349 229.77241,474.02061 C 234.71282,455.23917 238.49402,436.18107 242.14005,417.11463 C 246.6758,392.8585 250.05674,368.40845 254.39341,344.11901 C 257.54715,329.83435 256.23838,336.90482 258.36656,322.91631 C 258.40059,322.69261 258.71764,322.73595 258.68361,322.95965 L 258.68361,322.95965 C 256.5568,336.93907 257.38937,329.80628 256.23545,344.36375 C 253.35713,368.89015 249.70119,393.31882 245.87345,417.71342 C 242.67853,436.95975 239.15046,456.15619 234.37894,475.08447 C 231.88052,485.17549 229.56767,495.33262 226.58797,505.29289 C 225.44677,508.52917 223.99461,511.59985 222.46336,514.6673 C 221.58969,516.41747 219.48938,515.838 219.80345,513.90725 z M 187.45581,535.23981 C 185.98377,530.97591 185.20248,526.47263 184.25627,522.06383 C 181.9467,511.76149 180.24134,501.34762 178.76794,490.89738 C 177.09821,477.79437 176.01248,464.52797 176.65008,451.30831 C 176.79498,448.30402 177.12566,445.31158 177.36344,442.31321 C 179.54187,429.57913 178.59726,436.04484 180.1745,422.91278 C 180.20148,422.68812 180.49358,422.70342 180.49405,422.9297 L 180.49405,422.9297 C 180.52133,436.12163 180.32588,429.61858 181.05178,442.43969 C 181.07227,448.22159 180.98066,454.00457 181.09058,459.78546 C 181.28455,469.98675 182.21091,480.15159 183.63252,490.25178 C 185.23647,500.63753 187.32203,510.91888 189.39451,521.21887 C 190.08429,525.73702 190.80644,530.37964 190.3722,534.95435 C 190.1764,537.01713 188.13199,537.19842 187.45581,535.23981 z M 149.12282,562.41268 C 149.31325,558.57629 149.10738,554.72667 148.94383,550.89194 C 148.62109,541.91255 148.11756,532.94197 147.56193,523.97419 C 147.08116,512.50044 146.10271,501.08851 144.39067,489.73426 C 142.01709,476.93795 139.42444,464.19236 137.55454,451.3093 C 135.92997,438.10158 134.18198,424.91896 132.00878,411.78959 C 129.51727,399.06638 127.68507,386.2502 126.50074,373.34319 C 125.79035,366.17746 125.15115,358.99916 125.1027,351.79225 C 125.05706,345.00352 125.45209,341.58449 125.33396,334.7131 C 125.28042,331.59909 125.06096,328.49015 124.92446,325.37868 C 124.91454,325.15262 125.23429,325.14 125.24421,325.36605 L 125.24421,325.36605 C 125.38062,328.4757 125.37644,331.5947 125.65344,334.69498 C 126.19065,340.70758 127.31206,345.6087 128.29927,351.52574 C 129.30806,357.57213 129.61308,360.08578 130.3853,366.08923 C 130.67433,368.3362 130.95189,370.58462 131.23519,372.83232 C 133.13106,385.58164 135.21894,398.29664 137.45571,410.99074 C 139.57465,424.15505 141.2126,437.3831 142.91311,450.60654 C 144.80091,463.47559 147.18044,476.25354 149.32281,489.08073 C 150.98158,500.58865 152.19403,512.1562 152.20219,523.79925 C 152.39938,532.83719 152.93481,541.86798 152.89809,550.90825 C 152.70071,554.79113 152.31185,558.6442 152.01056,562.51677 C 151.85206,564.55387 149.02152,564.45343 149.12282,562.41268 z" />
    <path
       id="path3787"
       style="opacity:0.21551724000000000;fill:url(#linearGradient3580);fill-opacity:1;fill-rule:nonzero;stroke:none;stroke-width:1px;stroke-linecap:butt;stroke-linejoin:miter;stroke-opacity:1"
       d="M 85.535177,569.99703 C 83.85257,566.03106 83.340019,561.66991 82.450031,557.47771 C 80.893279,549.86982 79.291612,542.27101 77.606423,534.69045 C 75.334366,524.70761 73.416549,514.65132 71.497514,504.59636 C 69.685413,494.72189 67.742996,484.87233 65.861137,475.01111 C 64.143186,465.56748 62.762588,456.06744 61.335911,446.57677 C 60.056401,438.06538 59.030736,429.52122 58.208048,420.95449 C 57.484372,412.11263 57.287386,403.24034 56.868926,394.38167 C 56.428819,385.87655 56.424316,377.3614 56.360548,368.84818 C 56.220145,360.13103 56.1882,351.41501 56.202478,342.69711 C 56.343845,333.98682 56.744,325.28523 57.155599,316.58466 C 57.608819,308.20808 57.935775,299.82498 58.222247,291.44122 C 58.42537,284.18888 58.988322,276.95962 59.659202,269.73825 C 60.424687,262.63949 61.161659,255.53592 61.696776,248.41565 C 61.99698,242.41383 63.059024,236.5107 64.09042,230.60482 C 65.206932,225.34741 65.397481,219.97213 65.86318,214.63649 C 66.531858,209.11005 68.593912,203.90265 70.292273,198.63953 C 72.269374,192.39149 73.796363,186.01581 75.625537,179.72409 C 77.887931,172.59182 80.483333,165.57354 82.797471,158.45838 C 84.819663,152.12402 87.152024,145.88636 88.992032,139.49553 C 90.260806,135.03047 90.543549,130.3808 91.216654,125.80759 C 92.538816,119.51812 95.750999,113.87542 98.500323,108.1332 C 100.17243,104.64222 101.41219,101.0092 103.38932,97.674348 C 106.25499,93.768301 109.43375,90.127491 112.07268,86.056235 C 113.60553,84.12903 113.86854,81.602222 114.92603,79.460512 C 115.40411,78.492265 116.42328,77.151377 117.03311,76.299937 C 117.56013,75.777857 118.08714,75.255778 118.61416,74.733698 C 119.2385,74.25505 119.91317,73.835729 120.48717,73.297754 C 121.03082,72.788236 121.46226,72.170883 121.9498,71.607447 C 122.09786,71.436339 122.34374,71.600517 122.21496,71.786575 L 122.21496,71.786575 C 121.80271,72.382217 121.25627,72.904608 120.9782,73.573502 C 120.69744,74.248873 120.5062,76.738086 120.43172,77.508506 C 120.33319,78.626049 120.36774,79.756038 120.21076,80.866878 C 119.80564,83.733663 118.3412,86.313563 116.95269,88.794185 C 114.41664,92.82414 111.63361,96.683567 109.01462,100.65701 C 107.07857,103.81474 105.69208,107.27207 103.96172,110.54203 C 101.32006,115.65764 98.542535,120.84288 97.788163,126.63393 C 97.143135,131.52015 96.857913,136.47402 95.280105,141.19044 C 93.271324,147.58925 91.074873,153.92432 89.007192,160.30401 C 86.629435,167.30313 84.149586,174.27273 82.00968,181.34872 C 80.238873,187.73169 78.811068,194.2058 76.866158,200.54081 C 75.299221,205.37451 73.461144,210.1889 72.855775,215.26289 C 72.239201,220.73849 71.792793,226.23637 70.743068,231.65547 C 69.727539,237.39249 68.872315,243.15593 68.391163,248.96539 C 67.629033,256.06788 66.88177,263.1735 66.265641,270.29021 C 65.603961,277.41574 65.077528,284.55324 64.71893,291.70078 C 64.260455,300.08853 63.92356,308.48255 63.490153,316.87165 C 63.029439,325.49931 62.623005,334.13241 62.437084,342.77074 C 62.222039,351.4506 62.446283,360.13111 62.4796,368.81239 C 62.526179,377.27116 62.680925,385.72861 62.979213,394.1825 C 63.200029,402.94337 63.499581,411.70976 64.276506,420.44165 C 65.055092,428.92032 66.09014,437.37323 67.213514,445.81269 C 68.525506,455.25661 69.980242,464.67979 71.626791,474.07155 C 73.329545,483.96805 75.090271,493.85471 76.67713,503.77082 C 78.326872,513.82961 80.245044,523.83704 82.315734,533.81763 C 83.778529,541.48391 85.27419,549.14762 86.293631,556.8892 C 86.834711,561.07735 87.598543,565.25598 87.753465,569.48086 C 87.81248,571.09025 86.16417,571.47959 85.535177,569.99703 z M 301.63572,566.87711 C 301.55331,564.01299 302.78487,561.34888 303.74319,558.71181 C 305.43005,553.7545 308.2838,549.33814 310.36618,544.54872 C 312.78597,537.60724 313.89768,530.3002 315.35222,523.11578 C 317.49043,514.15734 318.96014,505.10141 319.88647,495.94512 C 320.62747,486.81162 321.08723,477.6603 321.27052,468.49945 C 321.31276,459.12098 320.66595,449.76719 320.63165,440.38919 C 320.69787,430.32986 321.73947,420.31489 322.60278,410.30249 C 323.53842,400.22178 323.56852,390.09839 323.623,379.98493 C 323.73129,368.82198 323.73258,357.66628 323.0341,346.52194 C 322.08954,335.91632 320.82413,325.3569 320.40358,314.71237 C 320.36523,304.13554 320.2146,293.58226 319.33166,283.03895 C 318.25661,273.72413 316.7575,264.46637 315.5115,255.17358 C 314.39143,245.80553 312.49644,236.57593 310.30808,227.40821 C 307.69734,217.84595 305.89249,208.11554 304.40132,198.32586 C 303.06629,188.70264 301.36346,179.13949 299.56271,169.59443 C 297.98081,161.00824 296.38592,152.42671 294.40127,143.92343 C 292.69927,136.85149 290.14498,130.03431 287.86763,123.13845 C 285.88676,117.13629 284.65961,110.92984 283.20581,104.78927 C 281.98519,99.606952 280.13466,94.613283 278.31438,89.621009 C 276.47877,84.762169 274.41644,79.995028 272.21957,75.289849 C 270.59459,71.820536 268.91095,68.360705 267.47343,64.808683 C 267.41681,64.609044 266.55252,61.593203 266.52937,61.385004 C 266.38993,60.131396 266.58919,58.862947 266.60078,57.601662 C 266.60286,57.375397 266.69508,57.338881 266.88705,57.458665 L 266.88705,57.458665 C 268.00643,58.157136 269.22737,58.708575 270.26076,59.528924 C 270.47308,59.697466 272.59032,62.03066 272.75954,62.215847 C 275.08174,65.451794 277.05154,68.957875 278.80481,72.53053 C 281.11798,77.383781 283.27969,82.308893 285.13101,87.359102 C 287.10992,92.582113 288.95593,97.868294 290.19636,103.3227 C 291.57728,109.29714 292.69657,115.34333 294.57992,121.19006 C 296.84029,128.27804 299.37345,135.29517 301.00163,142.56714 C 302.9353,151.16613 304.45411,159.84615 306.02555,168.51716 C 307.78081,178.13058 309.41443,187.76497 310.77197,197.4437 C 312.27262,207.06996 314.12692,216.62582 316.692,226.0325 C 318.95278,235.37941 320.84936,244.80695 322.01561,254.35992 C 323.3698,263.7464 324.81271,273.1275 325.7689,282.56466 C 326.61989,293.18652 326.60681,303.82388 326.71843,314.47365 C 327.19173,325.08908 328.39309,335.6343 329.1803,346.22754 C 329.67538,357.47491 329.66186,368.7286 329.71233,379.98519 C 329.76627,390.2604 329.6476,400.54852 328.6097,410.78163 C 327.71358,420.61648 326.66268,430.46039 326.71641,440.34939 C 326.81938,449.76454 326.97989,459.17887 326.8638,468.59494 C 326.69667,477.90585 326.25974,487.21458 325.17845,496.46956 C 324.07424,505.74904 322.40846,514.9402 320.25779,524.0363 C 318.65264,531.47718 317.40227,539.07131 314.65336,546.19789 C 312.58135,551.01675 310.13159,555.63402 307.24005,560.01621 C 306.11,562.36333 305.41758,564.8419 304.45701,567.25564 C 303.71276,569.12583 301.69361,568.88911 301.63572,566.87711 z M 337.7611,505.09626 C 338.42918,502.51142 338.7944,499.88036 339.12193,497.23629 C 339.80369,493.14008 340.09774,488.99762 340.42487,484.8624 C 340.89829,479.83209 341.60294,474.81948 342.63491,469.87308 C 343.75427,464.57347 345.09193,459.32402 346.08989,453.99919 C 346.90001,449.59768 346.87403,445.11498 346.79884,440.65899 C 346.62321,436.25181 346.61926,431.84578 346.90643,427.44459 C 347.35326,422.99062 348.18371,418.59195 348.67948,414.14245 C 349.23761,408.64508 349.15111,403.1102 348.99812,397.59519 C 348.72688,390.96672 348.51635,384.33756 348.56195,377.70313 C 348.70487,371.02738 349.11207,364.36157 349.40923,357.69177 C 349.72442,351.71894 349.78465,345.73765 349.82794,339.75796 C 349.92285,333.81397 349.89682,327.87334 349.69954,321.93194 C 349.39901,315.51327 348.95017,309.103 348.49875,302.6936 C 348.03186,296.18299 347.47288,289.67959 346.9607,283.17253 C 346.48084,276.79651 345.83537,270.43659 345.0546,264.09094 C 344.32826,257.97297 343.12154,251.93189 341.85203,245.90834 C 340.36709,239.47338 339.45372,232.93299 338.57184,226.3947 C 337.76484,219.62364 336.10648,213.01283 334.40244,206.42534 C 332.57282,199.69267 330.90378,192.91749 329.29974,186.12797 C 327.93068,179.73494 326.30731,173.4141 324.30579,167.19079 C 322.16362,161.07244 320.09547,154.93175 318.15482,148.74652 C 316.46886,143.06891 314.10278,137.63394 311.89497,132.14895 C 309.82357,126.9306 308.14708,121.56749 306.52244,116.19688 C 304.64492,111.0548 304.02383,105.82764 303.36864,100.44656 C 302.62974,96.622769 303.19205,98.481951 301.67516,94.871001 C 301.58753,94.662386 301.82386,94.544985 301.9602,94.725567 L 301.9602,94.725567 C 304.42402,97.988742 303.12636,96.389067 305.85867,99.520124 C 307.22463,101.33445 308.22558,102.5031 309.27495,104.5213 C 310.90486,107.65602 311.59491,111.1829 312.66576,114.51871 C 314.27044,119.72706 315.85182,124.9502 317.87437,130.01614 C 320.1095,135.63351 322.40673,141.2285 324.24933,146.99194 C 326.28282,153.15015 328.35748,159.29355 330.48764,165.41904 C 332.52216,171.789 334.14229,178.2646 335.54519,184.80245 C 337.14484,191.55069 338.83787,198.27504 340.63166,204.97447 C 342.40696,211.77467 343.99754,218.62797 344.89296,225.6081 C 345.80118,232.0032 346.70906,238.40137 348.16964,244.70019 C 349.50144,250.88401 350.66429,257.10436 351.37707,263.39403 C 352.16249,269.82384 352.85067,276.26571 353.2571,282.73213 C 353.75808,289.25696 354.29652,295.77929 354.73239,302.30881 C 355.16475,308.78153 355.57774,315.25695 355.88839,321.73669 C 356.11064,327.76587 356.16386,333.80178 355.98601,339.83324 C 355.86548,345.89007 355.76294,351.94997 355.33802,357.99521 C 354.88218,364.58516 354.40603,371.17643 354.25388,377.78238 C 354.09439,384.34547 354.20407,390.89915 354.57883,397.45482 C 354.74067,403.20366 354.78429,408.96243 354.22675,414.69442 C 353.74455,419.08154 352.92825,423.41549 352.39714,427.7956 C 352.06524,432.08822 352.07509,436.39133 351.96214,440.6933 C 351.81613,445.42108 351.60071,450.16317 350.66611,454.81388 C 349.55789,460.12408 348.01577,465.3282 346.93012,470.64394 C 345.99473,475.54069 344.9925,480.42352 344.19655,485.34551 C 343.34737,489.45325 342.46314,493.55294 341.57886,497.65328 C 340.92458,500.22065 340.1969,502.7728 340.0343,505.43405 C 339.9352,507.05606 337.35445,506.6696 337.7611,505.09626 z M 60.281994,510.83111 C 59.310803,507.40547 57.522049,504.29105 56.083,501.05006 C 54.585155,496.77335 52.924892,492.53634 51.763279,488.15319 C 50.824084,483.48391 49.791512,478.83452 48.8527,474.16496 C 47.786206,468.37011 46.440479,462.64296 45.062364,456.91692 C 43.671665,450.99983 42.179967,445.10749 40.868147,439.17217 C 39.630555,433.56786 38.628803,427.91768 37.767098,422.2447 C 36.952977,416.8904 36.421732,411.49905 35.91217,406.10897 C 35.17496,399.57624 34.831983,393.0115 34.479808,386.44981 C 34.173035,379.06473 33.080826,371.75251 32.024713,364.44761 C 30.845094,356.9513 30.205573,349.39314 29.740792,341.82407 C 29.245146,334.28044 29.397844,326.72105 29.830839,319.18034 C 30.274791,311.41062 31.083476,303.66869 31.801614,295.92122 C 32.537148,288.49492 32.744041,281.03288 33.249942,273.59084 C 33.73063,266.7955 35.037053,260.10614 36.432743,253.45107 C 37.732699,247.52185 38.729616,241.53877 39.444424,235.51259 C 40.063125,229.69753 40.243985,223.84987 40.484694,218.01072 C 40.668384,212.38533 40.838792,206.75927 41.058932,201.13516 C 41.188472,196.34674 41.477841,191.56562 41.922707,186.79663 C 42.373692,182.30887 43.032134,177.8453 43.969498,173.43368 C 45.024073,168.77532 46.833605,164.35133 48.730751,159.98564 C 50.54716,155.9658 52.392257,151.95513 54.379317,148.01641 C 56.25003,144.12885 58.3373,140.37729 60.95189,136.9426 C 63.809003,132.78194 66.253904,128.36658 68.653219,123.93277 C 71.872516,117.39159 74.713298,110.70057 78.124176,104.24967 C 81.778635,98.867198 80.072172,101.63345 83.243368,95.950794 C 83.353633,95.753204 83.61936,95.861736 83.539006,96.073262 L 83.539006,96.073262 C 81.255828,102.08356 82.205016,99.027912 80.68515,105.23826 C 78.294574,112.18846 75.763306,119.08877 72.704915,125.77876 C 70.442445,130.4044 67.680791,134.71322 65.017073,139.11342 C 63.265507,142.88797 61.167324,146.47909 59.312869,150.20297 C 57.392132,154.08209 55.441643,157.94759 53.691799,161.90853 C 51.915723,165.97475 50.207882,170.09526 49.283124,174.45352 C 48.373051,178.6794 47.710497,182.95098 47.286223,187.25405 C 46.834368,191.94132 46.585056,196.64176 46.333777,201.34337 C 46.06123,206.94997 45.784372,212.55622 45.603576,218.16678 C 45.444706,224.14074 45.256103,230.12457 44.609927,236.06915 C 43.864879,242.22698 42.835295,248.34151 41.465531,254.39331 C 40.126453,260.84833 38.776883,267.31913 38.299144,273.90897 C 37.760305,281.38135 37.383204,288.86569 36.667448,296.32471 C 35.962343,304.01562 35.246753,311.70672 34.790755,319.41761 C 34.430418,326.79886 34.244357,334.18614 34.670546,341.57112 C 35.06194,349.01831 35.718126,356.44567 36.889225,363.81542 C 37.963249,371.24284 38.878079,378.69538 39.273848,386.19427 C 39.695004,392.69011 40.192249,399.17996 40.9923,405.64224 C 41.57528,410.95401 42.036246,416.28096 42.811063,421.57006 C 43.624565,427.15295 44.339698,432.75329 45.373098,438.30085 C 46.620775,444.24422 48.130964,450.12781 49.370661,456.07301 C 50.505865,461.85698 51.522422,467.66352 52.842867,473.41072 C 53.868725,478.06904 54.805541,482.74329 55.562237,487.45367 C 56.192273,491.81321 56.678965,496.17455 58.497317,500.25318 C 59.517357,503.66359 60.158176,507.1697 61.289042,510.54423 C 61.524312,511.24627 60.48395,511.54346 60.281994,510.83111 z" />
    <use
       x="0"
       y="0"
       xlink:href="#path2493"
       id="use3282"
       style="filter:url(#filter3336)" />
    <path
       id="path2493"
       style="fill:url(#linearGradient3410);fill-opacity:1;fill-rule:nonzero;stroke:none;stroke-width:1px;stroke-linecap:butt;stroke-linejoin:miter;stroke-opacity:1;opacity:0.10775862000000000"
       d="M 209.9345,63.213876 C 210.45407,64.986586 211.14357,66.701703 211.7541,68.443516 C 212.17362,69.756461 212.72652,71.017531 213.2507,72.289624 C 213.62263,73.206483 214.10868,74.075073 214.46056,74.999245 C 214.8695,75.937226 215.13409,76.928681 215.49247,77.885573 C 216.02029,79.070335 216.62142,80.219093 217.18346,81.387715 C 218.14632,83.150037 219.19763,84.86109 220.12903,86.640642 C 221.17176,88.712208 222.2127,90.785559 223.22392,92.872943 C 224.20592,94.913781 225.12958,96.983946 225.9561,99.092604 C 226.70536,100.95277 227.36838,102.84923 227.97831,104.75951 C 228.56497,106.53154 229.01317,108.35027 229.4024,110.17518 C 229.84282,111.9789 230.25909,113.78875 230.65241,115.60353 C 231.14088,117.88211 231.92318,120.06987 232.75994,122.23903 C 233.80337,124.73279 234.79383,127.2475 235.75829,129.77263 C 236.73753,132.35892 237.65936,134.96663 238.49502,137.60289 C 239.32725,140.32325 240.07386,143.06984 240.83053,145.81223 C 241.64192,148.59971 242.33411,151.41958 242.87941,154.27091 C 243.36509,156.77339 243.68789,159.30303 243.9165,161.84085 C 244.11618,164.2801 244.12529,166.72875 244.17239,169.17408 C 244.22978,172.04024 244.55435,174.89097 244.83907,177.74083 C 245.12737,180.87917 245.40368,184.01804 245.72528,187.15324 C 246.06462,190.2097 246.38931,193.26714 246.69005,196.32767 C 247.02931,199.46078 247.5324,202.57136 248.00966,205.68538 C 248.585,209.28471 249.11928,212.89205 249.57327,216.50873 C 250.05083,220.28061 250.53021,224.05149 251.06577,227.81566 C 251.61852,231.56707 252.30942,235.29459 253.00663,239.02116 C 253.69117,242.59606 254.34197,246.17685 254.80349,249.78795 C 255.17913,252.84879 255.49956,255.91731 255.78895,258.98759 C 256.02047,261.41405 256.09204,263.85417 256.01092,266.28967 C 255.92606,268.36228 255.74933,270.43124 255.51121,272.4916 C 255.24108,274.78596 254.75259,277.04596 254.24855,279.29807 C 253.69503,281.98264 253.21555,284.68102 252.76327,287.38423 C 252.27771,290.40353 251.9475,293.44442 251.64061,296.48617 C 251.3007,299.77471 250.95799,303.06256 250.66303,306.35546 C 250.34068,310.40605 250.35018,314.47049 250.40271,318.53013 C 250.57564,322.96749 250.92526,327.39494 251.19867,331.82661 C 251.41378,335.32403 251.53016,338.82637 251.59004,342.32958 C 251.64997,344.59857 251.5604,346.86505 251.23052,349.11099 C 250.96254,351.01152 250.44915,352.86343 249.97488,354.71954 C 249.41291,356.80214 248.98504,358.91599 248.50975,361.0189 C 248.04353,363.23961 247.46849,365.43476 246.88981,367.62806 C 246.30973,369.69491 245.92145,371.80692 245.48732,373.90733 C 245.12742,375.70376 244.51403,377.42836 243.90042,379.14916 C 243.3353,380.61982 242.77344,382.09165 242.20465,383.56088 C 241.54534,385.17915 240.86436,386.78554 240.29989,388.44002 C 239.52001,390.88529 238.97617,393.39887 238.44571,395.90775 C 237.86803,398.76515 237.37749,401.63912 236.86006,404.5078 C 236.3681,407.36203 235.7489,410.19152 235.17628,413.02994 C 234.64636,415.50789 234.27689,418.01551 233.90729,420.52115 C 233.53733,422.99084 233.03942,425.43852 232.59194,427.89473 C 232.17412,430.40273 231.64389,432.88807 231.05751,435.36138 C 230.40105,437.97584 229.79233,440.60116 229.23854,443.23919 C 228.6187,446.10656 228.08777,448.99176 227.48489,451.86276 C 226.83973,454.78886 226.20877,457.71785 225.60897,460.6536 C 225.02054,463.62468 224.42917,466.59506 223.80736,469.55935 C 223.1671,472.47309 222.50742,475.38211 221.92396,478.30792 C 221.29964,481.24666 220.7569,484.202 220.12722,487.1397 C 219.49533,489.97547 218.75183,492.78485 218.03206,495.59924 C 217.41738,498.04466 216.79124,500.48715 216.16222,502.92892 C 215.6711,504.8442 215.16912,506.75656 214.62951,508.65876 C 214.06815,510.47905 213.5388,512.3088 213.04125,514.1475 C 212.33563,516.50404 211.91255,518.92567 211.51466,521.34864 C 210.85246,524.0335 210.14152,526.33844 210.19799,529.13438 C 210.29993,531.52549 210.6521,533.8947 210.89712,536.27318 C 211.13682,539.42701 211.5046,542.57021 211.64545,545.73027 C 211.48902,548.34364 211.51916,547.02961 211.55784,549.67241 C 211.56116,549.89866 211.26927,549.91825 211.23858,549.69407 L 211.23858,549.69407 C 210.88112,547.08352 211.13053,548.36945 210.49398,545.83556 C 209.99582,542.71214 209.71736,539.5642 209.36523,536.42203 C 209.09231,534.00962 208.80529,531.59693 208.73619,529.16723 C 208.65413,526.39521 208.07401,523.67735 208.23511,520.90136 C 208.58765,518.3799 209.04833,515.87515 209.51337,513.37232 C 209.93446,511.46675 210.42611,509.58024 210.99893,507.71423 C 211.55455,505.84727 212.08878,503.97451 212.54667,502.08064 C 213.19406,499.64696 213.83106,497.21059 214.46871,494.77435 C 215.1913,492.00423 215.89679,489.22928 216.53583,486.43852 C 217.18005,483.52255 217.71425,480.58659 218.21738,477.64358 C 218.80434,474.70687 219.46743,471.78705 220.11157,468.86253 C 220.73364,465.90569 221.3284,462.94329 221.91796,459.97981 C 222.51394,457.03548 223.13285,454.09597 223.77675,451.16172 C 224.38235,448.29573 224.94875,445.42199 225.47616,442.54053 C 226.02109,439.86827 226.61252,437.20625 227.2658,434.55822 C 227.83365,432.14433 228.33974,429.71715 228.75699,427.27226 C 229.19145,424.84888 229.66574,422.43216 230.03878,419.99818 C 230.43289,417.42753 230.82997,414.85662 231.37327,412.3122 C 231.98525,409.51582 232.57009,406.7134 233.05998,403.89263 C 233.58219,400.99312 234.08586,398.08998 234.65688,395.19953 C 235.19842,392.55982 235.73352,389.91564 236.47843,387.32388 C 237.02096,385.59555 237.67451,383.91191 238.37251,382.24065 C 238.93354,380.78524 239.52495,379.34144 240.05615,377.8747 C 240.65578,376.32549 241.23129,374.76239 241.59551,373.13787 C 242.09905,370.99312 242.45955,368.81479 243.05486,366.69139 C 243.6538,364.56554 244.17864,362.42071 244.6543,360.26398 C 245.10552,358.11922 245.55121,355.97237 246.04722,353.8376 C 246.47502,352.09452 246.91702,350.35289 247.23007,348.58453 C 247.53157,346.51816 247.74036,344.44182 247.72396,342.3497 C 247.74385,338.90294 247.68277,335.45605 247.50846,332.01325 C 247.28196,327.54378 246.94354,323.0802 246.78919,318.60741 C 246.64588,314.43022 246.64383,310.24472 246.95443,306.07399 C 247.21717,302.76072 247.63477,299.46364 247.96514,296.15674 C 248.27154,293.04383 248.61284,289.93379 249.12651,286.84698 C 249.57161,284.09227 250.03875,281.33922 250.62107,278.60978 C 251.05288,276.44052 251.5523,274.28317 251.85693,272.09087 C 252.11038,270.12177 252.32193,268.14756 252.4749,266.16789 C 252.57547,263.86461 252.56494,261.55928 252.38435,259.25928 C 252.13245,256.22599 251.82702,253.19739 251.52747,250.16851 C 251.06308,246.61416 250.51491,243.07215 249.82798,239.55322 C 249.12826,235.78508 248.42417,232.01588 247.88614,228.2207 C 247.35241,224.43984 246.90566,220.64771 246.48974,216.85217 C 246.05162,213.26717 245.63289,209.68001 245.00017,206.12197 C 244.46448,202.96442 243.94305,199.80121 243.63508,196.61175 C 243.30334,193.55377 243.03648,190.48941 242.68872,187.43313 C 242.36764,184.29737 242.09632,181.15717 241.80601,178.0185 C 241.50321,175.09761 241.14709,172.17792 241.0527,169.24049 C 240.98595,166.85613 240.96665,164.46867 240.78117,162.0894 C 240.57089,159.6469 240.30151,157.20918 239.86614,154.79512 C 239.32161,152.02228 238.69137,149.26835 237.89665,146.55514 C 237.11485,143.85546 236.3922,141.13898 235.57049,138.451 C 234.71444,135.87122 233.84028,133.29814 232.87557,130.75638 C 231.91189,128.24176 230.90497,125.74514 229.88185,123.25418 C 228.95757,120.97278 228.1426,118.64558 227.60967,116.23834 C 227.16135,114.43386 226.74708,112.6211 226.33385,110.80863 C 225.90595,109.07758 225.55489,107.32644 225.00398,105.62721 C 224.3875,103.779 223.76468,101.93333 223.0744,100.11104 C 222.25599,98.071012 221.41785,96.039228 220.47726,94.051479 C 219.47213,91.96843 218.42411,89.905622 217.46168,87.802514 C 216.6352,85.998923 215.81876,84.189609 214.85507,82.453312 C 214.16405,81.200502 213.50825,79.878068 213.32243,78.443404 C 213.13195,77.514851 212.90856,76.590816 212.58141,75.699719 C 212.16728,74.801742 211.79294,73.883978 211.41825,72.968809 C 210.87014,71.66464 210.38174,70.334962 209.94494,68.989344 C 209.37579,67.23621 208.82161,65.476471 208.11767,63.771001 C 207.60499,62.528912 209.55655,61.924386 209.9345,63.213876 zM 185.58999,71.751774 C 185.35329,73.745456 185.0834,75.735743 184.69334,77.70562 C 184.37559,79.395918 183.86682,81.037557 183.37713,82.682793 C 182.86599,84.538665 182.29848,86.375526 181.70071,88.204939 C 181.08275,90.041659 180.45704,91.875718 179.76722,93.68683 C 179.08709,95.547615 178.21572,97.329242 177.46109,99.159385 C 176.73095,100.91236 176.15832,102.72336 175.60284,104.53725 C 175.08066,106.28681 174.60007,108.04839 174.09968,109.80421 C 173.59825,111.63268 173.19477,113.48599 172.74171,115.32677 C 172.29962,117.15744 171.70132,118.94043 171.02916,120.69757 C 170.37654,122.28424 169.85411,123.91768 169.3222,125.54711 C 168.77475,127.2145 168.17479,128.86412 167.57291,130.51246 C 166.92934,132.30044 166.23698,134.06929 165.61153,135.86386 C 164.99967,137.5892 164.61312,139.38112 164.15569,141.15062 C 163.72985,142.94835 163.20522,144.72007 162.65037,146.48152 C 162.03324,148.3688 161.46106,150.26968 160.96562,152.19246 C 160.53124,154.08706 160.12307,155.98735 159.6921,157.8827 C 159.29668,159.57445 159.0685,161.29759 158.77697,163.0085 C 158.43864,164.65069 158.17676,166.30115 158.10081,167.97724 C 157.96532,169.67131 157.9036,171.36954 157.81434,173.06628 C 157.69464,174.89669 157.63073,176.7299 157.5395,178.56179 C 157.47342,180.60515 157.37137,182.64671 157.27121,184.68865 C 157.16838,186.91396 156.98509,189.13431 156.86272,191.35845 C 156.7088,193.5378 156.76749,195.72338 156.59055,197.90071 C 156.37955,200.05632 156.21926,202.21409 156.11185,204.37737 C 156.02111,206.62388 155.95557,208.87137 155.8669,211.11806 C 155.75497,213.2399 155.64394,215.36189 155.5108,217.4825 C 155.44358,219.36982 155.29523,221.2515 155.12547,223.13179 C 154.95389,224.95689 154.92169,226.79061 154.91309,228.62248 C 154.87445,230.61118 154.85435,232.60057 154.93131,234.58843 C 155.0401,236.77191 155.123,238.95662 155.22592,241.14035 C 155.32417,243.33164 155.37575,245.52463 155.45901,247.7165 C 155.54908,249.82011 155.59604,251.92508 155.66491,254.02941 C 155.71368,255.91975 155.81409,257.80792 156.01723,259.6881 C 156.19449,261.33415 156.30286,262.98658 156.46588,264.63384 C 156.59252,265.92267 156.76104,267.20629 156.92095,268.49115 C 157.04498,269.74173 157.0097,270.99728 157.00149,272.25135 C 156.96317,273.44392 156.90214,274.63549 156.84517,275.82734 C 156.79295,277.02667 156.6872,278.2224 156.62738,279.42129 C 156.58199,280.64909 156.56196,281.87772 156.52439,283.10582 C 156.48342,284.43933 156.4517,285.77293 156.44854,287.10706 C 156.38774,288.55304 156.39668,289.99888 156.4165,291.44549 C 156.46856,292.96768 156.31402,294.48355 156.24704,296.00166 C 156.17429,297.44468 156.19151,298.89199 156.30284,300.33227 C 156.44026,301.83809 156.52633,303.34791 156.6464,304.85516 C 156.79445,306.48694 157.0449,308.10763 157.27128,309.72994 C 157.45627,311.53795 157.69622,313.33809 158.06919,315.11724 C 158.56125,317.41842 159.02553,319.72371 159.42981,322.04206 C 159.93956,324.85297 160.37841,327.67632 160.90708,330.48362 C 161.36889,333.20302 161.82462,335.92458 162.45519,338.6108 C 163.10828,341.23535 163.81002,343.84709 164.45873,346.47296 C 165.06998,348.98318 165.52841,351.52212 165.89921,354.07754 C 166.18855,356.61748 166.36211,359.16826 166.56097,361.71622 C 166.70913,364.06222 166.80559,366.41081 166.88689,368.75998 C 166.92318,370.94419 166.96803,373.12797 166.89149,375.31161 C 166.7929,377.11848 166.59407,378.91783 166.51495,380.72586 C 166.445,382.22712 166.42268,383.7311 166.42321,385.23399 C 166.3973,386.58933 166.37207,387.94505 166.38003,389.3006 C 166.37036,390.64302 166.34332,391.98466 166.3585,393.3271 C 166.35217,394.87763 166.38343,396.42741 166.44855,397.97651 C 166.52851,399.62453 166.63519,401.27063 166.70858,402.91911 C 166.72816,404.91636 167.01232,406.8953 167.23361,408.8763 C 167.25223,410.8858 167.36431,412.88263 167.52932,414.88516 C 167.66029,416.47558 167.76246,418.06757 167.92843,419.65475 C 168.12885,421.09923 168.23386,422.55189 168.40178,424.00072 C 168.5877,425.38869 168.45547,426.78726 168.51602,428.17696 C 168.54344,429.57956 168.73411,430.95945 169.04266,432.32552 C 169.3473,433.57835 169.68187,434.84045 169.59791,436.13617 C 169.25285,437.40089 169.33119,438.63121 169.48392,439.91309 C 169.62243,441.2322 169.70761,442.55297 169.88644,443.86957 C 169.96027,444.50909 169.99078,445.14232 169.97372,445.78489 C 169.96133,446.25177 169.41661,446.29718 169.31563,445.84118 L 169.31563,445.84118 C 169.17881,445.22335 169.08785,444.6028 168.98459,443.97852 C 168.80773,442.64803 168.45269,441.36575 168.21424,440.04973 C 168.06211,438.78413 168.04495,437.50697 167.53461,436.31345 C 167.21368,435.17193 167.18012,433.97272 166.84917,432.82973 C 166.42796,431.36625 165.83366,429.95446 165.5723,428.44821 C 165.35631,427.07047 165.11432,425.70401 165.08518,424.30354 C 164.96176,422.86628 164.62911,421.46969 164.4574,420.03861 C 164.22818,418.40883 164.00832,416.77729 163.94145,415.13062 C 163.80581,413.17874 163.58956,411.24758 163.13702,409.33962 C 162.84918,407.28206 162.61882,405.21829 162.46007,403.14661 C 162.33553,401.47782 162.2091,399.80909 162.12109,398.13785 C 162.0558,396.53954 161.99646,394.94112 161.97071,393.34167 C 161.97547,391.98479 161.98182,390.62872 161.97963,389.27186 C 162.00718,387.90944 162.0197,386.54655 162.02455,385.18379 C 162.06444,383.62362 162.06923,382.06262 162.15628,380.50385 C 162.27898,378.71932 162.42348,376.93726 162.56971,375.15462 C 162.66649,373.05899 162.66142,370.96111 162.60485,368.86423 C 162.56073,366.56747 162.44289,364.2727 162.30937,361.97964 C 162.16284,359.51808 161.97923,357.05515 161.63331,354.61254 C 161.30787,352.17555 160.83764,349.76125 160.27238,347.36853 C 159.66376,344.71929 158.92406,342.10348 158.27917,339.46303 C 157.67095,336.70709 157.1704,333.93302 156.72518,331.14617 C 156.26247,328.33419 155.76054,325.52849 155.30429,322.71526 C 154.86954,320.41767 154.38977,318.12989 153.85311,315.85379 C 153.51583,313.98939 153.23119,312.11845 153.02284,310.23491 C 152.81193,308.54329 152.51925,306.86206 152.3649,305.16369 C 152.24211,303.63846 152.16371,302.10969 152.01482,300.58653 C 151.92683,299.00319 151.86848,297.41998 151.94126,295.83404 C 152.00256,294.3892 152.01512,292.9421 152.02268,291.49607 C 152.00511,290.01784 151.97703,288.53979 151.99823,287.06157 C 152.026,285.70494 152.01001,284.34766 152.0556,282.99121 C 152.08824,281.75241 152.11886,280.51343 152.13554,279.27432 C 152.16463,278.06209 152.21711,276.85158 152.27662,275.64071 C 152.32639,274.48265 152.38366,273.32449 152.3945,272.16526 C 152.4338,271.08772 152.40804,270.00664 152.31898,268.93212 C 152.205,267.6253 151.99857,266.32806 151.9055,265.01894 C 151.75915,263.37199 151.59129,261.72695 151.45633,260.07885 C 151.29207,258.10756 151.14888,256.13465 151.11366,254.15588 C 151.05274,252.06018 151.03158,249.96307 150.91439,247.86933 C 150.83396,245.68114 150.76184,243.49255 150.66893,241.3049 C 150.59639,239.11032 150.46465,236.91853 150.35969,234.72538 C 150.30191,232.6755 150.28254,230.62617 150.33274,228.57561 C 150.36743,226.63615 150.37163,224.69359 150.56589,222.76136 C 150.73301,220.91171 150.89702,219.06207 151.00471,217.20776 C 151.15667,215.11656 151.35928,213.02861 151.4398,210.93245 C 151.56065,208.68506 151.67539,206.43728 151.78537,204.1894 C 151.88902,201.9819 152.02824,199.77499 152.29258,197.58004 C 152.47459,195.43151 152.70336,193.2875 152.76918,191.1304 C 152.92116,188.91725 153.08841,186.70524 153.22528,184.49106 C 153.34628,182.45741 153.45,180.42305 153.53522,178.38757 C 153.62232,176.53094 153.73868,174.67556 153.85721,172.82076 C 154.00578,171.07742 154.17382,169.33475 154.38409,167.59781 C 154.69156,165.8597 154.98292,164.11858 155.40544,162.40352 C 155.80328,160.68343 156.12246,158.94765 156.49757,157.2227 C 156.94468,155.30603 157.37319,153.38533 157.82837,151.47076 C 158.33269,149.49832 158.89906,147.54453 159.52601,145.6074 C 160.05733,143.89588 160.55251,142.17411 160.9974,140.43789 C 161.45281,138.57848 161.91193,136.71862 162.52215,134.90232 C 163.15103,133.09685 163.83324,131.31042 164.49184,129.51561 C 165.07547,127.89268 165.65731,126.26874 166.20304,124.63261 C 166.75506,122.95688 167.31558,121.28243 167.97787,119.64632 C 168.62095,117.9988 169.21577,116.33178 169.64325,114.61328 C 170.14047,112.75949 170.52415,110.87808 171.04306,109.02973 C 171.54262,107.25131 172.06017,105.4777 172.58121,103.70548 C 173.16878,101.80408 173.81165,99.917938 174.55356,98.070752 C 175.32125,96.278236 176.15632,94.515565 176.89558,92.710708 C 177.5733,90.933029 178.21544,89.143211 178.80933,87.335516 C 179.4273,85.552285 179.97384,83.744544 180.48432,81.927731 C 180.94136,80.326864 181.42014,78.734487 181.90176,77.140501 C 182.38761,75.231932 182.87644,73.324245 183.33235,71.408396 C 183.70617,69.837515 185.78036,70.148287 185.58999,71.751774 zM 192.87564,122.50276 C 193.00509,124.41748 193.34404,126.30744 193.5498,128.21473 C 193.74675,129.85011 193.74261,131.4975 193.80239,133.14074 C 193.9291,134.85233 193.93947,136.56857 193.9426,138.28392 C 193.94197,140.00978 193.92009,141.7412 194.11554,143.45809 C 194.21235,144.81821 194.07895,146.17806 194.02394,147.53626 C 193.94974,148.80372 193.83585,150.0681 193.73499,151.33372 C 193.69901,152.55563 193.50347,153.76178 193.37208,154.97447 C 193.28342,155.82661 193.19412,156.68123 193.15572,157.53758 C 193.10281,158.48229 193.02591,159.42531 192.95211,160.36854 C 192.84482,161.67022 192.74539,162.97236 192.66823,164.27617 C 192.53852,165.7459 192.42148,167.21766 192.44755,168.69382 C 192.47387,169.91642 192.47832,171.14167 192.54868,172.36285 C 192.61587,173.30217 192.60454,174.24808 192.6974,175.18475 C 192.78407,176.19142 192.89922,177.1981 193.02986,178.20107 C 193.14692,179.56061 193.34227,180.91158 193.58384,182.25414 C 193.82988,183.72086 194.18125,185.16711 194.54923,186.60727 C 194.83913,187.93116 195.2354,189.22816 195.63637,190.52167 C 196.0292,191.72537 196.22817,192.97554 196.43696,194.22033 C 196.65535,195.34748 196.89014,196.47098 197.08831,197.60197 C 197.30197,198.77672 197.49808,199.95396 197.66456,201.13631 C 197.84498,202.37179 198.0312,203.6064 198.22004,204.84061 C 198.42797,206.28451 198.61573,207.73064 198.76175,209.18202 C 198.94416,210.60499 199.02589,212.03236 199.05066,213.46549 C 199.03878,215.02706 199.01913,216.58851 199.00864,218.15013 C 198.99075,219.87918 198.93175,221.60721 198.949,223.33643 C 198.96129,224.88973 199.02233,226.4423 199.06334,227.99518 C 199.11266,229.26485 199.04808,230.53456 199.05126,231.80381 C 199.07834,233.1422 198.89299,234.46279 198.66801,235.77762 C 198.45814,237.22727 198.52802,238.69007 198.58639,240.14684 C 198.64103,241.53127 198.61817,242.91712 198.58241,244.30169 C 198.57782,245.7326 198.47736,247.15919 198.36854,248.58504 C 198.24182,250.07195 198.18909,251.56624 198.23184,253.0579 C 198.2956,254.62327 198.27217,256.18993 198.2834,257.75598 C 198.2968,259.31756 198.28138,260.87959 198.31984,262.44078 C 198.37599,264.04463 198.5321,265.64399 198.66488,267.24312 C 198.8087,268.80962 198.901,270.38014 199.00466,271.94963 C 199.07457,273.38538 199.15199,274.82047 199.23526,276.25544 C 199.26889,277.62499 199.26107,278.99489 199.33509,280.36312 C 199.4748,281.8554 199.54771,283.34945 199.55031,284.84795 C 199.53366,286.37028 199.547,287.89284 199.54185,289.41531 C 199.53481,290.77617 199.49466,292.13626 199.46512,293.49674 C 199.4334,294.66481 199.44361,295.83262 199.37835,296.99962 C 199.33086,298.05176 199.30501,299.1038 199.30682,300.15708 C 199.32505,301.09674 199.29976,302.03405 199.25632,302.97242 C 199.21291,303.89564 199.20568,304.81876 199.21254,305.7427 C 199.20768,306.79343 199.20593,307.8443 199.15341,308.89392 C 199.05174,309.89714 198.96651,310.9026 198.85597,311.90493 C 198.79597,313.05944 198.53812,314.18954 198.41642,315.33386 C 198.29158,316.67702 198.2361,318.02471 198.19032,319.3724 C 198.12881,320.81093 198.02269,322.24737 197.94524,323.6854 C 197.85126,324.92264 197.78331,326.1614 197.74787,327.40167 C 197.72645,328.39142 197.73265,329.38087 197.74177,330.37077 C 197.72591,331.21296 197.90076,332.03055 198.08507,332.84625 C 198.27653,333.81525 198.38934,334.79775 198.53498,335.77444 C 198.66653,336.89076 198.81353,338.00413 199.00279,339.11221 C 199.2525,340.38107 199.49495,341.65124 199.61286,342.93989 C 199.71201,344.22848 199.74979,345.52086 199.81472,346.81148 C 199.86244,348.13953 199.89893,349.46524 200.03112,350.78787 C 200.22356,352.29483 200.4162,353.80115 200.57136,355.3125 C 200.71193,356.70017 200.69896,358.09676 200.79826,359.48677 C 200.76557,360.79659 200.96564,362.08001 201.18993,363.36583 C 201.38342,364.55364 201.51784,365.75015 201.66955,366.94382 C 201.60075,367.60608 201.39254,368.21202 201.30857,368.87266 C 201.24751,369.35306 200.80991,369.40159 200.62839,368.95262 L 200.62839,368.95262 C 200.37728,368.33154 200.02183,367.79163 199.78638,367.16458 C 199.62986,365.99367 199.49523,364.81978 199.32057,363.65141 C 199.09717,362.30352 198.81633,360.96966 198.55118,359.6316 C 198.45275,358.2614 198.38319,356.89021 198.28329,355.52015 C 198.13363,354.00982 197.92551,352.50817 197.71004,351.006 C 197.56239,349.64665 197.51976,348.28229 197.47368,346.91632 C 197.41197,345.66312 197.37797,344.40808 197.27931,343.15704 C 197.13499,341.92089 196.9501,340.69262 196.68574,339.47546 C 196.48404,338.34284 196.31438,337.20592 196.17349,336.06409 C 196.05951,335.14451 195.96023,334.22115 195.76972,333.31332 C 195.55392,332.34921 195.3695,331.37734 195.38165,330.38418 C 195.37804,329.36654 195.40441,328.34849 195.43763,327.33162 C 195.48644,326.06799 195.56367,324.80589 195.66949,323.54568 C 195.78637,322.13358 195.85498,320.72218 195.85474,319.30477 C 195.89692,317.91746 195.95088,316.53034 196.06036,315.14641 C 196.14243,313.99516 196.15078,312.83987 196.32272,311.69379 C 196.39697,310.70475 196.51212,309.71919 196.58592,308.73 C 196.67941,307.74619 196.70106,306.75764 196.6616,305.76996 C 196.64577,304.80256 196.61434,303.83384 196.69119,302.86792 C 196.73115,301.96371 196.74998,301.05828 196.75846,300.15327 C 196.7638,299.06796 196.78226,297.98187 196.84272,296.89821 C 196.88034,295.74447 196.93972,294.59143 196.93149,293.43658 C 196.97304,292.09192 197.05376,290.74824 197.04116,289.40244 C 197.05342,287.88638 197.03347,286.37061 197.01896,284.85458 C 197.01292,283.39844 196.94423,281.94621 196.80086,280.49662 C 196.71434,279.11719 196.69245,277.73916 196.6759,276.35773 C 196.63261,274.92787 196.51341,273.50136 196.46369,272.07152 C 196.40131,270.52138 196.27687,268.97509 196.17471,267.42727 C 196.04112,265.78539 195.86062,264.14696 195.80268,262.49967 C 195.75969,260.92453 195.76556,259.3499 195.76759,257.77422 C 195.75358,256.20745 195.71364,254.64151 195.69383,253.0749 C 195.7131,251.5208 195.75393,249.96741 195.85073,248.41587 C 195.95212,247.02748 196.0539,245.63861 196.05367,244.24549 C 196.08517,242.90667 196.10859,241.56771 196.06094,240.22885 C 196.01349,238.74982 195.96161,237.26859 195.73732,235.80323 C 195.49059,234.48461 195.31085,233.15963 195.32677,231.81413 C 195.32224,230.56333 195.28546,229.31262 195.30009,228.06144 C 195.28026,226.48592 195.22921,224.91117 195.21944,223.33547 C 195.23711,221.60176 195.26652,219.86897 195.24751,218.13506 C 195.25085,216.61328 195.26582,215.09036 195.2096,213.56945 C 195.15134,212.24624 195.05036,210.92338 194.88277,209.6093 C 194.67985,208.20789 194.50666,206.80279 194.29337,205.40287 C 194.08558,204.14954 193.84689,202.90116 193.67797,201.64155 C 193.51705,200.50182 193.3386,199.36494 193.12904,198.233 C 192.92322,197.08875 192.66724,195.95471 192.46013,194.81073 C 192.28284,193.72129 192.11687,192.62684 191.7805,191.57188 C 191.37581,190.21801 190.99636,188.85793 190.64453,187.48937 C 190.26384,185.95826 189.89681,184.42423 189.62127,182.8699 C 189.38524,181.45102 189.14171,180.03373 188.98859,178.60279 C 188.893,177.53295 188.70211,176.47492 188.60277,175.40514 C 188.57796,174.43463 188.52692,173.46554 188.51286,172.49406 C 188.49298,171.22717 188.45208,169.96068 188.45617,168.69338 C 188.48134,167.14008 188.53174,165.59027 188.65671,164.04089 C 188.75018,162.73133 188.79083,161.4188 188.8847,160.10913 C 188.94439,159.17125 189.00453,158.23347 189.05603,157.2951 C 189.13489,156.36025 189.2061,155.42593 189.34052,154.49696 C 189.51706,153.3527 189.67174,152.20391 189.74846,151.04816 C 189.84811,149.79561 189.98087,148.54548 190.05611,147.29142 C 190.18237,145.98585 190.24649,144.67489 190.41278,143.37298 C 190.7057,141.67924 190.66601,139.95473 190.74381,138.24167 C 190.79707,136.5496 190.82186,134.85627 190.93321,133.16661 C 190.9603,131.55281 190.91208,129.9387 190.96695,128.32496 C 190.99168,126.4218 191.14511,124.51793 191.02705,122.61631 C 190.94589,121.30922 192.7873,121.19613 192.87564,122.50276 zM 216.8142,196.77242 C 216.78498,199.04882 217.03688,201.31564 217.21381,203.58197 C 217.34075,205.61207 217.48638,207.64026 217.67956,209.66516 C 217.86158,211.58886 218.00802,213.51558 218.13889,215.44336 C 218.25575,217.5395 218.36573,219.63608 218.53874,221.72848 C 218.69722,223.80881 218.94512,225.88032 219.09862,227.96107 C 219.24275,230.04718 219.33,232.13572 219.37784,234.22609 C 219.40112,236.41232 219.30765,238.59669 219.26148,240.78199 C 219.2075,243.06256 219.13255,245.34232 219.03055,247.62123 C 218.89817,249.8781 218.78998,252.13628 218.6883,254.39474 C 218.58845,256.62246 218.43379,258.84686 218.30026,261.07263 C 218.14988,263.4348 218.04949,265.79811 218.02363,268.16489 C 218.00048,270.43984 218.08497,272.7135 218.19218,274.98543 C 218.32234,277.26352 218.45269,279.54225 218.67038,281.81392 C 218.90098,283.94929 219.18327,286.07717 219.35773,288.21823 C 219.49593,290.12056 219.7184,292.01547 219.98363,293.9039 C 220.22158,295.70689 220.38378,297.51843 220.70025,299.31007 C 220.97036,301.19 221.1088,303.08452 221.28645,304.97432 C 221.45792,307.12522 221.62908,309.27666 221.8199,311.426 C 221.98593,313.61961 222.04749,315.81824 222.14637,318.01517 C 222.2372,320.22635 222.43674,322.43074 222.55996,324.64013 C 222.67268,326.78845 222.65805,328.93996 222.66156,331.09036 C 222.62532,333.40402 222.70754,335.7135 222.85736,338.02182 C 223.04727,340.47423 223.10963,342.93109 223.11053,345.38989 C 223.10063,347.74105 223.05699,350.09188 223.01287,352.44259 C 222.97734,354.51316 222.86988,356.58126 222.79975,358.65065 C 222.70072,360.50119 222.56365,362.34311 222.55799,364.1966 C 222.47446,365.95649 222.13552,367.68643 221.85918,369.42212 C 221.61246,371.42692 221.17206,373.39844 220.81163,375.3839 C 220.45118,377.58489 220.11654,379.79168 219.83851,382.00473 C 219.6161,384.06793 219.28757,386.11707 218.94603,388.16321 C 218.61846,389.9314 218.2993,391.70169 218.02576,393.47905 C 217.74588,395.1542 217.49533,396.83421 217.24588,398.51414 C 217.0145,400.22079 216.8463,401.9355 216.68028,403.6495 C 216.49899,405.19894 216.36837,406.75387 216.26309,408.31019 C 216.18995,409.78087 216.07167,411.24834 215.96183,412.71651 C 215.87483,414.26934 215.79469,415.82355 215.75923,417.37855 C 215.69992,419.04533 215.68446,420.71318 215.63847,422.38052 C 215.55417,423.78302 215.50018,425.18661 215.43224,426.58987 C 215.37235,427.70907 215.34482,428.82957 215.30438,429.94954 C 215.23897,431.04114 215.11686,432.1277 215.02134,433.21675 C 214.94215,433.74109 215.02011,434.24872 215.09503,434.76384 C 215.23486,435.14853 215.12811,435.44817 215.00525,435.80634 C 215.13878,436.35764 215.18455,436.91492 215.2,437.48062 C 215.38557,438.89902 215.20738,439.30407 214.30951,440.45518 C 214.10726,440.71449 214.09471,440.7104 213.84615,440.49507 L 213.84615,440.49507 C 212.89811,439.67374 212.45851,439.10832 212.33812,437.85871 C 212.16546,437.30359 211.95994,436.75685 211.83848,436.18726 C 211.73354,435.84848 211.54973,435.61729 211.54597,435.26129 C 211.42117,434.50156 211.42196,433.72887 211.50043,432.96355 C 211.57608,431.92232 211.68678,430.88255 211.71537,429.83872 C 211.7525,428.6935 211.73997,427.54668 211.82995,426.40356 C 211.92049,425.05077 211.96245,423.69801 211.8735,422.34312 C 211.86433,420.66487 211.90859,418.98853 211.92582,417.31052 C 211.95275,415.69308 211.9185,414.07379 212.04261,412.45908 C 212.14692,410.99536 212.27421,409.53328 212.35746,408.06805 C 212.46996,406.46399 212.59083,404.86109 212.78242,403.26411 C 212.99812,401.5138 213.15494,399.75626 213.39767,398.00909 C 213.64392,396.29393 213.8815,394.57712 214.19201,392.87206 C 214.54502,391.09792 214.82979,389.31033 215.1883,387.53693 C 215.60218,385.51947 215.90118,383.48078 216.34062,381.46848 C 216.81817,379.25829 217.22456,377.03508 217.6392,374.81246 C 218.07015,372.84592 218.54634,370.89105 219.05594,368.9436 C 219.42575,367.28286 219.65417,365.59581 219.97505,363.92525 C 220.39243,362.16608 220.58839,360.38828 220.61219,358.57804 C 220.69427,356.51933 220.76798,354.46022 220.83951,352.40112 C 220.89474,350.06413 220.94916,347.7269 220.95366,345.38913 C 220.95645,342.97052 220.9217,340.55019 220.74687,338.13695 C 220.61468,335.79206 220.4613,333.44678 220.46719,331.09675 C 220.45693,328.98042 220.46568,326.86312 220.38478,324.74805 C 220.26374,322.52703 220.04944,320.31222 219.96522,318.08915 C 219.89907,315.91417 219.82507,313.73871 219.65233,311.56912 C 219.52813,309.42109 219.31884,307.27829 219.13102,305.13506 C 218.99573,303.24709 218.75487,301.36684 218.69276,299.47379 C 218.68438,297.66696 218.45301,295.88155 218.22257,294.09146 C 218.03673,292.17412 217.8999,290.25372 217.76966,288.33182 C 217.60404,286.19442 217.35463,284.06649 217.12921,281.9349 C 216.94848,279.64153 216.76991,277.34807 216.65688,275.05004 C 216.55033,272.75131 216.48826,270.45035 216.52533,268.14895 C 216.55567,265.76154 216.55921,263.3721 216.69419,260.98776 C 216.82201,258.7639 216.94529,256.53996 217.07066,254.31597 C 217.213,252.06411 217.37264,249.8129 217.46626,247.55838 C 217.56736,245.2889 217.65637,243.01884 217.69882,240.74737 C 217.75967,238.58221 217.78103,236.4157 217.76359,234.24989 C 217.74347,232.18618 217.64805,230.12486 217.48804,228.06719 C 217.33694,225.98842 217.1324,223.91473 216.94994,221.83863 C 216.80003,219.74147 216.65627,217.64439 216.53985,215.54495 C 216.39901,213.62537 216.24455,211.70671 216.09218,209.78807 C 215.93523,207.74511 215.7753,205.70187 215.72097,203.65292 C 215.65829,201.37934 215.6568,199.09892 215.41691,196.83485 C 215.3127,195.85133 216.8269,195.78348 216.8142,196.77242 zM 180.77045,225.11767 C 180.85115,227.268 180.89383,229.41893 180.91659,231.57058 C 180.87389,233.42758 181.05813,235.27766 181.08541,237.13212 C 181.09888,238.90328 181.13159,240.675 181.08539,242.44584 C 181.01997,244.19048 180.83422,245.92771 180.65498,247.6635 C 180.50422,249.44126 180.40719,251.22327 180.25133,253.00034 C 180.14564,254.72775 180.05913,256.45703 179.94291,258.18392 C 179.7597,259.98537 179.68327,261.79331 179.62491,263.60216 C 179.59201,265.49764 179.59569,267.39313 179.50929,269.2872 C 179.44974,271.14503 179.4159,273.00394 179.3498,274.86154 C 179.28627,276.4341 179.31702,278.00859 179.24375,279.58063 C 179.20028,280.86909 178.99969,282.14568 178.79409,283.41639 C 178.63158,284.7064 178.51968,286.00123 178.4081,287.29634 C 178.28615,289.07291 178.25127,290.85338 178.17943,292.63235 C 178.08796,294.57405 177.96252,296.51406 177.8618,298.45556 C 177.78565,300.56702 177.77673,302.67968 177.7392,304.79195 C 177.71337,306.97939 177.75767,309.16644 177.75769,311.35391 C 177.76209,313.54428 177.81867,315.73336 177.88109,317.92263 C 177.93994,320.09769 178.04482,322.26904 178.2325,324.43685 C 178.40718,326.19951 178.6667,327.95184 178.9196,329.70444 C 179.13612,331.00651 179.44576,332.29048 179.71215,333.58274 C 179.92825,334.74982 180.23792,335.89523 180.51736,337.0475 C 180.75565,338.08016 180.96871,339.11913 181.14553,340.16399 C 181.34808,341.16296 181.57052,342.15718 181.75629,343.1596 C 181.93858,344.2468 182.02064,345.3481 182.15094,346.44246 C 182.32337,347.78236 182.55535,349.11375 182.77488,350.44653 C 183.00073,351.97158 183.28952,353.48606 183.54141,355.00659 C 183.81569,356.63002 183.98365,358.26804 184.25073,359.89295 C 184.48832,361.2444 184.75091,362.59123 184.99014,363.94247 C 185.20289,365.04906 185.36449,366.16383 185.46159,367.28637 C 185.56189,368.60581 185.78102,369.9102 185.93487,371.22282 C 186.16079,372.78116 186.26755,374.35584 186.37998,375.92617 C 186.52301,377.6232 186.7772,379.30736 186.97234,380.99853 C 187.17607,382.70637 187.42196,384.40864 187.63103,386.1158 C 187.8241,387.63543 188.01922,389.1551 188.19678,390.67677 C 188.39139,392.22599 188.59951,393.77331 188.80939,395.32074 C 189.01823,396.65061 189.20759,397.98509 189.33824,399.32493 C 189.425,400.26092 189.59444,401.19014 189.60144,402.13168 C 189.59378,402.59162 189.66808,403.04726 189.68534,403.50507 C 189.68783,403.94692 189.70575,404.38456 189.73765,404.82537 C 189.79678,405.45095 189.79548,406.08395 189.76974,406.7116 C 189.75524,407.41224 189.69652,408.11195 189.6339,408.80984 C 189.5677,409.75018 189.63691,410.69103 189.62687,411.63178 C 189.65738,412.76595 189.67774,413.90346 189.64637,415.03798 C 189.77086,416.13781 189.49254,417.2002 189.34577,418.27562 C 189.25295,419.24045 189.38768,420.20355 189.43894,421.16562 C 189.52744,422.17437 189.48592,423.1878 189.47269,424.19862 C 189.45482,425.45571 189.50513,426.71112 189.57537,427.96581 C 189.67875,429.33318 189.73247,430.70362 189.79488,432.07337 C 189.89035,433.34401 189.95215,434.61873 189.86624,435.89106 C 189.70426,437.04607 189.83653,438.20869 189.9506,439.36136 C 190.04739,440.29222 190.13176,441.22448 190.11967,442.161 C 190.00433,443.19131 190.1337,444.22583 190.22651,445.2541 C 190.275,445.93957 190.2545,446.6261 190.26926,447.31284 C 190.27968,447.79736 189.73014,447.8738 189.59077,447.40965 L 189.59077,447.40965 C 189.38728,446.73198 189.13758,446.06352 189.03481,445.36055 C 188.9226,444.32308 188.89589,443.27085 188.5697,442.272 C 188.4167,441.35338 188.43702,440.41875 188.32387,439.49464 C 188.22459,438.30458 188.19777,437.10813 188.01633,435.92661 C 187.87747,434.6887 187.82429,433.4408 187.68619,432.20199 C 187.5642,430.83067 187.53275,429.45207 187.45271,428.07784 C 187.3733,426.78231 187.28049,425.48623 187.27727,424.18768 C 187.27549,423.22438 187.2923,422.26077 187.24375,421.29821 C 187.161,420.28857 187.10636,419.27769 187.05076,418.26627 C 186.9157,417.20439 186.65632,416.15514 186.75017,415.07144 C 186.69028,413.94616 186.69784,412.81727 186.68236,411.69085 C 186.62615,410.67955 186.61521,409.66239 186.63092,408.65036 C 186.65092,407.98778 186.72424,407.32904 186.74396,406.66658 C 186.73792,406.12234 186.75867,405.57849 186.70578,405.03598 C 186.66897,404.58877 186.63521,404.14056 186.64274,403.69232 C 186.59233,403.20439 186.59553,402.71173 186.60344,402.22163 C 186.54737,401.34662 186.52455,400.46959 186.39954,399.59954 C 186.25557,398.29573 186.1396,396.98874 185.94911,395.68978 C 185.71335,394.13265 185.50457,392.57102 185.33343,391.00554 C 185.12269,389.48736 184.93941,387.9656 184.77434,386.44192 C 184.55008,384.73572 184.35275,383.02571 184.13832,381.31824 C 183.90469,379.59612 183.66841,377.87256 183.51578,376.14117 C 183.37143,374.62337 183.27726,373.10102 183.05959,371.59099 C 182.83489,370.25634 182.66763,368.91361 182.54007,367.56633 C 182.40458,366.50275 182.28644,365.43716 182.08869,364.38231 C 181.87063,363.02273 181.6391,361.66552 181.40911,360.30793 C 181.14987,358.69563 180.93477,357.07653 180.65809,355.46698 C 180.3688,353.94461 180.11876,352.4151 179.86298,350.8868 C 179.6281,349.52011 179.39088,348.15341 179.19896,346.77988 C 179.05636,345.72253 178.92642,344.66325 178.80996,343.60274 C 178.66414,342.60861 178.42423,341.63209 178.24963,340.64314 C 178.04653,339.62277 177.88691,338.59368 177.66519,337.57639 C 177.46522,336.40743 177.29335,335.23352 177.02486,334.07697 C 176.75106,332.73244 176.50104,331.38183 176.36822,330.01483 C 176.14108,328.21941 175.93773,326.42032 175.762,324.61918 C 175.59056,322.41199 175.51666,320.19926 175.4519,317.98673 C 175.38532,315.7766 175.33822,313.56547 175.33518,311.35433 C 175.33437,309.16048 175.41517,306.96821 175.43358,304.77454 C 175.43158,302.63889 175.45827,300.5024 175.5289,298.36796 C 175.59064,296.42584 175.7242,294.48723 175.84704,292.54827 C 175.91847,290.74989 175.93658,288.94937 176.04039,287.15239 C 176.10792,285.7966 176.21922,284.44166 176.41632,283.09799 C 176.58037,281.89659 176.811,280.70325 176.87549,279.48976 C 176.93576,277.92556 176.99372,276.36161 177.02778,274.79657 C 177.0772,272.94052 177.17674,271.08542 177.24086,269.2298 C 177.26077,267.33225 177.31896,265.4353 177.37325,263.53843 C 177.42981,261.69283 177.50515,259.84732 177.66445,258.00732 C 177.84416,256.29506 178.05909,254.58745 178.13974,252.86606 C 178.23646,251.07134 178.41912,249.28146 178.56148,247.4898 C 178.69967,245.7906 178.91107,244.09683 178.9791,242.39248 C 179.03214,240.64221 179.03071,238.89176 179.02843,237.14082 C 179.03829,235.28614 179.21605,233.43539 179.17258,231.57888 C 179.17266,229.43987 179.14687,227.30073 179.09837,225.1623 C 179.07155,223.97984 180.7261,223.93574 180.77045,225.11767 zM 172.46402,478.13203 C 172.67918,479.93604 172.87204,481.74094 173.01916,483.55194 C 173.0863,484.99125 173.16225,486.42803 173.31834,487.86072 C 173.47558,489.12115 173.61342,490.38289 173.72154,491.64853 C 173.76046,492.84808 173.86969,494.04298 173.94208,495.24057 C 173.97903,496.55268 174.13121,497.8508 174.369,499.14037 C 174.60221,500.40816 174.92847,501.65498 175.19239,502.91634 C 175.46261,504.24735 175.67727,505.58765 175.94469,506.9194 C 176.24212,508.54196 176.47414,510.17407 176.80428,511.79063 C 177.16531,513.70732 177.56025,515.61578 177.98219,517.52011 C 178.44017,519.68433 178.87077,521.85381 179.32157,524.01965 C 179.7435,526.28516 180.17636,528.5498 180.71269,530.79135 C 181.17664,532.7954 181.62361,534.80393 182.1044,536.80386 C 182.47429,538.22776 182.668,539.68745 182.97705,541.12352 C 183.24488,542.38617 183.43588,543.66215 183.64934,544.93493 C 183.90408,546.799 184.24143,548.65082 184.60961,550.49555 C 185.1455,553.10842 185.64695,555.72784 186.1502,558.34711 C 186.6371,561.05611 187.09468,563.77012 187.59179,566.4773 C 188.03073,568.77329 188.26679,571.09115 188.385,573.42297 C 188.43915,575.51948 188.31657,577.61498 188.24263,579.7096 C 188.11673,582.40243 188.02566,585.09659 188.02995,587.79254 C 188.10431,591.15195 188.27786,594.50859 188.4163,597.86595 C 188.48357,601.11993 188.63614,604.36967 188.95095,607.60921 C 189.3165,610.80834 189.94765,613.97026 190.60781,617.11951 C 191.42158,620.67611 191.8967,624.28935 192.41353,627.89631 C 192.74447,632.18308 193.22524,636.43428 194.00773,640.66238 C 194.1023,641.39249 194.19686,642.12259 194.29143,642.8527 C 194.3205,643.0771 194.03096,643.12586 193.97597,642.90637 L 193.97597,642.90637 C 193.79636,642.1895 193.61675,641.47263 193.43714,640.75576 C 192.67882,636.52843 191.82562,632.32725 190.60697,628.20363 C 189.76972,624.66468 188.83759,621.14874 188.17097,617.57064 C 187.51471,614.33597 186.74517,611.11774 186.39439,607.82976 C 186.08319,604.5432 185.99265,601.24759 185.90069,597.94865 C 185.79322,594.56884 185.59317,591.19274 185.51029,587.81206 C 185.46807,585.0804 185.47123,582.34899 185.55414,579.61807 C 185.63592,577.59168 185.76027,575.5646 185.72227,573.53574 C 185.62609,571.30879 185.34263,569.09467 184.93497,566.9034 C 184.46589,564.19877 183.90586,561.5101 183.43256,558.806 C 182.95216,556.19361 182.40085,553.59516 181.8453,550.99786 C 181.45881,549.11471 181.04036,547.23821 180.74526,545.33738 C 180.56902,544.08222 180.34749,542.83217 180.09176,541.59117 C 179.87996,540.15823 179.65119,538.72774 179.39574,537.30192 C 179.05323,535.2835 178.63888,533.2781 178.17068,531.28502 C 177.72763,529.00335 177.26494,526.72567 176.87129,524.43463 C 176.50627,522.2731 176.07016,520.12466 175.62611,517.9782 C 175.21167,516.02125 174.75992,514.06078 174.66069,512.05545 C 174.54434,510.42982 174.3378,508.81518 174.05274,507.21011 C 173.86549,505.88612 173.65178,504.5653 173.38199,503.25541 C 173.11323,501.96388 172.84337,500.67212 172.64966,499.36663 C 172.50063,498.02483 172.40104,496.67805 172.32778,495.33009 C 172.25279,494.13687 172.16587,492.94461 172.11259,491.75023 C 172.04434,490.4971 171.89638,489.25143 171.74046,488.0066 C 171.5997,486.55386 171.53441,485.09891 171.49933,483.63974 C 171.41615,481.85988 171.24715,480.08108 170.97263,478.32049 C 170.80886,477.27022 172.33814,477.07655 172.46402,478.13203 zM 149.48817,89.5355 C 148.04039,91.346528 146.95647,93.380279 145.91205,95.436599 C 144.85378,97.702076 143.72659,99.93143 142.50145,102.11104 C 141.09868,104.50708 140.00562,107.0545 138.99102,109.63298 C 137.91491,112.45517 136.89854,115.29881 135.92167,118.15668 C 134.88174,121.10436 134.15768,124.13897 133.5468,127.1995 C 132.966,130.47509 132.49363,133.76837 131.99427,137.05696 C 131.48701,140.50201 131.17648,143.96981 130.88167,147.438 C 130.57967,150.96127 130.4182,154.49318 130.2253,158.02319 C 130.11416,161.32117 130.02417,164.61993 129.85231,167.9155 C 129.62381,171.06495 129.48675,174.21845 129.37283,177.37366 C 129.26068,180.77432 129.25314,184.17688 129.16148,187.57806 C 129.01695,191.24167 128.95505,194.90704 128.92787,198.57309 C 128.90135,202.44292 128.99455,206.31129 129.06767,210.17996 C 129.166,214.04039 129.37362,217.89638 129.5398,221.75413 C 129.67624,225.2257 130.00644,228.68321 130.32321,232.14131 C 130.69671,235.285 130.92692,238.44289 131.13404,241.60114 C 131.30297,244.1666 131.55693,246.72647 131.70703,249.2928 C 131.87867,251.64858 132.17283,253.99254 132.37256,256.34555 C 132.6332,258.5969 132.78396,260.86231 132.83134,263.12828 C 132.8868,265.63842 132.93841,268.14565 133.11359,270.65088 C 133.35175,273.49486 133.70016,276.32758 133.93051,279.17231 C 134.1595,281.78501 134.21867,284.40828 134.23093,287.02978 C 134.24959,289.38778 134.27943,291.74715 134.21706,294.10472 C 134.18223,295.98971 134.15224,297.87463 134.10258,299.75943 C 134.05002,301.54331 133.9637,303.32623 133.89899,305.10987 C 133.83509,307.00691 133.78756,308.90367 133.80784,310.80183 C 133.8732,312.91826 134.04746,315.02776 134.10047,317.14491 C 134.14891,319.33449 134.2366,321.5224 134.39362,323.70685 C 134.56355,325.9341 134.86848,328.14814 135.03029,330.37567 C 135.19394,332.86015 135.30063,335.34384 135.54718,337.82248 C 135.87873,340.54061 136.32891,343.24132 136.76372,345.94413 C 137.27433,348.87373 138.02799,351.75176 138.65445,354.65689 C 139.29631,357.64856 140.09548,360.60167 140.83903,363.56856 C 141.51676,366.25692 142.1831,368.95001 142.74552,371.66529 C 143.35531,374.48303 143.6297,377.35077 143.80833,380.22273 C 143.95811,382.07781 144.01843,383.91371 144.23114,385.76406 C 144.26113,386.02497 143.91277,386.07267 143.8632,385.81476 L 143.8632,385.81476 C 143.51043,383.97955 143.00465,382.21592 142.55365,380.40399 C 141.83222,377.65026 141.28432,374.86106 140.62281,372.09274 C 139.97463,369.41481 139.37617,366.72528 138.71107,364.05145 C 137.95019,361.07574 137.20268,358.09609 136.49248,355.10796 C 135.76343,352.1885 135.08682,349.25306 134.54356,346.29303 C 134.02716,343.55884 133.6142,340.80504 133.26398,338.04481 C 132.97356,335.55737 132.85877,333.05912 132.7135,330.56001 C 132.47978,328.32794 132.25567,326.09452 132.07639,323.85743 C 131.91696,321.66014 131.84067,319.46066 131.7294,317.26084 C 131.54882,315.12111 131.3367,312.98246 131.2708,310.8352 C 131.2352,308.90053 131.25457,306.96594 131.34038,305.03267 C 131.3952,303.25225 131.45942,301.47215 131.53524,299.69253 C 131.59474,297.81017 131.60811,295.92683 131.67865,294.04504 C 131.73876,291.71443 131.80799,289.38512 131.74739,287.05323 C 131.70547,284.48599 131.71138,281.91631 131.50884,279.35465 C 131.26242,276.50475 130.96107,273.66108 130.68025,270.81441 C 130.47954,268.28406 130.37795,265.74914 130.37081,263.21047 C 130.25156,260.98969 130.13279,258.77066 129.92704,256.55563 C 129.67672,254.19821 129.47843,251.83572 129.25092,249.47593 C 128.97569,246.90683 128.85967,244.32263 128.69686,241.74445 C 128.49272,238.61 128.30351,235.47523 127.96496,232.35137 C 127.59365,228.86055 127.37689,225.3549 127.21247,221.84861 C 127.02996,217.97708 126.88415,214.10285 126.80079,210.22797 C 126.69127,206.33988 126.59845,202.44993 126.61629,198.56009 C 126.63503,194.88072 126.70885,191.20239 126.83306,187.52502 C 126.91367,184.11739 126.97051,180.70959 127.05118,177.30192 C 127.1546,174.12817 127.38003,170.96252 127.63789,167.79782 C 127.85503,164.51169 127.95084,161.22112 128.10483,157.93187 C 128.25102,154.37703 128.51906,150.82794 128.80218,147.28163 C 129.0904,143.77446 129.38553,140.26511 129.91447,136.78415 C 130.37982,133.46206 130.88714,130.14447 131.48148,126.84288 C 132.06583,123.68842 132.81979,120.56561 133.88567,117.53572 C 134.86876,114.65135 135.90592,111.78526 136.98704,108.93623 C 138.01834,106.26762 139.11347,103.61508 140.5852,101.15268 C 141.82619,98.97755 143.11368,96.828604 144.41433,94.688769 C 145.65406,92.704166 146.93649,90.74664 148.14435,88.7415 C 148.71386,87.796085 150.17734,88.673416 149.48817,89.5355 zM 281.78623,237.67939 C 281.81749,240.93372 282.12848,244.17787 282.48342,247.41033 C 282.95176,251.33154 283.48537,255.24452 283.95333,259.16573 C 284.49643,263.56182 285.04018,267.95529 285.41724,272.36919 C 285.79005,277.54457 285.81481,282.73552 285.95082,287.92024 C 286.12623,294.01691 286.42799,300.10953 286.6891,306.20317 C 286.95387,312.95067 287.27788,319.69578 287.40379,326.44763 C 287.4982,333.18523 287.28517,339.92113 286.98781,346.65113 C 286.67519,353.32314 286.033,359.9675 285.24287,366.59752 C 284.49016,372.70071 283.40488,378.75644 282.12593,384.76943 C 280.89756,390.48722 279.34089,396.11939 277.56947,401.69023 C 275.76795,407.16557 273.80881,412.58698 271.92729,418.03488 C 270.08153,423.32688 268.29117,428.63844 266.6082,433.98452 C 265.06856,438.88198 263.36501,443.72413 261.87446,448.6371 C 260.36659,453.6517 259.3754,458.79091 258.51813,463.94945 C 257.71981,469.32958 257.00559,474.72178 256.3555,480.12171 C 255.6804,485.88752 255.19078,491.67266 254.73498,497.45922 C 254.29203,503.17055 253.99424,508.89144 253.68418,514.61108 C 253.41689,520.06407 253.06709,525.51147 252.67102,530.95638 C 252.39943,536.0016 251.7024,540.94944 250.15694,545.76069 C 249.87158,546.5796 249.58622,547.3985 249.30087,548.21741 C 249.22641,548.43108 248.9997,548.4054 248.98309,548.17973 L 248.98309,548.17973 C 248.91958,547.31633 248.85606,546.45293 248.79254,545.58953 C 248.62112,540.60896 249.32574,535.71275 249.78644,530.76053 C 250.21051,525.3383 250.5465,519.90913 250.82955,514.47777 C 251.11441,508.73286 251.43851,502.98941 251.89161,497.25497 C 252.36243,491.43675 252.83646,485.61746 253.48381,479.81567 C 254.11837,474.37648 254.84253,468.94757 255.65727,463.53237 C 256.49337,458.25407 257.5426,453.00751 259.07945,447.88306 C 260.56068,442.93802 262.21446,438.04906 263.99131,433.2022 C 265.86789,427.90636 267.60635,422.56274 269.49361,417.27049 C 271.42878,411.86441 273.37142,406.45972 275.1672,401.00535 C 276.92553,395.50315 278.70363,389.99491 279.99546,384.36042 C 281.27853,378.39721 282.36829,372.39646 283.27333,366.36375 C 284.22458,359.80455 284.9023,353.20668 285.11913,346.57875 C 285.39987,339.87625 285.57953,333.16962 285.6077,326.46093 C 285.62278,319.72515 285.55489,312.99018 285.18119,306.26283 C 284.90604,300.16095 284.68648,294.05775 284.51694,287.952 C 284.39808,282.78309 284.28413,277.61361 284.09618,272.44668 C 283.89852,268.04088 283.6287,263.63637 283.11313,259.25477 C 282.6566,255.33138 282.18076,251.41049 281.70065,247.48995 C 281.32285,244.24391 281.04124,240.98936 280.70402,237.7395 C 280.62491,236.97718 281.77886,236.91301 281.78623,237.67939 z" />
  </g>
  <g
     inkscape:groupmode="layer"
     id="layer1"
     inkscape:label="Stencil"
     style="display:none"
     sodipodi:insensitive="true">
    <g
       style="opacity:0.03448277;fill:#f2daf2;stroke:#000000;stroke-width:1px"
       id="g2572">
      <polygon
         points="132.652,82.62 148.891,90.548 169.015,46.511 155.143,38.648 132.652,82.62 "
         id="polygon2574" />
      <polygon
         points="240.814,90.619 257.086,82.739 234.78,38.626 220.9,46.411 240.814,90.619 "
         id="polygon2576" />
      <polygon
         points="302.869,480.329 311.712,392.565 273.784,393.522 258.908,475.993 302.869,480.329 "
         id="polygon2578" />
      <polygon
         points="130.637,475.714 115.907,393.633 77.946,392.619 86.668,480.215 130.637,475.714 "
         id="polygon2580" />
      <polygon
         points="115.907,393.633 111.859,309.289 84.614,307.257 77.946,392.619 115.907,393.633 "
         id="polygon2582" />
      <polygon
         points="111.859,309.289 115.637,225.8 92.884,222.032 84.614,307.257 111.859,309.289 "
         id="polygon2584" />
      <polygon
         points="311.712,392.565 305.081,307.127 277.848,309.132 273.784,393.522 311.712,392.565 "
         id="polygon2586" />
      <polygon
         points="305.081,307.127 296.781,221.896 273.999,225.597 277.848,309.132 305.081,307.127 "
         id="polygon2588" />
      <polygon
         points="296.781,221.896 279.005,139.587 260.711,146.25 273.999,225.597 296.781,221.896 "
         id="polygon2590" />
      <polygon
         points="279.005,139.587 257.086,82.739 240.814,90.619 260.711,146.25 279.005,139.587 "
         id="polygon2592" />
      <polygon
         points="115.637,225.8 129.001,146.119 110.714,139.478 92.884,222.032 115.637,225.8 "
         id="polygon2594" />
      <polygon
         points="129.001,146.119 148.891,90.548 132.652,82.62 110.714,139.478 129.001,146.119 "
         id="polygon2596" />
      <polygon
         points="257.086,82.739 269.653,31.426 219.74,10.24 234.78,38.626 257.086,82.739 "
         id="polygon2598" />
      <polygon
         points="120.262,31.335 132.652,82.62 155.143,38.648 170.2,10.24 120.262,31.335 "
         id="polygon2600" />
      <polygon
         points="220.9,46.411 194.949,47.909 207.473,89.007 240.814,90.619 220.9,46.411 "
         id="polygon2602" />
      <polygon
         points="234.78,38.626 219.74,10.24 208.36,15.971 220.9,46.411 234.78,38.626 "
         id="polygon2604" />
      <polygon
         points="170.2,10.24 155.143,38.648 169.015,46.511 181.564,15.987 170.2,10.24 "
         id="polygon2606" />
      <polygon
         points="222.103,390.799 214.416,477.303 258.908,475.993 273.784,393.522 222.103,390.799 "
         id="polygon2608" />
      <polygon
         points="175.217,476.389 167.741,391.401 115.907,393.633 130.637,475.714 175.217,476.389 "
         id="polygon2610" />
      <polygon
         points="77.946,392.619 11.645,390.884 34.03,492.463 86.668,480.215 77.946,392.619 "
         id="polygon2612" />
      <polygon
         points="377.969,390.977 311.712,392.565 302.869,480.329 355.528,492.459 377.969,390.977 "
         id="polygon2614" />
      <polygon
         points="84.614,307.257 13.548,283.558 11.645,390.884 77.946,392.619 84.614,307.257 "
         id="polygon2616" />
      <polygon
         points="376.114,283.634 305.081,307.127 311.712,392.565 377.969,390.977 376.114,283.634 "
         id="polygon2618" />
      <polygon
         points="92.884,222.032 35.358,178.07 13.548,283.558 84.614,307.257 92.884,222.032 "
         id="polygon2620" />
      <polygon
         points="354.342,178.159 296.781,221.896 305.081,307.127 376.114,283.634 354.342,178.159 "
         id="polygon2622" />
      <polygon
         points="223.023,310.644 222.103,390.799 273.784,393.522 277.848,309.132 223.023,310.644 "
         id="polygon2624" />
      <polygon
         points="167.741,391.401 166.645,310.837 111.859,309.289 115.907,393.633 167.741,391.401 "
         id="polygon2626" />
      <polygon
         points="219.765,230.672 223.023,310.644 277.848,309.132 273.999,225.597 219.765,230.672 "
         id="polygon2628" />
      <polygon
         points="166.645,310.837 169.982,231.889 115.637,225.8 111.859,309.289 166.645,310.837 "
         id="polygon2630" />
      <polygon
         points="212.421,152.764 219.765,230.672 273.999,225.597 260.711,146.25 212.421,152.764 "
         id="polygon2632" />
      <polygon
         points="169.982,231.889 176.94,151.387 129.001,146.119 115.637,225.8 169.982,231.889 "
         id="polygon2634" />
      <polygon
         points="207.473,89.007 212.421,152.764 260.711,146.25 240.814,90.619 207.473,89.007 "
         id="polygon2636" />
      <polygon
         points="176.94,151.387 182.364,89.609 148.891,90.548 129.001,146.119 176.94,151.387 "
         id="polygon2638" />
      <polygon
         points="110.714,139.478 76.724,80.27 35.358,178.07 92.884,222.032 110.714,139.478 "
         id="polygon2640" />
      <polygon
         points="313.079,80.427 279.005,139.587 296.781,221.896 354.342,178.159 313.079,80.427 "
         id="polygon2642" />
      <polygon
         points="132.652,82.62 120.262,31.335 76.724,80.27 110.714,139.478 132.652,82.62 "
         id="polygon2644" />
      <polygon
         points="269.653,31.426 257.086,82.739 279.005,139.587 313.079,80.427 269.653,31.426 "
         id="polygon2646" />
      <polygon
         points="270.287,679.557 295.212,685.553 315.334,592.173 285.006,580.631 270.287,679.557 "
         id="polygon2648" />
      <polygon
         points="94.378,685.598 119.304,679.589 104.563,580.578 74.26,592.222 94.378,685.598 "
         id="polygon2650" />
      <polygon
         points="119.304,679.589 144.422,675.113 132.115,573.581 104.563,580.578 119.304,679.589 "
         id="polygon2652" />
      <polygon
         points="144.422,675.113 169.815,673.189 161.17,571.392 132.115,573.581 144.422,675.113 "
         id="polygon2654" />
      <polygon
         points="169.815,673.189 194.781,673.362 194.733,571.922 161.17,571.392 169.815,673.189 "
         id="polygon2656" />
      <polygon
         points="194.781,673.362 219.766,673.275 228.363,571.538 194.733,571.922 194.781,673.362 "
         id="polygon2658" />
      <polygon
         points="219.766,673.275 245.176,675.025 257.431,573.686 228.363,571.538 219.766,673.275 "
         id="polygon2660" />
      <polygon
         points="245.176,675.025 270.287,679.557 285.006,580.631 257.431,573.686 245.176,675.025 "
         id="polygon2662" />
      <polygon
         points="257.431,573.686 285.006,580.631 302.869,480.329 257.431,573.686 "
         id="polygon2664" />
      <polygon
         points="104.563,580.578 132.115,573.581 86.668,480.215 104.563,580.578 "
         id="polygon2666" />
      <polygon
         points="233.878,947.859 253.537,954.404 266.501,779.401 242.508,777.228 233.878,947.859 "
         id="polygon2668" />
      <polygon
         points="242.508,777.228 218.722,775.545 214.055,944.191 233.878,947.859 242.508,777.228 "
         id="polygon2670" />
      <polygon
         points="270.287,679.557 245.176,675.025 242.508,777.228 266.501,779.401 270.287,679.557 "
         id="polygon2672" />
      <polygon
         points="245.176,675.025 219.766,673.275 218.722,775.545 242.508,777.228 245.176,675.025 "
         id="polygon2674" />
      <polygon
         points="218.722,775.545 194.726,775.358 194.421,942.7 214.055,944.191 218.722,775.545 "
         id="polygon2676" />
      <polygon
         points="194.726,775.358 170.722,775.534 174.78,944.128 194.421,942.7 194.726,775.358 "
         id="polygon2678" />
      <polygon
         points="219.766,673.275 194.781,673.362 194.726,775.358 218.722,775.545 219.766,673.275 "
         id="polygon2680" />
      <polygon
         points="194.781,673.362 169.815,673.189 170.722,775.534 194.726,775.358 194.781,673.362 "
         id="polygon2682" />
      <polygon
         points="170.722,775.534 146.93,777.009 154.935,947.718 174.78,944.128 170.722,775.534 "
         id="polygon2684" />
      <polygon
         points="146.93,777.009 122.93,779.153 135.238,954.197 154.935,947.718 146.93,777.009 "
         id="polygon2686" />
      <polygon
         points="169.815,673.189 144.422,675.113 146.93,777.009 170.722,775.534 169.815,673.189 "
         id="polygon2688" />
      <polygon
         points="144.422,675.113 119.304,679.589 122.93,779.153 146.93,777.009 144.422,675.113 "
         id="polygon2690" />
      <polygon
         points="266.501,779.401 290.189,782.1 295.212,685.553 270.287,679.557 266.501,779.401 "
         id="polygon2692" />
      <polygon
         points="99.214,781.793 122.93,779.153 119.304,679.589 94.378,685.598 99.214,781.793 "
         id="polygon2694" />
      <polygon
         points="253.537,954.404 273.888,962.985 290.189,782.1 266.501,779.401 253.537,954.404 "
         id="polygon2696" />
      <polygon
         points="114.849,962.704 135.238,954.197 122.93,779.153 99.214,781.793 114.849,962.704 "
         id="polygon2698" />
      <polygon
         points="214.055,944.191 194.421,942.7 194.276,1013.76 214.055,944.191 "
         id="polygon2700" />
      <polygon
         points="194.421,942.7 174.78,944.128 194.276,1013.76 194.421,942.7 "
         id="polygon2702" />
      <polygon
         points="253.537,954.404 233.878,947.859 194.276,1013.76 253.537,954.404 "
         id="polygon2704" />
      <polygon
         points="233.878,947.859 214.055,944.191 194.276,1013.76 233.878,947.859 "
         id="polygon2706" />
      <polygon
         points="135.238,954.197 114.849,962.704 194.276,1013.76 135.238,954.197 "
         id="polygon2708" />
      <polygon
         points="273.888,962.985 253.537,954.404 194.276,1013.76 273.888,962.985 "
         id="polygon2710" />
      <polygon
         points="174.78,944.128 154.935,947.718 194.276,1013.76 174.78,944.128 "
         id="polygon2712" />
      <polygon
         points="154.935,947.718 135.238,954.197 194.276,1013.76 154.935,947.718 "
         id="polygon2714" />
      <polygon
         points="194.949,47.909 182.364,89.609 207.473,89.007 194.949,47.909 "
         id="polygon2716" />
      <polygon
         points="175.217,476.389 214.416,477.303 222.103,390.799 167.741,391.401 175.217,476.389 "
         id="polygon2718" />
      <polygon
         points="223.023,310.644 166.645,310.837 167.741,391.401 222.103,390.799 223.023,310.644 "
         id="polygon2720" />
      <polygon
         points="166.645,310.837 223.023,310.644 219.765,230.672 169.982,231.889 166.645,310.837 "
         id="polygon2722" />
      <polygon
         points="212.421,152.764 176.94,151.387 169.982,231.889 219.765,230.672 212.421,152.764 "
         id="polygon2724" />
      <polygon
         points="176.94,151.387 212.421,152.764 207.473,89.007 182.364,89.609 176.94,151.387 "
         id="polygon2726" />
      <polygon
         points="194.949,47.909 220.9,46.411 208.36,15.971 194.949,47.909 "
         id="polygon2728" />
      <polygon
         points="228.363,571.538 258.908,475.993 214.416,477.303 194.733,571.922 228.363,571.538 "
         id="polygon2730" />
      <polygon
         points="161.17,571.392 194.733,571.922 175.217,476.389 130.637,475.714 161.17,571.392 "
         id="polygon2732" />
      <polygon
         points="194.733,571.922 214.416,477.303 175.217,476.389 194.733,571.922 "
         id="polygon2734" />
      <polygon
         points="86.668,480.215 34.03,492.463 74.26,592.222 104.563,580.578 86.668,480.215 "
         id="polygon2736" />
      <polygon
         points="302.869,480.329 285.006,580.631 315.334,592.173 355.528,492.459 302.869,480.329 "
         id="polygon2738" />
      <polygon
         points="86.668,480.215 132.115,573.581 130.637,475.714 86.668,480.215 "
         id="polygon2740" />
      <polygon
         points="132.115,573.581 161.17,571.392 130.637,475.714 132.115,573.581 "
         id="polygon2742" />
      <polygon
         points="302.869,480.329 258.908,475.993 257.431,573.686 302.869,480.329 "
         id="polygon2744" />
      <polygon
         points="258.908,475.993 228.363,571.538 257.431,573.686 258.908,475.993 "
         id="polygon2746" />
      <polygon
         points="169.015,46.511 194.949,47.909 181.564,15.987 169.015,46.511 "
         id="polygon2748" />
      <polygon
         points="148.891,90.548 182.364,89.609 194.949,47.909 169.015,46.511 148.891,90.548 "
         id="polygon2750" />
    </g>
  </g>
</svg>
