<?xml version="1.0" encoding="UTF-8" standalone="no"?>
<!-- Created with Inkscape (http://www.inkscape.org/) -->

<svg
   xmlns:dc="http://purl.org/dc/elements/1.1/"
   xmlns:cc="http://creativecommons.org/ns#"
   xmlns:rdf="http://www.w3.org/1999/02/22-rdf-syntax-ns#"
   xmlns:svg="http://www.w3.org/2000/svg"
   xmlns="http://www.w3.org/2000/svg"
   xmlns:xlink="http://www.w3.org/1999/xlink"
   xmlns:sodipodi="http://sodipodi.sourceforge.net/DTD/sodipodi-0.dtd"
   xmlns:inkscape="http://www.inkscape.org/namespaces/inkscape"
   width="512"
   height="512"
   id="svg2"
   sodipodi:version="0.32"
   inkscape:version="0.47pre4 r22446"
   version="1.0"
   sodipodi:docname="BottleCap.svg"
   inkscape:output_extension="org.inkscape.output.svg.inkscape"
   inkscape:export-filename="/home/alex/Projects/Cargo/Game/Textures/BottleCap.png"
   inkscape:export-xdpi="22.5"
   inkscape:export-ydpi="22.5"
   enable-background="new">
  <defs
     id="defs4">
    <linearGradient
       id="linearGradient5029">
      <stop
         style="stop-color:#e64d3a;stop-opacity:1;"
         offset="0"
         id="stop5031" />
      <stop
         id="stop5041"
         offset="0.24759945"
         style="stop-color:#e25745;stop-opacity:1;" />
      <stop
         style="stop-color:#e05c4b;stop-opacity:1;"
         offset="0.45031247"
         id="stop5043" />
      <stop
         id="stop5037"
         offset="0.7037037"
         style="stop-color:#e45d4b;stop-opacity:1;" />
      <stop
         style="stop-color:#e25745;stop-opacity:1;"
         offset="0.87379974"
         id="stop5039" />
      <stop
         style="stop-color:#e64d3a;stop-opacity:1;"
         offset="1"
         id="stop5033" />
    </linearGradient>
    <linearGradient
       id="linearGradient5021">
      <stop
         style="stop-color:#d96051;stop-opacity:1;"
         offset="0"
         id="stop5023" />
      <stop
         style="stop-color:#6e543d;stop-opacity:1;"
         offset="1"
         id="stop5025" />
    </linearGradient>
    <linearGradient
       id="linearGradient4134">
      <stop
         style="stop-color:#755b3c;stop-opacity:0;"
         offset="0"
         id="stop4136" />
      <stop
         style="stop-color:#755b3c;stop-opacity:1;"
         offset="1"
         id="stop4138" />
    </linearGradient>
    <linearGradient
       id="linearGradient3795">
      <stop
         style="stop-color:#755b3c;stop-opacity:1;"
         offset="0"
         id="stop3797" />
      <stop
         style="stop-color:#755b3c;stop-opacity:0;"
         offset="1"
         id="stop3799" />
    </linearGradient>
    <inkscape:perspective
       sodipodi:type="inkscape:persp3d"
       inkscape:vp_x="0 : 526.18109 : 1"
       inkscape:vp_y="0 : 1000 : 0"
       inkscape:vp_z="744.09448 : 526.18109 : 1"
       inkscape:persp3d-origin="372.04724 : 350.78739 : 1"
       id="perspective10" />
    <inkscape:perspective
       id="perspective2686"
       inkscape:persp3d-origin="256 : 170.66667 : 1"
       inkscape:vp_z="512 : 256 : 1"
       inkscape:vp_y="0 : 1000 : 0"
       inkscape:vp_x="0 : 256 : 1"
       sodipodi:type="inkscape:persp3d" />
    <filter
       inkscape:collect="always"
       id="filter3625"
       x="-0.0060430954"
       width="1.0120862"
       y="-0.84135576"
       height="2.6827115">
      <feGaussianBlur
         inkscape:collect="always"
         stdDeviation="1.0516947"
         id="feGaussianBlur3627" />
    </filter>
    <linearGradient
       inkscape:collect="always"
       xlink:href="#linearGradient3795"
       id="linearGradient3801"
       x1="280.36902"
       y1="49.049953"
       x2="290.64764"
       y2="57.655499"
       gradientUnits="userSpaceOnUse" />
    <filter
       inkscape:collect="always"
       id="filter4123">
      <feGaussianBlur
         inkscape:collect="always"
         stdDeviation="1.5788871"
         id="feGaussianBlur4125" />
    </filter>
    <radialGradient
       inkscape:collect="always"
       xlink:href="#linearGradient4134"
       id="radialGradient4140"
       cx="296.1821"
       cy="61.029285"
       fx="296.1821"
       fy="61.029285"
       r="104.27423"
       gradientTransform="matrix(0.1688957,-2.8559201e-3,3.362805e-3,0.1988722,245.95298,49.5864)"
       gradientUnits="userSpaceOnUse" />
    <filter
       inkscape:collect="always"
       id="filter4198">
      <feGaussianBlur
         inkscape:collect="always"
         stdDeviation="2.6548142"
         id="feGaussianBlur4200" />
    </filter>
    <filter
       inkscape:collect="always"
       id="filter4756"
       x="-0.0051524616"
       width="1.0103049"
       y="-0.3868954"
       height="1.7737908">
      <feGaussianBlur
         inkscape:collect="always"
         stdDeviation="0.89603228"
         id="feGaussianBlur4758" />
    </filter>
    <filter
       inkscape:collect="always"
       id="filter4932">
      <feGaussianBlur
         inkscape:collect="always"
         stdDeviation="1.0490693"
         id="feGaussianBlur4934" />
    </filter>
    <filter
       inkscape:collect="always"
       id="filter5015">
      <feBlend
         inkscape:collect="always"
         mode="multiply"
         in2="BackgroundImage"
         id="feBlend5017" />
    </filter>
    <linearGradient
       inkscape:collect="always"
       xlink:href="#linearGradient5021"
       id="linearGradient5027"
       x1="255.71803"
       y1="365.3064"
       x2="255.71803"
       y2="496.00009"
       gradientUnits="userSpaceOnUse" />
    <filter
       inkscape:collect="always"
       id="filter5175">
      <feGaussianBlur
         inkscape:collect="always"
         stdDeviation="1.1472326"
         id="feGaussianBlur5177" />
    </filter>
    <filter
       inkscape:collect="always"
       id="filter5261">
      <feGaussianBlur
         inkscape:collect="always"
         stdDeviation="0.48954378"
         id="feGaussianBlur5263" />
    </filter>
    <filter
       inkscape:collect="always"
       id="filter5355"
       x="-0.077041047"
       width="1.1540821"
       y="-0.93674576"
       height="2.8734915">
      <feGaussianBlur
         inkscape:collect="always"
         stdDeviation="17.735473"
         id="feGaussianBlur5357" />
    </filter>
  </defs>
  <sodipodi:namedview
     id="base"
     pagecolor="#ffffff"
     bordercolor="#666666"
     borderopacity="1.0"
     gridtolerance="10000"
     guidetolerance="10"
     objecttolerance="10"
     inkscape:pageopacity="0.0"
     inkscape:pageshadow="2"
     inkscape:zoom="1"
     inkscape:cx="150.56627"
     inkscape:cy="160.00489"
     inkscape:document-units="px"
     inkscape:current-layer="layer2"
     showgrid="false"
     inkscape:window-width="1674"
     inkscape:window-height="974"
     inkscape:window-x="0"
     inkscape:window-y="25"
     showguides="true"
     inkscape:guide-bbox="true"
     inkscape:snap-global="false"
     inkscape:window-maximized="0">
    <sodipodi:guide
       orientation="0,1"
       position="282.84271,130.81475"
       id="guide4549" />
  </sodipodi:namedview>
  <metadata
     id="metadata7">
    <rdf:RDF>
      <cc:Work
         rdf:about="">
        <dc:format>image/svg+xml</dc:format>
        <dc:type
           rdf:resource="http://purl.org/dc/dcmitype/StillImage" />
        <dc:title></dc:title>
      </cc:Work>
    </rdf:RDF>
  </metadata>
  <g
     inkscape:groupmode="layer"
     id="layer2"
     inkscape:label="Drawing">
    <rect
       y="365.3064"
       x="0.32733479"
       height="145.44092"
       width="510.7814"
       id="rect5019"
       style="opacity:1;fill:url(#linearGradient5027);fill-opacity:1.0;fill-rule:evenodd;stroke:none;stroke-width:0.99999994000000003px;stroke-linecap:butt;stroke-linejoin:miter;marker:none;marker-start:none;marker-mid:none;marker-end:none;stroke-miterlimit:4;stroke-dasharray:none;stroke-dashoffset:0;stroke-opacity:1;visibility:visible;display:inline;overflow:visible;enable-background:accumulate" />
    <path
       style="fill:#f4f4ea;fill-opacity:1;fill-rule:evenodd;stroke:#000000;stroke-width:1px;stroke-linecap:butt;stroke-linejoin:miter;stroke-opacity:1"
       d="M 224.06733,12.256467 L 383.8858,3.539932 L 464.49239,16.67379 L 499.36067,73.154105 L 497.87738,132.75253 L 480.74212,190.17773 L 434.33964,225.02025 L 378.97103,227.7604 L 289.42044,213.70529 L 258.11648,135.04387 L 263.1198,65.71316 L 217.91281,28.815523 L 224.06733,12.256467 z"
       id="path2839" />
    <path
       style="fill:#d96051;fill-opacity:1;fill-rule:evenodd;stroke:#000000;stroke-width:1px;stroke-linecap:butt;stroke-linejoin:miter;stroke-opacity:1"
       d="M 112.44457,6.2092233 C 39.708873,0.51173218 0.39408784,44.986944 1.4195579,116.66592 C 8.1412436,190.81527 44.287626,225.71659 119.48465,227.24072 C 184.13254,226.1728 213.33836,189.58127 229.13707,129.72891 C 231.55539,45.577199 191.95823,11.051152 112.44457,6.2092233 z"
       id="path3611"
       sodipodi:nodetypes="ccccc" />
    <rect
       style="opacity:1;fill:#d96051;fill-opacity:1;fill-rule:evenodd;stroke:none;stroke-width:1px;stroke-linecap:butt;stroke-linejoin:miter;marker:none;marker-start:none;marker-mid:none;marker-end:none;stroke-miterlimit:4;stroke-dasharray:none;stroke-dashoffset:0;stroke-opacity:1;visibility:visible;display:inline;overflow:visible;enable-background:accumulate;color:#000000"
       id="rect3613"
       width="510.7814"
       height="145.44092"
       x="0.32733479"
       y="228.02924" />
    <rect
       style="opacity:0.66810345;fill:#be756c;fill-opacity:1;fill-rule:evenodd;stroke:none;stroke-width:1px;stroke-linecap:butt;stroke-linejoin:miter;marker:none;marker-start:none;marker-mid:none;marker-end:none;stroke-miterlimit:4;stroke-dasharray:none;stroke-dashoffset:0;stroke-opacity:1;visibility:visible;display:inline;overflow:visible;filter:url(#filter5355);enable-background:accumulate"
       id="rect5265"
       width="552.49945"
       height="45.439369"
       x="-22.502104"
       y="263.31812" />
    <path
       style="fill:#99866d;fill-opacity:1;fill-rule:evenodd;stroke:none;stroke-width:3;stroke-linecap:butt;stroke-linejoin:miter;stroke-miterlimit:4;stroke-dasharray:none;stroke-opacity:1;filter:url(#filter3625)"
       d="M 47.40625,494.1875 L 47.40625,497.1875 L 462.09375,497.1875 L 462.09375,494.1875 L 47.40625,494.1875 z"
       id="path3615" />
    <path
       style="fill:url(#linearGradient3801);fill-opacity:1;fill-rule:evenodd;stroke:none;stroke-width:1px;stroke-linecap:butt;stroke-linejoin:miter;stroke-opacity:1;filter:url(#filter4123)"
       d="M 297.30764,50.297689 L 286.90846,65.298932 L 225.49959,25.778901 L 231.19777,12.812121 C 240.51199,17.205089 252.47555,20.49129 261.37927,25.844455 L 297.30764,50.297689 z"
       id="path3633"
       sodipodi:nodetypes="cccccc"
       transform="matrix(1.0683656,0,0,1.0784139,-15.416422,-1.0046484)" />
    <path
       style="opacity:1;fill:#755b3c;fill-opacity:1;fill-rule:evenodd;stroke:none;stroke-width:1.07337797px;stroke-linecap:butt;stroke-linejoin:miter;marker:none;marker-start:none;marker-mid:none;marker-end:none;stroke-miterlimit:4;stroke-dasharray:none;stroke-dashoffset:0;stroke-opacity:1;visibility:visible;display:inline;overflow:visible;filter:url(#filter4123);enable-background:accumulate"
       d="M 460.80412,244.61565 C 478.21293,242.7822 502.74747,246.3158 506.45532,231.00579 L 507.48538,369.27913 L 459.07275,369.27913 L 460.80412,244.61565 z"
       id="rect4127"
       sodipodi:nodetypes="ccccc" />
    <path
       sodipodi:nodetypes="ccccc"
       id="path4130"
       d="M 460.80412,244.61565 C 478.21293,242.7822 502.74747,246.3158 506.45532,231.00579 L 507.48538,369.27913 L 459.07275,369.27913 L 460.80412,244.61565 z"
       style="opacity:1;fill:#755b3c;fill-opacity:1;fill-rule:evenodd;stroke:none;stroke-width:1.07337797px;stroke-linecap:butt;stroke-linejoin:miter;marker:none;marker-start:none;marker-mid:none;marker-end:none;stroke-miterlimit:4;stroke-dasharray:none;stroke-dashoffset:0;stroke-opacity:1;visibility:visible;display:inline;overflow:visible;filter:url(#filter4123);enable-background:accumulate"
       transform="matrix(-1.0421005,0,0,1,533.34012,0)" />
    <path
       style="fill:none;fill-rule:evenodd;stroke:url(#radialGradient4140);stroke-width:6;stroke-linecap:butt;stroke-linejoin:miter;stroke-miterlimit:4;stroke-dasharray:none;stroke-opacity:1;filter:url(#filter4198)"
       d="M 295.43695,63.999414 L 285.11447,87.337279 L 281.69556,113.69176 L 284.58849,138.68993 L 294.47264,164.01549 L 310.05497,185.88013 L 331.97106,201.71152 L 355.8815,211.55645 L 381.7644,215.88261 L 408.37053,212.25799 L 432.39055,202.29614 L 453.21083,186.76874 L 469.86706,165.41857 L 479.70738,141.80009 L 484.24401,115.16499 L 480.97851,89.324973 L 470.30538,64.607415 L 454.32855,43.257244 L 434.01234,27.823386 L 410.07998,16.224608 L 383.8026,12.740297 L 358.27036,15.523069 L 333.70243,26.233231 L 313.56155,39.35201 L 298.39562,58.433872 L 295.43695,63.999414 z"
       id="path4132"
       sodipodi:nodetypes="cccccccccccccccccccccccccc" />
    <path
       style="opacity:0.4353448;fill:#000000;fill-opacity:1;fill-rule:nonzero;stroke:none;stroke-width:1px;stroke-linecap:butt;stroke-linejoin:miter;stroke-opacity:1;filter:url(#filter4756)"
       d="M 52.204433,380.16272 C 67.827863,379.43096 83.780199,381.3156 99.165722,378.81202 C 120.88042,378.23954 142.65383,379.55583 164.36829,380.18272 C 180.39698,378.94928 196.45416,379.36957 212.41359,377.65774 C 229.06017,378.47653 245.79384,376.518 262.29854,379.70575 C 297.20458,380.63606 332.05142,378.1775 366.97572,379.0408 C 384.29821,377.30746 401.88281,377.09387 419.22403,378.47797 C 434.43632,384.36901 451.33741,379.08968 468.50158,381.33407 C 454.98782,382.35264 432.52146,385.20779 416.10877,380.52369 C 398.52821,379.75846 380.90408,380.17592 363.38734,381.51447 C 327.51378,380.34912 291.63417,384.04154 255.82166,381.52491 C 239.65983,378.84742 223.22947,381.01181 206.95598,380.26571 C 190.77379,382.43349 174.34935,381.43122 158.0695,382.63142 C 138.78457,381.22043 119.40997,381.12015 100.1119,381.28249 C 87.279493,384.49205 73.880381,381.41883 60.775043,382.74363 C 59.219268,382.04808 47.601411,383.11141 52.204433,380.16272 z"
       id="path4547"
       sodipodi:nodetypes="cccccccccccccccc" />
    <path
       style="fill:#5b472f;fill-opacity:1;fill-rule:nonzero;stroke:none;stroke-width:1px;stroke-linecap:butt;stroke-linejoin:miter;stroke-opacity:1;filter:url(#filter4932);opacity:0.60344828"
       d="M 69.736465,473.52087 C 66.819197,473.93493 67.773102,489.8301 63.882792,481.65389 C 63.953028,480.95422 63.728988,466.42019 70.913853,471.31517 L 70.103672,472.18451 L 69.736465,473.52086 L 69.736465,473.52087 z M 85.486816,472.54584 C 92.25414,478.03961 79.596479,491.56034 84.944327,476.73333 C 83.864591,476.26094 82.084446,470.34012 85.486816,472.54584 z M 71.260162,489.60229 C 77.057904,485.51133 94.792244,494.42027 78.681566,491.9051 C 77.130147,491.02615 67.42042,494.41025 71.260162,489.60229 z M 100.95059,479.39194 C 103.86747,475.2254 115.98675,461.54634 107.87448,474.75025 C 106.89811,476.25172 100.57875,486.09881 100.95059,479.39194 z M 134.40683,454.63025 C 128.67015,463.45688 145.20455,476.78316 140.23665,479.29055 C 134.46528,473.39259 125.52561,457.74615 134.24753,453.46676 L 134.40683,454.63024 L 134.40683,454.63025 z M 120.48523,486.41257 C 129.18122,494.72905 120.3692,494.23837 117.51107,486.39557 C 118.00752,485.16404 119.96639,485.17952 120.48523,486.41257 z M 158.44315,479.09183 C 163.31598,477.24056 172.32855,479.19825 162.07207,481.25186 C 160.87848,483.57475 154.39504,480.57083 158.44315,479.09183 z M 195.61113,471.75751 C 195.82491,476.55752 199.98752,492.91754 193.78075,479.64111 C 191.65847,477.78753 192.40438,464.32043 195.61113,471.75751 z M 176.82362,466.8403 C 174.43719,472.09891 180.15608,487.81518 173.39041,473.94442 C 171.15282,471.74709 175.67689,459.5388 176.82362,466.8403 z M 209.69208,479.71637 C 203.47024,487.16635 232.08481,476.90556 218.93408,482.44835 C 212.96607,489.67454 199.49626,481.95944 209.83801,478.86883 L 209.69208,479.71637 L 209.69208,479.71637 z M 243.81009,482.08136 C 256.95786,485.57928 235.89317,486.0936 243.81009,482.08136 z M 260.81345,457.63052 C 256.02332,454.40052 252.29711,452.15626 260.32371,454.7393 C 262.3866,454.18913 263.50158,459.56532 260.81345,457.63052 z M 238.83255,475.76016 C 237.29269,481.01566 226.68946,501.2383 232.30903,484.37331 C 232.83351,482.86737 237.22015,468.40149 238.83255,475.76016 z M 266.5029,485.18594 C 271.05102,487.72277 295.1043,486.11924 278.08778,489.25556 C 276.15601,490.16622 257.48276,488.30264 266.5029,485.18594 z M 296.37567,466.37433 C 290.26267,467.77812 274.57385,482.93455 286.79223,469.39446 C 286.9256,467.06743 302.39526,460.59843 296.37567,466.37433 z M 275.88129,478.50034 C 284.10106,483.01775 278.54542,481.05152 274.00861,479.74867 C 273.89405,478.84669 274.99702,477.70991 275.88129,478.50034 z M 293.86163,485.64828 C 295.10359,491.41424 309.50733,493.24523 307.99478,494.98092 C 302.52403,496.83129 293.2431,489.4463 293.86163,485.64828 z M 319.51752,477.91187 C 325.12976,473.56293 341.99416,459.04601 330.97126,471.354 C 329.04088,472.33305 318.57174,485.69842 319.51752,477.91187 z M 333.99963,459.05276 C 321.47208,456.14475 321.27996,480.38576 317.1929,477.47695 C 313.45847,467.38855 328.90491,451.30796 333.99963,459.05275 L 333.99963,459.05276 z M 352.48242,479.02377 C 345.75937,481.09726 349.42455,499.3863 345.54598,484.98087 C 344.6337,481.87738 351.44687,474.75291 352.48242,479.02377 z M 331.16095,485.46338 C 346.396,476.29379 329.06506,492.03343 331.16095,485.46338 z M 363.2247,477.11374 C 368.89089,480.12449 384.10848,481.8843 369.01202,482.32177 C 367.2399,483.18852 357.39268,476.67266 363.2247,477.11374 z M 369.06903,459.78461 C 364.33767,463.78069 359.67573,477.62791 362.71587,463.26462 C 362.28442,460.73079 371.49616,454.42989 369.06903,459.78461 z M 360.35828,486.45471 C 371.51072,492.33341 353.76544,489.59748 359.2036,485.9962 L 360.35827,486.4547 L 360.35828,486.45471 z M 390.97913,488.17004 C 401.60732,486.76351 398.39398,489.49446 390.4117,490.11146 C 389.71582,489.59912 389.81201,488.0029 390.97913,488.17004 z M 410.65521,482.15887 C 416.66945,480.89278 427.659,480.70641 414.92289,483.85682 C 413.69804,484.72986 407.07953,484.61965 410.65521,482.15887 z M 408.18509,471.50452 C 397.9464,478.13249 404.42921,467.35687 408.8415,470.97095 L 408.18508,471.50452 L 408.18509,471.50452 z M 393.47812,479.86438 C 400.21624,484.39815 387.67876,480.0694 393.47812,479.86438 z M 420.79413,489.66745 C 429.40862,489.87076 414.62343,494.71671 420.79413,489.66745 z M 431.57043,475.78409 C 430.57099,467.93726 435.58108,478.95325 431.57043,475.78409 z M 429.54028,470.69202 C 421.70094,471.79383 411.07142,473.1136 425.1437,468.51194 C 426.71677,467.62876 434.74668,468.49165 429.54028,470.69202 z M 419.47668,474.68939 C 425.3665,474.74162 436.16452,488.69478 424.45613,479.64092 C 423.26567,478.70189 412.98041,475.43741 419.47668,474.68939 z M 444.44974,482.67401 C 448.01331,478.24306 447.70325,465.66378 448.82694,478.52595 C 450.02389,481.17003 443.58859,489.13044 444.44974,482.67401 z M 444.47971,470.2009 C 442.60979,474.87088 443.54163,467.39945 444.47971,470.2009 z M 439.08032,483.85147 C 436.33563,494.36714 434.30462,478.36695 439.08032,483.85147 z M 449.82544,490.49429 C 460.11574,482.91618 447.677,499.67095 449.82544,490.49429 z M 443.44733,465.97842 C 433.53779,459.87989 447.05832,461.999 444.25861,466.30352 L 443.44734,465.97841 L 443.44733,465.97842 z M 254.32945,468.43469 C 261.92418,470.09021 264.0565,481.12115 255.5641,471.38582 C 253.63547,471.76475 250.96702,468.61004 254.32945,468.43469 z M 233.60962,458.71188 C 227.2662,459.45172 214.14507,473.79308 224.96436,460.13712 C 225.46625,457.92625 237.52368,453.93552 233.60962,458.71188 z M 225.70345,473.97928 C 232.43506,480.00565 214.40584,498.10253 224.34062,484.90211 C 227.42664,483.29625 220.40569,470.50319 225.70345,473.97928 z M 198.33661,491.26682 C 192.66425,492.40019 181.77049,491.00658 194.30421,489.56556 C 195.44566,489.03937 201.59847,488.8632 198.33661,491.26682 z M 165.38712,490.2446 C 147.76894,487.97091 172.2275,486.07172 165.38712,490.2446 z M 158.64815,465.37491 C 150.4845,466.40189 155.78665,449.9616 155.92009,461.32559 C 156.08744,462.19233 162.38091,465.19939 158.64815,465.37491 z M 146.20969,479.32977 C 153.22113,487.59687 147.32387,486.75741 144.87499,479.20569 L 145.52153,478.98197 L 146.20968,479.32976 L 146.20969,479.32977 z M 125.47904,476.35449 C 133.22958,490.40743 119.01932,474.28818 125.47904,476.35449 z M 107.58812,481.90759 C 105.40174,487.92836 95.192323,493.78538 103.52224,484.0456 C 104.13109,482.82486 107.45758,477.40095 107.58812,481.90759 z M 93.874535,468.14496 C 87.587309,471.00669 81.208099,468.63784 90.75209,466.14489 C 92.549384,464.98976 98.547481,466.29596 93.874535,468.14496 z M 105.80096,460.88821 C 112.8633,461.591 120.47705,467.78253 108.30919,463.9258 C 106.44263,464.07498 101.12802,461.94612 105.80096,460.88821 z M 97.531311,474.27975 C 103.94295,473.12056 112.29257,474.62014 100.57618,475.98467 C 99.709696,477.43722 94.544011,475.82811 97.531311,474.27975 z M 156.0631,465.25027 C 152.58823,471.15015 161.33652,485.8498 152.14757,472.77194 C 150.94116,471.04675 154.19354,459.07123 156.0631,465.25027 z M 179.18259,459.52606 C 185.97359,458.69005 175.85258,463.69734 179.18259,459.52606 z M 199.00159,448.27304 C 203.7684,444.95814 208.65433,440.95382 201.91388,448.2275 C 201.93484,449.99552 197.35037,450.77342 199.00159,448.27304 z M 229.38811,432.33521 C 234.33395,432.76752 249.17532,446.08554 235.93303,438.76582 C 235.57858,436.12852 223.80513,434.42595 229.38811,432.33521 z M 290.85236,442.75198 C 294.68271,441.11367 289.7047,445.93978 290.85236,442.75198 z M 320.90616,430.56476 C 325.97476,425.07107 350.22296,433.33133 333.02899,430.89084 C 330.27728,429.94607 320.16774,434.15097 320.90616,430.56476 z M 359.4119,441.41226 C 366.53788,450.66401 354.39308,444.75313 357.88587,440.37665 L 358.8223,440.52621 L 359.41191,441.41227 L 359.4119,441.41226 z M 404.14264,448.55374 C 407.8252,447.86704 427.98772,441.66512 413.97296,447.27023 C 413.03643,447.7713 400.51133,453.35477 404.14264,448.55374 z M 123.04466,426.67154 C 121.76805,431.65297 114.79138,443.74665 118.91973,430.8113 C 119.12719,429.20041 121.8269,420.84892 123.04466,426.67154 z M 97.80117,447.8425 C 94.438115,443.87426 85.322071,431.79603 95.375155,442.25901 C 95.714955,443.43108 102.86602,448.77378 97.80117,447.8425 z M 72.801094,441.93024 C 68.429496,444.64287 62.512515,459.82313 67.225022,445.95908 C 66.459359,443.46888 75.449719,436.08537 72.801094,441.93024 z M 60.787457,457.60669 C 54.101227,462.26779 62.243775,451.37175 60.787457,457.60669 z M 61.217579,487.87625 C 65.526551,492.47513 56.892781,488.01564 61.217577,487.87625 L 61.217579,487.87625 z M 75.254288,415.54901 C 77.10761,420.66883 79.404231,434.50486 74.287174,421.3562 C 73.432682,419.90512 70.815095,411.03251 75.254288,415.54901 z M 163.42432,396.33014 C 167.27878,400.5513 168.33229,417.03013 163.76468,402.92562 C 163.86978,401.29232 158.13293,394.27364 163.42432,396.33014 z M 172.46243,431.20511 C 179.17673,427.39654 180.3758,427.82287 173.67789,432.56416 C 172.81493,433.31062 171.34421,431.97356 172.46243,431.20511 z M 282.77829,413.92007 C 286.42386,419.42814 295.37998,426.52405 283.88727,419.28328 C 282.073,418.60673 277.3897,410.52893 282.77829,413.92007 z M 349.86008,408.51666 C 357.78767,404.8441 357.56317,407.41982 350.14457,410.06129 C 349.46859,409.95248 349.02961,408.82571 349.86008,408.51666 z M 410.54575,408.42169 C 415.94122,413.80631 419.45113,420.53358 410.36225,412.01443 C 408.01432,411.86053 407.44294,405.95856 410.54575,408.42169 z M 398.58282,427.47247 C 391.8655,427.04755 385.55491,427.68309 396.94307,425.02943 C 399.17864,423.62338 402.30988,427.92569 398.58282,427.47247 z M 448.51807,424.47562 C 446.26009,431.65771 440.61691,439.79225 445.55104,426.92222 C 444.30641,425.60175 448.34795,420.68167 448.51807,424.47562 z"
       id="path4762" />
    <path
       style="opacity:0.61206863;fill:#000000;fill-opacity:1;fill-rule:nonzero;stroke:none"
       d="m 345.72998,257.14345 c -1.71724,-0.42983 -3.60753,0.0846 -4.41852,3.15609 -2.23447,8.46247 -4.58953,16.50037 -5.26013,24.82785 -0.1482,1.83258 0.29126,3.01772 1.05202,4.20811 0.33813,0.52908 1.15,1.11579 1.68325,1.68325 1.6178,-1.76115 3.05933,-3.20322 3.36649,-4.83933 -0.002,-0.0701 -0.002,-0.14032 0,-0.21041 2.20599,-7.81779 3.5299,-15.93736 5.89135,-24.19664 0.87664,-3.06599 -0.59634,-4.19888 -2.31446,-4.62892 z m 85.00385,2.52487 c -5.35413,1.83736 -9.49411,4.83064 -12.41393,9.46825 -0.0264,0.0616 0.0258,0.1486 0,0.2104 -0.0549,0.0885 -0.1562,0.12066 -0.2104,0.21041 -1.48887,3.67648 -1.98583,7.6257 -2.31447,11.99312 -0.12099,3.77343 1.79232,6.49012 4.83933,9.25784 3.48223,3.1779 4.36136,3.14094 9.25785,3.15609 0.0998,3.3e-4 0.10719,-3.4e-4 0.2104,0 3.57468,-0.88155 6.20646,-3.27014 8.62663,-6.73298 2.5691,-4.10315 4.21242,-8.75436 5.47055,-13.67636 0.0131,-0.0685 -0.013,-0.14113 0,-0.21041 0.39084,-2.08642 0.61653,-4.36297 0.42081,-6.31217 -0.20226,-2.0139 -0.54659,-3.40433 -1.89365,-4.20811 0.0482,0.0288 -0.91091,-0.0928 -1.47284,-0.2104 -0.41401,0.12146 -0.83072,0.29228 -1.26244,0.42081 -0.11345,0.2271 -0.25484,0.43912 -0.42081,0.63121 -0.0178,0.11359 0.0401,0.0648 0,0.21041 -0.0176,0.18219 0.0677,0.17486 0,0.42081 0.002,0.0701 0.002,0.14032 0,0.21041 -0.32776,0.83711 -0.42694,1.69078 -0.42081,2.94567 0.006,1.2549 0.007,2.90986 -0.42081,4.83933 -0.93117,3.99515 -2.12836,8.32412 -4.62892,12.20353 0.002,0.0701 0.002,0.14031 0,0.2104 -0.42748,0.58941 -1.1166,1.31078 -1.89365,2.10406 -0.0428,0.0436 0.0441,0.16711 0,0.2104 -2e-4,7.4e-4 -0.84088,1.47217 -0.84162,1.47284 -7.4e-4,6.7e-4 -0.84041,0.42021 -0.84163,0.42081 -10e-4,6.1e-4 -0.41912,0.20987 -0.42081,0.21041 -0.002,5.4e-4 -0.13055,-0.0163 -0.2104,0 -0.31955,0.0652 -0.51595,0.2071 -0.63122,0.2104 -0.46114,0.0131 -0.58462,-0.1733 -0.84162,-0.2104 -0.92626,-0.13358 -2.3183,-0.22435 -3.7873,-1.68325 -0.16146,-0.16031 -0.25821,-0.22333 -0.42081,-0.42081 -0.46397,-0.35133 -1.03096,-0.5789 -1.68325,-1.26243 -0.83576,-0.87576 -1.58319,-2.36819 -1.68324,-3.99771 -0.13042,-3.13709 -0.26851,-6.67447 1.05203,-10.09946 0.0592,-0.1455 0.12954,-0.28616 0.2104,-0.42082 2.34126,-4.5764 6.7321,-7.05925 10.73068,-8.62662 0.69162,-0.27107 0.83065,-0.38459 1.05203,-0.84163 0.0701,-0.002 0.14032,-0.002 0.21041,0 -0.002,-0.0701 -0.002,-0.14031 0,-0.2104 0.009,-0.0466 -0.004,-0.15695 0,-0.21041 0.0627,-0.92201 -0.70138,-2.59785 -3.36649,-1.68324 z m -112.77738,0.2104 c -0.41523,-0.0704 -1.36572,0.19196 -2.52487,0.21041 -0.17714,0.0551 -0.26992,-0.0531 -0.42081,0 -0.72918,0.25639 -1.47109,0.69154 -1.68324,0.84162 -0.30905,0.21869 -0.45879,0.22549 -0.63122,0.63122 -0.24953,0.61512 -0.69269,1.13222 -1.26243,1.47284 -0.40163,0.21162 -0.63297,0.15533 -0.84163,0.2104 -5.39055,4.29625 -8.98327,9.77258 -11.15149,16.41164 -0.0201,0.10126 0.019,0.11109 0,0.2104 -0.66684,3.47799 -0.78453,5.87298 -0.21041,7.3642 0.56503,1.46765 1.99848,2.70389 5.04974,4.20811 6.15663,1.31414 11.54308,-0.42835 16.62204,-4.41852 0.074,-0.0722 0.13789,-0.13775 0.2104,-0.2104 4.54793,-4.55581 6.32018,-10.0986 6.10176,-16.62204 -1.01257,-5.01634 -4.319,-9.4727 -9.25784,-10.30988 z m 81.63736,1.89365 c -0.2057,-0.003 0.009,-0.17155 -0.42082,0.42082 -0.71403,0.86525 -1.8451,1.26916 -2.94567,1.05202 -1.43951,-0.21444 -1.39986,-0.17027 -1.26244,-0.2104 -4.74607,1.38517 -9.21017,2.82677 -10.94109,6.10176 -0.17034,0.32231 -0.31571,1.29037 -0.63121,2.31446 -0.002,4.06928 1.89499,6.27231 5.89135,7.78501 1.57525,0.16846 2.80287,-0.25882 4.41852,-1.05203 0.86236,-0.36702 1.84558,-0.31753 2.66673,0.13412 0.82122,0.45165 1.38949,1.2555 1.54138,2.18034 0.0889,0.74568 0.15089,1.34383 0.21041,1.89365 0.007,0.0604 -0.007,0.15176 0,0.2104 0.57452,3.27459 0.96652,6.37095 1.68324,8.83704 0.0984,0.16321 0.10039,0.23592 0.63122,0.42081 0.26979,0.094 0.84627,0.32527 1.26243,0.42081 0.78944,-0.603 1.70802,-1.10515 2.10406,-1.26243 0.32722,-2.58149 -0.1824,-5.3573 -0.63122,-8.83704 -0.40182,-2.60822 -0.6432,-4.93769 -1.05203,-7.15379 -0.0118,-0.0638 0.0122,-0.14684 0,-0.2104 -0.0735,-0.0667 -0.14375,-0.13688 -0.2104,-0.21041 -0.18294,-0.25713 -0.32487,-0.54099 -0.42081,-0.84162 -0.4196,-1.64029 -0.0723,-2.73056 0,-3.57689 0.007,-0.36035 0.0787,-0.71653 0.2104,-1.05203 0.92956,-1.87062 1.6444,-2.67959 1.68325,-2.94568 0.0195,-0.12099 -0.12934,-0.78378 -0.42082,-1.47284 -0.21861,-0.51675 -0.4272,-0.96026 -0.63121,-1.26243 -1.6512,-1.51317 -2.53389,-1.68022 -2.73527,-1.68325 z m -149.17755,1.26244 c -1.22863,0.14671 -2.55341,0.44835 -2.52487,0.42081 0.14328,0.51857 0.20624,1.24264 0.21041,1.47284 0.004,0.21855 -0.007,0.40768 0,0.63121 2.63078,3.81592 3.46735,8.50005 1.89365,12.83474 -0.0592,0.1455 -0.12954,0.28616 -0.2104,0.42081 -2.27871,4.46888 -5.73442,8.41542 -10.30988,11.36191 0.009,0.17007 0.0213,0.2242 0,0.42081 -0.11089,1.0222 -0.98059,2.15744 -1.68324,2.52486 -1.40531,0.73484 -2.00259,0.35961 -2.52487,0.21041 -2.08897,-0.59675 -3.33686,-2.44549 -3.7873,-5.04973 -0.002,-0.0701 -0.002,-0.14032 0,-0.21041 -0.13769,-3.21998 1.24843,-5.95229 2.94568,-7.99541 1.69725,-2.04312 3.61426,-3.56558 5.26014,-4.83933 0.58503,-0.45279 0.62415,-0.71706 0.63121,-0.84162 0.007,-0.12456 7e-5,-0.39624 -0.2104,-0.63122 -0.42088,-0.47003 -0.96059,-0.93548 -2.10406,0 -5.2155,4.26696 -8.25301,7.71889 -9.04744,13.88677 0.20529,1.6413 0.74124,3.39234 1.47284,4.83933 0.79025,1.56292 1.72412,2.48743 2.94568,2.73527 0.59883,0.12153 1.77872,-0.16947 3.15608,-0.21041 6.77203,-2.73062 12.31085,-7.98591 16.62204,-14.30758 0.0654,-0.13634 0.14752,-0.28204 0.21041,-0.42081 1.1844,-2.61232 1.95755,-5.65678 1.89365,-8.41622 -0.0673,-2.90602 -0.92161,-5.50784 -2.94568,-7.5746 -0.35186,-0.35934 -1.17288,-0.78311 -1.89365,-1.26243 z m 65.22573,2.94568 c 0.5187,0.0129 1.02563,0.15768 1.47284,0.42081 -0.18557,-0.0941 0.19357,0.0737 1.05202,0.42081 0.85846,0.34715 2.25468,1.28061 2.73528,2.73527 0.0218,0.20987 0.0218,0.42135 0,0.63122 0.79819,4.72406 -0.55177,9.36166 -3.7873,12.83474 -0.13466,0.0809 -0.27532,0.15122 -0.42082,0.2104 -2.08547,1.80067 -4.17067,2.15597 -6.10176,2.73527 -0.0522,0.0822 -0.0243,-0.003 -0.2104,0.21041 -0.0544,0.1255 -0.11325,0.23929 -0.21041,0.42081 -0.0789,0.14752 -0.12772,0.28514 -0.42081,0.63122 -0.0732,0.0865 -0.0788,0.30143 -0.21041,0.42081 -0.13156,0.11937 -0.6263,0.41805 -0.63121,0.42081 -0.005,0.003 -1.04759,0.20987 -1.05203,0.21041 -0.004,5.3e-4 -1.67927,-0.20859 -1.68324,-0.21041 -1.29577,-0.60812 -1.88652,-1.74909 -2.10406,-2.52487 -0.21754,-0.77577 -0.2205,-1.36969 -0.21041,-1.89365 0.0101,-0.52396 -0.0363,-0.93157 0,-1.26243 0.0363,-0.33086 -0.009,-0.84721 0,-0.42081 0.0297,-0.28912 0.1006,-0.57251 0.21041,-0.84162 1.65066,-5.71751 5.2254,-10.59158 9.67866,-14.30758 0.51379,-0.49272 1.18359,-0.79045 1.89365,-0.84162 z m 74.27316,3.36648 c 0.76904,-0.23774 1.6009,-0.16213 2.31446,0.21041 -0.57055,-0.27215 -0.54941,-0.13109 0.63122,0 1.36417,0.25552 2.38435,1.39898 2.48325,2.78335 0.0989,1.38436 -0.74843,2.66121 -2.06244,3.10801 -0.51871,0.16731 -0.26892,-0.009 -0.63122,0 0.0843,-0.0629 -0.6026,0.7718 -2.52486,0.63121 -0.41853,-0.0307 -1.10038,0.0846 -1.89365,-0.63121 -0.79328,-0.71585 -1.15956,-2.23428 -1.05203,-2.94568 0.21512,-1.42288 0.61681,-1.43089 0.84162,-1.68325 0.44956,-0.50477 0.73773,-0.81913 1.05203,-1.05202 0.25713,-0.18294 0.54099,-0.32487 0.84162,-0.42082 z m -27.14232,1.26244 c -1.36969,-0.13756 -2.36563,0.11554 -4.41851,1.26243 -1.21537,0.67902 -1.56206,1.18386 -1.68325,1.68325 -0.12119,0.49938 0.0485,1.10373 0.42081,1.68324 0.74467,1.15895 2.29366,2.20922 4.83933,1.05203 2.32779,-1.05822 2.98311,-1.68385 3.36649,-2.31446 0.19169,-0.31531 0.42956,-1.56084 0.63122,-2.31446 -1.09916,-0.36816 -2.38119,-0.9742 -3.15609,-1.05203 z m -148.54633,0.42081 c -0.59418,0.22757 -0.66117,0.1762 -0.84162,0.84162 -0.9579,3.53205 -2.51436,7.45206 -3.7873,11.3619 -1.27293,3.90984 -2.28921,7.77619 -2.10405,10.30987 0.0478,0.65357 0.54712,1.56508 0.84162,2.52487 0.61687,-0.80338 1.12535,-1.665 1.47284,-2.31446 1.25105,-2.33816 2.23784,-5.91506 3.15608,-9.67866 0.91825,-3.7636 1.71806,-7.62341 3.7873,-11.15149 0.32628,-0.55635 0.44801,-0.71289 0.42081,-0.84162 -0.0272,-0.12874 -0.12988,-0.39018 -0.42081,-0.63122 -0.58193,-0.48208 -1.96408,-0.63559 -2.52487,-0.42081 z m 62.70086,5.89135 c -1.24876,0.22509 -2.13051,1.27745 -3.9977,2.94568 -0.80857,0.72238 -0.87462,0.98975 -0.84163,1.26244 0.033,0.27268 0.28427,0.62879 0.84163,1.05202 0.55735,0.42324 1.44462,0.86977 2.10405,0.84163 0.65943,-0.0282 1.2015,-0.23418 1.89365,-1.05203 1.30654,-1.54374 2.17401,-2.64963 2.31446,-3.36649 0.005,-0.0259 -0.12779,-0.34608 -0.2104,-1.05203 -0.0164,-0.14058 0.018,-0.4602 0,-0.63122 -0.69155,-0.0619 -1.87069,-0.0421 -2.10406,0 z m 86.8975,9.67866 c 0.31295,-0.0189 -1.29758,0.33961 -2.52487,0.84162 -1.22728,0.50201 -2.39094,1.12845 -3.15608,1.47284 -1.22628,0.55197 -1.35616,0.99985 -1.47284,1.47284 -0.11668,0.47299 -0.22138,1.19988 0.21041,1.89365 0.86357,1.3876 2.45168,2.48306 4.83932,1.26243 0.81705,-0.41771 2.02528,-0.86767 3.15609,-1.47283 1.1308,-0.60516 2.38967,-1.60932 2.10405,-1.26244 0.31336,-0.38061 0.66179,-1.7767 1.47284,-3.36649 -2.51248,-0.20656 -3.95347,-0.88249 -4.62892,-0.84162 z"
       id="path5009" />
    <path
       style="fill:#000000;fill-opacity:1;fill-rule:nonzero;stroke:none;stroke-width:1px;stroke-linecap:butt;stroke-linejoin:miter;stroke-opacity:1;opacity:0.05;filter:url(#filter5175)"
       d="M 317.34744,179.51315 C 317.00776,174.83618 319.8682,161.64358 322.37531,162.28981 C 320.79215,168.38277 324.05907,177.71364 319.39652,181.75827 C 318.20731,181.81303 317.18015,180.70479 317.34744,179.51315 z M 307.23749,151.89522 C 309.77929,153.00186 315.69092,154.65683 308.11541,154.41101 C 305.40208,156.18997 304.1305,151.49491 307.23749,151.89522 z M 301.06494,111.30348 C 303.84424,111.70962 311.26509,112.40124 303.96509,113.97819 C 300.94906,116.35116 296.01271,112.55578 301.06494,111.30348 z M 317.1676,58.165932 C 320.22028,61.809201 322.12256,65.459414 316.16922,61.135434 C 312.85411,60.582487 314.66395,55.931529 317.1676,58.165932 z M 350.16681,37.347343 C 356.19189,31.760612 364.27538,29.374606 368.767,27.64691 C 362.14827,29.778856 355.63955,40.832698 349.59977,38.384021 L 349.72398,37.849981 L 350.16681,37.347342 L 350.16681,37.347343 z M 394.47891,30.511267 C 398.25872,31.732851 408.8261,41.405165 398.73279,36.283704 C 397.01452,35.169384 387.57029,30.984839 394.47891,30.511267 z M 433.62286,49.029892 C 432.94887,52.982989 428.86836,64.720772 429.22023,53.541464 C 428.41647,50.701903 431.9559,42.183378 433.62286,49.029892 z M 440.56531,79.431778 C 445.59618,79.417709 451.2446,79.700047 455.56653,81.919289 C 451.01184,81.617998 439.29598,86.569296 438.51444,80.542431 C 438.88612,79.800766 439.73508,79.331428 440.56531,79.431778 z M 477.12762,105.79731 C 476.72637,105.16506 467.91703,115.91448 472.46574,108.20804 C 472.23883,104.93961 477.97496,99.639583 477.12762,105.79731 z M 455.05539,127.05999 C 459.84617,132.34335 463.96177,139.26008 464.22797,146.31305 C 461.24856,139.97466 450.49432,132.84405 452.62411,126.47861 C 453.44159,126.07434 454.49187,126.35704 455.05539,127.05999 z M 439.79614,167.59958 C 441.959,170.91637 442.96885,180.89036 441.99539,177.73251 C 443.68793,183.72812 434.49933,169.98768 436.81392,166.695 C 437.79667,165.88585 439.55249,166.20548 439.79614,167.59958 z M 422.08777,194.14577 C 415.6329,193.45543 410.58913,199.39493 406.18591,202.79106 C 408.73894,195.69362 415.78,187.36014 424.15011,191.52423 C 425.58184,192.85389 423.48913,194.58332 422.08777,194.14577 z M 378.71436,202.54366 C 376.35108,199.54776 368.61552,193.0228 377.53958,197.6212 C 379.62638,198.29878 384.48708,204.94265 378.71436,202.54366 z M 348.83112,186.66566 C 345.49293,186.38846 331.82089,183.76417 334.92834,182.47324 C 338.95927,182.84053 350.75057,181.53642 350.0514,186.43158 L 349.50273,186.65896 L 348.83113,186.66566 L 348.83112,186.66566 z M 351.03519,178.7215 C 353.61887,175.70518 365.38756,174.36091 356.01558,178.10683 C 355.07124,178.20493 349.34091,182.30239 351.03519,178.7215 z M 387.26974,175.09074 C 391.18404,174.3265 402.79458,171.64946 393.12952,176.30256 C 391.55185,178.20934 382.93478,179.3385 387.26974,175.09074 z M 422.32611,148.36534 C 424.14881,145.70262 434.78198,132.57451 427.89534,142.20605 C 426.85573,142.61471 422.84657,151.8213 422.32611,148.36534 z M 440.95996,107.86808 C 439.7593,104.16022 430.79518,91.090797 432.7684,92.44927 C 433.91608,94.291579 446.3436,107.8953 440.95996,107.86808 z M 403.65027,78.685493 C 400.08129,73.642032 385.01935,69.310425 385.11746,69.532515 C 391.66224,65.201655 406.81314,74.454456 403.65028,78.685496 L 403.65027,78.685493 z M 357.70117,78.26516 C 364.44214,77.656813 372.0612,76.839279 377.95248,80.333359 C 371.3436,80.769798 359.32404,86.988336 355.59742,80.054218 C 355.63743,79.000979 356.68103,78.201955 357.70117,78.26516 z M 338.52258,98.800804 C 333.51867,93.026059 322.98248,108.97902 328.44248,98.040944 C 328.97105,91.789477 346.24015,95.938563 338.52258,98.800804 z M 322.88516,128.59363 C 327.61673,133.03561 333.05494,137.39845 336.53391,142.61482 C 331.47489,139.47677 317.06831,134.73514 320.49881,127.85861 C 321.34706,127.57878 322.32376,127.91322 322.88516,128.59363 z M 351.06583,162.07533 C 354.56393,161.28137 363.5771,153.34948 363.88657,154.93178 C 363.20414,159.79705 348.62034,171.11338 351.06584,162.07533 L 351.06583,162.07533 z M 392.0611,141.24892 C 396.026,143.97223 404.76996,153.96384 403.21823,154.00091 C 400.20216,150.09119 409.44872,161.73454 402.8778,154.82145 C 398.60063,151.36418 386.53394,146.59031 389.46445,140.78945 C 390.3058,140.34711 391.41664,140.54711 392.0611,141.24892 z M 419.97623,122.66295 C 421.75774,118.13214 426.26675,115.33225 429.1842,112.07788 C 427.16616,112.92251 423.32925,132.83445 419.97623,122.66295 z M 398.59174,108.41662 C 394.33723,107.17774 383.6073,110.77427 393.48997,106.62189 C 394.93033,105.65229 403.5935,105.9756 398.59174,108.41662 z M 360.63611,123.938 C 365.50513,123.40152 379.90948,121.82398 380.07018,124.20428 C 373.88307,124.91962 362.81174,131.38395 358.91518,125.425 C 358.97227,124.56825 359.81196,123.93827 360.63611,123.938 z M 345.9476,77.172112 C 338.03546,76.243487 340.72655,67.088541 345.14401,63.953934 C 340.42422,69.399847 349.43505,73.38748 347.50853,77.008654 L 345.94759,77.172111 L 345.9476,77.172112 z M 369.20963,53.24836 C 371.32634,50.747102 385.90252,41.521534 377.54599,49.678735 C 376.42816,51.664171 367.59484,61.091725 369.20963,53.24836 z M 434.73117,76.079903 C 437.74442,78.972375 442.27366,83.552731 435.21775,79.06078 C 432.94291,79.423592 430.45871,75.138092 434.73117,76.079903 z M 437.70386,131.3933 C 439.28471,135.67011 438.05219,141.63883 435.76812,133.97306 C 433.52791,132.34351 435.89769,128.62366 437.70386,131.3933 z M 367.63071,110.60209 C 359.12603,109.10566 374.85574,105.08478 368.36513,110.73017 L 367.63071,110.60209 L 367.63071,110.60209 z M 308.77209,94.026932 C 310.29975,96.232646 314.25862,104.55921 308.75362,98.664877 C 304.52566,97.867604 303.9796,91.350435 308.77209,94.026932 z M 313.36484,83.460533 C 307.5685,84.883886 310.14962,80.522007 313.46728,80.302284 C 314.3894,80.828784 315.19806,83.683307 313.36484,83.460533 z M 294.18091,103.57924 C 290.66039,107.28122 291.85533,105.25871 291.73765,101.35201 C 292.57166,100.573 295.84616,102.67556 294.18091,103.57924 z M 298.18347,139.97861 C 296.27279,143.07582 294.89964,152.34735 293.87593,143.44057 C 293.01198,140.79832 298.065,133.73431 298.18347,139.97861 z M 327.76074,53.089336 C 328.18641,47.971719 337.80011,39.099676 340.12152,41.516341 C 337.29084,45.284579 331.36275,61.625985 327.76073,53.089335 L 327.76074,53.089336 z M 382.74026,100.30624 C 385.90486,101.23441 395.0887,101.12002 385.81847,103.07367 C 383.71633,105.68338 378.81605,101.00957 382.74026,100.30624 z M 402.63763,87.160271 C 405.39892,84.748259 413.58878,80.232021 406.91585,86.805513 C 406.43409,89.765027 400.81199,91.309286 402.63763,87.160271 z M 396.88983,48.213257 C 402.46727,44.41455 419.34624,46.0979 419.59337,46.284232 C 411.64099,46.284829 403.25887,53.945834 395.89157,51.072937 C 395.10274,50.075159 395.61692,48.496038 396.88983,48.213257 z M 343.3187,108.85023 C 344.28826,111.81475 342.53316,126.14723 341.0137,116.15113 C 339.42298,113.90988 338.74933,102.44671 343.3187,108.85023 z M 415.67184,169.91675 C 417.47921,172.8093 422.55192,181.452 415.7552,175.33835 C 411.26642,174.51633 409.61876,166.60298 415.67184,169.91675 z M 369.08514,181.84535 C 376.15347,191.11448 361.10243,180.35662 369.08514,181.84535 z M 392.21194,198.08875 C 393.77185,200.35803 401.38431,204.98111 393.89494,201.76596 C 389.91368,202.4087 386.7894,197.67443 392.21194,198.08875 z"
       id="path5045" />
    <path
       style="fill:#000000;fill-opacity:1;fill-rule:nonzero;stroke:none;stroke-width:1px;stroke-linecap:butt;stroke-linejoin:miter;stroke-opacity:1;filter:url(#filter5261);opacity:0.15517241"
       d="M 64.295135,361.69843 C 69.222408,354.29123 64.77938,365.66149 64.295135,361.69843 z M 75.075012,354.62216 C 83.955171,352.72202 71.698056,359.39188 75.075012,354.62216 z M 90.033066,352.1272 C 98.354356,352.41419 85.719041,355.09139 90.033066,352.1272 z M 101.02807,356.99246 C 117.58611,353.43082 96.370308,362.93806 101.02807,356.99246 z M 118.75317,336.56717 C 124.28916,331.20799 141.47951,343.70578 127.19567,338.75975 C 125.65685,337.30798 114.61833,341.38782 118.75317,336.56717 z M 142.00778,350.99374 C 151.17435,352.09069 136.01623,355.31023 142.00778,350.99374 z M 165.36401,353.00513 C 168.99137,355.55326 161.72088,353.41122 165.36401,353.00513 z M 181.78612,350.19003 C 190.69606,337.93159 184.00672,354.20409 181.78612,350.19003 z M 222.39206,342.67609 C 225.00148,345.78872 234.36641,353.78478 224.04386,348.11599 C 221.71651,347.69892 216.49125,340.09271 222.39206,342.67609 z M 212.86555,360.78238 C 220.34313,360.31877 217.37865,361.62463 212.80277,363.36834 C 212.04033,362.96169 211.3329,360.55423 212.86555,360.78238 z M 247.85229,357.80313 C 255.72088,360.07164 244.88602,359.09532 247.85229,357.80313 z M 267.08194,351.74878 C 268.42822,344.69141 275.56264,337.89893 270.56904,350.00204 C 271.49455,352.07553 266.71786,355.73958 267.08194,351.74878 z M 287.48523,334.97522 C 305.05733,348.01959 276.81525,335.39218 287.48523,334.97522 z M 325.06793,356.12653 C 333.17379,360.9454 318.99113,356.58785 325.06793,356.12653 z M 303.41714,354.86633 C 312.83144,356.69593 298.14327,357.77223 303.41713,354.86632 L 303.41714,354.86633 z M 339.14014,348.56723 C 345.59084,343.65237 348.66913,346.20683 340.33901,350.55334 C 339.05394,351.47854 337.64052,349.2505 339.14014,348.56723 z M 364.02371,338.50269 C 374.24723,347.29341 361.80237,343.2537 363.33459,338.05957 L 364.02372,338.50269 L 364.02371,338.50269 z M 404.86111,348.1868 C 409.54061,347.92144 413.20493,348.29201 406.1964,351.98 C 403.79701,353.21316 401.93978,348.44234 404.86111,348.1868 z M 383.61441,356.15256 C 397.19554,358.81026 377.02922,362.47385 382.04207,356.18814 L 383.6144,356.15256 L 383.61441,356.15256 z M 423.13315,356.16379 C 427.50703,359.05617 418.03783,357.64335 423.13315,356.16379 z M 446.159,351.11493 C 450.40449,345.7834 453.21271,344.05548 450.15893,351.964 C 449.43621,355.08554 443.76012,354.79931 446.159,351.11493 z M 394.91904,342.05914 C 391.98702,335.70477 402.33942,340.78177 394.91904,342.05914 z M 365.20822,333.55246 C 362.76674,326.75154 370.21052,336.33987 365.20821,333.55246 L 365.20822,333.55246 z M 329.27939,337.19016 C 326.55184,332.75268 335.24892,336.50955 329.27939,337.19016 z M 259.39566,320.37643 C 255.43503,313.5397 264.39683,322.49553 259.39566,320.37644 L 259.39566,320.37643 z M 200.31155,324.45508 C 211.77299,332.1035 193.21025,325.9938 200.31155,324.45508 z M 147.22079,325.76547 C 150.61202,316.22984 152.55277,322.88346 148.46223,327.60551 C 147.44695,327.91298 146.70118,326.58087 147.22079,325.76547 z M 110.01019,310.49271 C 107.90907,314.25664 109.34836,308.32547 110.01019,310.49271 z M 78.994705,331.95099 C 73.423046,322.97996 86.82905,331.78077 80.129432,332.85862 L 78.994702,331.95098 L 78.994705,331.95099 z M 230.59065,288.67993 C 231.47725,293.18272 226.16236,287.02214 230.59065,288.67993 z M 409.87613,313.15625 C 414.81058,312.40905 407.8214,317.50432 409.87613,313.15625 z M 80.787697,300.69849 C 82.939813,306.89327 77.471715,305.27215 76.725137,300.19218 C 77.624068,298.73063 80.640777,298.65774 80.787697,300.69849 z"
       id="path5179" />
  </g>
  <g
     inkscape:label="Stencil"
     inkscape:groupmode="layer"
     id="layer1"
     sodipodi:insensitive="true"
     style="opacity:0.10775865;display:none;filter:url(#filter5015)">
    <g
       id="g2689">
      <rect
         id="rect2387"
         height="512"
         width="512"
         y="0"
         x="0"
         style="fill:none;stroke:#0000ff;stroke-width:1px" />
      <g
         id="g2389"
         style="fill:#f2daf2;stroke:#000000;stroke-width:1px">
        <polygon
           id="polygon2391"
           points="233.081,22.663 257.01,34.401 258.11,32.46 233.081,22.663 " />
        <polygon
           id="polygon2393"
           points="298.671,58.077 258.11,32.46 257.01,34.401 295.329,63.445 298.671,58.077 " />
        <polygon
           id="polygon2395"
           points="372.572,363.769 372.572,235.375 355.775,235.375 355.775,363.769 372.572,363.769 " />
        <polygon
           id="polygon2397"
           points="389.525,363.769 389.525,235.375 372.572,235.375 372.572,363.769 389.525,363.769 " />
        <polygon
           id="polygon2399"
           points="338.725,363.769 338.725,235.375 321.907,235.375 321.907,363.769 338.725,363.769 " />
        <polygon
           id="polygon2401"
           points="355.775,363.769 355.775,235.375 338.725,235.375 338.725,363.769 355.775,363.769 " />
        <polygon
           id="polygon2403"
           points="304.863,363.769 304.863,235.375 288.055,235.375 288.055,363.769 304.863,363.769 " />
        <polygon
           id="polygon2405"
           points="321.907,363.769 321.907,235.375 304.863,235.375 304.863,363.769 321.907,363.769 " />
        <polygon
           id="polygon2407"
           points="271.052,363.769 271.052,235.375 254.282,235.375 254.282,363.769 271.052,363.769 " />
        <polygon
           id="polygon2409"
           points="288.055,363.769 288.055,235.375 271.052,235.375 271.052,363.769 288.055,363.769 " />
        <polygon
           id="polygon2411"
           points="237.313,363.769 237.313,235.375 220.603,235.375 220.603,363.769 237.313,363.769 " />
        <polygon
           id="polygon2413"
           points="254.282,363.769 254.282,235.375 237.313,235.375 237.313,363.769 254.282,363.769 " />
        <polygon
           id="polygon2415"
           points="203.678,363.769 203.678,235.375 187.007,235.375 187.007,363.769 203.678,363.769 " />
        <polygon
           id="polygon2417"
           points="220.603,363.769 220.603,235.375 203.678,235.375 203.678,363.769 220.603,363.769 " />
        <polygon
           id="polygon2419"
           points="170.144,363.769 170.144,235.375 153.552,235.375 153.552,363.769 170.144,363.769 " />
        <polygon
           id="polygon2421"
           points="187.007,363.769 187.007,235.375 170.144,235.375 170.144,363.769 187.007,363.769 " />
        <polygon
           id="polygon2423"
           points="136.767,363.769 136.767,235.375 120.259,235.375 120.259,363.769 136.767,363.769 " />
        <polygon
           id="polygon2425"
           points="153.552,363.769 153.552,235.375 136.767,235.375 136.767,363.769 153.552,363.769 " />
        <polygon
           id="polygon2427"
           points="103.558,235.375 103.558,363.769 120.259,363.769 120.259,235.375 103.558,235.375 " />
        <polygon
           id="polygon2429"
           points="406.269,363.769 406.269,235.375 389.525,235.375 389.525,363.769 406.269,363.769 " />
        <polygon
           id="polygon2431"
           points="423.166,235.375 423.166,363.769 439.032,363.769 439.032,235.375 423.166,235.375 " />
        <polygon
           id="polygon2433"
           points="87.122,363.769 87.122,235.375 72.646,235.375 72.646,363.769 87.122,363.769 " />
        <polygon
           id="polygon2435"
           points="406.269,235.375 406.269,363.769 423.166,363.769 423.166,235.375 406.269,235.375 " />
        <polygon
           id="polygon2437"
           points="103.558,363.769 103.558,235.375 87.122,235.375 87.122,363.769 103.558,363.769 " />
        <polygon
           id="polygon2439"
           points="455.978,363.769 455.978,299.572 439.032,363.769 455.978,363.769 " />
        <polygon
           id="polygon2441"
           points="56.387,363.769 72.646,363.769 56.387,299.572 56.387,363.769 " />
        <polygon
           id="polygon2443"
           points="423.166,371.314 423.166,495.918 439.032,495.918 439.032,371.314 423.166,371.314 " />
        <polygon
           id="polygon2445"
           points="406.269,371.314 406.269,495.918 423.166,495.918 423.166,371.314 406.269,371.314 " />
        <polygon
           id="polygon2447"
           points="389.525,371.314 389.525,495.918 406.269,495.918 406.269,371.314 389.525,371.314 " />
        <polygon
           id="polygon2449"
           points="389.525,495.918 389.525,371.314 372.572,371.314 372.572,495.918 389.525,495.918 " />
        <polygon
           id="polygon2451"
           points="372.572,495.918 372.572,371.314 355.775,371.314 355.775,495.918 372.572,495.918 " />
        <polygon
           id="polygon2453"
           points="338.725,371.314 338.725,495.918 355.775,495.918 355.775,371.314 338.725,371.314 " />
        <polygon
           id="polygon2455"
           points="321.907,371.314 321.907,495.918 338.725,495.918 338.725,371.314 321.907,371.314 " />
        <polygon
           id="polygon2457"
           points="304.863,371.314 304.863,495.918 321.907,495.918 321.907,371.314 304.863,371.314 " />
        <polygon
           id="polygon2459"
           points="288.055,371.314 288.055,495.918 304.863,495.918 304.863,371.314 288.055,371.314 " />
        <polygon
           id="polygon2461"
           points="271.052,371.314 271.052,495.918 288.055,495.918 288.055,371.314 271.052,371.314 " />
        <polygon
           id="polygon2463"
           points="254.282,371.314 254.282,495.918 271.052,495.918 271.052,371.314 254.282,371.314 " />
        <polygon
           id="polygon2465"
           points="237.313,371.314 237.313,495.918 254.282,495.918 254.282,371.314 237.313,371.314 " />
        <polygon
           id="polygon2467"
           points="220.603,371.314 220.603,495.918 237.313,495.918 237.313,371.314 220.603,371.314 " />
        <polygon
           id="polygon2469"
           points="203.678,371.314 203.678,495.918 220.603,495.918 220.603,371.314 203.678,371.314 " />
        <polygon
           id="polygon2471"
           points="187.007,371.314 187.007,495.918 203.678,495.918 203.678,371.314 187.007,371.314 " />
        <polygon
           id="polygon2473"
           points="170.144,371.314 170.144,495.918 187.007,495.918 187.007,371.314 170.144,371.314 " />
        <polygon
           id="polygon2475"
           points="153.552,371.314 153.552,495.918 170.144,495.918 170.144,371.314 153.552,371.314 " />
        <polygon
           id="polygon2477"
           points="136.767,371.314 136.767,495.918 153.552,495.918 153.552,371.314 136.767,371.314 " />
        <polygon
           id="polygon2479"
           points="120.259,371.314 120.259,495.918 136.767,495.918 136.767,371.314 120.259,371.314 " />
        <polygon
           id="polygon2481"
           points="103.558,371.314 103.558,495.918 120.259,495.918 120.259,371.314 103.558,371.314 " />
        <polygon
           id="polygon2483"
           points="87.122,371.314 87.122,495.918 103.558,495.918 103.558,371.314 87.122,371.314 " />
        <polygon
           id="polygon2485"
           points="72.646,371.314 72.646,495.918 87.122,495.918 87.122,371.314 72.646,371.314 " />
        <polygon
           id="polygon2487"
           points="455.978,371.314 439.032,371.314 455.978,433.616 455.978,371.314 " />
        <polygon
           id="polygon2489"
           points="56.387,371.314 56.387,433.616 72.646,371.314 56.387,371.314 " />
        <polygon
           id="polygon2491"
           points="56.387,495.918 72.646,495.918 56.387,433.616 56.387,495.918 " />
        <polygon
           id="polygon2493"
           points="72.646,495.918 72.646,371.314 56.387,433.616 72.646,495.918 " />
        <polygon
           id="polygon2495"
           points="455.978,495.918 455.978,433.616 439.032,495.918 455.978,495.918 " />
        <polygon
           id="polygon2497"
           points="455.978,433.616 439.032,371.314 439.032,495.918 455.978,433.616 " />
        <polygon
           id="polygon2499"
           points="455.978,235.375 439.032,235.375 455.978,299.572 455.978,235.375 " />
        <polygon
           id="polygon2501"
           points="439.032,235.375 439.032,363.769 455.978,299.572 439.032,235.375 " />
        <polygon
           id="polygon2503"
           points="56.387,235.375 56.387,299.572 72.646,235.375 56.387,235.375 " />
        <polygon
           id="polygon2505"
           points="56.387,299.572 72.646,363.769 72.646,235.375 56.387,299.572 " />
        <polygon
           id="polygon2507"
           points="162.468,133.078 116.431,121.547 202.314,171.132 162.468,133.078 " />
        <polygon
           id="polygon2509"
           points="211.831,148.726 162.468,133.078 202.314,171.132 211.831,148.726 " />
        <polygon
           id="polygon2511"
           points="162.445,105.312 202.314,71.962 116.431,121.547 162.445,105.312 " />
        <polygon
           id="polygon2513"
           points="162.445,105.312 211.868,92.575 202.314,71.962 162.445,105.312 " />
        <polygon
           id="polygon2515"
           points="186.682,51.53 116.431,121.547 202.314,71.962 186.682,51.53 " />
        <polygon
           id="polygon2517"
           points="166.016,35.664 116.431,121.547 186.682,51.53 166.016,35.664 " />
        <polygon
           id="polygon2519"
           points="186.453,191.795 116.431,121.547 166.016,207.431 186.453,191.795 " />
        <polygon
           id="polygon2521"
           points="202.314,171.132 116.431,121.547 186.453,191.795 202.314,171.132 " />
        <polygon
           id="polygon2523"
           points="142.262,25.787 116.431,121.547 166.016,35.664 142.262,25.787 " />
        <polygon
           id="polygon2525"
           points="116.43,22.378 116.431,121.547 142.262,25.787 116.43,22.378 " />
        <polygon
           id="polygon2527"
           points="90.921,25.703 116.431,121.547 116.43,22.378 90.921,25.703 " />
        <polygon
           id="polygon2529"
           points="66.846,35.664 116.431,121.547 90.921,25.703 66.846,35.664 " />
        <polygon
           id="polygon2531"
           points="46.417,51.301 116.431,121.547 66.846,35.664 46.417,51.301 " />
        <polygon
           id="polygon2533"
           points="30.547,71.963 116.431,121.547 46.417,51.301 30.547,71.963 " />
        <polygon
           id="polygon2535"
           points="20.674,95.721 116.431,121.547 30.547,71.963 20.674,95.721 " />
        <polygon
           id="polygon2537"
           points="17.261,121.548 116.431,121.547 20.674,95.721 17.261,121.548 " />
        <polygon
           id="polygon2539"
           points="20.59,147.062 116.431,121.547 17.261,121.548 20.59,147.062 " />
        <polygon
           id="polygon2541"
           points="30.547,171.133 116.431,121.547 20.59,147.062 30.547,171.133 " />
        <polygon
           id="polygon2543"
           points="46.188,191.566 116.431,121.547 30.547,171.133 46.188,191.566 " />
        <polygon
           id="polygon2545"
           points="66.846,207.431 116.431,121.547 46.188,191.566 66.846,207.431 " />
        <polygon
           id="polygon2547"
           points="90.608,217.308 116.431,121.547 66.846,207.431 90.608,217.308 " />
        <polygon
           id="polygon2549"
           points="116.431,220.717 116.431,121.547 90.608,217.308 116.431,220.717 " />
        <polygon
           id="polygon2551"
           points="141.949,217.392 116.431,121.547 116.431,220.717 141.949,217.392 " />
        <polygon
           id="polygon2553"
           points="166.016,207.431 116.431,121.547 141.949,217.392 166.016,207.431 " />
        <polygon
           id="polygon2555"
           points="163.66,114.773 215.248,116.423 211.868,92.575 162.445,105.312 163.66,114.773 " />
        <polygon
           id="polygon2557"
           points="215.357,122.455 163.796,118.604 162.468,133.078 211.831,148.726 215.357,122.455 " />
        <polygon
           id="polygon2559"
           points="162.445,105.312 116.431,121.547 139.127,119.7 162.445,105.312 " />
        <polygon
           id="polygon2561"
           points="163.66,114.773 162.445,105.312 139.127,119.7 163.66,114.773 " />
        <polygon
           id="polygon2563"
           points="162.468,133.078 163.796,118.604 139.127,119.7 162.468,133.078 " />
        <polygon
           id="polygon2565"
           points="116.431,121.547 162.468,133.078 139.127,119.7 116.431,121.547 " />
        <polygon
           id="polygon2567"
           points="382.751,114.356 313.158,40.37 298.671,58.077 382.751,114.356 " />
        <polygon
           id="polygon2569"
           points="382.751,114.356 298.671,58.077 295.329,63.445 382.751,114.356 " />
        <polygon
           id="polygon2571"
           points="382.751,114.356 295.329,63.445 285.053,87.583 382.751,114.356 " />
        <polygon
           id="polygon2573"
           points="382.751,114.356 285.053,87.583 281.467,112.961 382.751,114.356 " />
        <polygon
           id="polygon2575"
           points="284.579,139.301 294.345,163.791 382.751,114.356 284.579,139.301 " />
        <polygon
           id="polygon2577"
           points="281.467,112.961 284.579,139.301 382.751,114.356 281.467,112.961 " />
        <polygon
           id="polygon2579"
           points="310.211,185.044 330.913,201.373 382.751,114.356 310.211,185.044 " />
        <polygon
           id="polygon2581"
           points="294.345,163.791 310.211,185.044 382.751,114.356 294.345,163.791 " />
        <polygon
           id="polygon2583"
           points="355.28,211.843 381.372,215.635 382.751,114.356 355.28,211.843 " />
        <polygon
           id="polygon2585"
           points="330.913,201.373 355.28,211.843 382.751,114.356 330.913,201.373 " />
        <polygon
           id="polygon2587"
           points="407.711,212.517 432.202,202.757 382.751,114.356 407.711,212.517 " />
        <polygon
           id="polygon2589"
           points="381.372,215.635 407.711,212.517 382.751,114.356 381.372,215.635 " />
        <polygon
           id="polygon2591"
           points="453.454,186.885 469.784,166.19 382.751,114.356 453.454,186.885 " />
        <polygon
           id="polygon2593"
           points="432.202,202.757 453.454,186.885 382.751,114.356 432.202,202.757 " />
        <polygon
           id="polygon2595"
           points="480.253,141.816 484.046,115.73 382.751,114.356 480.253,141.816 " />
        <polygon
           id="polygon2597"
           points="469.784,166.19 480.253,141.816 382.751,114.356 469.784,166.19 " />
        <polygon
           id="polygon2599"
           points="480.926,89.385 471.169,64.9 382.751,114.356 480.926,89.385 " />
        <polygon
           id="polygon2601"
           points="484.046,115.73 480.926,89.385 382.751,114.356 484.046,115.73 " />
        <polygon
           id="polygon2603"
           points="455.294,43.642 434.601,27.319 382.751,114.356 455.294,43.642 " />
        <polygon
           id="polygon2605"
           points="471.169,64.9 455.294,43.642 382.751,114.356 471.169,64.9 " />
        <polygon
           id="polygon2607"
           points="410.225,16.844 384.142,13.056 382.751,114.356 410.225,16.844 " />
        <polygon
           id="polygon2609"
           points="434.601,27.319 410.225,16.844 382.751,114.356 434.601,27.319 " />
        <polygon
           id="polygon2611"
           points="357.795,16.17 333.311,25.934 382.751,114.356 357.795,16.17 " />
        <polygon
           id="polygon2613"
           points="384.142,13.056 357.795,16.17 382.751,114.356 384.142,13.056 " />
        <polygon
           id="polygon2615"
           points="382.751,114.356 333.311,25.934 313.158,40.37 382.751,114.356 " />
        <polygon
           id="polygon2617"
           points="72.646,371.314 87.122,371.314 87.122,363.769 72.646,363.769 72.646,371.314 " />
        <polygon
           id="polygon2619"
           points="56.387,371.314 72.646,371.314 72.646,363.769 56.387,363.769 56.387,371.314 " />
        <polygon
           id="polygon2621"
           points="439.032,363.769 423.166,363.769 423.166,371.314 439.032,371.314 439.032,363.769 " />
        <polygon
           id="polygon2623"
           points="455.978,363.769 439.032,363.769 439.032,371.314 455.978,371.314 455.978,363.769 " />
        <polygon
           id="polygon2625"
           points="136.767,363.769 120.259,363.769 120.259,371.314 136.767,371.314 136.767,363.769 " />
        <polygon
           id="polygon2627"
           points="153.552,363.769 136.767,363.769 136.767,371.314 153.552,371.314 153.552,363.769 " />
        <polygon
           id="polygon2629"
           points="170.144,371.314 187.007,371.314 187.007,363.769 170.144,363.769 170.144,371.314 " />
        <polygon
           id="polygon2631"
           points="153.552,371.314 170.144,371.314 170.144,363.769 153.552,363.769 153.552,371.314 " />
        <polygon
           id="polygon2633"
           points="203.678,371.314 220.603,371.314 220.603,363.769 203.678,363.769 203.678,371.314 " />
        <polygon
           id="polygon2635"
           points="187.007,371.314 203.678,371.314 203.678,363.769 187.007,363.769 187.007,371.314 " />
        <polygon
           id="polygon2637"
           points="237.313,371.314 254.282,371.314 254.282,363.769 237.313,363.769 237.313,371.314 " />
        <polygon
           id="polygon2639"
           points="220.603,371.314 237.313,371.314 237.313,363.769 220.603,363.769 220.603,371.314 " />
        <polygon
           id="polygon2641"
           points="271.052,371.314 288.055,371.314 288.055,363.769 271.052,363.769 271.052,371.314 " />
        <polygon
           id="polygon2643"
           points="254.282,371.314 271.052,371.314 271.052,363.769 254.282,363.769 254.282,371.314 " />
        <polygon
           id="polygon2645"
           points="304.863,371.314 321.907,371.314 321.907,363.769 304.863,363.769 304.863,371.314 " />
        <polygon
           id="polygon2647"
           points="288.055,371.314 304.863,371.314 304.863,363.769 288.055,363.769 288.055,371.314 " />
        <polygon
           id="polygon2649"
           points="338.725,371.314 355.775,371.314 355.775,363.769 338.725,363.769 338.725,371.314 " />
        <polygon
           id="polygon2651"
           points="321.907,371.314 338.725,371.314 338.725,363.769 321.907,363.769 321.907,371.314 " />
        <polygon
           id="polygon2653"
           points="372.572,371.314 389.525,371.314 389.525,363.769 372.572,363.769 372.572,371.314 " />
        <polygon
           id="polygon2655"
           points="355.775,371.314 372.572,371.314 372.572,363.769 355.775,363.769 355.775,371.314 " />
        <polygon
           id="polygon2657"
           points="406.269,371.314 423.166,371.314 423.166,363.769 406.269,363.769 406.269,371.314 " />
        <polygon
           id="polygon2659"
           points="389.525,371.314 406.269,371.314 406.269,363.769 389.525,363.769 389.525,371.314 " />
        <polygon
           id="polygon2661"
           points="103.558,371.314 120.259,371.314 120.259,363.769 103.558,363.769 103.558,371.314 " />
        <polygon
           id="polygon2663"
           points="87.122,371.314 103.558,371.314 103.558,363.769 87.122,363.769 87.122,371.314 " />
        <polygon
           id="polygon2665"
           points="487.582,235.375 455.978,235.375 462.071,246.619 487.582,246.619 487.582,235.375 " />
        <polygon
           id="polygon2667"
           points="462.071,299.572 455.978,299.572 455.978,363.769 462.071,363.769 462.071,299.572 " />
        <polygon
           id="polygon2669"
           points="455.978,299.572 462.071,299.572 462.071,246.619 455.978,235.375 455.978,299.572 " />
        <polygon
           id="polygon2671"
           points="502.862,235.375 487.582,235.375 487.582,246.619 502.862,246.619 502.862,235.375 " />
        <polygon
           id="polygon2673"
           points="23.798,246.619 51.197,246.619 56.387,235.375 23.798,235.375 23.798,246.619 " />
        <polygon
           id="polygon2675"
           points="56.387,299.572 51.197,299.572 51.197,363.769 56.387,363.769 56.387,299.572 " />
        <polygon
           id="polygon2677"
           points="51.197,299.572 56.387,299.572 56.387,235.375 51.197,246.619 51.197,299.572 " />
        <polygon
           id="polygon2679"
           points="23.798,235.375 7.848,235.375 7.848,246.619 23.798,246.619 23.798,235.375 " />
      </g>
    </g>
  </g>
</svg>
