<?xml version="1.0" encoding="UTF-8" standalone="no"?>
<!-- Created with Inkscape (http://www.inkscape.org/) -->

<svg
   xmlns:dc="http://purl.org/dc/elements/1.1/"
   xmlns:cc="http://creativecommons.org/ns#"
   xmlns:rdf="http://www.w3.org/1999/02/22-rdf-syntax-ns#"
   xmlns:svg="http://www.w3.org/2000/svg"
   xmlns="http://www.w3.org/2000/svg"
   xmlns:sodipodi="http://sodipodi.sourceforge.net/DTD/sodipodi-0.dtd"
   xmlns:inkscape="http://www.inkscape.org/namespaces/inkscape"
   width="64"
   height="64"
   id="svg2"
   version="1.1"
   inkscape:version="0.47 r22583"
   sodipodi:docname="DebugMarkers.svg"
   inkscape:export-filename="/home/alex/Documents/Cargo/Game/Textures/DebugMarkers.png"
   inkscape:export-xdpi="90"
   inkscape:export-ydpi="90">
  <defs
     id="defs4">
    <inkscape:perspective
       sodipodi:type="inkscape:persp3d"
       inkscape:vp_x="0 : 526.18109 : 1"
       inkscape:vp_y="0 : 1000 : 0"
       inkscape:vp_z="744.09448 : 526.18109 : 1"
       inkscape:persp3d-origin="372.04724 : 350.78739 : 1"
       id="perspective10" />
  </defs>
  <sodipodi:namedview
     id="base"
     pagecolor="#ffffff"
     bordercolor="#666666"
     borderopacity="1.0"
     inkscape:pageopacity="0.0"
     inkscape:pageshadow="2"
     inkscape:zoom="16"
     inkscape:cx="23.834417"
     inkscape:cy="49.636785"
     inkscape:document-units="px"
     inkscape:current-layer="layer1"
     showgrid="false"
     showguides="true"
     inkscape:guide-bbox="true"
     inkscape:window-width="1920"
     inkscape:window-height="958"
     inkscape:window-x="0"
     inkscape:window-y="24"
     inkscape:window-maximized="1">
    <sodipodi:guide
       orientation="0,1"
       position="20.942,32"
       id="guide2816" />
    <sodipodi:guide
       orientation="1,0"
       position="32,40.633858"
       id="guide2818" />
    <inkscape:grid
       type="xygrid"
       id="grid3596"
       empspacing="5"
       visible="true"
       enabled="true"
       snapvisiblegridlinesonly="true" />
  </sodipodi:namedview>
  <metadata
     id="metadata7">
    <rdf:RDF>
      <cc:Work
         rdf:about="">
        <dc:format>image/svg+xml</dc:format>
        <dc:type
           rdf:resource="http://purl.org/dc/dcmitype/StillImage" />
        <dc:title></dc:title>
      </cc:Work>
    </rdf:RDF>
  </metadata>
  <g
     inkscape:label="Layer 1"
     inkscape:groupmode="layer"
     id="layer1"
     transform="translate(0,-988.3622)">
    <path
       style="opacity:1;color:#000000;fill:#000000;fill-opacity:1;fill-rule:evenodd;stroke:none;stroke-width:10;marker:none;visibility:visible;display:inline;overflow:visible;enable-background:accumulate"
       d="m 18,1004.3622 c 0,1.1046 -0.89543,2 -2,2 -1.104569,0 -2,-0.8954 -2,-2 0,-1.1046 0.895431,-2 2,-2 1.10457,0 2,0.8954 2,2 z"
       id="path3611" />
    <path
       id="path3628"
       style="opacity:1;color:#000000;fill:#000000;fill-opacity:1;fill-rule:evenodd;stroke:none;stroke-width:10;marker:none;visibility:visible;display:inline;overflow:visible;enable-background:accumulate"
       d="m 29.521776,1004.3622 c 0,7.4679 -6.053906,13.5218 -13.521776,13.5218 -7.4678699,0 -13.5217749,-6.0539 -13.5217749,-13.5218 0,-7.46787 6.053905,-13.52177 13.5217749,-13.52177 7.46787,0 13.521776,6.0539 13.521776,13.52177 z m 1.478224,0 c 0,8.2843 -6.715728,15 -15,15 -8.2842712,0 -15,-6.7157 -15,-15 0,-8.28427 6.7157288,-15 15,-15 8.284272,0 15,6.71573 15,15 z" />
    <path
       style="opacity:1;color:#000000;fill:#ffffff;fill-opacity:1;fill-rule:evenodd;stroke:none;stroke-width:10;marker:none;visibility:visible;display:inline;overflow:visible;enable-background:accumulate"
       d="m 17,1004.3622 c 0,0.5523 -0.447715,1 -1,1 -0.552284,0 -1,-0.4477 -1,-1 0,-0.5523 0.447716,-1 1,-1 0.552285,0 1,0.4477 1,1 z"
       id="path3613" />
    <path
       id="path3623"
       style="color:#000000;fill:#ffffff;fill-opacity:1;fill-rule:evenodd;stroke:none;stroke-width:10;marker:none;visibility:visible;display:inline;overflow:visible;enable-background:accumulate"
       d="m 29,1004.3622 c 0,7.1797 -5.820299,13 -13,13 -7.1797012,0 -12.9999993,-5.8203 -12.9999993,-13 0,-7.1797 5.8202981,-12.99999 12.9999993,-12.99999 7.179701,0 13,5.82029 13,12.99999 z m 1,0 c 0,7.732 -6.268014,14 -14,14 -7.731986,0 -13.9999993,-6.268 -13.9999993,-14 0,-7.73198 6.2680133,-13.99999 13.9999993,-13.99999 7.731986,0 14,6.26801 14,13.99999 z" />
  </g>
</svg>
