<?xml version="1.0" encoding="UTF-8" standalone="no"?>
<!-- Created with Inkscape (http://www.inkscape.org/) -->

<svg
   xmlns:dc="http://purl.org/dc/elements/1.1/"
   xmlns:cc="http://creativecommons.org/ns#"
   xmlns:rdf="http://www.w3.org/1999/02/22-rdf-syntax-ns#"
   xmlns:svg="http://www.w3.org/2000/svg"
   xmlns="http://www.w3.org/2000/svg"
   xmlns:xlink="http://www.w3.org/1999/xlink"
   xmlns:sodipodi="http://sodipodi.sourceforge.net/DTD/sodipodi-0.dtd"
   xmlns:inkscape="http://www.inkscape.org/namespaces/inkscape"
   width="256"
   height="256"
   id="svg2"
   sodipodi:version="0.32"
   inkscape:version="0.48+devel r"
   version="1.0"
   sodipodi:docname="Icons.svg"
   inkscape:output_extension="org.inkscape.output.svg.inkscape"
   inkscape:export-filename="/home/alex/Documents/projects/cargo/Game/Textures/Icons.png"
   inkscape:export-xdpi="90"
   inkscape:export-ydpi="90">
  <defs
     id="defs4">
    <linearGradient
       inkscape:collect="always"
       id="linearGradient2410">
      <stop
         style="stop-color:#e7e7fd;stop-opacity:1"
         offset="0"
         id="stop2412" />
      <stop
         style="stop-color:#a5a4f2;stop-opacity:1"
         offset="1"
         id="stop2414" />
    </linearGradient>
    <linearGradient
       id="linearGradient3352">
      <stop
         style="stop-color:#c6c6a8;stop-opacity:1;"
         offset="0"
         id="stop3354" />
      <stop
         style="stop-color:#efefdb;stop-opacity:1;"
         offset="1"
         id="stop3356" />
    </linearGradient>
    <linearGradient
       id="linearGradient3275">
      <stop
         style="stop-color:#b19b88;stop-opacity:1;"
         offset="0"
         id="stop3277" />
      <stop
         style="stop-color:#272727;stop-opacity:1;"
         offset="1"
         id="stop3279" />
    </linearGradient>
    <linearGradient
       id="linearGradient3236">
      <stop
         id="stop3238"
         offset="0"
         style="stop-color:#9c9c9c;stop-opacity:1;" />
      <stop
         id="stop3240"
         offset="1"
         style="stop-color:#272727;stop-opacity:1;" />
    </linearGradient>
    <linearGradient
       id="linearGradient3168">
      <stop
         style="stop-color:#ff3838;stop-opacity:1;"
         offset="0"
         id="stop3170" />
      <stop
         style="stop-color:#4f0000;stop-opacity:1;"
         offset="1"
         id="stop3172" />
    </linearGradient>
    <inkscape:perspective
       sodipodi:type="inkscape:persp3d"
       inkscape:vp_x="0 : 526.18109 : 1"
       inkscape:vp_y="0 : 1000 : 0"
       inkscape:vp_z="744.09448 : 526.18109 : 1"
       inkscape:persp3d-origin="372.04724 : 350.78739 : 1"
       id="perspective10" />
    <filter
       inkscape:collect="always"
       id="filter3509">
      <feGaussianBlur
         inkscape:collect="always"
         stdDeviation="1.1221069"
         id="feGaussianBlur3511" />
    </filter>
    <linearGradient
       id="linearGradient3168-9">
      <stop
         style="stop-color:#ff3838;stop-opacity:1;"
         offset="0"
         id="stop3170-2" />
      <stop
         style="stop-color:#4f0000;stop-opacity:1;"
         offset="1"
         id="stop3172-8" />
    </linearGradient>
    <radialGradient
       r="12.406952"
       fy="15.552014"
       fx="153.71538"
       cy="15.552014"
       cx="153.71538"
       gradientTransform="matrix(-0.5407116,1.7088214,-1.2144005,-0.3842653,111.74896,-251.76251)"
       gradientUnits="userSpaceOnUse"
       id="radialGradient3085"
       xlink:href="#linearGradient3168-9"
       inkscape:collect="always" />
    <radialGradient
       inkscape:collect="always"
       xlink:href="#linearGradient3168-9"
       id="radialGradient4191"
       gradientUnits="userSpaceOnUse"
       gradientTransform="matrix(-0.5407116,1.7088214,-1.2144005,-0.3842653,254.29596,-242.81738)"
       cx="141.17125"
       cy="-16.109068"
       fx="141.17125"
       fy="-16.109068"
       r="12.406952" />
    <radialGradient
       inkscape:collect="always"
       xlink:href="#linearGradient3168-9"
       id="radialGradient4779"
       gradientUnits="userSpaceOnUse"
       gradientTransform="matrix(1.7243632,0.03676079,-0.03573322,1.5996931,-146.76064,-16.766448)"
       cx="203.37985"
       cy="15.607948"
       fx="203.37985"
       fy="15.607948"
       r="7.8125" />
    <radialGradient
       inkscape:collect="always"
       xlink:href="#linearGradient3168"
       id="radialGradient5058"
       gradientUnits="userSpaceOnUse"
       gradientTransform="matrix(1.8136899,1.0672775,-0.9837193,1.6716945,-3.4042688,-19.839935)"
       cx="17.925615"
       cy="10.396513"
       fx="17.925615"
       fy="10.396513"
       r="15.471979" />
    <radialGradient
       inkscape:collect="always"
       xlink:href="#linearGradient3275"
       id="radialGradient5060"
       gradientUnits="userSpaceOnUse"
       gradientTransform="matrix(-0.7006716,1.45911,-0.7661931,-0.3679296,196.40936,-135.9938)"
       cx="108.63544"
       cy="18.246964"
       fx="108.63544"
       fy="18.246964"
       r="12.072172" />
    <radialGradient
       inkscape:collect="always"
       xlink:href="#linearGradient3168"
       id="radialGradient5062"
       gradientUnits="userSpaceOnUse"
       gradientTransform="matrix(3.0986916,1.4171409,-1.65165,3.6114658,-204.83095,-237.24252)"
       cx="117.8425"
       cy="26.650497"
       fx="117.8425"
       fy="26.650497"
       r="4.8583131" />
    <radialGradient
       inkscape:collect="always"
       xlink:href="#linearGradient3236"
       id="radialGradient5064"
       gradientUnits="userSpaceOnUse"
       gradientTransform="matrix(0.5726484,1.3829321,-2.0011787,0.8288419,59.42983,-85.427093)"
       cx="63.267872"
       cy="17.351149"
       fx="63.267872"
       fy="17.351149"
       r="12.796875" />
    <radialGradient
       inkscape:collect="always"
       xlink:href="#linearGradient3168"
       id="radialGradient5066"
       gradientUnits="userSpaceOnUse"
       gradientTransform="matrix(-0.5407116,1.7088214,-1.2144005,-0.3842653,254.29596,-242.81738)"
       cx="153.71538"
       cy="15.552014"
       fx="153.71538"
       fy="15.552014"
       r="12.406952" />
    <radialGradient
       inkscape:collect="always"
       xlink:href="#linearGradient3168-9"
       id="radialGradient5090"
       gradientUnits="userSpaceOnUse"
       gradientTransform="matrix(-0.5407116,1.7088214,-1.2144005,-0.3842653,254.29596,-242.81738)"
       cx="141.17125"
       cy="-16.109068"
       fx="141.17125"
       fy="-16.109068"
       r="12.406952" />
    <radialGradient
       inkscape:collect="always"
       xlink:href="#linearGradient3168-9"
       id="radialGradient5092"
       gradientUnits="userSpaceOnUse"
       gradientTransform="matrix(1.7243632,0.03676079,-0.03573322,1.5996931,-146.76064,-16.766448)"
       cx="203.37985"
       cy="15.607948"
       fx="203.37985"
       fy="15.607948"
       r="7.8125" />
    <linearGradient
       inkscape:collect="always"
       xlink:href="#linearGradient3352"
       id="linearGradient5094"
       gradientUnits="userSpaceOnUse"
       gradientTransform="matrix(0.9742486,0,0,0.9624677,0.7648714,2.3418542)"
       x1="28"
       y1="74"
       x2="28"
       y2="49" />
    <linearGradient
       inkscape:collect="always"
       xlink:href="#linearGradient3449"
       id="linearGradient4158"
       gradientUnits="userSpaceOnUse"
       x1="23.939585"
       y1="251.59531"
       x2="23.939585"
       y2="207.24835" />
    <linearGradient
       id="linearGradient3449">
      <stop
         style="stop-color:#c5c5c5;stop-opacity:1;"
         offset="0"
         id="stop52838" />
      <stop
         style="stop-color:#ffffff;stop-opacity:1;"
         offset="1"
         id="stop3453" />
    </linearGradient>
    <linearGradient
       inkscape:collect="always"
       xlink:href="#linearGradient3449-5"
       id="linearGradient4156"
       gradientUnits="userSpaceOnUse"
       x1="23.939585"
       y1="251.59531"
       x2="23.939585"
       y2="207.24835" />
    <linearGradient
       id="linearGradient3449-5">
      <stop
         style="stop-color:#c5c5c5;stop-opacity:1;"
         offset="0"
         id="stop52838-1" />
      <stop
         style="stop-color:#ffffff;stop-opacity:1;"
         offset="1"
         id="stop3453-0" />
    </linearGradient>
    <filter
       style="color-interpolation-filters:sRGB"
       x="-0.30000001"
       y="-0.5"
       height="2"
       width="1.6"
       inkscape:menu-tooltip="Low turbulence gives sponge look and high turbulence chalk"
       inkscape:menu="Distort"
       inkscape:label="rough ink"
       id="filter1953">
      <feTurbulence
         result="result1"
         numOctaves="6"
         seed="0"
         type="fractalNoise"
         baseFrequency="0.049881235154394299"
         id="feTurbulence1955" />
      <feDisplacementMap
         result="result3"
         in="SourceGraphic"
         scale="2.4"
         yChannelSelector="G"
         xChannelSelector="R"
         in2="result1"
         id="feDisplacementMap1957" />
      <feColorMatrix
         in="result1"
         result="result4"
         type="saturate"
         id="feColorMatrix1959" />
      <feComposite
         k4="0"
         k3="0.37527594"
         k2="-1.06"
         k1="4.52"
         operator="arithmetic"
         id="feComposite1961"
         in2="result4" />
      <feComposite
         result="result6"
         in2="result3"
         operator="in"
         id="feComposite1963" />
      <feBlend
         result="result5"
         in2="result3"
         id="feBlend1965"
         mode="screen" />
      <feColorMatrix
         values="1 0 0 0 0 0 1 0 0 0 0 0 1 0 0 -0.33 -0.33 -0.33 1 0 "
         type="matrix"
         id="feColorMatrix1967" />
    </filter>
    <radialGradient
       inkscape:collect="always"
       xlink:href="#linearGradient2410"
       id="radialGradient3671"
       gradientUnits="userSpaceOnUse"
       gradientTransform="matrix(0.98203059,-0.18872181,0.2305783,1.1998345,-49.979615,-36.032933)"
       cx="42.060661"
       cy="220.03554"
       fx="33.060661"
       fy="205.03554"
       r="23" />
  </defs>
  <sodipodi:namedview
     id="base"
     pagecolor="#ffffff"
     bordercolor="#666666"
     borderopacity="1.0"
     gridtolerance="10000"
     guidetolerance="10"
     objecttolerance="10"
     inkscape:pageopacity="0.0"
     inkscape:pageshadow="2"
     inkscape:zoom="1"
     inkscape:cx="23.725693"
     inkscape:cy="56.624388"
     inkscape:document-units="px"
     inkscape:current-layer="g3432"
     showgrid="false"
     inkscape:snap-global="true"
     inkscape:window-width="1855"
     inkscape:window-height="1056"
     inkscape:window-x="65"
     inkscape:window-y="24"
     showguides="true"
     inkscape:guide-bbox="true"
     inkscape:window-maximized="1">
    <inkscape:grid
       type="xygrid"
       id="grid3176"
       visible="true"
       enabled="true" />
  </sodipodi:namedview>
  <metadata
     id="metadata7">
    <rdf:RDF>
      <cc:Work
         rdf:about="">
        <dc:format>image/svg+xml</dc:format>
        <dc:type
           rdf:resource="http://purl.org/dc/dcmitype/StillImage" />
        <dc:title />
      </cc:Work>
    </rdf:RDF>
  </metadata>
  <g
     inkscape:groupmode="layer"
     id="layer2"
     inkscape:label="Stencil"
     style="display:none">
    <rect
       style="fill:#9c9c9c;fill-opacity:1;fill-rule:nonzero;stroke:none;stroke-width:1;marker:none;visibility:visible;display:inline;overflow:visible;enable-background:accumulate"
       id="rect3179"
       width="70"
       height="90"
       x="5"
       y="6" />
    <rect
       y="5.999999"
       x="80"
       height="90"
       width="60"
       id="rect3214"
       style="fill:#9c9c9c;fill-opacity:1;fill-rule:nonzero;stroke:none;stroke-width:1;marker:none;visibility:visible;display:inline;overflow:visible;enable-background:accumulate" />
    <rect
       style="fill:#9c9c9c;fill-opacity:1;fill-rule:nonzero;stroke:none;stroke-width:1;marker:none;visibility:visible;display:inline;overflow:visible;enable-background:accumulate"
       id="rect3216"
       width="60"
       height="90"
       x="145"
       y="5.999999" />
    <rect
       y="101"
       x="5"
       height="90"
       width="60"
       id="rect3218"
       style="fill:#9c9c9c;fill-opacity:1;fill-rule:nonzero;stroke:none;stroke-width:1;marker:none;visibility:visible;display:inline;overflow:visible;enable-background:accumulate" />
    <rect
       y="101"
       x="130"
       height="90"
       width="90"
       id="rect3330"
       style="fill:#9c9c9c;fill-opacity:1;fill-rule:nonzero;stroke:none;stroke-width:1;marker:none;visibility:visible;display:inline;overflow:visible;enable-background:accumulate" />
    <rect
       style="fill:#9c9c9c;fill-opacity:1;fill-rule:nonzero;stroke:none;stroke-width:1;marker:none;visibility:visible;display:inline;overflow:visible;enable-background:accumulate"
       id="rect3049"
       width="55"
       height="90"
       x="70"
       y="101" />
  </g>
  <g
     inkscape:groupmode="layer"
     id="layer3"
     inkscape:label="Effects"
     style="display:inline"
     sodipodi:insensitive="true">
    <use
       x="0"
       y="0"
       xlink:href="#g3432"
       id="use3470"
       width="1"
       height="1"
       style="fill:#ffffff;fill-opacity:1;filter:url(#filter3509)" />
  </g>
  <g
     inkscape:label="Layer 1"
     inkscape:groupmode="layer"
     id="layer1"
     style="display:inline">
    <g
       id="g3432"
       transform="matrix(2,0,0,2,-5,-6)">
      <g
         id="g3390"
         transform="translate(-1.0492325,1.9146169)">
        <path
           style="fill:url(#radialGradient5058);fill-opacity:1;fill-rule:evenodd;stroke:#ffffff;stroke-width:1;stroke-linecap:butt;stroke-linejoin:round;stroke-opacity:1;stroke-miterlimit:4;stroke-dasharray:none"
           d="M 21.723425,32.212907 C 16.832891,34.286673 11.377856,31.248376 9.489628,26.534599 6.8991037,20.067608 10.928767,12.946806 17.179805,10.560485 c 8.323267,-3.1773898 17.396282,2.024464 20.350681,10.089921 1.30319,3.557685 1.441175,7.485052 0.486583,11.144989 -6.322293,6.844879 -10.947619,-3.063855 -16.293644,0.417512 z"
           id="path2388"
           sodipodi:nodetypes="cssscc"
           inkscape:connector-curvature="0" />
        <path
           style="fill:none;stroke:#ffffff;stroke-width:1;stroke-linecap:round;stroke-linejoin:miter;stroke-opacity:1;stroke-miterlimit:4;stroke-dasharray:none"
           d="m 20,24 c 0.244142,-0.250832 0.650061,-0.08269 0.831811,0.154515 0.421332,0.549899 0.06974,1.313844 -0.45425,1.644737 -1.013132,0.639781 -2.297991,0.0077 -2.827416,-0.9561 -0.910432,-1.657453 0.115867,-3.650347 1.696914,-4.431258 2.504865,-1.237205 5.415136,0.312304 6.504033,2.710342 1.6238,3.576039 -0.591964,7.633806 -4.027667,9.090671"
           id="path2383"
           sodipodi:nodetypes="csssssc"
           inkscape:connector-curvature="0" />
        <path
           transform="matrix(0.9448977,-0.3273657,0.3273657,0.9448977,-5.6921479,4.0314791)"
           style="fill:#ffffff;fill-opacity:0.71945705;fill-rule:nonzero;stroke:none;stroke-width:1;marker:none;visibility:visible;display:inline;overflow:visible;enable-background:accumulate"
           d="m 25.043352,19.029701 c 0,1.104 -2.731005,-0.403113 -6.043005,-0.403113 -3.312,0 -5.956995,1.507113 -5.956995,0.403113 0,-1.104 2.718528,-3.560942 6.030528,-3.560942 3.312,0 5.969472,2.456942 5.969472,3.560942 z"
           id="path3187"
           sodipodi:nodetypes="csssc"
           inkscape:connector-curvature="0" />
      </g>
      <g
         id="g3404"
         transform="translate(-21.101283,1.9116933)">
        <path
           sodipodi:type="arc"
           style="fill:url(#radialGradient5060);fill-opacity:1;fill-rule:nonzero;stroke:#ffffff;stroke-width:1;stroke-linecap:round;stroke-linejoin:round;stroke-miterlimit:4;stroke-opacity:1;stroke-dasharray:none;stroke-dashoffset:0;marker:none;visibility:visible;display:inline;overflow:visible;enable-background:accumulate"
           id="path3248"
           sodipodi:cx="112.33922"
           sodipodi:cy="23.484377"
           sodipodi:rx="12.072172"
           sodipodi:ry="12.072172"
           d="m 124.41139,23.484377 c 0,6.667276 -5.4049,12.072172 -12.07217,12.072172 -6.66728,0 -12.07217,-5.404896 -12.07217,-12.072172 0,-6.667277 5.40489,-12.072172 12.07217,-12.072172 C 119.00649,11.412205 124.41139,16.8171 124.41139,23.484377 Z"
           transform="translate(-1.7560262,-1.8152322)" />
        <path
           style="fill:url(#radialGradient5062);fill-opacity:1;fill-rule:nonzero;stroke:#ffffff;stroke-width:1;stroke-linecap:round;stroke-linejoin:round;stroke-miterlimit:4;stroke-opacity:1;stroke-dasharray:none;stroke-dashoffset:0;marker:none;visibility:visible;display:inline;overflow:visible;enable-background:accumulate"
           d="m 114.46272,13.309768 c -3.54364,0 -6.40625,3.797721 -6.40625,8.46875 0,4.671029 2.86261,8.468749 6.40625,8.46875 3.54364,0 6.4375,-3.797722 6.4375,-8.46875 0,-4.671029 -2.89386,-8.46875 -6.4375,-8.46875 z m 1.40625,6.1875 c 0.80518,0 1.46875,1.106462 1.46875,2.46875 0,1.362287 -0.66357,2.46875 -1.46875,2.46875 -0.80518,0 -1.46875,-1.106462 -1.46875,-2.46875 0,-1.362289 0.66357,-2.46875 1.46875,-2.46875 z"
           id="path3250"
           inkscape:connector-curvature="0" />
        <path
           sodipodi:type="arc"
           style="fill:#ffffff;fill-opacity:0.71945705;fill-rule:nonzero;stroke:none;stroke-width:1;marker:none;visibility:visible;display:inline;overflow:visible;enable-background:accumulate"
           id="path3262"
           sodipodi:cx="114.65478"
           sodipodi:cy="19.747244"
           sodipodi:rx="2.1153421"
           sodipodi:ry="1.5377953"
           d="m 116.77012,19.747244 c 0,0.849301 -0.94707,1.537795 -2.11534,1.537795 -1.16827,0 -2.11534,-0.688494 -2.11534,-1.537795 0,-0.849301 0.94707,-1.537795 2.11534,-1.537795 C 115.82305,18.209449 116.77012,18.897943 116.77012,19.747244 Z"
           transform="matrix(0.6144794,-0.5920037,0.6152111,0.5389105,30.173056,74.67001)" />
      </g>
      <g
         id="g3395"
         transform="translate(-8.5711489,1.9701549)">
        <path
           style="fill:url(#radialGradient5064);fill-opacity:1;fill-rule:nonzero;stroke:#ffffff;stroke-width:1;stroke-linecap:round;stroke-linejoin:round;stroke-miterlimit:4;stroke-opacity:1;stroke-dasharray:none;stroke-dashoffset:0;marker:none;visibility:visible;display:inline;overflow:visible;enable-background:accumulate"
           d="M 67.53326,9.6875004 55.997395,13.430048 53.493268,25.276759 62.49687,33.380923 74.004599,29.638375 76.536862,17.791664 67.53326,9.6875004 z m -0.872224,7.0630036 c 2.159583,1e-6 3.91094,2.017036 3.91094,4.502313 3e-6,2.485278 -1.751355,4.502313 -3.91094,4.502313 -2.159587,10e-7 -3.910939,-2.017036 -3.910939,-4.502313 -10e-7,-2.485276 1.751354,-4.502313 3.910939,-4.502313 z"
           id="path3220"
           inkscape:connector-curvature="0" />
        <rect
           style="fill:#ffffff;fill-opacity:0.71945705;fill-rule:nonzero;stroke:none;stroke-width:1;marker:none;visibility:visible;display:inline;overflow:visible;enable-background:accumulate"
           id="rect3244"
           width="9.0799618"
           height="1.5522144"
           x="51.361328"
           y="32.955048"
           transform="matrix(0.9418143,-0.3361335,0.3360657,0.9418385,0,0)" />
        <rect
           transform="matrix(0.2071927,-0.9783002,0.9604439,0.2784735,0,0)"
           y="61.145542"
           x="-7.8804173"
           height="1.5295032"
           width="11.09208"
           id="rect3246"
           style="fill:#ffffff;fill-opacity:0.71945705;fill-rule:nonzero;stroke:none;stroke-width:1;marker:none;visibility:visible;display:inline;overflow:visible;enable-background:accumulate" />
        <path
           style="fill:#000000;fill-opacity:0.53393668;fill-rule:evenodd;stroke:none;display:inline"
           d="m 62.809852,32.757995 0.382314,-2.105699 10.021577,-2.658444 0.35025,1.279211 -10.754141,3.484932 z"
           id="path3285"
           sodipodi:nodetypes="ccccc"
           inkscape:connector-curvature="0" />
        <path
           style="fill:#000000;fill-opacity:0.18552037;fill-rule:evenodd;stroke:none;display:inline"
           d="m 57.494445,24.416796 5.776651,6.238132 -0.564839,2.13202 -8.514517,-7.477862 3.302705,-0.89229 z"
           id="path3287"
           inkscape:connector-curvature="0" />
        <path
           style="fill:#000000;fill-opacity:0.18552037;fill-rule:evenodd;stroke:none;display:inline"
           d="m 76.057672,18.020735 -0.525375,0.05791 -2.335819,9.973116 0.453845,0.965989 2.407349,-10.997012 z"
           id="path3289"
           inkscape:connector-curvature="0" />
        <path
           style="fill:#ffffff;fill-opacity:0.31674206;fill-rule:evenodd;stroke:none;display:inline"
           d="m 54.031413,25.211697 3.537028,-0.800166 2.444347,-10.073136 7.426771,-2.845325 0.0049,-1.129181 -10.936666,3.516517 -2.476413,11.331291 z"
           id="path3291"
           inkscape:connector-curvature="0" />
      </g>
      <g
         id="g3409"
         transform="translate(-135.7698,49.671848)">
        <path
           style="fill:url(#radialGradient5066);fill-opacity:1;fill-rule:evenodd;stroke:#ffffff;stroke-width:1;stroke-linecap:butt;stroke-linejoin:miter;stroke-opacity:1;display:inline;stroke-miterlimit:4;stroke-dasharray:none"
           d="m 154.9219,9.4451329 c -10.65006,0 -9.11673,13.2111821 -9.50391,18.2269791 -0.003,-3.58e-4 -0.14918,3.65e-4 -0.1499,0 -1.98958,-0.184477 -2.12659,1.364236 -2.21858,2.41754 -0.092,1.053304 2.31512,3.276403 11.99231,3.276403 9.6772,2e-6 11.7195,-1.518403 11.81244,-3.244593 0.0709,-1.318119 -0.41035,-2.981463 -2.21859,-2.672018 -0.0261,0.0045 -0.14362,-0.0043 -0.17987,0 -0.43914,-5.185251 1.11947,-18.0043111 -9.5339,-18.0043111 z"
           id="path3295"
           sodipodi:nodetypes="ccssssscz"
           inkscape:connector-curvature="0" />
        <path
           style="fill:#ffffff;fill-opacity:0.71945705;fill-rule:nonzero;stroke:none;stroke-width:1;marker:none;visibility:visible;display:inline;overflow:visible;enable-background:accumulate"
           d="m 159.6136,13.389272 c 0.57975,0.861364 0.74953,2.191334 0.34375,3.21875 -0.38202,0.967245 -1.15311,1.35829 -1.875,1.0625 0.0976,0.144806 0.19178,0.260652 0.3125,0.375 0.83878,0.794511 1.93208,0.481826 2.40625,-0.71875 0.47417,-1.200576 0.15129,-2.83049 -0.6875,-3.625 -0.16148,-0.152958 -0.32755,-0.24106 -0.5,-0.3125 z"
           id="path3310"
           inkscape:connector-curvature="0" />
        <path
           id="path3317"
           d="m 158.41548,20.736466 c 0.37506,1.086577 0.0531,2.292294 -0.86267,2.874347 -0.86211,0.547965 -1.97665,0.368263 -2.7549,-0.345045 0.0632,0.182723 0.13378,0.339436 0.23795,0.512156 0.72361,1.200067 2.20702,1.653955 3.27709,0.973801 1.07006,-0.680154 1.32206,-2.232498 0.59844,-3.432571 -0.13931,-0.231034 -0.3103,-0.411644 -0.49591,-0.582688 z"
           style="fill:#ffffff;fill-opacity:0.71945705;fill-rule:nonzero;stroke:none;stroke-width:1;marker:none;visibility:visible;display:inline;overflow:visible;enable-background:accumulate"
           inkscape:connector-curvature="0" />
        <path
           style="fill:#ffffff;fill-opacity:0.71945705;fill-rule:nonzero;stroke:none;stroke-width:1;marker:none;visibility:visible;display:inline;overflow:visible;enable-background:accumulate"
           d="m 149.30945,22.834647 c -0.63033,0.541475 -1.40204,0.413357 -1.849,-0.399308 -0.42078,-0.765072 -0.41956,-1.894004 -0.0578,-2.774865 -0.10599,0.09113 -0.19528,0.18556 -0.29112,0.315627 -0.66589,0.903548 -0.79932,2.439922 -0.27703,3.389545 0.52229,0.949613 1.49994,0.954034 2.16583,0.05047 0.12819,-0.173951 0.22233,-0.371247 0.30916,-0.581474 z"
           id="path3319"
           inkscape:connector-curvature="0" />
        <path
           style="fill:#ffffff;fill-opacity:0.71945705;fill-rule:nonzero;stroke:none;stroke-width:1;marker:none;visibility:visible;display:inline;overflow:visible;enable-background:accumulate"
           d="m 151.33993,12.723014 c -0.43152,0.426648 -0.76459,0.905205 -0.92616,1.408186 -0.1764,0.549235 -0.12437,1.028123 0.10521,1.389648 0.0411,-0.04336 0.0966,-0.08648 0.14409,-0.129002 0.76774,-0.687297 2.07285,-0.982381 2.92635,-0.665446 0.42674,0.158468 0.6828,0.445726 0.71091,0.775017 0.85043,-0.531707 1.55992,-1.292699 1.81883,-2.098763 0.4308,-1.341285 -0.5064,-2.247624 -2.07731,-2.048952 -0.98183,0.124168 -1.98273,0.658237 -2.70192,1.369312 z"
           id="path3321"
           inkscape:connector-curvature="0" />
        <path
           style="fill:#ffffff;fill-opacity:0.71945705;fill-rule:nonzero;stroke:none;stroke-width:1;marker:none;visibility:visible;display:inline;overflow:visible;enable-background:accumulate"
           d="m 154.24875,17.939187 c -0.20699,0.837583 -0.96311,1.479388 -1.87034,1.492979 -0.8541,0.01279 -1.57047,-0.53582 -1.81402,-1.292968 -0.0348,0.140882 -0.0528,0.268126 -0.0539,0.418625 -0.008,1.045611 0.85174,1.912428 1.91187,1.896542 1.06013,-0.01589 1.91768,-0.905543 1.92565,-1.95116 0.002,-0.201299 -0.0415,-0.382854 -0.0992,-0.564018 z"
           id="path3326"
           inkscape:connector-curvature="0" />
        <path
           id="path3328"
           d="m 148.86549,17.458516 c -0.47596,-0.322783 -0.75794,-1.114138 -0.64053,-1.942315 0.11055,-0.779676 0.54025,-1.343924 1.03012,-1.444229 -0.0801,-0.05423 -0.15422,-0.09108 -0.24474,-0.116247 -0.62884,-0.17496 -1.27009,0.468766 -1.40729,1.436521 -0.1372,0.967747 0.28006,1.891211 0.9089,2.066164 0.12106,0.03367 0.23641,0.02357 0.35354,1.06e-4 z"
           style="fill:#ffffff;fill-opacity:0.71945705;fill-rule:nonzero;stroke:none;stroke-width:1;marker:none;visibility:visible;display:inline;overflow:visible;enable-background:accumulate"
           inkscape:connector-curvature="0" />
      </g>
      <g
         id="g3418"
         transform="translate(61.3768,9.53724)">
        <rect
           style="fill:url(#linearGradient5094);fill-opacity:1;fill-rule:nonzero;stroke:#ffffff;stroke-width:0.49999994;stroke-linecap:round;stroke-linejoin:round;stroke-miterlimit:4;stroke-opacity:1;stroke-dasharray:none;stroke-dashoffset:0;marker:none;visibility:visible;display:inline;overflow:visible;enable-background:accumulate"
           id="rect3332"
           width="38.969944"
           height="24.061691"
           x="8.5588598"
           y="49.502769" />
        <rect
           style="fill:#3ec472;fill-opacity:1;fill-rule:nonzero;stroke:#ffffff;stroke-width:0.49999991;stroke-linecap:round;stroke-linejoin:round;stroke-miterlimit:4;stroke-opacity:1;stroke-dasharray:0.49999998, 0.99999997;stroke-dashoffset:0;marker:none;visibility:visible;display:inline;overflow:visible;enable-background:accumulate"
           id="rect3334"
           width="10.860909"
           height="8.0644093"
           x="33.610283"
           y="52.476768" />
        <path
           style="fill:#000000;fill-opacity:1;fill-rule:nonzero;stroke:none;display:inline"
           id="path3336"
           d="m 12.36714,62.105752 c 0.448008,-0.206405 0.825136,-0.530792 1.194647,-0.850969 0.402835,-0.380773 0.797425,-0.780732 1.097696,-1.250022 0.120631,-0.188533 0.19412,-0.347736 0.292237,-0.544839 0.02602,-0.06779 0.05672,-0.133955 0.07807,-0.203355 0.01532,-0.04981 0.02568,-0.101333 0.03157,-0.153109 0.02297,-0.201745 -0.118124,-0.06781 0.01129,0.05004 0.04415,0.0402 0.113949,0.03573 0.170923,0.05359 -0.300453,0.246208 -0.552459,0.576008 -0.68577,0.943595 -0.02511,0.06924 -0.03516,0.143041 -0.05274,0.214562 0.0053,0.04468 -7.49e-4,0.09224 0.01589,0.13404 0.0066,0.01647 0.02951,0.02523 0.04722,0.0245 0.01845,-7.66e-4 0.0301,-0.02238 0.04755,-0.02843 0.03322,-0.01152 0.06905,-0.01381 0.102785,-0.02371 0.100869,-0.02961 0.198515,-0.06928 0.298129,-0.102869 0.321096,-0.145733 0.644108,-0.448833 0.99417,-0.161589 0.05892,0.04835 0.06425,0.138241 0.09638,0.207362 0.07475,0.359664 0.0877,0.457137 0.46965,0.489393 0.574189,-0.02866 1.117222,-0.231443 1.679716,-0.327442 0.260795,-0.03298 0.449469,6.36e-4 0.661355,0.14738 0.138887,0.09619 0.137291,0.12398 0.306761,0.144948 0.748908,-0.03421 1.4793,-0.256747 2.203408,-0.437126 0.540487,-0.133337 1.087843,-0.242233 1.645362,-0.264436 0.300328,-0.01196 0.529905,2.95e-4 0.835627,0.0087 0.134376,0.01644 0.268751,0.03289 0.403126,0.04933 0.13507,0.06427 0.258609,0.163094 0.405209,0.192798 0.148033,0.02999 0.301818,-0.01264 0.452728,-0.01896 0.01998,-8.37e-4 0.02546,0.02691 0.0055,0.02775 l 0,0 c -0.151188,0.0064 -0.306234,-0.01541 -0.453566,0.01911 -1.355276,0.317574 0.290595,0.13436 -0.903786,0.236209 -0.744763,-0.01129 -1.487542,0.0054 -2.212189,0.204637 -0.709824,0.170103 -0.244923,0.05628 -0.960394,0.237545 -0.434391,0.110054 -0.871559,0.236535 -1.321841,0.26143 -0.09918,0.0055 -0.198495,-0.0084 -0.297742,-0.01253 -0.07684,-0.02347 -0.156602,-0.03892 -0.230523,-0.0704 -0.145533,-0.06197 -0.234466,-0.205681 -0.397931,-0.223201 -0.254219,0.02133 -0.261975,0.01568 -0.535613,0.06972 -0.476313,0.09408 -0.941676,0.268297 -1.435129,0.232918 -0.09495,-0.0199 -0.193707,-0.02647 -0.284858,-0.05969 -0.331885,-0.120934 -0.494946,-0.417059 -0.564538,-0.743283 0.185567,0.115574 0.292335,0.0176 0.209023,0.02237 -0.193246,0.01107 -0.363684,0.168141 -0.548411,0.206249 -0.272482,0.102373 -0.604756,0.236021 -0.898925,0.12131 -0.327646,-0.127764 -0.372475,-0.382321 -0.341654,-0.691045 0.02921,-0.09593 0.05037,-0.194693 0.08763,-0.287791 0.142723,-0.35657 0.4317,-0.808717 0.711237,-1.075028 0.06101,-0.05813 0.132665,-0.103953 0.198997,-0.15593 0.121495,-0.0056 0.249649,-0.05681 0.364487,-0.01675 0.373066,0.130136 0.04434,0.75277 -0.05939,0.934012 -0.431257,0.664596 -0.990361,1.239678 -1.549403,1.797203 -0.378071,0.347398 -0.763099,0.69741 -1.228756,0.92487 -0.188612,0.09213 -0.345853,-0.165219 -0.155203,-0.253055 z"
           inkscape:connector-curvature="0" />
        <path
           style="fill:#000000;fill-opacity:1;fill-rule:nonzero;stroke:none;display:inline"
           id="path3338"
           d="m 13.029135,64.175456 c 0.570954,-0.07595 1.106759,-0.31659 1.603728,-0.597502 0.274339,-0.148364 0.641273,-0.363464 0.908423,-0.06727 0.07291,0.08084 0.120353,0.27934 0.151295,0.38691 0.01738,0.0438 0.02895,0.09039 0.05213,0.131409 0.156755,0.277308 0.581959,0.252373 0.846198,0.260283 0.625223,-0.0094 1.242662,-0.15186 1.869127,-0.13391 0.103868,0.003 0.206683,0.02173 0.310025,0.03259 0.339253,0.04438 0.617439,0.246848 0.927137,0.370236 0.223438,0.08902 0.253785,0.08314 0.501768,0.134779 1.130573,0.145029 2.257573,-0.129797 3.344841,-0.412683 2.061855,-0.607997 -0.652921,0.198242 1.145721,-0.35235 0.140951,-0.04315 0.278234,-0.110041 0.425193,-0.121534 0.134917,-0.01055 0.267639,0.04059 0.401989,0.05684 0.100984,0.01222 0.202549,0.01903 0.303823,0.02855 0.01991,0.0019 0.02657,0.01593 0.0096,0.02659 l 0,0 c -0.07568,0.04764 -0.157495,0.0867 -0.227024,0.142932 -0.09249,0.07481 -0.153689,0.188286 -0.256497,0.248132 -0.127263,0.07408 -0.277244,0.09955 -0.417553,0.144239 -0.304931,0.09713 -0.885813,0.258667 -1.177753,0.34138 -1.229107,0.311414 -2.491565,0.650702 -3.769983,0.493216 -0.309337,-0.06996 -0.349005,-0.06338 -0.626405,-0.180093 -0.251747,-0.105916 -0.473871,-0.278927 -0.743776,-0.340577 -0.171227,-0.02508 -0.292294,-0.05008 -0.464467,-0.04846 -0.558522,0.0052 -1.108384,0.128066 -1.667528,0.124437 -0.12321,-0.0073 -0.247356,-0.0052 -0.369631,-0.02201 -0.499189,-0.06874 -0.850102,-0.301732 -0.988867,-0.796138 -0.008,-0.04068 -0.02392,-0.08058 -0.02399,-0.122046 -7e-5,-0.03814 0.07515,0.01936 0.113195,0.01671 0.01952,-0.0014 0.06996,-0.02943 0.0504,-0.03009 -0.08531,-0.0029 -0.346775,0.08078 -0.396394,0.09488 -0.385915,0.114425 -0.252935,0.06831 -0.651425,0.215771 -0.318289,0.11778 -0.638181,0.257152 -0.972042,0.326897 -0.09207,0.01923 -0.18633,0.02591 -0.279495,0.03886 -0.277953,0.03864 -0.209991,-0.353962 0.06819,-0.390965 z"
           inkscape:connector-curvature="0" />
        <path
           style="fill:#000000;fill-opacity:1;fill-rule:nonzero;stroke:none;display:inline"
           id="path3340"
           d="m 14.23956,67.155485 c 0.640757,-0.296565 1.376134,-0.292229 2.067395,-0.311374 0.49307,0.01364 0.975059,-0.0012 1.458822,0.120355 0.237119,0.05957 0.452194,0.190874 0.689165,0.251027 0.235725,0.05984 0.481132,0.0714 0.721699,0.107106 0.01978,0.0029 0.01246,0.0292 -0.0074,0.02729 l 0,0 c -0.243582,-0.02338 -0.486089,-0.07475 -0.730748,-0.07014 -0.25689,0.0048 -0.508185,0.08063 -0.764511,0.09832 -0.117108,0.0081 -1.083029,0.001 -1.263296,5.4e-5 -0.18751,0.0094 -0.375291,0.01438 -0.56253,0.02815 -0.479375,0.03524 -0.951351,0.128809 -1.430168,0.167644 -0.320591,0.026 -0.470277,-0.283337 -0.178382,-0.418436 z"
           inkscape:connector-curvature="0" />
        <path
           style="fill:#000000;fill-opacity:1;fill-rule:nonzero;stroke:none;display:inline"
           id="path3342"
           d="m 37.966714,68.71717 c -0.02183,-0.01572 -0.31632,0.278165 -0.168124,0.206002 0.249036,0.171547 0.50917,0.326741 0.769353,0.480929 0.05106,0.04221 0.109861,0.07652 0.153188,0.126639 0.231624,0.267944 0.171825,0.608238 -0.0297,0.871458 -0.04632,0.06051 -0.104743,0.110707 -0.157114,0.166061 -0.289126,0.225231 -0.701289,0.389201 -1.010301,0.08594 -0.171347,-0.168156 -0.170786,-0.318984 -0.216795,-0.535696 0.01904,-0.186072 0.0065,-0.392361 0.157979,-0.539837 0.07866,-0.07657 0.199474,-0.09319 0.292074,-0.15215 0.06437,-0.04099 0.117534,-0.09737 0.1763,-0.146058 0.0154,-0.01276 0.03441,0.0037 0.02121,0.01871 l 0,0 c -0.04628,0.05271 -0.126318,0.08912 -0.138833,0.158138 -0.01377,0.07596 0.05282,0.145483 0.07014,0.22071 0.02364,0.102661 0.0095,0.211791 0.04324,0.313071 0.01,0.03726 0.02037,0.07441 0.02999,0.111769 0.02513,0.09758 -0.07474,-0.0083 -0.120195,0.08416 -0.02827,0.0575 0.268181,-0.106877 0.17688,-0.07522 0.05122,-0.04146 0.09659,-0.08997 0.14902,-0.129883 0.08979,-0.06837 0.134391,0.01553 0.03142,-0.187174 -0.03497,-0.03915 -0.0655,-0.08277 -0.104921,-0.117435 -0.243365,-0.213996 -0.590019,-0.305996 -0.751001,-0.608525 -0.01403,-0.06455 -0.04192,-0.12759 -0.04209,-0.193645 -6.71e-4,-0.25546 0.239718,-0.422187 0.452028,-0.498779 0.268478,-0.09686 0.447889,0.507565 0.216249,0.34082 z"
           inkscape:connector-curvature="0" />
        <path
           style="fill:#000000;fill-opacity:1;fill-rule:nonzero;stroke:none;display:inline"
           id="path3344"
           d="m 40.675189,68.82299 c -0.13602,0.07241 -0.298779,0.221154 -0.173581,0.370324 0.1224,0.110738 0.303971,0.170142 0.469643,0.135428 0.03148,-0.0066 0.04465,-0.04639 0.0687,-0.06775 -0.285352,0.04786 -0.166822,0.269689 -0.09194,0.41177 0.0028,0.0054 0.0059,0.0143 0.01194,0.01371 0.105428,-0.01045 0.06954,-0.02153 0.03043,-0.0905 -0.03737,-0.02763 -0.07474,-0.05525 -0.112107,-0.08288 -0.01944,-0.01437 -0.02451,0.003 -0.02692,-0.02108 l 0,0 c -0.0062,-0.06189 -0.0124,-0.123772 -0.0186,-0.185658 0.03092,-0.04041 0.04705,-0.09887 0.09275,-0.121233 0.424599,-0.207767 0.827295,0.4307 0.304302,0.606821 -0.328872,0.01142 -0.693526,-0.06913 -0.95975,-0.276613 -0.05708,-0.04448 -0.101754,-0.102915 -0.152631,-0.154372 -0.02667,-0.06492 -0.06625,-0.125941 -0.08,-0.194766 -0.06278,-0.314193 0.181981,-0.547753 0.425568,-0.690597 0.2483,-0.145609 0.466274,0.212128 0.212192,0.347397 z"
           inkscape:connector-curvature="0" />
        <path
           style="fill:#000000;fill-opacity:1;fill-rule:nonzero;stroke:none;display:inline"
           id="path3346"
           d="m 43.129051,68.480632 c -0.19181,0.447515 -0.303441,0.921142 -0.34759,1.404751 -8.2e-5,0.1733 -0.05371,0.324125 -0.121417,0.479454 -0.0088,0.02016 -0.0088,0.02413 -0.02803,0.01347 l 0,0 c -0.06098,-0.03375 -0.134311,-0.05133 -0.182935,-0.101262 -0.12784,-0.131282 -0.110495,-0.267939 -0.127258,-0.43453 0.05966,-0.52033 0.187003,-1.025811 0.37209,-1.516234 0.115277,-0.305446 0.563759,-0.145728 0.435144,0.154346 z"
           inkscape:connector-curvature="0" />
        <path
           style="fill:#000000;fill-opacity:1;fill-rule:nonzero;stroke:none;display:inline"
           id="path3348"
           d="m 44.916069,68.324888 c 0.448076,-0.04258 0.897061,-0.0544 1.346562,-0.06743 0.08612,0.0078 0.175224,-2.65e-4 0.258364,0.02353 0.14975,0.04286 0.261229,0.187506 0.186313,0.363777 -0.03261,0.07674 -0.143351,0.08588 -0.209615,0.136491 -0.05618,0.04291 -0.104325,0.09541 -0.156488,0.143117 -0.01476,0.0135 -0.03364,-1.1e-5 -0.02276,-0.01679 l 0,0 c 0.159604,-0.246228 0.116819,-0.07924 0.06317,-0.276944 -0.0063,-0.02321 0.104337,0.203602 -0.03437,0.106703 -0.432609,0.0039 -0.863304,0.07236 -1.29211,0.126008 -0.390199,0.04881 -0.530545,-0.501255 -0.139068,-0.538457 z"
           inkscape:connector-curvature="0" />
        <path
           style="fill:#000000;fill-opacity:1;fill-rule:nonzero;stroke:none;display:inline"
           id="path3350"
           d="m 46.014344,69.381002 c -0.10697,0.195162 -0.172607,0.413257 -0.313347,0.589807 -0.06766,0.08488 -0.152544,0.154472 -0.228816,0.231709 -0.01405,0.01423 -0.02212,0.01319 -0.02763,-0.006 l 0,0 c -0.03111,-0.108384 -0.08086,-0.213084 -0.09332,-0.325153 -0.02759,-0.248167 0.08175,-0.486181 0.163719,-0.711655 0.131963,-0.36301 0.685046,-0.117387 0.499396,0.221322 z"
           inkscape:connector-curvature="0" />
        <rect
           style="opacity:0.50000000000000000;fill:none;stroke:#3147cd;stroke-width:1;stroke-linecap:butt;stroke-linejoin:round;stroke-miterlimit:4;stroke-opacity:1;stroke-dasharray:1,1;stroke-dashoffset:1.5;marker:none;visibility:visible;display:inline;overflow:visible;enable-background:accumulate"
           id="rect3360"
           width="36.958424"
           height="21.975637"
           x="9.5374565"
           y="50.561417" />
      </g>
      <g
         id="g4787"
         transform="matrix(1.1495925,0,0,1.1271123,-178.8122,43.821045)">
        <path
           sodipodi:nodetypes="csccscc"
           inkscape:connector-curvature="0"
           d="M 209.25,15.625 C 209.25,16.936676 205.1646,18 200.125,18 195.0854,18 191,16.936676 191,15.625 L 190.43695,2.5303797 c 0,-1.0581353 4.33748,-1.91592394 9.68805,-1.91592394 5.35057,0 9.68805,0.85778864 9.68805,1.91592394 z"
           style="color:#000000;fill:url(#radialGradient5090);fill-opacity:1;fill-rule:evenodd;stroke:#ffffff;stroke-width:0.81302445;stroke-linecap:butt;stroke-linejoin:miter;stroke-miterlimit:4;stroke-opacity:1;stroke-dasharray:none;stroke-dashoffset:0;marker:none;visibility:visible;display:inline;overflow:visible;enable-background:accumulate"
           transform="matrix(0.94188163,0,0,1.2396108,11.630938,12.488314)"
           id="path3065" />
        <path
           transform="matrix(1.016,0,0,1.04,-3.199,-0.68)"
           d="m 207.75,15.4375 c 0,0.862945 -3.49778,1.5625 -7.8125,1.5625 -4.31472,0 -7.8125,-0.699555 -7.8125,-1.5625 0,-0.862945 3.49778,-1.5625 7.8125,-1.5625 C 204.25222,13.875 207.75,14.574555 207.75,15.4375 Z"
           sodipodi:ry="1.5625"
           sodipodi:rx="7.8125"
           sodipodi:cy="15.4375"
           sodipodi:cx="199.9375"
           id="path4193"
           style="color:#000000;fill:url(#radialGradient5092);fill-opacity:1;fill-rule:evenodd;stroke:none;stroke-width:0.99999994px;marker:none;visibility:visible;display:inline;overflow:visible;enable-background:accumulate"
           sodipodi:type="arc" />
        <path
           style="color:#000000;fill:#ffffff;fill-opacity:0.71945705;fill-rule:nonzero;stroke:none;stroke-width:1;marker:none;visibility:visible;display:inline;overflow:visible;enable-background:accumulate"
           d="m 194.27759,15.230141 c 0,0 -0.53033,13.258252 0.70711,13.258252 1.23743,0 1.41421,-12.904699 1.41421,-12.904699 z"
           id="path4826"
           inkscape:connector-curvature="0"
           transform="matrix(0.86987346,0,0,0.88722304,26.150312,3.2640538)" />
      </g>
      <path
         sodipodi:type="arc"
         style="color:#000000;color-interpolation:sRGB;color-interpolation-filters:linearRGB;fill:url(#radialGradient3671);fill-opacity:1;fill-rule:nonzero;stroke:#000000;stroke-width:2;stroke-linecap:butt;stroke-linejoin:miter;stroke-miterlimit:4;stroke-opacity:1;stroke-dasharray:none;stroke-dashoffset:0;marker:none;visibility:visible;display:inline;overflow:visible;enable-background:accumulate;clip-rule:nonzero"
         id="path1018"
         sodipodi:cx="41"
         sodipodi:cy="216.5"
         sodipodi:rx="22"
         sodipodi:ry="22"
         d="m 63,216.5 a 22,22 0 1 1 -44,0 A 22,22 0 1 1 63,216.5 Z"
         transform="matrix(0.5,0,0,0.5,-1.6464466,-0.76776695)" />
      <path
         style="color:#000000;fill:#000000;fill-opacity:1;fill-rule:nonzero;stroke:none;stroke-width:0.5;marker:none;visibility:visible;display:inline;overflow:visible;filter:url(#filter1143);enable-background:accumulate"
         d="m 19.192378,100.37575 c -0.235465,0.0273 -0.46561,0.13143 -0.71875,0.3125 -0.569865,0.5192 -1.20815,0.9821 -1.78125,1.5 -0.76799,0.69402 0.709725,1.45507 1.40625,0.71875 0.0255,-0.0269 0.0522,-0.0516 0.07813,-0.0781 -0.09427,2.45586 -0.443385,4.91592 -0.359375,7.375 0.02035,0.59612 0.09144,1.1861 0.140625,1.78125 0.81719,2.10673 0.537525,1.07544 0.890625,3.0625 0.0114,0.064 0.12426,0.0646 0.125,0 0.0228,-1.97859 -0.13773,-0.96605 0.59375,-3.04688 0.41357,-3.07831 0.637815,-6.15549 1.046875,-9.23437 0.0296,-0.25433 0.274895,-1.67038 -0.0625,-1.89063 C 19.986858,100.50701 19.584818,100.33029 19.192378,100.37575 Z"
         id="path4480"
         sodipodi:nodetypes="ccsscscssccsc"
         inkscape:connector-curvature="0" />
      <use
         x="0"
         y="0"
         xlink:href="#path1018"
         id="use2478"
         transform="translate(30.146446,0.12132039)"
         width="256"
         height="256" />
      <path
         style="color:#000000;color-interpolation:sRGB;color-interpolation-filters:linearRGB;fill:#000000;fill-opacity:1;fill-rule:nonzero;stroke:none;stroke-width:0.5;marker:none;visibility:visible;display:inline;overflow:visible;filter:url(#filter1143);enable-background:accumulate;clip-rule:nonzero"
         d="m 49.958934,100.6983 c -1.20332,0.0413 -3.142285,0.44138 -4.828125,1.5625 -0.88919,0.50272 -0.0093,2.00866 0.796875,1.34375 1.012685,-0.83527 3.236515,-1.39561 4.265625,-1.375 1.13098,0.28205 1.45597,0.69139 1.625001,2 -0.0078,1.99321 -1.166576,3.46828 -2.328126,4.78125 -0.9679,0.96657 -2.030615,1.77453 -3.1875,2.39062 -0.514335,0.0517 -1.014605,0.13362 -1.515625,0.29688 -0.491515,0.32891 -0.9364,0.46906 -0.75,1.48437 0.214095,1.16621 1.490945,0.60465 2.03125,0.34375 0.004,-0.002 0.0116,0.002 0.0156,0 1.356185,-0.0699 2.714285,0.12059 4.0625,0.28125 0.807845,0.0846 2.068815,0.24792 2.875,0.1875 0.52347,-0.0393 1.038691,-0.23293 1.5625,-0.26562 0.457051,-0.0286 0.902386,0.0638 1.359375,0.0937 0.05648,0.003 0.08647,-0.0795 0.03125,-0.0937 -0.433865,-0.11207 -0.898305,-0.15666 -1.3125,-0.34375 -0.446635,-0.20175 -0.811305,-0.58853 -1.25,-0.8125 -0.916275,-0.4678 -1.797245,-0.63116 -2.765625,-0.875 -0.512525,-0.0812 -1.03969,-0.17038 -1.5625,-0.23438 0.51055,-0.43933 1.00707,-0.90705 1.46875,-1.42187 1.489595,-1.78015 2.680246,-3.46346 2.609375,-6.07813 -0.05241,-0.30088 -0.07511,-0.59844 -0.15625,-0.89062 -0.311009,-1.11984 -1.089579,-2.00139 -2.09375,-2.25 C 50.603044,100.7468 50.273164,100.73618 49.958909,100.6983 Z"
         id="path4482"
         sodipodi:nodetypes="ccscccccssccssssssccccssc"
         inkscape:connector-curvature="0" />
      <use
         height="256"
         width="256"
         transform="translate(60.025126,4.6567266e-8)"
         id="use3538"
         xlink:href="#path1018"
         y="0"
         x="0" />
      <g
         id="g2570"
         transform="matrix(0.51914883,0,0,0.52327138,-25.211519,-247.01916)"
         style="color:#000000;color-interpolation:sRGB;color-interpolation-filters:linearRGB;fill:#000000;fill-opacity:1;stroke:none;stroke-width:1.91862702;marker:none;visibility:visible;display:inline;overflow:visible;enable-background:accumulate;clip-rule:nonzero">
        <path
           style="color:#000000;color-interpolation:sRGB;color-interpolation-filters:linearRGB;fill:#000000;fill-opacity:1;stroke:none;stroke-width:1.91862702;marker:none;visibility:visible;display:inline;overflow:visible;enable-background:accumulate;clip-rule:nonzero"
           d="m 188.96477,668.94914 0,18 16,0 0,-4.5 9,4.5 0,-18 -9,4.5 L 204.96477,668.94914 Z"
           id="path2588"
           inkscape:connector-curvature="0"
           sodipodi:nodetypes="ccccccccc" />
      </g>
    </g>
  </g>
</svg>
