<?xml version="1.0" encoding="UTF-8" standalone="no"?>
<!-- Created with Inkscape (http://www.inkscape.org/) -->

<svg
   xmlns:dc="http://purl.org/dc/elements/1.1/"
   xmlns:cc="http://creativecommons.org/ns#"
   xmlns:rdf="http://www.w3.org/1999/02/22-rdf-syntax-ns#"
   xmlns:svg="http://www.w3.org/2000/svg"
   xmlns="http://www.w3.org/2000/svg"
   xmlns:xlink="http://www.w3.org/1999/xlink"
   xmlns:sodipodi="http://sodipodi.sourceforge.net/DTD/sodipodi-0.dtd"
   xmlns:inkscape="http://www.inkscape.org/namespaces/inkscape"
   width="512"
   height="512"
   id="svg2"
   version="1.1"
   inkscape:version="0.47pre4 r22446"
   sodipodi:docname="MirrorBall.svg"
   style="display:inline;enable-background:new"
   inkscape:export-filename="/home/alex/Projects/Cargo/Game/Textures/Reflection.png"
   inkscape:export-xdpi="90"
   inkscape:export-ydpi="90">
  <defs
     id="defs4">
    <linearGradient
       id="linearGradient4485">
      <stop
         style="stop-color:#e8e8e8;stop-opacity:0.15000001;"
         offset="0"
         id="stop4487" />
      <stop
         style="stop-color:#232632;stop-opacity:1;"
         offset="1"
         id="stop4489" />
    </linearGradient>
    <linearGradient
       id="linearGradient4344">
      <stop
         style="stop-color:#435f48;stop-opacity:1;"
         offset="0"
         id="stop4346" />
      <stop
         style="stop-color:#76825b;stop-opacity:0;"
         offset="1"
         id="stop4348" />
    </linearGradient>
    <linearGradient
       id="linearGradient4316">
      <stop
         style="stop-color:#cdb7a9;stop-opacity:1;"
         offset="0"
         id="stop4318" />
      <stop
         style="stop-color:#9e7c6a;stop-opacity:1;"
         offset="1"
         id="stop4320" />
    </linearGradient>
    <linearGradient
       id="linearGradient4253">
      <stop
         id="stop4267"
         offset="0"
         style="stop-color:#e9e9bb;stop-opacity:1;" />
      <stop
         id="stop4259"
         offset="1"
         style="stop-color:#d0cfba;stop-opacity:0;" />
    </linearGradient>
    <linearGradient
       id="linearGradient4223">
      <stop
         style="stop-color:#171f3f;stop-opacity:1;"
         offset="0"
         id="stop4225" />
      <stop
         style="stop-color:#777b95;stop-opacity:1;"
         offset="1"
         id="stop4227" />
    </linearGradient>
    <linearGradient
       id="linearGradient4200">
      <stop
         style="stop-color:#5a5c6a;stop-opacity:1;"
         offset="0"
         id="stop4202" />
      <stop
         style="stop-color:#beb0c2;stop-opacity:1;"
         offset="1"
         id="stop4204" />
    </linearGradient>
    <radialGradient
       inkscape:collect="always"
       xlink:href="#linearGradient4200"
       id="radialGradient4206"
       cx="256.07367"
       cy="449.85562"
       fx="256.07367"
       fy="449.85562"
       r="256.57367"
       gradientTransform="matrix(1.9375176,-4.414189e-8,4.012699e-8,1.7543507,-240.07358,-339.73164)"
       gradientUnits="userSpaceOnUse" />
    <radialGradient
       inkscape:collect="always"
       xlink:href="#linearGradient4223"
       id="radialGradient4229"
       cx="256"
       cy="170.46002"
       fx="256"
       fy="170.46002"
       r="127.33015"
       gradientTransform="matrix(1.2637882,2.9864503e-7,-8.4818876e-8,0.35893145,-67.529776,13.8685)"
       gradientUnits="userSpaceOnUse" />
    <radialGradient
       inkscape:collect="always"
       xlink:href="#linearGradient4253"
       id="radialGradient4247"
       cx="256"
       cy="45.641315"
       fx="256"
       fy="45.641315"
       r="89.662506"
       gradientTransform="matrix(-5.9502122,-3.1927597e-6,8.5654534e-7,-1.5963076,1779.2544,159.00332)"
       gradientUnits="userSpaceOnUse" />
    <radialGradient
       inkscape:collect="always"
       xlink:href="#linearGradient4316"
       id="radialGradient4322"
       cx="256"
       cy="254.5"
       fx="256"
       fy="254.5"
       r="293.82147"
       gradientTransform="matrix(1.6432477,0.00510514,-0.00290243,0.93423624,-163.93276,15.429962)"
       gradientUnits="userSpaceOnUse" />
    <filter
       inkscape:collect="always"
       id="filter4338"
       x="-0.070758827"
       width="1.1415176"
       y="-0.25104001"
       height="1.50208"
       color-interpolation-filters="sRGB">
      <feGaussianBlur
         inkscape:collect="always"
         stdDeviation="12.029"
         id="feGaussianBlur4340" />
    </filter>
    <radialGradient
       inkscape:collect="always"
       xlink:href="#linearGradient4344"
       id="radialGradient4350"
       cx="190.37595"
       cy="325.57901"
       fx="190.37595"
       fy="325.57901"
       r="48.065292"
       gradientTransform="matrix(2.353447,-4.8200715e-7,8.2858101e-7,4.0456277,-257.664,-964.27047)"
       gradientUnits="userSpaceOnUse" />
    <filter
       inkscape:collect="always"
       id="filter4401"
       x="-0.11573985"
       width="1.2314796"
       y="-0.48931009"
       height="1.9786202"
       color-interpolation-filters="sRGB">
      <feGaussianBlur
         inkscape:collect="always"
         stdDeviation="12.232752"
         id="feGaussianBlur4403" />
    </filter>
    <filter
       inkscape:collect="always"
       id="filter4415"
       color-interpolation-filters="sRGB">
      <feGaussianBlur
         inkscape:collect="always"
         stdDeviation="6.5434739"
         id="feGaussianBlur4417" />
    </filter>
    <filter
       inkscape:collect="always"
       id="filter4453"
       x="-0.17576283"
       width="1.3515257"
       y="-0.49344596"
       height="1.9868919"
       color-interpolation-filters="sRGB">
      <feGaussianBlur
         inkscape:collect="always"
         stdDeviation="33.102"
         id="feGaussianBlur4455" />
    </filter>
    <filter
       inkscape:collect="always"
       id="filter4467"
       x="-0.15319186"
       width="1.3063837"
       y="-0.16397472"
       height="1.3279494"
       color-interpolation-filters="sRGB">
      <feGaussianBlur
         inkscape:collect="always"
         stdDeviation="37.509218"
         id="feGaussianBlur4469" />
    </filter>
    <radialGradient
       inkscape:collect="always"
       xlink:href="#linearGradient4485"
       id="radialGradient4491"
       cx="255.07143"
       cy="74.015991"
       fx="255.07143"
       fy="74.015991"
       r="256.57367"
       gradientTransform="matrix(1.2214328e-8,1.6958803,-1.9300118,1.3845844e-8,397.92316,-358.19748)"
       gradientUnits="userSpaceOnUse" />
    <filter
       inkscape:collect="always"
       id="filter4505"
       color-interpolation-filters="sRGB">
      <feGaussianBlur
         inkscape:collect="always"
         stdDeviation="16.372544"
         id="feGaussianBlur4507" />
    </filter>
  </defs>
  <sodipodi:namedview
     id="base"
     pagecolor="#ffffff"
     bordercolor="#666666"
     borderopacity="1.0"
     inkscape:pageopacity="0.0"
     inkscape:pageshadow="2"
     inkscape:zoom="1"
     inkscape:cx="130.51539"
     inkscape:cy="214.02036"
     inkscape:document-units="px"
     inkscape:current-layer="layer4"
     showgrid="false"
     showguides="true"
     inkscape:guide-bbox="true"
     inkscape:window-width="1680"
     inkscape:window-height="976"
     inkscape:window-x="0"
     inkscape:window-y="25"
     inkscape:window-maximized="1"
     inkscape:snap-global="false">
    <sodipodi:guide
       orientation="0,1"
       position="-19,256"
       id="guide4208" />
    <sodipodi:guide
       orientation="1,0"
       position="256,305"
       id="guide4210" />
  </sodipodi:namedview>
  <metadata
     id="metadata7">
    <rdf:RDF>
      <cc:Work
         rdf:about="">
        <dc:format>image/svg+xml</dc:format>
        <dc:type
           rdf:resource="http://purl.org/dc/dcmitype/StillImage" />
        <dc:title></dc:title>
      </cc:Work>
    </rdf:RDF>
  </metadata>
  <g
     inkscape:label="Base"
     inkscape:groupmode="layer"
     id="layer1"
     transform="translate(0,-540.36218)"
     style="display:inline">
    <path
       sodipodi:type="arc"
       style="fill:url(#radialGradient4206);fill-opacity:1;fill-rule:evenodd;stroke:#000000;stroke-width:1px;stroke-linecap:butt;stroke-linejoin:miter;stroke-opacity:1"
       id="path4185"
       sodipodi:cx="256.07367"
       sodipodi:cy="255.42125"
       sodipodi:rx="256.07367"
       sodipodi:ry="255.56859"
       d="m 512.14734,255.42125 a 256.07367,255.56859 0 1 1 -512.14734,0 256.07367,255.56859 0 1 1 512.14734,0 z"
       transform="matrix(0.99776219,0,0,0.99973407,0.49937382,541.00886)" />
    <path
       id="path4313"
       style="opacity:0.79674796;fill:url(#radialGradient4322);fill-opacity:1;fill-rule:evenodd;stroke:none;display:inline"
       d="M 256,529 C 90,529 -1,472 -26,436 -51,400 -34,119 3,58 40,-3 173,-20 256,-20 c 83,0 216,17 253,78 37,61 54,342 29,378 -25,36 -116,93 -282,93 z m 0,-216 C 36,313 15.449068,173.74108 63,102 95.002461,53.717224 164.48142,3 256,3 c 91.51858,0 160.99754,50.717224 193,99 47.55093,71.74108 27,211 -193,211 z"
       sodipodi:nodetypes="csszsszcszsz"
       transform="translate(0,540.36218)" />
    <path
       transform="matrix(0.99776219,0,0,0.99973407,0.49937382,541.00886)"
       d="m 512.14734,255.42125 a 256.07367,255.56859 0 1 1 -512.14734,0 256.07367,255.56859 0 1 1 512.14734,0 z"
       sodipodi:ry="255.56859"
       sodipodi:rx="256.07367"
       sodipodi:cy="255.42125"
       sodipodi:cx="256.07367"
       id="path4475"
       style="opacity:0.45528451;fill:url(#radialGradient4491);fill-opacity:1;fill-rule:evenodd;stroke:#000000;stroke-width:1px;stroke-linecap:butt;stroke-linejoin:miter;stroke-opacity:1;filter:url(#filter4505)"
       sodipodi:type="arc" />
  </g>
  <g
     inkscape:groupmode="layer"
     id="layer3"
     inkscape:label="Details - Far"
     style="display:inline">
    <path
       id="path4236"
       style="fill:url(#radialGradient4247);fill-opacity:1;stroke:none"
       d="m 256,231.98571 c -39.21708,0 -48.46416,0.35356 -65.78828,1.76777 C 174.30182,195.92327 157.68481,119.55574 171.47339,75.008009 173.24116,63.340747 200.51946,49.552165 256,49.552165 c 55.48054,0 82.75884,13.788582 84.52661,25.455844 13.78858,44.547731 -2.82843,120.915261 -18.73833,158.745471 -17.32412,-1.41421 -26.5712,-1.76777 -65.78828,-1.76777 z"
       sodipodi:nodetypes="ccccccc" />
    <use
       x="0"
       y="0"
       xlink:href="#path4236"
       id="use4405"
       style="filter:url(#filter4415)"
       width="512"
       height="512" />
    <use
       x="0"
       y="0"
       xlink:href="#path4220"
       id="use4383"
       style="filter:url(#filter4401)"
       width="512"
       height="512" />
    <path
       id="path4220"
       style="fill:url(#radialGradient4229);fill-opacity:1;stroke:none"
       d="M 256,15 C 185,15 114,55.414214 132,70.414214 146.04044,67.818019 160.43443,69.110913 172,75 c 9.96878,-8.474874 33.72497,-18 84,-18 50.27503,0 74.03122,9.525126 84,18 11.56557,-5.889087 25.95956,-7.181981 40,-4.585786 C 398,55.414214 327,15 256,15 z"
       sodipodi:nodetypes="ccczccz" />
    <path
       id="path4327"
       style="fill:#5f4d43;fill-opacity:1;stroke:none;filter:url(#filter4338)"
       d="M 256,528 C 182,528 97.141016,493.91858 52,413 c 49,55 129,72 204,72 75,0 155,-17 204,-72 -45.14102,80.91858 -130,115 -204,115 z"
       sodipodi:nodetypes="cczcz" />
  </g>
  <g
     inkscape:groupmode="layer"
     id="layer4"
     inkscape:label="Details - Near"
     style="display:inline">
    <use
       x="0"
       y="0"
       xlink:href="#path4231"
       id="use4419"
       style="filter:url(#filter4453)"
       width="512"
       height="512" />
    <path
       id="path4231"
       style="fill:#ffffff;fill-opacity:1;stroke:none;display:inline"
       d="M 256,32 C 178.45003,32 132,71 132,71 91.666667,76.666667 51.333333,97.333333 30,130 L 53,35 c 0,0 131.8468,-66 203,-66 71.1532,0 203,66 203,66 l 23,95 C 460.66667,97.333333 420.33333,76.666667 380,71 380,71 333.54997,32 256,32 z"
       sodipodi:nodetypes="cccczcccz" />
    <path
       style="fill:url(#radialGradient4350);fill-opacity:1;stroke:none;display:inline"
       d="m 173.24116,396.03449 c 0,0 -27.57716,13.43503 -57.27565,21.92031 C 97.580736,392.49895 88.388348,337.34463 98.287843,294.21111 108.18734,251.0776 145.664,198.04459 173.94827,180.36692 c 7.19607,32.76955 16.42767,53.32222 16.42767,53.32222 -33.94112,67.88225 -25.62006,122.74737 -17.13478,162.34535 z"
       id="path4342"
       sodipodi:nodetypes="ccsccc" />
    <use
       style="display:inline"
       x="0"
       y="0"
       xlink:href="#path4342"
       id="use4352"
       transform="matrix(-1,0,0,1,512,0)"
       width="512"
       height="512" />
  </g>
</svg>
