<?xml version="1.0" encoding="UTF-8" standalone="no"?>
<!-- Created with Inkscape (http://www.inkscape.org/) -->

<svg
   xmlns:dc="http://purl.org/dc/elements/1.1/"
   xmlns:cc="http://creativecommons.org/ns#"
   xmlns:rdf="http://www.w3.org/1999/02/22-rdf-syntax-ns#"
   xmlns:svg="http://www.w3.org/2000/svg"
   xmlns="http://www.w3.org/2000/svg"
   xmlns:sodipodi="http://sodipodi.sourceforge.net/DTD/sodipodi-0.dtd"
   xmlns:inkscape="http://www.inkscape.org/namespaces/inkscape"
   width="128"
   height="128"
   id="svg2"
   version="1.1"
   inkscape:version="0.47pre4 r22446"
   sodipodi:docname="New document 1">
  <defs
     id="defs4">
    <linearGradient
       id="linearGradient3628">
      <stop
         style="stop-color:#f5f2ef;stop-opacity:1;"
         offset="0"
         id="stop3630" />
      <stop
         id="stop3636"
         offset="0.5"
         style="stop-color:#f1eceb;stop-opacity:1;" />
      <stop
         style="stop-color:#d5c7c7;stop-opacity:1;"
         offset="1"
         id="stop3632" />
    </linearGradient>
    <inkscape:perspective
       sodipodi:type="inkscape:persp3d"
       inkscape:vp_x="0 : 526.18109 : 1"
       inkscape:vp_y="0 : 1000 : 0"
       inkscape:vp_z="744.09448 : 526.18109 : 1"
       inkscape:persp3d-origin="372.04724 : 350.78739 : 1"
       id="perspective10" />
    <filter
       inkscape:collect="always"
       id="filter3664">
      <feGaussianBlur
         inkscape:collect="always"
         stdDeviation="0.93424969"
         id="feGaussianBlur3666" />
    </filter>
    <inkscape:perspective
       id="perspective3737"
       inkscape:persp3d-origin="0.5 : 0.33333333 : 1"
       inkscape:vp_z="1 : 0.5 : 1"
       inkscape:vp_y="0 : 1000 : 0"
       inkscape:vp_x="0 : 0.5 : 1"
       sodipodi:type="inkscape:persp3d" />
    <inkscape:perspective
       id="perspective3737-2"
       inkscape:persp3d-origin="0.5 : 0.33333333 : 1"
       inkscape:vp_z="1 : 0.5 : 1"
       inkscape:vp_y="0 : 1000 : 0"
       inkscape:vp_x="0 : 0.5 : 1"
       sodipodi:type="inkscape:persp3d" />
    <inkscape:perspective
       id="perspective3737-4"
       inkscape:persp3d-origin="0.5 : 0.33333333 : 1"
       inkscape:vp_z="1 : 0.5 : 1"
       inkscape:vp_y="0 : 1000 : 0"
       inkscape:vp_x="0 : 0.5 : 1"
       sodipodi:type="inkscape:persp3d" />
    <inkscape:perspective
       id="perspective3737-5"
       inkscape:persp3d-origin="0.5 : 0.33333333 : 1"
       inkscape:vp_z="1 : 0.5 : 1"
       inkscape:vp_y="0 : 1000 : 0"
       inkscape:vp_x="0 : 0.5 : 1"
       sodipodi:type="inkscape:persp3d" />
    <inkscape:perspective
       id="perspective3737-6"
       inkscape:persp3d-origin="0.5 : 0.33333333 : 1"
       inkscape:vp_z="1 : 0.5 : 1"
       inkscape:vp_y="0 : 1000 : 0"
       inkscape:vp_x="0 : 0.5 : 1"
       sodipodi:type="inkscape:persp3d" />
    <inkscape:perspective
       id="perspective3737-66"
       inkscape:persp3d-origin="0.5 : 0.33333333 : 1"
       inkscape:vp_z="1 : 0.5 : 1"
       inkscape:vp_y="0 : 1000 : 0"
       inkscape:vp_x="0 : 0.5 : 1"
       sodipodi:type="inkscape:persp3d" />
    <inkscape:perspective
       id="perspective3737-0"
       inkscape:persp3d-origin="0.5 : 0.33333333 : 1"
       inkscape:vp_z="1 : 0.5 : 1"
       inkscape:vp_y="0 : 1000 : 0"
       inkscape:vp_x="0 : 0.5 : 1"
       sodipodi:type="inkscape:persp3d" />
  </defs>
  <sodipodi:namedview
     id="base"
     pagecolor="#ffffff"
     bordercolor="#666666"
     borderopacity="1.0"
     inkscape:pageopacity="0.0"
     inkscape:pageshadow="2"
     inkscape:zoom="1"
     inkscape:cx="52.052219"
     inkscape:cy="57.454536"
     inkscape:document-units="px"
     inkscape:current-layer="layer1"
     showgrid="false"
     showguides="true"
     inkscape:guide-bbox="true"
     inkscape:window-width="1680"
     inkscape:window-height="976"
     inkscape:window-x="0"
     inkscape:window-y="25"
     inkscape:window-maximized="1">
    <inkscape:grid
       type="xygrid"
       id="grid2816"
       empspacing="5"
       visible="true"
       enabled="true"
       snapvisiblegridlinesonly="true" />
  </sodipodi:namedview>
  <metadata
     id="metadata7">
    <rdf:RDF>
      <cc:Work
         rdf:about="">
        <dc:format>image/svg+xml</dc:format>
        <dc:type
           rdf:resource="http://purl.org/dc/dcmitype/StillImage" />
        <dc:title></dc:title>
      </cc:Work>
    </rdf:RDF>
  </metadata>
  <g
     inkscape:label="Layer 1"
     inkscape:groupmode="layer"
     id="layer1"
     transform="translate(0,-924.36218)">
    <path
       sodipodi:nodetypes="ccssc"
       id="path3821"
       d="m 48.906758,999.98478 c -0.144399,-4.61644 5.983091,-6.34893 7.654192,-13.79694 -7.800476,-1.09859 -12.672349,2.48133 -14.270478,7.08645 -1.598129,4.60511 -0.07723,8.66361 2.983175,9.28051 4.654915,0.9384 3.593369,-2.64154 3.633111,-2.57002 z"
       style="fill:#ff6900;stroke:none;stroke-width:1px;stroke-linecap:butt;stroke-linejoin:miter;stroke-opacity:1;color:#000000;fill-opacity:1;fill-rule:nonzero;marker:none;visibility:visible;display:inline;overflow:visible;enable-background:accumulate" />
    <path
       id="path3810"
       style="fill:#ff6900;stroke:none;stroke-width:1px;stroke-linecap:butt;stroke-linejoin:miter;stroke-opacity:1;color:#000000;fill-opacity:1;fill-rule:nonzero;marker:none;visibility:visible;display:inline;overflow:visible;enable-background:accumulate"
       d="m 48.906758,999.98478 c 0.01655,0.98482 -0.103525,1.69672 -0.350658,2.34432 6.743956,-2.35774 13.077423,3.3827 22.431112,-0.035 -1.972689,-10.84831 -9.894025,-14.53833 -14.426262,-16.10626 -1.671101,7.44801 -7.798591,9.1805 -7.654192,13.79694 z"
       sodipodi:nodetypes="ccccc" />
    <path
       id="path3796"
       style="fill:#ff6900;stroke:none;stroke-width:1px;stroke-linecap:butt;stroke-linejoin:miter;stroke-opacity:1;color:#000000;fill-opacity:1;fill-rule:nonzero;marker:none;visibility:visible;display:inline;overflow:visible;enable-background:accumulate"
       d="m 70.987212,1002.2941 c 3.02316,9.4345 -4.645214,23.325 -16.080926,28.3012 -12.536,-14.9077 -5.006699,-20.1781 -10.273165,-28.0791 1.24809,0.6933 2.428636,0.8189 3.922979,-0.1871 6.743956,-2.35774 13.077423,3.3827 22.431112,-0.035 z"
       sodipodi:nodetypes="ccccc" />
    <path
       id="path3783"
       style="fill:#ff6900;stroke:none;stroke-width:1px;stroke-linecap:butt;stroke-linejoin:miter;stroke-opacity:1;color:#000000;fill-opacity:1;fill-rule:nonzero;marker:none;visibility:visible;display:inline;overflow:visible;enable-background:accumulate"
       d="m 54.906286,1030.5953 c -9.926918,5.7512 -25.468645,3.5628 -37.306654,-5.8462 8.141513,-20.5084 18.215111,-16.4064 24.003592,-26.81048 0.496252,1.84041 1.765534,3.70828 3.029897,4.57758 5.266466,7.901 -2.262835,13.1714 10.273165,28.0791 z"
       sodipodi:nodetypes="ccccc" />
    <path
       id="path3770"
       style="fill:#ff6900;stroke:none;stroke-width:1px;stroke-linecap:butt;stroke-linejoin:miter;stroke-opacity:1;color:#000000;fill-opacity:1;fill-rule:nonzero;marker:none;visibility:visible;display:inline;overflow:visible;enable-background:accumulate"
       d="M 17.599632,1024.7491 C 2.4379729,1012.9969 0.77897154,993.74223 3.0957642,983.32991 c 23.7414108,-3.64933 28.2033338,6.83234 40.9885558,6.384 -1.56501,1.96583 -2.779066,5.62535 -2.481096,8.22471 -5.788481,10.40408 -15.862079,6.30208 -24.003592,26.81048 z"
       sodipodi:nodetypes="ccccc" />
    <path
       id="path3757"
       style="fill:#ff6900;stroke:none;stroke-width:1px;stroke-linecap:butt;stroke-linejoin:miter;stroke-opacity:1;color:#000000;fill-opacity:1;fill-rule:nonzero;marker:none;visibility:visible;display:inline;overflow:visible;enable-background:accumulate"
       d="m 44.08432,989.71391 c 2.687386,-1.86896 4.411754,-3.97808 10.223853,-3.74739 C 43.973597,971.2252 52.176848,960.31875 36.326026,943.65787 22.014809,949.2767 5.9330838,965.13215 3.0957642,983.32991 c 23.7414108,-3.64933 28.2033338,6.83234 40.9885558,6.384 z"
       sodipodi:nodetypes="ccccc" />
    <path
       id="path3744"
       style="fill:#ff6900;stroke:none;stroke-width:1px;stroke-linecap:butt;stroke-linejoin:miter;stroke-opacity:1;color:#000000;fill-opacity:1;fill-rule:nonzero;marker:none;visibility:visible;display:inline;overflow:visible;enable-background:accumulate"
       d="m 54.308173,985.96652 c 4.482982,0.37731 9.189271,2.71584 13.248272,7.09724 4.705525,-16.48939 23.196194,-16.59123 23.433773,-44.60034 -20.905963,-11.61648 -39.701,-10.41134 -54.664192,-4.80555 15.850822,16.66088 7.647571,27.56733 17.982147,42.30865 z"
       sodipodi:nodetypes="ccccc" />
    <path
       id="path3726"
       style="fill:#ff6900;stroke:none;stroke-width:1px;stroke-linecap:butt;stroke-linejoin:miter;stroke-opacity:1;fill-opacity:1"
       d="m 90.990218,948.46342 c 12.147032,6.06215 30.087622,26.20359 33.728852,51.06034 -22.15355,13.74494 -37.290216,3.54084 -53.765632,12.38804 1.299656,-7.2748 0.389844,-12.00708 -3.396993,-18.84804 4.705525,-16.48939 23.196194,-16.59123 23.433773,-44.60034 z"
       sodipodi:nodetypes="ccccc" />
    <path
       sodipodi:type="spiral"
       style="fill:none;stroke:#000000;stroke-width:1.56368115000000008;stroke-linecap:round;stroke-linejoin:miter;stroke-opacity:1;stroke-miterlimit:4;stroke-dasharray:none"
       id="path3597"
       sodipodi:cx="65.294441"
       sodipodi:cy="62.505119"
       sodipodi:expansion="1.79"
       sodipodi:revolution="2"
       sodipodi:radius="59.620991"
       sodipodi:argument="-18.849556"
       sodipodi:t0="0"
       d="m 65.294441,62.505119 c 0.6775,0 0.175796,1.24135 0,1.441678 -1.507125,1.717443 -4.118222,0.08053 -4.985535,-1.441677 -2.343968,-4.11385 1.115388,-8.831775 4.985535,-10.30185 7.579461,-2.879057 15.2056,3.158239 17.240725,10.301849 C 85.917007,74.37592 76.57128,85.64042 65.294442,88.210523 48.33614,92.075488 32.750562,78.729674 29.669115,62.505121 25.33606,39.690556 43.34215,19.133334 65.294439,15.559659 94.710089,10.771002 120.8654,34.07261 124.91543,62.505116"
       transform="matrix(1.2786066,0,0,1.2794598,-34.802258,920.18918)" />
    <path
       style="fill:none;stroke:#000000;stroke-width:1px;stroke-linecap:butt;stroke-linejoin:miter;stroke-opacity:1"
       d="M 124.71907,75.161585 C 102.56552,88.906473 87.428854,78.702408 70.953438,87.549595"
       id="path3692"
       transform="translate(0,924.36218)"
       sodipodi:nodetypes="cc" />
    <path
       style="fill:none;stroke:#000000;stroke-width:1px;stroke-linecap:butt;stroke-linejoin:miter;stroke-opacity:1"
       d="M 90.990218,948.46342 C 90.752639,976.47253 72.26197,976.57437 67.556445,993.06376"
       id="path3694"
       sodipodi:nodetypes="cc" />
    <path
       style="fill:none;stroke:#000000;stroke-width:1px;stroke-linecap:butt;stroke-linejoin:miter;stroke-opacity:1"
       d="m 36.326026,943.65787 c 15.850822,16.66088 7.647571,27.56733 17.982147,42.30865"
       id="path3696"
       sodipodi:nodetypes="cc" />
    <path
       style="fill:none;stroke:#000000;stroke-width:1px;stroke-linecap:butt;stroke-linejoin:miter;stroke-opacity:1"
       d="m 3.0957642,983.32991 c 23.7414108,-3.64933 28.2033338,6.83234 40.9885558,6.384"
       id="path3698"
       sodipodi:nodetypes="cc" />
    <path
       style="fill:none;stroke:#000000;stroke-width:1px;stroke-linecap:butt;stroke-linejoin:miter;stroke-opacity:1"
       d="m 17.599632,1024.7491 c 8.141513,-20.5084 18.215111,-16.4064 24.003592,-26.81048"
       id="path3700"
       sodipodi:nodetypes="cc" />
    <path
       style="fill:none;stroke:#000000;stroke-width:1px;stroke-linecap:butt;stroke-linejoin:miter;stroke-opacity:1"
       d="m 54.906286,1030.5953 c -12.536,-14.9077 -5.006699,-20.1781 -10.273165,-28.0791"
       id="path3702"
       sodipodi:nodetypes="cc" />
    <path
       style="fill:none;stroke:#000000;stroke-width:1px;stroke-linecap:butt;stroke-linejoin:miter;stroke-opacity:1"
       d="m 48.5561,1002.3291 c 6.743956,-2.35774 13.077423,3.3827 22.431112,-0.035"
       id="path3704"
       sodipodi:nodetypes="cc" />
    <path
       style="fill:none;stroke:#000000;stroke-width:1px;stroke-linecap:butt;stroke-linejoin:miter;stroke-opacity:1"
       d="m 48.906758,999.98478 c -0.144399,-4.61644 5.983091,-6.34893 7.654192,-13.79694"
       id="path3706"
       sodipodi:nodetypes="cc" />
  </g>
</svg>
