<?xml version="1.0" encoding="UTF-8" standalone="no"?>
<!-- Created with Inkscape (http://www.inkscape.org/) -->
<svg
   xmlns:dc="http://purl.org/dc/elements/1.1/"
   xmlns:cc="http://creativecommons.org/ns#"
   xmlns:rdf="http://www.w3.org/1999/02/22-rdf-syntax-ns#"
   xmlns:svg="http://www.w3.org/2000/svg"
   xmlns="http://www.w3.org/2000/svg"
   xmlns:xlink="http://www.w3.org/1999/xlink"
   xmlns:sodipodi="http://sodipodi.sourceforge.net/DTD/sodipodi-0.dtd"
   xmlns:inkscape="http://www.inkscape.org/namespaces/inkscape"
   width="512"
   height="512"
   id="svg2"
   sodipodi:version="0.32"
   inkscape:version="0.46"
   version="1.0"
   sodipodi:docname="SkyToupe.svg"
   inkscape:output_extension="org.inkscape.output.svg.inkscape"
   style="display:inline"
   inkscape:export-filename="/home/alex/Projects/Cargo/TexSource/SkyToupe.png"
   inkscape:export-xdpi="180"
   inkscape:export-ydpi="180">
  <defs
     id="defs4">
    <linearGradient
       id="linearGradient3764">
      <stop
         style="stop-color:#15293e;stop-opacity:1;"
         offset="0"
         id="stop3766" />
      <stop
         style="stop-color:#0b141b;stop-opacity:0;"
         offset="1"
         id="stop3768" />
    </linearGradient>
    <inkscape:perspective
       sodipodi:type="inkscape:persp3d"
       inkscape:vp_x="0 : 256 : 1"
       inkscape:vp_y="0 : 1000 : 0"
       inkscape:vp_z="512 : 256 : 1"
       inkscape:persp3d-origin="256 : 170.66667 : 1"
       id="perspective72" />
    <linearGradient
       id="linearGradient5388">
      <stop
         style="stop-color:#9497bf;stop-opacity:1;"
         offset="0"
         id="stop5390" />
      <stop
         id="stop6236"
         offset="0.5"
         style="stop-color:#c1c1c1;stop-opacity:1;" />
      <stop
         style="stop-color:#fff8d3;stop-opacity:1;"
         offset="1"
         id="stop5392" />
    </linearGradient>
    <linearGradient
       id="linearGradient5356">
      <stop
         style="stop-color:#2942a9;stop-opacity:0.65517241;"
         offset="0"
         id="stop5358" />
      <stop
         style="stop-color:#ffffff;stop-opacity:1;"
         offset="1"
         id="stop5360" />
    </linearGradient>
    <linearGradient
       id="linearGradient3450">
      <stop
         style="stop-color:#a8afb8;stop-opacity:1;"
         offset="0"
         id="stop3452" />
      <stop
         style="stop-color:#f7dcdc;stop-opacity:1;"
         offset="1"
         id="stop3454" />
    </linearGradient>
    <linearGradient
       id="linearGradient4968">
      <stop
         style="stop-color:#ffffff;stop-opacity:0;"
         offset="0"
         id="stop4970" />
      <stop
         id="stop4976"
         offset="0.5"
         style="stop-color:#ffffff;stop-opacity:1;" />
      <stop
         style="stop-color:#ffffff;stop-opacity:0;"
         offset="1"
         id="stop4972" />
    </linearGradient>
    <linearGradient
       id="linearGradient4123">
      <stop
         style="stop-color:#f8ff00;stop-opacity:1;"
         offset="0"
         id="stop4125" />
      <stop
         style="stop-color:#f5ff7f;stop-opacity:0;"
         offset="1"
         id="stop4127" />
    </linearGradient>
    <linearGradient
       id="linearGradient4105">
      <stop
         style="stop-color:#1d226b;stop-opacity:1;"
         offset="0"
         id="stop4107" />
      <stop
         id="stop4115"
         offset="0.25"
         style="stop-color:#4b52c3;stop-opacity:1;" />
      <stop
         style="stop-color:#a782d5;stop-opacity:1;"
         offset="0.375"
         id="stop4117" />
      <stop
         id="stop4119"
         offset="0.4375"
         style="stop-color:#cfaae2;stop-opacity:1;" />
      <stop
         id="stop4113"
         offset="0.5"
         style="stop-color:#c3c6f5;stop-opacity:1;" />
      <stop
         style="stop-color:#555fd2;stop-opacity:1"
         offset="1"
         id="stop4109" />
    </linearGradient>
    <linearGradient
       inkscape:collect="always"
       id="linearGradient3489">
      <stop
         style="stop-color:#ffffff;stop-opacity:1;"
         offset="0"
         id="stop3491" />
      <stop
         style="stop-color:#ffffff;stop-opacity:0;"
         offset="1"
         id="stop3493" />
    </linearGradient>
    <linearGradient
       inkscape:collect="always"
       xlink:href="#linearGradient3489"
       id="linearGradient3502"
       gradientUnits="userSpaceOnUse"
       x1="662.24152"
       y1="57.857689"
       x2="478.94287"
       y2="328.78897" />
    <linearGradient
       inkscape:collect="always"
       xlink:href="#linearGradient4105"
       id="linearGradient4111"
       x1="750"
       y1="-1.1635375"
       x2="750"
       y2="512.26947"
       gradientUnits="userSpaceOnUse" />
    <linearGradient
       inkscape:collect="always"
       xlink:href="#linearGradient4968"
       id="linearGradient4974"
       x1="382.80481"
       y1="173.85358"
       x2="1121.4004"
       y2="173.85358"
       gradientUnits="userSpaceOnUse" />
    <radialGradient
       inkscape:collect="always"
       xlink:href="#linearGradient4123"
       id="radialGradient5130"
       cx="762.40271"
       cy="231.6669"
       fx="762.40271"
       fy="231.6669"
       r="834.45526"
       gradientTransform="matrix(1,0,0,2.9160401e-2,0,224.9114)"
       gradientUnits="userSpaceOnUse" />
    <clipPath
       clipPathUnits="userSpaceOnUse"
       id="clipPath3222">
      <use
         x="0"
         y="0"
         xlink:href="#path4333"
         id="use3224"
         transform="translate(-89.724451,236.41793)"
         width="1500"
         height="512" />
    </clipPath>
    <clipPath
       clipPathUnits="userSpaceOnUse"
       id="clipPath3237">
      <use
         x="0"
         y="0"
         xlink:href="#path4782"
         id="use3239"
         transform="translate(15.735748,231.06357)"
         width="1500"
         height="512" />
    </clipPath>
    <filter
       inkscape:collect="always"
       id="filter5452">
      <feGaussianBlur
         inkscape:collect="always"
         stdDeviation="4.0122705"
         id="feGaussianBlur5454" />
    </filter>
    <filter
       inkscape:collect="always"
       id="filter5936">
      <feGaussianBlur
         inkscape:collect="always"
         stdDeviation="1.8795082"
         id="feGaussianBlur5938" />
    </filter>
    <linearGradient
       inkscape:collect="always"
       xlink:href="#linearGradient5356"
       id="linearGradient6686"
       gradientUnits="userSpaceOnUse"
       x1="680.29675"
       y1="11.910643"
       x2="623.30194"
       y2="-177.98248" />
    <linearGradient
       inkscape:collect="always"
       xlink:href="#linearGradient3450"
       id="linearGradient6688"
       gradientUnits="userSpaceOnUse"
       x1="640.93549"
       y1="-17.17984"
       x2="640.93549"
       y2="-186.48248" />
    <linearGradient
       inkscape:collect="always"
       xlink:href="#linearGradient5388"
       id="linearGradient6690"
       gradientUnits="userSpaceOnUse"
       x1="598.91736"
       y1="35.856506"
       x2="592.28137"
       y2="-186.48248" />
    <linearGradient
       inkscape:collect="always"
       xlink:href="#linearGradient3450"
       id="linearGradient2780"
       gradientUnits="userSpaceOnUse"
       x1="37.783749"
       y1="-26.189417"
       x2="38.616573"
       y2="-393.03671" />
    <linearGradient
       inkscape:collect="always"
       xlink:href="#linearGradient5388"
       id="linearGradient2782"
       gradientUnits="userSpaceOnUse"
       x1="90.486023"
       y1="-54.80513"
       x2="93.058479"
       y2="-349.44397" />
    <linearGradient
       inkscape:collect="always"
       xlink:href="#linearGradient5356"
       id="linearGradient2784"
       gradientUnits="userSpaceOnUse"
       x1="107.81786"
       y1="-60.80513"
       x2="98.085358"
       y2="-371.78613" />
    <linearGradient
       inkscape:collect="always"
       xlink:href="#linearGradient3764"
       id="linearGradient3770"
       x1="261.52399"
       y1="80.616989"
       x2="261.52399"
       y2="255.20667"
       gradientUnits="userSpaceOnUse" />
    <filter
       inkscape:collect="always"
       id="filter3812">
      <feGaussianBlur
         inkscape:collect="always"
         stdDeviation="6.4821242"
         id="feGaussianBlur3814" />
    </filter>
    <linearGradient
       inkscape:collect="always"
       xlink:href="#linearGradient3764"
       id="linearGradient3818"
       gradientUnits="userSpaceOnUse"
       x1="213.00179"
       y1="181.63861"
       x2="164.65489"
       y2="376.19876" />
    <linearGradient
       inkscape:collect="always"
       xlink:href="#linearGradient3764"
       id="linearGradient3822"
       gradientUnits="userSpaceOnUse"
       x1="377.59155"
       y1="130.33272"
       x2="450.30914"
       y2="378.81784" />
  </defs>
  <sodipodi:namedview
     id="base"
     pagecolor="#ffffff"
     bordercolor="#666666"
     borderopacity="1.0"
     gridtolerance="10000"
     guidetolerance="10"
     objecttolerance="10"
     inkscape:pageopacity="0.0"
     inkscape:pageshadow="2"
     inkscape:zoom="0.70710678"
     inkscape:cx="112.89356"
     inkscape:cy="499.80355"
     inkscape:document-units="px"
     inkscape:current-layer="layer3"
     showgrid="false"
     showguides="true"
     inkscape:guide-bbox="true"
     inkscape:window-width="1672"
     inkscape:window-height="994"
     inkscape:window-x="0"
     inkscape:window-y="25"
     inkscape:snap-global="false">
    <sodipodi:guide
       orientation="0,1"
       position="823.18778,256"
       id="guide3171" />
    <sodipodi:guide
       orientation="1,0"
       position="750,364.0542"
       id="guide3173" />
    <sodipodi:guide
       orientation="0,1"
       position="992.03689,454.14231"
       id="guide3387" />
    <sodipodi:guide
       orientation="0,1"
       position="910,406"
       id="guide5132" />
    <sodipodi:guide
       orientation="1,0"
       position="329.14388,635.2536"
       id="guide5146" />
    <sodipodi:guide
       orientation="1,0"
       position="1179.0496,641.19329"
       id="guide5148" />
  </sodipodi:namedview>
  <metadata
     id="metadata7">
    <rdf:RDF>
      <cc:Work
         rdf:about="">
        <dc:format>image/svg+xml</dc:format>
        <dc:type
           rdf:resource="http://purl.org/dc/dcmitype/StillImage" />
      </cc:Work>
    </rdf:RDF>
  </metadata>
  <g
     inkscape:groupmode="layer"
     id="layer3"
     inkscape:label="C1"
     style="opacity:1;display:inline">
    <path
       style="opacity:0.23275862;fill:url(#linearGradient3770);fill-opacity:1;fill-rule:evenodd;stroke:none;stroke-width:1px;stroke-linecap:butt;stroke-linejoin:miter;stroke-opacity:1;filter:url(#filter3812)"
       d="M 205.19966,74.232975 L 155.93231,265.98697 L 367.11569,269.68174 L 323.80951,72.923435 L 205.19966,74.232975 z"
       id="path2992"
       transform="matrix(1,0,0,1.9971476,0,-72.71543)" />
    <path
       style="fill-opacity:1;fill-rule:nonzero"
       d="M 712.90625 -231.1875 C 707.68353 -230.96695 702.61645 -229.46481 697.375 -229.5 C 692.29153 -228.3326 685.34789 -229.13132 682.28125 -224.21875 C 679.20838 -219.30757 675.42329 -228.3141 670.53125 -227.0625 C 661.84438 -228.38814 653.608 -223.45757 648.3125 -216.90625 C 643.04461 -218.53336 639.03173 -221.98545 633.84375 -223.3125 C 628.56822 -223.02521 624.10437 -217.4841 622.5 -213.3125 C 624.32051 -207.64312 613.50565 -205.97591 613.65625 -199.59375 C 613.18691 -193.26238 621.53968 -190.91456 625.9375 -194.28125 C 628.47626 -195.91825 634.40561 -201.29419 635.78125 -197.03125 C 633.54798 -197.03041 630.26384 -199.16409 633.71875 -196.28125 C 639.64787 -190.59823 648.31916 -187.52746 656.375 -190 C 663.06856 -185.24122 668.16358 -177.71699 676.46875 -175.53125 C 681.52135 -173.02683 686.03347 -181.68105 688.625 -175.1875 C 697.21399 -166.0933 710.84546 -164.84484 722.65625 -165.65625 C 730.00265 -163.3547 738.03443 -163.54765 745.1875 -166.0625 C 750.18475 -165.75526 753.07179 -170.93823 754.9375 -174.78125 C 757.94442 -178.71702 759.48699 -184.76267 756.53125 -189.03125 C 754.91378 -191.52463 753.33349 -196.42178 753.8125 -199.28125 C 759.83457 -202.88309 754.58921 -209.9404 750.96875 -213.375 C 746.12817 -217.68237 739.88124 -223.13359 732.90625 -221.3125 C 728.12007 -220.45371 731.69299 -227.19304 726.6875 -228.28125 C 723.27617 -230.43396 719.12804 -231.09796 715.15625 -231.1875 C 714.40305 -231.21579 713.65235 -231.21901 712.90625 -231.1875 z M 795.03125 -195.125 C 792.87891 -195.01762 790.68849 -194.12404 789.125 -192.5 C 781.13607 -187.15724 776.9969 -176.92156 778.65625 -167.5 C 779.18376 -162.82315 772.87892 -160.47699 770.9375 -156.34375 C 765.17296 -147.66807 763.64923 -136.74801 764.25 -126.53125 C 764.80346 -119.51148 766.88678 -112.55921 770.78125 -106.65625 C 767.61002 -100.88931 770.5277 -94.35911 771.09375 -88.3125 C 772.68005 -80.270423 773.11314 -71.767688 776.84375 -64.34375 C 779.19502 -59.509528 786.13775 -56.207704 790.53125 -60.34375 C 794.2599 -65.198216 794.73479 -55.630808 799.90625 -56.625 C 804.80993 -54.541385 809.40023 -57.818628 811.875 -61.96875 C 813.57005 -66.674357 811.71878 -71.462383 816.28125 -74.84375 C 823.12292 -85.152644 826.27401 -97.779461 824.875 -110.09375 C 824.8152 -110.77146 824.73353 -111.44905 824.65625 -112.125 C 824.0599 -117.85251 822.30025 -123.37134 820.40625 -128.78125 C 820.63653 -144.84663 817.0732 -162.06626 805.71875 -174.09375 C 807.98979 -179.86781 802.20656 -184.03291 802.5625 -189.0625 C 802.13127 -193.33475 798.61848 -195.30396 795.03125 -195.125 z M 624.96875 -183.5625 C 621.7235 -183.48941 618.48514 -183.00729 615.5625 -182.375 C 613.52401 -181.90625 611.52959 -181.00753 610.09375 -179.4375 C 609.15073 -178.12705 608.58211 -176.84025 608.34375 -175.59375 C 600.24938 -174.3614 592.34104 -171.88507 584.90625 -168.46875 C 580.71796 -169.51033 576.29475 -170.07526 571.84375 -170.09375 C 571.16776 -170.98305 570.0557 -171.82696 568.40625 -172.5 C 557.91088 -179.70203 543.31435 -174.42429 537.3125 -163.9375 C 533.38585 -159.123 533.64957 -153.65979 533.90625 -148.125 C 532.06598 -142.55544 530.77499 -137.12563 526 -132.5 C 520.79942 -120.4195 528.11949 -107.13555 538.5625 -100.625 C 538.9089 -100.49388 539.23653 -100.3618 539.5625 -100.21875 C 540.05927 -94.90827 541.98929 -89.728609 545.3125 -85.625 C 546.51478 -82.967927 549.80726 -80.523756 553.34375 -79.15625 C 553.89394 -77.792766 554.50637 -76.435745 555.21875 -75.125 C 557.85284 -59.084626 568.21923 -52.22341 581.25 -49.09375 C 583.58715 -47.112267 586.05453 -45.321205 588.625 -43.625 C 588.64203 -43.613763 588.63921 -43.573725 588.65625 -43.5625 C 590.88865 -41.037845 593.8074 -38.750219 595.65625 -36.8125 C 602.08641 -32.05005 609.25175 -24.468889 618.03125 -27.09375 C 622.31785 -27.453685 624.36976 -28.625976 623.90625 -30.53125 C 627.81913 -30.272701 631.7911 -30.35533 635.875 -30.71875 C 639.77725 -31.066 645.53307 -32.90892 649.71875 -34.21875 C 652.45652 -18.86412 668.49535 -9.51828 683.34375 -10.0625 C 695.68569 -9.2673003 708.3071 -11.60817 718.96875 -18.0625 C 736.64422 -18.16764 755.48017 -31.50056 755.21875 -50.4375 C 755.19321 -59.07761 750.30077 -66.04091 756.90625 -72.96875 C 760.65157 -91.384786 748.23371 -108.29436 735.3125 -120.03125 C 733.17882 -121.87562 730.96664 -123.64911 728.65625 -125.3125 C 724.27755 -136.81995 712.16678 -142.88423 700.46875 -144.84375 C 698.73406 -147.90244 696.66554 -150.81824 694.90625 -153.59375 C 687.00963 -165.52927 672.69177 -176.26831 657.6875 -172.40625 C 656.13571 -171.70575 655.03767 -171.016 654.3125 -170.3125 C 650.81185 -171.58117 647.27462 -172.68618 643.71875 -173.65625 C 643.72985 -174.38678 643.61437 -175.05939 643.25 -175.65625 C 639.29012 -181.93607 632.10831 -183.72331 624.96875 -183.5625 z M 666.96875 35.1875 C 662.29021 35.133855 657.42018 35.85846 653.53125 38.5625 C 651.24186 40.012718 650.59193 42.687994 650.125 45.15625 C 650.11564 45.228665 650.10334 45.302319 650.09375 45.375 C 647.72002 47.227804 645.47549 49.22581 643.375 51.28125 C 641.76562 53.018442 639.57337 53.74572 637.28125 54.3125 C 635.49449 52.39572 632.53439 51.629889 630.03125 51 C 625.1997 49.869899 619.75656 48.857414 615.125 51.21875 C 612.88788 52.278017 611.96868 54.652696 611.15625 56.8125 C 611.05857 57.766582 611.07504 58.756291 611.125 59.75 C 605.66097 60.388978 600.34872 62.258915 595.90625 65.5625 C 588.22255 66.650035 579.48844 66.048806 573.09375 71.125 C 567.60533 75.080819 574.92236 80.410885 570.15625 84.1875 C 568.58473 89.728395 564.28729 96.898878 571.15625 100.96875 C 576.13471 102.38361 580.76755 105.64089 586.1875 105.5625 C 591.76502 103.74698 596.65502 102.59804 601.8125 106.1875 C 608.96545 108.49386 617.28117 108.40851 623.875 104.53125 C 628.13931 105.01028 632.79502 103.94566 634.71875 108.03125 C 643.33958 109.07017 651.53262 105.38354 659.78125 103.5 C 664.41679 100.43233 667.96183 103.196 672.78125 103.53125 C 679.54446 103.13263 684.78677 97.3387 685.96875 90.90625 C 688.18748 84.400723 693.15692 79.44594 698.1875 75.03125 C 702.27878 74.141321 710.77228 78.540266 713.28125 72.40625 C 717.17941 65.603133 712.26359 58.143972 705.8125 55.25 C 702.4322 52.175614 694.92848 52.251794 693.28125 49.3125 C 693.81525 41.558532 684.47553 38.424207 678.28125 37.0625 C 676.54355 36.711113 674.77318 36.516504 673 36.5 C 672.82023 36.49588 672.64772 36.500576 672.46875 36.5 C 671.46978 35.733327 670.23921 35.261326 668.96875 35.25 C 668.31118 35.214641 667.63711 35.195164 666.96875 35.1875 z "
       id="path4333" />
    <g
       id="g3234"
       clip-path="url(#clipPath3237)"
       transform="translate(194.87782,276.92082)">
      <use
         style="opacity:1;fill:url(#linearGradient2780);fill-opacity:1;fill-rule:nonzero;stroke:url(#linearGradient2782);stroke-width:15;stroke-linecap:butt;stroke-linejoin:miter;marker:none;marker-start:none;marker-mid:none;marker-end:none;stroke-miterlimit:4;stroke-dasharray:none;stroke-dashoffset:0;stroke-opacity:1;visibility:visible;display:inline;overflow:visible;filter:url(#filter5936);enable-background:accumulate"
         height="512"
         width="1500"
         transform="translate(15.735748,231.06357)"
         id="use3418"
         xlink:href="#path4782"
         y="0"
         x="0" />
      <use
         x="0"
         y="0"
         xlink:href="#path4782"
         id="use3232"
         transform="translate(15.735748,231.06357)"
         width="1500"
         height="512"
         style="opacity:1;fill:none;fill-opacity:1;fill-rule:nonzero;stroke:url(#linearGradient2784);stroke-width:3;stroke-linecap:butt;stroke-linejoin:miter;marker:none;marker-start:none;marker-mid:none;marker-end:none;stroke-miterlimit:4;stroke-dasharray:none;stroke-dashoffset:0;stroke-opacity:1;visibility:visible;display:inline;overflow:visible;enable-background:accumulate" />
    </g>
    <path
       style="fill:url(#linearGradient3818);fill-rule:evenodd;stroke:none;stroke-width:1.41320472999999991px;stroke-linecap:butt;stroke-linejoin:miter;stroke-opacity:1;opacity:0.2887931;color:#000000;fill-opacity:1;marker:none;marker-start:none;marker-mid:none;marker-end:none;stroke-miterlimit:4;stroke-dasharray:none;stroke-dashoffset:0;visibility:visible;display:inline;overflow:visible;filter:url(#filter3812);enable-background:accumulate"
       d="M 111.092,150.8878 L 18.912954,382.86337 L 338.09879,424.53479 L 326.22028,205.42077 L 111.092,150.8878 z"
       id="path3816"
       sodipodi:nodetypes="ccccc" />
    <path
       style="fill:url(#linearGradient3822);fill-rule:evenodd;stroke:none;stroke-width:1.41320472999999991px;stroke-linecap:butt;stroke-linejoin:miter;stroke-opacity:1;opacity:0.29741379;color:#000000;fill-opacity:1;marker:none;marker-start:none;marker-mid:none;marker-end:none;stroke-miterlimit:4;stroke-dasharray:none;stroke-dashoffset:0;visibility:visible;display:inline;overflow:visible;filter:url(#filter3812);enable-background:accumulate"
       d="M 359.88338,213.46508 L 391.7932,461.06159 L 483.79692,403.208 L 490.19642,349.61042 L 381.14198,98.085301 L 359.88338,213.46508 z"
       id="path3820"
       sodipodi:nodetypes="cccccc" />
    <g
       id="g3209"
       clip-path="url(#clipPath3222)"
       transform="matrix(0.9969514,0,0,1.0060321,-328.65839,37.611328)">
      <use
         height="512"
         width="1500"
         transform="translate(-89.724451,236.41793)"
         x="0"
         y="0"
         xlink:href="#path4333"
         id="use3426"
         style="fill:url(#linearGradient6688);fill-opacity:1;stroke:url(#linearGradient6690);stroke-width:19.97041702;stroke-linejoin:round;stroke-miterlimit:4;stroke-dasharray:none;stroke-opacity:1;filter:url(#filter5452)" />
      <use
         style="fill:none;fill-opacity:1;stroke:url(#linearGradient6686);stroke-width:2.99556231;stroke-miterlimit:4;stroke-dasharray:none;stroke-opacity:1"
         id="use3204"
         xlink:href="#path4333"
         y="0"
         x="0"
         transform="translate(-89.724451,236.41793)"
         width="1500"
         height="512" />
    </g>
    <path
       style="opacity:1;fill-opacity:1;fill-rule:nonzero;marker:none;marker-start:none;marker-mid:none;marker-end:none;visibility:visible;display:inline;overflow:visible;enable-background:accumulate"
       d="M 197.21875 -410.71875 C 196.38079 -410.70385 195.54651 -410.53838 194.75 -410.28125 C 179.85545 -411.93221 165.23015 -394.08908 178.21875 -381.875 C 178.33706 -382.25664 178.42954 -382.53905 178.5 -382.8125 C 180.13193 -376.22103 183.70412 -369.9772 188.53125 -365.15625 C 189.99813 -358.82557 193.60587 -352.90367 198.8125 -349.1875 C 203.67457 -344.66544 209.53376 -343.948 215.25 -345.125 C 215.2543 -345.11675 215.24571 -345.102 215.25 -345.09375 C 214.28812 -343.72552 213.60326 -342.25394 213.25 -340.75 C 208.83565 -334.92574 208.40188 -322.08197 212.59375 -315.4375 C 211.91406 -312.96 211.34583 -310.46165 210.90625 -307.9375 C 209.35274 -305.05969 208.41537 -301.89961 208.625 -299.125 C 206.36982 -290.85476 207.64252 -278.24833 214.25 -272.90625 C 214.6583 -271.94219 215.12422 -271.00972 215.59375 -270.0625 C 213.62056 -265.07294 214.26581 -258.98634 216.84375 -254.125 C 217.11685 -251.9823 217.44095 -249.88727 217.8125 -247.84375 C 219.69853 -240.84503 222.10183 -233.08209 226 -226.53125 C 223.04125 -223.72323 220.66563 -220.33634 219.5 -217.3125 C 214.53358 -207.6656 210.21504 -193.13707 219.46875 -185.09375 C 218.82709 -179.14268 219.00239 -173.19376 217.6875 -167.46875 C 214.98135 -171.31032 211.05504 -174.55757 206.75 -173.5625 C 206.13284 -174.16833 205.52336 -174.77282 204.875 -175.3125 C 204.27777 -175.53345 203.71318 -175.67575 203.21875 -175.8125 C 199.52679 -176.32991 196.08977 -176.55151 192.90625 -176.53125 C 192.03899 -178.02903 190.74638 -179.30868 189.09375 -180.125 C 176.58773 -184.66131 159.13889 -173.65593 160.71875 -159.625 C 160.87203 -158.97334 161.01927 -158.36942 161.1875 -157.8125 C 159.97945 -154.91756 159.13774 -151.77479 158.625 -148.46875 C 155.51398 -146.43655 153.06654 -143.34662 152.53125 -139.5 C 146.97406 -128.40317 149.60222 -107.28942 162.96875 -104.3125 C 162.99598 -100.55605 164.05799 -96.763527 166.40625 -94 C 168.51858 -83.613183 179.48138 -68.591939 190.53125 -73.6875 C 196.01627 -69.996558 201.82304 -67.949309 207.625 -68.25 C 209.96148 -67.616978 212.58197 -67.622711 215.5 -68.53125 C 218.50195 -69.879761 221.09694 -71.626235 223.5625 -73.40625 C 227.54124 -74.393351 231.45912 -75.637291 235.25 -76.90625 C 236.50302 -77.320554 237.74131 -77.804355 238.96875 -78.34375 C 246.23488 -74.996467 260.72813 -85.96239 263.125 -94.0625 C 263.80579 -95.417172 264.5463 -96.936134 265.25 -98.53125 C 267.78795 -99.66603 270.44217 -100.99802 272.03125 -101.46875 C 282.89732 -112.93407 285.83056 -129.97306 283.6875 -145.3125 C 283.70618 -145.43762 283.73212 -145.56225 283.75 -145.6875 C 284.25993 -146.08616 284.76018 -146.44666 285.34375 -146.90625 C 291.23584 -158.83647 289.83243 -173.10586 287.90625 -185.90625 C 287.90021 -185.94902 287.88179 -185.98871 287.875 -186.03125 C 288.12114 -186.3556 288.38849 -186.68617 288.625 -187 C 291.37265 -197.34846 290.41982 -209.0663 286.03125 -219.0625 C 285.76983 -225.58383 284.83693 -232.08933 283.46875 -238.375 C 283.861 -242.29681 283.74334 -246.32112 283.1875 -250.25 C 288.35407 -258.20788 287.36438 -269.20257 283.53125 -278.125 C 283.76937 -278.44591 284.00471 -278.76017 284.25 -279.125 C 284.97985 -280.6502 285.56902 -282.24649 286 -283.875 C 290.60339 -290.48384 292.29002 -300.51299 285.84375 -307.71875 C 284.76547 -309.37617 283.04511 -310.66127 281.03125 -310.9375 C 277.85879 -315.66793 273.53814 -319.56883 268.3125 -321.78125 C 268.27267 -321.79696 268.22752 -321.79718 268.1875 -321.8125 C 268.15078 -322.21779 268.13165 -322.62616 268.09375 -323.03125 C 268.11229 -323.05105 268.13784 -323.07412 268.15625 -323.09375 C 276.05181 -339.27724 272.9917 -360.03073 262.3125 -374.34375 C 262.05537 -374.90397 261.79162 -375.45668 261.5 -376 C 266.67776 -379.01254 265.44059 -391.11464 258 -394.25 C 248.55551 -399.27425 237.08551 -398.93226 226.96875 -395.34375 C 225.35621 -395.46562 223.78081 -395.56176 222.28125 -395.65625 C 217.94532 -400.30573 214.45372 -407.95497 207.15625 -407.9375 C 206.99696 -407.83775 206.82044 -407.74791 206.65625 -407.65625 C 205.13486 -408.71728 203.27269 -409.50908 201 -409.84375 C 199.79103 -410.46522 198.50793 -410.74168 197.21875 -410.71875 z M -149.4375 -365.15625 C -153.05009 -363.40625 -156.41037 -361.19696 -159.53125 -358.65625 C -174.35123 -361.4552 -190.35876 -346.33329 -188.125 -331.15625 C -186.0215 -327.46262 -184.09945 -325.46309 -182.3125 -324.65625 C -182.32015 -324.59345 -182.33606 -324.53139 -182.34375 -324.46875 C -189.28007 -316.66153 -193.07973 -305.19455 -190.125 -295.53125 C -198.54996 -286.49671 -200.61061 -270.99036 -193.25 -261.375 C -196.69448 -256.20353 -198.5431 -249.66301 -196.125 -244.78125 C -194.25311 -240.98775 -192.49806 -238.64488 -190.875 -237.40625 C -189.59371 -230.09316 -186.48169 -223.55726 -181.09375 -220.125 C -181.32946 -219.56229 -181.57317 -218.99403 -181.78125 -218.40625 C -184.49752 -215.19069 -186.4342 -210.38202 -185.75 -205.75 C -188.0393 -202.82291 -189.06137 -198.60308 -187.09375 -193.84375 C -186.35428 -186.90143 -182.04208 -183.94401 -177.78125 -183.9375 C -175.50406 -181.02281 -172.56588 -178.74566 -168.9375 -177.4375 C -168.70669 -175.61465 -168.19964 -173.74131 -167.34375 -171.90625 C -167.61708 -170.60813 -167.53265 -169.16611 -166.875 -167.59375 C -166.2364 -160.01409 -161.30867 -156.42745 -156.53125 -155.9375 C -152.94015 -153.28827 -148.73266 -151.47418 -144.34375 -150.5625 C -145.92087 -134.44553 -134.96989 -115.55755 -118.15625 -114.84375 C -117.68615 -114.94694 -117.25714 -115.03648 -116.84375 -115.15625 C -111.08953 -106.11088 -103.03044 -98.201958 -99.0625 -88.59375 C -101.04615 -84.70029 -101.8183 -80.157785 -100.28125 -75.78125 C -102.18456 -63.771797 -97.502555 -44.721453 -84.09375 -44.40625 C -81.74741 -40.451969 -79.141748 -36.691011 -76.21875 -33.25 C -74.372639 -23.537479 -67.171334 -13.718316 -56.625 -16.15625 C -55.012462 -16.306843 -53.696548 -16.515592 -52.5625 -16.75 C -52.383966 -16.691346 -52.211074 -16.619231 -52.03125 -16.5625 C -50.941045 -16.227486 -49.86066 -15.967217 -48.78125 -15.75 C -35.927005 -6.5681776 -15.0516 -8.3387122 -8.65625 -24.1875 C -5.6774751 -25.254469 -2.6847331 -26.223798 0.3125 -26.96875 C 6.3383644 -25.133516 12.860343 -24.659651 19.21875 -25.4375 C 21.147062 -22.95605 23.591246 -20.813188 26.4375 -19.5625 C 35.610484 -13.470144 46.096118 -14.703756 55.34375 -19.03125 C 56.635301 -18.77581 57.921411 -18.542339 59.21875 -18.34375 C 59.455914 -18.147981 59.684477 -17.948287 59.9375 -17.75 C 74.684224 -8.9291437 92.239379 -13.95662 107.6875 -19.59375 C 113.51525 -18.092421 119.89175 -18.486738 125.5625 -20.46875 C 128.77801 -20.960713 131.77763 -22.649978 134.0625 -25.09375 C 136.85003 -27.286577 139.10756 -30.004837 140.59375 -33.125 C 150.59022 -35.896843 147.17579 -55.093499 139.65625 -62.28125 C 138.13551 -64.732421 135.27639 -66.07659 132.5 -65.90625 C 127.87534 -70.93563 121.38786 -74.943814 116.1875 -74.71875 C 114.97588 -75.089396 113.7335 -75.177879 112.53125 -75.03125 C 104.96281 -83.177827 93.868609 -89.549569 85.03125 -93.3125 C 84.223106 -93.493369 83.448291 -93.589864 82.71875 -93.65625 C 78.097461 -100.73485 63.850345 -106.65206 56.25 -102.09375 L 52.875 -100.8125 C 52.524919 -100.162 52.230503 -99.562058 52 -98.96875 C 45.468421 -98.814584 38.890576 -97.307074 33 -94.8125 C 32.678447 -95.12744 32.329185 -95.411698 32 -95.71875 C 27.141118 -103.98885 16.682175 -109.74177 6.90625 -109.75 C 6.0522006 -109.99732 5.176206 -110.22428 4.3125 -110.4375 C -3.2690047 -114.98176 -13.029761 -117.5829 -20.25 -118.78125 C -26.132938 -119.67602 -31.523009 -114.54875 -31.5625 -109.0625 C -34.13705 -108.16202 -36.643636 -107.06386 -39.0625 -105.78125 C -48.393906 -113.03019 -59.558577 -118.10624 -70.84375 -121.6875 C -76.470446 -127.80322 -80.067823 -134.90959 -79.375 -145.21875 C -79.760486 -157.15188 -98.100577 -168.43372 -96.03125 -177.9375 C -80.92266 -175.82236 -75.72127 -197.03742 -74.625 -210.09375 C -63.988842 -219.66197 -64.106319 -236.44462 -69.5625 -249.34375 C -69.306726 -252.34409 -69.320603 -255.33755 -69.59375 -258.3125 C -64.449748 -270.86279 -68.028462 -287.21995 -77.9375 -296.75 C -83.615279 -301.11947 -87.750842 -300.74238 -89.96875 -298.1875 C -93.451458 -301.45203 -97.264673 -304.35978 -101.3125 -306.78125 C -103.83763 -308.03131 -106.16279 -309.03969 -108.0625 -310.0625 C -104.32168 -320.77753 -106.18326 -333.3828 -114.0625 -341.875 C -113.79085 -342.3014 -113.55548 -342.75283 -113.375 -343.25 C -116.10961 -351.43234 -123.20344 -355.24851 -131.375 -355.8125 C -132.78411 -357.59315 -133.98036 -359.48539 -134.84375 -361.5625 C -138.93069 -366.09849 -144.69003 -362.94762 -149.4375 -365.15625 z M 63.75 -68.625 C 65.813161 -68.683747 63.64425 -66.37777 62.59375 -68.4375 C 63.076961 -68.562137 63.45526 -68.61661 63.75 -68.625 z M 118.96875 -47.25 C 119.04526 -47.246691 119.09836 -47.224329 119.125 -47.21875 C 118.9154 -47.168331 117.80052 -47.099755 117.28125 -47.21875 C 118.19544 -47.250721 118.72522 -47.26053 118.96875 -47.25 z "
       id="path4782" />
  </g>
</svg>
