<?xml version="1.0" encoding="UTF-8" standalone="no"?>
<!-- Created with Inkscape (http://www.inkscape.org/) -->

<svg
   xmlns:dc="http://purl.org/dc/elements/1.1/"
   xmlns:cc="http://creativecommons.org/ns#"
   xmlns:rdf="http://www.w3.org/1999/02/22-rdf-syntax-ns#"
   xmlns:svg="http://www.w3.org/2000/svg"
   xmlns="http://www.w3.org/2000/svg"
   xmlns:xlink="http://www.w3.org/1999/xlink"
   xmlns:sodipodi="http://sodipodi.sourceforge.net/DTD/sodipodi-0.dtd"
   xmlns:inkscape="http://www.inkscape.org/namespaces/inkscape"
   width="256"
   height="256"
   id="svg2"
   sodipodi:version="0.32"
   inkscape:version="0.47pre4 r22446"
   version="1.0"
   sodipodi:docname="SnailTrail.svg"
   inkscape:output_extension="org.inkscape.output.svg.inkscape"
   inkscape:export-filename="/home/alex/Projects/Cargo/Game/Textures/SnailTrail.png"
   inkscape:export-xdpi="22.5"
   inkscape:export-ydpi="22.5">
  <defs
     id="defs4">
    <linearGradient
       id="linearGradient3609">
      <stop
         style="stop-color:#6f5442;stop-opacity:1;"
         offset="0"
         id="stop3611" />
      <stop
         id="stop3617"
         offset="0.5"
         style="stop-color:#8c8c8c;stop-opacity:1;" />
      <stop
         style="stop-color:#f7fe6f;stop-opacity:1;"
         offset="1"
         id="stop3613" />
    </linearGradient>
    <inkscape:perspective
       sodipodi:type="inkscape:persp3d"
       inkscape:vp_x="0 : 32 : 1"
       inkscape:vp_y="0 : 1000 : 0"
       inkscape:vp_z="64 : 32 : 1"
       inkscape:persp3d-origin="32 : 21.333333 : 1"
       id="perspective36" />
    <linearGradient
       inkscape:collect="always"
       xlink:href="#linearGradient3609"
       id="linearGradient3615"
       x1="-4.9406686"
       y1="127.04567"
       x2="258.1366"
       y2="127.04567"
       gradientUnits="userSpaceOnUse" />
  </defs>
  <sodipodi:namedview
     id="base"
     pagecolor="#8d8d8d"
     bordercolor="#666666"
     borderopacity="1.0"
     gridtolerance="10000"
     guidetolerance="10"
     objecttolerance="10"
     inkscape:pageopacity="0"
     inkscape:pageshadow="2"
     inkscape:zoom="1"
     inkscape:cx="153.84561"
     inkscape:cy="31.386684"
     inkscape:document-units="px"
     inkscape:current-layer="layer1"
     showgrid="false"
     inkscape:window-width="1674"
     inkscape:window-height="974"
     inkscape:window-x="0"
     inkscape:window-y="25"
     inkscape:snap-global="false"
     showguides="true"
     inkscape:guide-bbox="true"
     inkscape:window-maximized="0">
    <inkscape:grid
       type="xygrid"
       id="grid3178"
       visible="true"
       enabled="true" />
    <sodipodi:guide
       orientation="0,1"
       position="107.71614,192"
       id="guide3179" />
    <sodipodi:guide
       orientation="0,1"
       position="124.92141,128"
       id="guide3181" />
    <sodipodi:guide
       orientation="0,1"
       position="108.05022,64"
       id="guide3183" />
    <sodipodi:guide
       orientation="1,0"
       position="64,168.413"
       id="guide3185" />
    <sodipodi:guide
       orientation="1,0"
       position="128,213.06734"
       id="guide3187" />
    <sodipodi:guide
       orientation="1,0"
       position="192,229.86252"
       id="guide3189" />
  </sodipodi:namedview>
  <metadata
     id="metadata7">
    <rdf:RDF>
      <cc:Work
         rdf:about="">
        <dc:format>image/svg+xml</dc:format>
        <dc:type
           rdf:resource="http://purl.org/dc/dcmitype/StillImage" />
        <dc:title></dc:title>
      </cc:Work>
    </rdf:RDF>
  </metadata>
  <g
     inkscape:groupmode="layer"
     id="layer2"
     inkscape:label="Background"
     style="display:none"
     sodipodi:insensitive="true">
    <rect
       style="fill:url(#linearGradient3615);fill-opacity:1;fill-rule:nonzero;stroke:none;stroke-width:10;marker:none;visibility:visible;display:inline;overflow:visible;enable-background:accumulate"
       id="rect3660"
       width="263.07727"
       height="263.31024"
       x="-4.9406686"
       y="-4.6094489" />
  </g>
  <g
     inkscape:label="Layer 1"
     inkscape:groupmode="layer"
     id="layer1">
    <g
       id="g3619"
       style="fill:#c0c0c0;fill-opacity:1">
      <path
         sodipodi:nodetypes="cccccccccccc"
         id="path3239"
         d="m 97.25,3.96875 c -5.465433,-0.046761 -4.372852,6.043226 -3.604786,9.285434 -0.331352,4.557855 1.501347,12.741547 -1.977399,14.089146 -5.89594,3.668656 -9.091955,10.171627 -4.682286,14.63886 2.354972,3.972017 7.286474,1.928735 7.376409,7.683726 2.176334,3.585797 -0.951001,6.86699 -0.318983,10.584697 2.269728,3.26999 9.401785,0.03509 6.110585,-3.550512 -3.094235,-2.766138 -1.225631,-6.604881 -0.419332,-10.183198 -0.301557,-4.897759 4.807722,-6.411093 6.039672,-10.52171 2.03595,-5.486983 -0.24479,-12.022898 -5.4172,-14.600084 C 96.808114,18.435707 98.193031,12.537265 101.36086,9.8941307 102.58638,7.1217001 100.33554,3.7265281 97.25,3.96875 z"
         style="fill:#c0c0c0;fill-opacity:1;fill-rule:nonzero;stroke:none;stroke-width:10;marker:none;visibility:visible;display:inline;overflow:visible;enable-background:accumulate" />
      <path
         id="path3263"
         d="m 159.21875,0.84375 c -3.22465,-0.38373725 -6.11347,3.6044882 -4.42297,6.4832393 2.78787,1.8215217 2.40937,5.7162387 1.33522,8.4241277 -0.23215,1.803888 -1.33322,7.099848 -3.66344,4.14011 -4.77364,-4.834701 -13.96611,-4.897557 -18.06934,0.840268 -4.3646,5.562339 -3.03685,14.377146 2.46826,18.695375 2.23347,2.130998 5.24253,3.087574 7.9513,4.384371 2.48137,2.034136 3.4046,5.246105 5.27597,7.751259 0.024,2.68783 -1.26077,6.472497 1.74379,8.063634 3.06956,1.789126 7.92357,0.870663 9.19237,-2.732437 0.50853,-3.038111 -2.55939,-4.753831 -4.02762,-6.951211 -1.45897,-1.989395 -1.66877,-4.518017 -1.28083,-6.890454 0.67575,-2.808681 -1.05905,-5.342429 -1.12911,-8.117271 0.35162,-3.18184 1.16252,-6.332989 1.62672,-9.523442 0.82505,-2.565198 2.84735,-4.59829 3.28404,-7.321125 1.19242,-3.043752 -0.072,-6.837062 2.31144,-9.3673531 1.93749,-1.6619997 3.76341,-5.4662264 0.75356,-7.0284721 -1.03365,-0.5389346 -2.20747,-0.70477433 -3.34936,-0.8506188 z"
         style="fill:#c0c0c0;fill-opacity:1;fill-rule:nonzero;stroke:none;stroke-width:10;marker:none;visibility:visible;display:inline;overflow:visible;enable-background:accumulate" />
      <path
         id="path3265"
         d="m 224.25,2.21875 c -2.97855,0.046078 -4.3623,3.588203 -3.79442,6.1367554 0.58376,3.1241646 2.93127,5.8724456 2.41276,9.1883046 0.22483,5.617083 1.53736,11.293701 4.54722,16.08985 0.8147,2.78195 -1.8315,4.924742 -2.11641,7.566227 -1.16291,3.367141 -3.12294,6.380982 -4.85127,9.469543 -1.57453,1.540055 -4.62068,4.293665 -1.9669,6.300641 2.07302,1.740119 6.22218,1.25078 6.76781,-1.762592 -0.0264,-2.332754 -0.26499,-5.020855 2.09957,-6.385592 1.95195,-1.300448 2.37819,-4.416671 5.15356,-4.366574 2.27046,0.0063 4.56889,-0.08094 6.63614,-1.137142 5.34063,-2.305577 9.44456,-8.318082 8.10148,-14.23391 -1.00267,-3.458572 -4.76227,-5.460614 -8.21688,-5.201579 -2.87238,-0.344255 -6.13349,-0.668537 -8.60008,1.171295 -0.59123,2.670513 -4.14222,1.050337 -3.11844,-1.234067 -0.64893,-3.016205 -0.84,-6.102264 -1.16043,-9.163901 1.35532,-2.285373 4.31521,-4.092143 3.79449,-7.1062718 C 229.55425,4.7721487 227.11781,2.2894189 224.25,2.21875 z m 3.625,41.625 c 0.0693,0.148313 -0.1917,-0.04943 0,0 z"
         style="fill:#c0c0c0;fill-opacity:1;fill-rule:nonzero;stroke:none;stroke-width:10;marker:none;visibility:visible;display:inline;overflow:visible;enable-background:accumulate" />
      <path
         sodipodi:nodetypes="ccccccccccccccccccccc"
         id="path3267"
         d="m 33.09375,67.96875 c -3.05164,-0.291753 -6.038148,3.06636 -4.863615,6.042599 2.087296,2.622491 10.15355,11.858466 8.834953,14.952525 -1.761927,2.00992 -3.045194,1.675053 -4.50653,3.821688 -3.413255,2.593617 -7.745579,4.130401 -5.562844,7.373338 -0.372926,2.75259 -6.356035,2.66462 -8.482368,4.08706 -2.701934,1.28628 -2.192361,4.84757 0.184803,5.57027 2.410409,1.11843 6.09755,0.057 7.134228,-2.89339 -0.09006,-1.39691 0.73245,-4.78201 3.179803,-3.24126 1.791838,1.09098 2.393529,1.47968 3.262994,3.98418 0.417703,3.69274 -3.581064,5.63325 -2.58853,9.00463 -0.268478,1.98232 -2.152718,4.00128 -0.337169,5.91788 2.148815,2.93325 7.633907,1.54755 7.868795,-2.16021 -0.141995,-2.7351 -3.621836,-3.66288 -4.238106,-6.27154 -0.392045,-2.80746 3.373121,-4.86006 3.053319,-7.64722 -0.887311,-2.11536 2.524746,-1.49249 3.610147,-2.85531 4.448405,-2.78417 7.540904,-9.0371 4.683902,-12.943502 -1.86312,-1.760363 -3.809097,-3.82801 -3.85509,-6.481786 -0.366798,-1.774251 -6.945069,-6.965418 -4.699217,-7.75171 2.902686,-1.285394 3.282061,-5.899455 0.513467,-7.549032 -0.924602,-0.65604 -2.069044,-0.949211 -3.192942,-0.95921 z"
         style="fill:#c0c0c0;fill-opacity:1;fill-rule:nonzero;stroke:none;stroke-width:10;marker:none;visibility:visible;display:inline;overflow:visible;enable-background:accumulate" />
      <path
         sodipodi:nodetypes="ccccccccccccccc"
         id="path3269"
         d="m 95.96875,70.65625 c -2.298781,-0.315074 -4.671786,1.732733 -4.526332,4.085743 1.000375,1.850993 2.655003,3.640505 2.37026,5.900224 0.315594,2.658018 -2.364888,10.67457 -5.72752,12.859779 -7.488476,2.724468 -9.732346,11.579434 -5.735798,16.477184 3.525065,5.16561 9.991154,-0.11743 15.397602,-6.81632 1.680083,-1.894 5.042098,-1.92858 6.181078,-3.645652 -0.1219,-1.858439 9.37885,-4.345881 11.2978,-2.901914 2.67236,0.114948 4.18335,-3.201183 3.20419,-5.446906 -0.75618,-2.282582 -4.59863,-2.761033 -5.20095,-0.133473 -1.10378,2.151012 -4.75737,2.509681 -5.50175,0.122297 -1.48834,-2.183646 -4.23642,-2.507421 -6.23195,-4.140613 -1.942182,-1.912524 -3.20794,-4.550486 -3.47598,-7.262366 0.171471,-2.405118 2.86268,-4.142611 2.17083,-6.687118 -0.612728,-1.671283 -2.517877,-2.570413 -4.22148,-2.410865 z"
         style="fill:#c0c0c0;fill-opacity:1;fill-rule:nonzero;stroke:none;stroke-width:10;marker:none;visibility:visible;display:inline;overflow:visible;enable-background:accumulate" />
      <path
         id="path3271"
         d="m 160.87007,74.665596 c -2.62879,-0.508926 -1.86697,4.439376 -4.62412,3.566453 -2.43336,-0.698162 -5.11682,-0.348354 -7.19312,1.1322 -4.338,2.942898 -5.98899,9.194397 -3.66016,13.893825 1.15953,2.214125 -0.73627,3.718207 -2.68015,4.144507 -1.96019,0.920976 -4.01298,2.711849 -3.6987,5.103159 0.11934,2.40169 4.22715,3.48395 4.68876,0.73173 0.52576,-1.77985 2.39092,-1.55223 3.16533,-0.0982 1.86045,0.90988 5.2794,0.93818 4.85126,3.88034 -0.0427,2.134 -0.0599,4.27748 0.41509,6.37022 0.51156,2.653 -3.25649,3.68969 -2.84831,6.32538 0.4121,2.74739 4.0098,3.69827 6.14932,2.30964 2.32255,-1.20876 4.15743,-4.32567 2.66917,-6.8165 -2.04611,-1.80584 -2.04928,-4.61962 -1.81929,-7.09466 -0.0201,-1.9555 -0.65763,-4.57048 1.20044,-5.84888 4.64063,-3.877943 5.81853,-11.173068 2.80828,-16.382923 -1.78256,-1.398788 -1.11078,-4.170398 0.56271,-5.367608 1.71604,-1.229728 2.10596,-4.392241 0.30022,-5.748093 -0.0956,-0.03352 -0.19115,-0.06703 -0.28673,-0.10055 z m -7.40625,44.593754 c 0.0854,0.46296 -0.47573,-0.12799 0,0 z"
         style="fill:#c0c0c0;fill-opacity:1;fill-rule:nonzero;stroke:none;stroke-width:10;marker:none;visibility:visible;display:inline;overflow:visible;enable-background:accumulate" />
      <path
         sodipodi:nodetypes="cccccccccccccccccc"
         id="path3273"
         d="m 221.25,68.03125 c -3.33617,0.723727 -4.43348,5.151114 -2.837,7.864437 0.96866,2.166691 1.18652,4.559676 1.43099,6.892537 1.37206,2.120697 0.0879,5.538032 -1.73915,6.99886 -1.47074,1.69521 -1.7003,3.81789 -2.34895,5.514723 -2.51201,-0.148331 -5.2312,-1.282599 -7.6064,0.06502 -1.95676,1.730181 0.12239,5.466813 2.61648,4.811103 2.11031,-0.224753 5.56543,-1.842744 6.24363,1.31999 2.05053,4.69892 11.69857,6.54235 16.78053,6.59084 8.69307,-0.72213 0.40871,-4.00712 3.26215,-9.156006 1.54479,-3.719441 6.29718,-5.963807 3.93477,-9.300086 -0.45761,-2.040968 -4.58444,-2.842492 -2.89367,-5.280876 0.75495,-1.574145 0.7526,-4.456551 -1.26232,-4.979204 -2.5732,0.304551 -1.27373,4.229057 -3.9038,4.438766 -2.21629,-0.211154 -4.92738,0.254427 -6.6646,-1.392511 -1.31968,-1.509215 -1.19948,-3.611233 -1.71787,-5.436198 -0.50641,-2.187457 0.81364,-4.467947 -0.30161,-6.567953 -0.54344,-1.185312 -1.63323,-2.279568 -2.99318,-2.383442 z"
         style="fill:#c0c0c0;fill-opacity:1;fill-rule:nonzero;stroke:none;stroke-width:10;marker:none;visibility:visible;display:inline;overflow:visible;enable-background:accumulate" />
      <path
         sodipodi:nodetypes="ccccccccccccccccc"
         id="path3275"
         d="m 25.5,136.4375 c -3.184333,-0.15996 -2.217545,4.42657 -0.910039,5.25842 -2.357946,1.43586 -4.193472,5.32935 -6.142781,7.47323 -5.84823,4.5631 -2.748235,11.11948 1.467745,16.0171 2.243755,2.96625 0.635968,6.95806 4.585075,7.56375 -0.183939,2.57296 0.630942,5.89175 -1.981202,7.52865 -2.048757,2.50173 0.452434,6.48581 3.510256,6.36453 2.701048,0.2031 5.876561,-2.20515 5.133941,-5.11581 -0.804633,-1.89919 -4.28983,-3.70874 -2.226093,-5.95668 1.139914,-2.70212 2.506522,-5.85089 5.055332,-6.79454 5.905795,-3.34466 10.775965,-8.94714 8.660975,-15.4903 -1.700846,-3.04525 3.073673,-2.59705 4.354561,-4.04819 1.572863,-2.20057 0.09475,-6.14898 -2.868476,-5.90178 -2.237709,0.59051 -2.483565,6.06235 -5.508888,3.29773 -1.860771,-1.98619 -4.0368,-3.79688 -6.837616,-4.15796 -1.950869,-0.28411 -5.399864,-0.5712 -4.072374,-3.31124 0.221079,-1.41779 -0.462235,-3.19394 -2.220416,-2.72691 z"
         style="fill:#c0c0c0;fill-opacity:1;fill-rule:nonzero;stroke:none;stroke-width:10;marker:none;visibility:visible;display:inline;overflow:visible;enable-background:accumulate" />
      <path
         sodipodi:nodetypes="cccccccccccccccccc"
         id="path3277"
         d="m 98.668905,133.77531 c -2.66888,-0.31887 -4.885927,3.35025 -2.927578,5.40784 1.236828,2.26634 3.976987,8.58902 4.208268,11.00497 0.329365,1.93185 -0.427811,4.05242 -2.552683,4.39883 -2.372114,1.28533 -4.079897,3.65435 -4.92105,6.16977 -0.153493,1.48152 -0.328034,3.38238 -2.295135,2.66163 -1.618864,-0.12796 -3.931328,1.38572 -2.588244,3.09885 1.560034,1.52596 4.906832,-1.01294 5.533526,1.93181 1.896353,4.57327 7.232981,4.43352 12.063911,3.72383 5.97772,-0.70742 10.53303,-4.77789 8.83991,-9.85933 0.30051,-2.53186 3.64668,-2.07485 5.54602,-1.73408 1.81425,-0.23983 2.96841,-3.59377 2.31873,-5.51478 -1.63685,-2.56344 -5.48886,-1.963 -7.51353,0.16539 -0.45735,2.11275 -3.81129,2.88563 -4.65211,0.24731 -1.53125,-1.42072 -4.29016,-1.334 -5.02133,-3.51147 -0.29164,-2.33036 -5.817115,-8.38309 -4.938405,-10.74902 0.980335,-1.69246 3.609735,-3.23243 2.209485,-5.48211 -0.636,-1.17927 -1.94223,-2.05078 -3.309785,-1.95944 z"
         style="fill:#c0c0c0;fill-opacity:1;fill-rule:nonzero;stroke:none;stroke-width:10;marker:none;visibility:visible;display:inline;overflow:visible;enable-background:accumulate" />
      <path
         sodipodi:nodetypes="ccccccccccccccc"
         id="path3279"
         d="m 164.91129,156.99427 c -6.48897,-2.23239 -10.60913,1.30915 -9.25484,7.35959 0.5005,6.59186 0.57766,11.987 7.61656,13.06426 2.08822,1.52733 1.11689,4.86099 -1.21827,5.27954 -2.03776,0.98276 -2.6524,4.33418 -0.4694,5.49694 2.78084,1.8674 7.39986,1.57649 9.10177,-1.59253 0.83674,-2.63031 -2.92956,-4.03392 -2.29267,-6.65587 -0.55547,-3.17138 3.61331,-2.31346 5.26981,-3.38298 1.64458,-0.9801 4.20579,-1.92712 5.61047,-0.0244 1.34952,2.35275 4.96359,2.72275 5.54748,5.62266 0.85326,2.2213 4.92977,2.11333 5.17876,-0.44774 0.0299,-2.27332 -2.40683,-3.14687 -4.03996,-4.14192 -2.11817,-1.58522 -5.46403,-2.30664 -7.79435,-3.70434 5.38533,-5.13798 5.51764,-8.99053 -0.6823,-14.17384 -3.60634,-1.68452 -9.07957,-1.73577 -12.57306,-2.69938 z"
         style="fill:#c0c0c0;fill-opacity:1;fill-rule:nonzero;stroke:none;stroke-width:10;marker:none;visibility:visible;display:inline;overflow:visible;enable-background:accumulate" />
      <path
         sodipodi:nodetypes="ccccccccccccccccccccccc"
         id="path3281"
         d="m 212.55957,137.66626 c -1.87468,1.87621 -1.06143,5.09427 -0.16612,7.33083 0.31039,2.27804 2.83516,1.29357 2.92251,-0.5179 1.61141,0.96055 5.43052,4.51921 5.2963,7.02492 -1.21612,3.68257 -3.77897,1.35874 -5.61327,3.48561 -0.9434,2.37069 -3.01593,5.22076 -1.44426,7.84954 1.64562,2.43036 4.56942,0.53706 5.74114,-1.53799 1.32751,-2.5088 4.07725,-7.97947 6.11615,-5.25247 1.69057,2.23804 3.57391,4.74395 6.27762,5.05851 1.5909,0.37707 3.6684,0.44381 4.60445,2.2224 1.13533,3.55432 0.68854,7.51179 1.87228,11.05145 0.41027,3.07724 -2.17045,5.87602 -0.92471,8.94423 1.02022,3.1259 5.49078,3.96429 6.71964,0.63651 1.22275,-3.22385 -1.3484,-5.85719 -2.31963,-8.60783 -1.24286,-3.59283 -0.80471,-7.64708 -1.87426,-11.31028 0.16995,-3.40526 3.3663,-4.45592 5.40636,-6.04066 2.0837,-1.56675 3.92137,-4.85467 2.54798,-7.7282 -2.13376,-4.73557 -6.7274,-6.823 -9.28005,-11.16834 -1.55953,-2.24463 -3.35923,-5.22848 -6.14945,-4.92755 -2.73584,0.33193 -5.09122,2.20394 -7.38267,3.83461 -2.10734,1.51148 -2.80209,4.66843 -3.33451,6.9666 -2.3101,0.42835 -5.31812,-4.91222 -6.8171,-6.5469 -0.51006,-0.77239 -1.4092,-1.37786 -2.1984,-0.76709 z"
         style="fill:#c0c0c0;fill-opacity:1;fill-rule:nonzero;stroke:none;stroke-width:10;marker:none;visibility:visible;display:inline;overflow:visible;enable-background:accumulate" />
      <path
         sodipodi:nodetypes="cccccccccccccccc"
         id="path3283"
         d="m 50.226671,197.40551 c -2.636032,0.12345 -3.683754,3.89151 -1.9375,5.65625 0.256887,1.54394 -1.381419,3.0092 -2.529199,1.50785 -7.03544,-2.59896 -9.579374,3.45411 -11.279843,10.91361 -1.322409,5.36367 -5.142907,9.8731 -0.09159,12.3087 2.017853,1.63992 4.392472,3.36287 5.302756,5.86698 1.036837,2.17456 -0.534838,3.80771 -2.138748,4.91198 -1.642682,2.48687 -0.03246,6.3167 2.960771,6.74097 2.979018,0.77392 6.08954,-2.24218 5.296947,-5.24617 -0.853537,-2.45701 -1.971444,-4.84213 -3.520107,-6.9437 -1.294876,-1.97604 0.123135,-4.58398 2.547331,-3.92522 3.442425,-0.81915 6.502131,-3.19342 8.268065,-6.25684 2.232017,-3.70104 2.274538,-8.54904 0.06666,-12.27148 -0.8056,-1.42922 -1.882489,-2.70669 -3.164291,-3.73168 0.201668,-2.62632 3.384926,-4.14052 2.968413,-6.91234 -0.23944,-1.32184 -1.30782,-2.64282 -2.749663,-2.61891 z"
         style="fill:#c0c0c0;fill-opacity:1;fill-rule:nonzero;stroke:none;stroke-width:10;marker:none;visibility:visible;display:inline;overflow:visible;enable-background:accumulate" />
      <path
         sodipodi:nodetypes="cccccccccccccccccccc"
         id="path3285"
         d="m 84.306948,197.31017 c -3.182395,-0.47937 -4.413841,4.1614 -1.792698,5.72208 1.162059,2.15008 -0.05737,4.58004 0.30998,6.85582 -0.939033,2.40211 -1.280188,5.49916 -3.814802,6.82089 -1.338037,1.29868 -3.220337,3.10986 -5.22552,2.26232 -0.901415,-1.52234 -2.755318,-3.51282 -4.399436,-1.44988 -2.207535,3.08468 2.611229,3.9166 4.233079,5.50582 2.045218,2.42296 3.645408,2.76287 6.492536,4.61592 2.007433,1.59711 2.866652,5.89715 5.415611,5.57328 0.942973,4.98661 1.876387,9.97507 2.78125,14.96875 -2.059441,1.35927 0.0085,4.10186 1.95171,4.13973 2.14665,0.27323 3.96207,-2.30871 2.30699,-4.07307 -1.61001,-1.09337 -2.01668,-2.87977 -2.23495,-4.73993 -0.1746,-1.97954 -0.94127,-3.83885 -1.17935,-5.79289 0.05327,-2.42297 0.17321,-5.18736 1.80989,-7.11443 1.54496,-1.91526 1.02743,-5.5515 0.71836,-8.13355 -0.04557,-3.58864 -0.47785,-5.59266 -3.864044,-6.7792 -2.483702,-1.44439 -2.580364,-4.60071 -2.381984,-7.1352 0.07552,-2.67907 -0.07716,-5.22463 1.867741,-7.29315 1.281817,-2.17838 -0.927411,-4.01221 -2.994363,-3.95331 z"
         style="fill:#c0c0c0;fill-opacity:1;fill-rule:nonzero;stroke:none;stroke-width:10;marker:none;visibility:visible;display:inline;overflow:visible;enable-background:accumulate" />
      <path
         sodipodi:nodetypes="cccccccsccccccccccc"
         id="path3287"
         d="m 152.29043,196.18729 c -2.77491,0.67644 -3.6202,4.35095 -2.32033,6.63218 0.98595,3.01819 1.31803,6.37159 0.55341,9.45923 -1.39755,2.41438 -4.50004,3.28883 -5.60288,5.94425 -1.15809,1.97576 -1.71778,4.25958 -1.82556,6.53553 -1.45765,2.38447 -4.43962,2.85882 -6.96435,3.23427 -2.68007,1.31216 -0.24569,5.90396 2.36185,4.20658 1.73723,-0.89774 3.76422,-4.62352 5.80551,-2.22515 1.33815,1.56944 8.1848,0.86755 10.15544,1.83265 6.08518,4.07482 11.58045,2.48782 13.11554,0.51069 2.68212,-3.44298 -1.66921,-6.78309 -3.47959,-10.80558 -0.28083,-2.61149 7.84024,-5.99026 7.24939,-8.64071 0.0551,-2.64768 -4.52698,-4.4619 -5.1804,-1.27994 -0.83117,2.21505 -3.33339,2.43177 -4.81871,0.82674 -1.76726,-0.65661 -4.28307,0.017 -5.35095,-1.93454 -0.55426,-2.33203 -2.99491,-4.8799 -1.45718,-7.24358 1.33974,-2.29891 0.71788,-6.41666 -2.24119,-7.05262 z m 1.1875,14.875 c 1.3645,0.85942 -0.83927,1.30677 0,0 z"
         style="fill:#c0c0c0;fill-opacity:1;fill-rule:nonzero;stroke:none;stroke-width:10;marker:none;visibility:visible;display:inline;overflow:visible;enable-background:accumulate" />
      <path
         sodipodi:nodetypes="cccccccccccccccccccccc"
         id="path3289"
         d="m 231.83177,212.05419 c -2.8947,0.27664 -4.33397,3.47093 -4.3146,6.07192 -0.11868,2.54157 0.93519,5.41057 3.35932,6.55402 0.90711,2.18508 0.51088,4.62097 1.1126,6.87444 -0.59554,2.12236 -2.81263,4.04233 -5.10611,3.39376 -2.53347,0.13579 -4.16074,-2.1841 -6.24717,-2.79318 -2.17539,0.61178 -2.61909,3.77024 -1.35886,5.41431 1.77828,2.36004 4.03695,-1.04089 6.08352,0.20948 1.89837,0.91859 2.56976,3.29711 1.79441,5.17901 -0.61808,1.58629 -1.55474,3.22643 -3.02347,4.14046 -2.12859,0.25628 -4.72937,1.2352 -4.16994,3.91421 0.095,2.15478 2.67643,3.94791 4.60258,2.67912 1.68574,-1.08788 1.73115,-3.28326 2.74701,-4.81521 1.5582,-2.06025 3.93348,-0.65433 5.31821,0.73315 4.80986,2.86269 8.06862,-3.79273 8.75713,-5.83981 2.07723,-4.11863 4.07623,-9.0836 2.45096,-10.88796 -1.80445,-1.39911 -4.08503,-2.2306 -6.38059,-2.14022 -0.96536,-2.42945 -1.6906,-4.99284 -3.15625,-7.1875 2.71315,-3.13662 2.48824,-8.65209 -1.01331,-11.12509 -0.44602,-0.23711 -0.94798,-0.38017 -1.45544,-0.37491 z m -3.46875,32.96875 c 1.18298,1.17069 -1.47842,0.6938 0,0 z"
         style="fill:#c0c0c0;fill-opacity:1;fill-rule:nonzero;stroke:none;stroke-width:10;marker:none;visibility:visible;display:inline;overflow:visible;enable-background:accumulate" />
      <path
         sodipodi:nodetypes="ccccccccccccccccccc"
         id="path3301"
         d="m 31.40625,5.625 c -2.428133,-0.4447742 -4.223813,2.7806521 -2.898834,4.740507 0.702737,2.396819 1.267249,5.291792 0.675995,8.335809 -0.176822,2.781462 -0.187836,6.275197 -1.605021,8.438871 -1.829719,1.098324 -4.009803,2.757803 -5.336197,5.700649 -2.949498,3.72392 -3.507956,8.574103 -0.325734,10.697662 3.968857,2.334524 9.710512,1.869878 14.050381,-0.005 2.045628,-1.227259 8.025052,-0.557589 9.286573,1.621883 1.350201,2.104726 4.011307,3.077854 6.319,1.97627 2.391868,-0.503451 2.792276,-3.713594 0.621568,-4.834093 -1.455441,-1.165067 -3.279722,-0.830054 -4.921028,-0.492512 -2.41012,-0.170859 -7.454832,-2.243347 -7.313072,-4.208446 0.04842,-2.320024 -0.792864,-4.46896 -1.009602,-7.046443 -1.628512,-4.086697 -5.583015,-4.537286 -6.340687,-9.47689 -0.611234,-3.135024 -0.813399,-6.746259 0.05946,-9.928936 C 33.308032,9.6931556 36.122101,7.8244481 33.982081,6.2016087 33.176792,5.8621085 32.290605,5.6015638 31.40625,5.625 z m -0.156729,19.325086 c 0.34338,-0.06811 -0.20074,0.445392 0,0 z"
         style="fill:#c0c0c0;fill-opacity:1;fill-rule:nonzero;stroke:none;stroke-width:10;marker:none;visibility:visible;display:inline;overflow:visible;enable-background:accumulate" />
    </g>
  </g>
</svg>
